<svg id="Camada_1" data-name="Camada 1" xmlns="http://www.w3.org/2000/svg" viewBox="0 0 120.579 111.67">
  <defs>
    <style>
      .cls-1 {
        fill: #d4d4d4;
      }

      .cls-2 {
        fill: #00303f;
      }
    </style>
  </defs>
  <g>
    <path class="cls-1" d="M89.733,99.858H50.24V36.865H89.733Zm-37.42-1.929H87.66V38.794H52.313Z" transform="translate(-1.031 -0.973)"/>
    <rect class="cls-1" x="28.891" y="89.704" width="37.42" height="21.966"/>
    <polygon class="cls-1" points="54.942 1.732 50.125 3.464 52.647 5.428 35.25 24.776 22.426 14.791 0 39.731 2.621 41.772 22.854 19.27 35.357 29.005 35.678 29.255 55.268 7.468 57.793 9.434 58.776 4.717 59.758 0 54.942 1.732"/>
    <rect class="cls-1" x="2.978" y="51.588" width="10.172" height="28.424"/>
    <rect class="cls-1" x="17.177" y="35.411" width="10.173" height="44.914"/>
    <rect class="cls-1" x="31.4" y="42.179" width="10.173" height="38.146"/>
    <rect class="cls-1" x="45.623" y="26.966" width="10.173" height="53.359"/>
    <rect class="cls-1" x="77.463" y="58.755" width="43.116" height="52.16"/>
    <rect class="cls-2" x="82.511" y="62.818" width="33.019" height="14.347"/>
    <polygon class="cls-2" points="96.517 83.927 92.334 83.927 92.334 80.035 88.787 80.035 88.787 83.927 84.604 83.927 84.604 87.229 88.787 87.229 88.787 91.121 92.334 91.121 92.334 87.229 96.517 87.229 96.517 83.927"/>
    <polygon class="cls-2" points="96.027 97.935 93.518 95.601 90.561 98.353 87.603 95.601 85.094 97.935 88.052 100.687 85.094 103.439 87.603 105.774 90.561 103.022 93.518 105.774 96.027 103.439 93.069 100.687 96.027 97.935"/>
    <rect class="cls-2" x="101.704" y="83.927" width="11.913" height="3.301"/>
    <g>
      <polygon class="cls-2" points="110.618 95.601 113.126 97.935 104.703 105.774 102.194 103.439 110.618 95.601"/>
      <path class="cls-2" d="M106.37,96.626a1.934,1.934,0,0,1,0,2.874,2.3,2.3,0,0,1-3.087,0,1.934,1.934,0,0,1,0-2.874A2.3,2.3,0,0,1,106.37,96.626Z" transform="translate(-1.031 -0.973)"/>
      <path class="cls-2" d="M114.1,103.82a1.934,1.934,0,0,1,0,2.873,2.3,2.3,0,0,1-3.088,0,1.933,1.933,0,0,1,0-2.873A2.3,2.3,0,0,1,114.1,103.82Z" transform="translate(-1.031 -0.973)"/>
    </g>
  </g>
</svg>
