<svg id="Camada_1" data-name="Camada 1" xmlns="http://www.w3.org/2000/svg" viewBox="0 0 117.864 75.771">
  <defs>
    <style>
      .cls-1 {
        fill: #d4d4d4;
      }
    </style>
  </defs>
  <g>
    <polygon class="cls-1" points="115.652 41.668 115.652 20.366 112.403 21.469 112.403 41.668 115.652 41.668"/>
    <path class="cls-1" d="M96.141,33.843,59.745,46.2a3.221,3.221,0,0,1-2.077,0L21.273,33.843V64.4h.039l-.083.42c0,3.636,16.782,11.753,37.457,11.753S96.1,68.458,96.1,64.822l-.085-.42h.128Z" transform="translate(-0.026 -0.803)"/>
    <polygon class="cls-1" points="21.248 27 58.683 39.709 96.116 27 112.403 21.469 115.652 20.366 117.362 19.786 58.683 0 0 19.786 21.248 27"/>
    <path class="cls-1" d="M110.215,47.463V59.9a3.838,3.838,0,1,0,7.675,0V47.463a3.834,3.834,0,0,0-1.1-2.695h-5.464A3.832,3.832,0,0,0,110.215,47.463Z" transform="translate(-0.026 -0.803)"/>
    <polygon class="cls-1" points="110.806 41.668 110.806 43.964 111.296 43.964 116.76 43.964 117.247 43.964 117.247 41.668 115.652 41.668 112.403 41.668 110.806 41.668"/>
  </g>
</svg>
