<svg xmlns="http://www.w3.org/2000/svg" xmlns:xlink="http://www.w3.org/1999/xlink" viewBox="0 0 388.285 222.803">
  <defs>
    <style>
      .cls-1 {
        isolation: isolate;
      }

      .cls-2 {
        fill: #0071bc;
        fill-rule: evenodd;
        opacity: 0.1;
      }

      .cls-3 {
        fill: #7ce9f7;
      }

      .cls-4 {
        fill: #b3eefc;
      }

      .cls-5 {
        fill: #00718f;
      }

      .cls-6 {
        fill: #fff;
      }

      .cls-7 {
        fill: #e30707;
      }

      .cls-8 {
        fill: #006f97;
      }

      .cls-24, .cls-9 {
        fill: #e3fdff;
      }

      .cls-23, .cls-9 {
        mix-blend-mode: multiply;
      }

      .cls-10 {
        fill: #ff2942;
      }

      .cls-11 {
        fill: #3ababa;
      }

      .cls-12 {
        fill: #1a3151;
      }

      .cls-13 {
        fill: #42ada9;
      }

      .cls-14 {
        fill: #005578;
      }

      .cls-15 {
        fill: #389192;
      }

      .cls-16 {
        fill: #f7ad3e;
      }

      .cls-17 {
        fill: #e6e7e8;
      }

      .cls-18 {
        fill: #301606;
      }

      .cls-19 {
        fill: #48d4e4;
      }

      .cls-20 {
        fill: #fcd751;
      }

      .cls-21 {
        fill: url(#Gradiente_sem_nome_8);
      }

      .cls-22 {
        fill: url(#Gradiente_sem_nome_8-2);
      }

      .cls-25 {
        fill: #002254;
      }
    </style>
    <linearGradient id="Gradiente_sem_nome_8" data-name="Gradiente sem nome 8" x1="51.697" y1="83.56" x2="84.194" y2="83.56" gradientUnits="userSpaceOnUse">
      <stop offset="0" stop-color="#3d9191"/>
      <stop offset="1" stop-color="#3d9191"/>
    </linearGradient>
    <linearGradient id="Gradiente_sem_nome_8-2" x1="88.189" y1="110.511" x2="92.566" y2="110.511" xlink:href="#Gradiente_sem_nome_8"/>
  </defs>
  <g class="cls-1">
    <g id="Camada_1" data-name="Camada 1">
      <path class="cls-2" d="M153.651,1.163c49.8,0,87.41,23.8,133.048,37.976,18.162,5.643,39.559,8.335,55.755,17.956,40.226,23.9,31.481,66.726,9.109,98.022-25.093,35.1-58.674,19.427-98.713,23.531-40.1,4.111-48.33,41.624-85.582,44.9C97.815,229.644.8,168.736.807,103.537.809,47,69.239,1.163,153.651,1.163Z" transform="translate(-0.807 -1.163)"/>
      <g>
        <path class="cls-3" d="M114.687,124c-.026.591-.365,1.051-.76,1.029l-3.76-.212c-.392-.024-.689-.519-.661-1.108l.154-3.361c.028-.591.368-1.053.763-1.029l3.755.211c.392.022.69.518.662,1.109Z" transform="translate(-0.807 -1.163)"/>
        <path class="cls-3" d="M113.187,156.727c.028-.592-.269-1.087-.662-1.109l-3.76-.211c-.39-.023-.731.439-.758,1.028l-.153,3.362c-.026.59.268,1.087.663,1.109l3.76.211c.392.022.73-.439.756-1.027Z" transform="translate(-0.807 -1.163)"/>
        <path class="cls-3" d="M106.931,124.316a1.023,1.023,0,0,1-.2,1.311l-3.349,1.9c-.348.2-.831-.067-1.073-.593l-1.382-3a1.036,1.036,0,0,1,.193-1.313l3.353-1.9c.349-.2.83.067,1.072.591Z" transform="translate(-0.807 -1.163)"/>
        <path class="cls-3" d="M120.381,153.493c-.243-.526-.72-.792-1.073-.593l-3.349,1.9a1.031,1.031,0,0,0-.2,1.311l1.382,3c.244.526.724.791,1.074.592l3.354-1.9a1.035,1.035,0,0,0,.192-1.313Z" transform="translate(-0.807 -1.163)"/>
        <path class="cls-3" d="M100.358,128.894a1.02,1.02,0,0,1,.425,1.247l-2.046,3.5a.81.81,0,0,1-1.2.083L95,131.9a1.014,1.014,0,0,1-.424-1.245l2.044-3.509a.809.809,0,0,1,1.194-.08Z" transform="translate(-0.807 -1.163)"/>
        <path class="cls-3" d="M125.155,146.7a.812.812,0,0,0-1.2.081l-2.043,3.51a1.011,1.011,0,0,0,.424,1.245l2.544,1.825a.808.808,0,0,0,1.2-.082l2.042-3.5a1.013,1.013,0,0,0-.422-1.246Z" transform="translate(-0.807 -1.163)"/>
        <path class="cls-3" d="M96.73,136.51a.9.9,0,0,1,.93.842l-.193,4.17a.881.881,0,0,1-1,.737l-3.029-.171a.9.9,0,0,1-.928-.845l.19-4.168a.873.873,0,0,1,1-.734Z" transform="translate(-0.807 -1.163)"/>
        <path class="cls-3" d="M126.229,138.173a.879.879,0,0,0-1,.732l-.19,4.173a.9.9,0,0,0,.927.843l3.03.172a.88.88,0,0,0,1-.736l.191-4.17a.9.9,0,0,0-.928-.844Z" transform="translate(-0.807 -1.163)"/>
        <path class="cls-3" d="M97.02,145.116a.814.814,0,0,1,1.181.215l1.716,3.72a1,1,0,0,1-.537,1.19l-2.7,1.532a.816.816,0,0,1-1.183-.214l-1.715-3.721a1,1,0,0,1,.533-1.191Z" transform="translate(-0.807 -1.163)"/>
        <path class="cls-3" d="M123.312,130.189a.993.993,0,0,0-.53,1.192l1.71,3.718a.816.816,0,0,0,1.185.215l2.7-1.531a1,1,0,0,0,.532-1.191l-1.714-3.72a.813.813,0,0,0-1.182-.215Z" transform="translate(-0.807 -1.163)"/>
        <path class="cls-3" d="M101.147,152.409c.289-.5.793-.7,1.121-.469l3.161,2.267a1.041,1.041,0,0,1,.074,1.33l-1.648,2.828c-.29.493-.792.7-1.122.466l-3.162-2.269a1.04,1.04,0,0,1-.073-1.327Z" transform="translate(-0.807 -1.163)"/>
        <path class="cls-3" d="M117.192,124.894a1.04,1.04,0,0,0,.075,1.328l3.161,2.268c.329.236.832.029,1.122-.469L123.2,125.2a1.04,1.04,0,0,0-.078-1.328l-3.156-2.27c-.333-.236-.835-.026-1.126.471Z" transform="translate(-0.807 -1.163)"/>
        <path class="cls-4" d="M112.151,122.634c-8.747-.493-16.2,6.98-16.646,16.687s6.287,17.979,15.04,18.475,16.2-6.979,16.644-16.689S120.9,123.129,112.151,122.634Zm-1.332,29.156c-5.762-.325-10.2-5.769-9.9-12.164s5.2-11.312,10.96-10.988,10.2,5.772,9.9,12.164S116.58,152.115,110.819,151.79Z" transform="translate(-0.807 -1.163)"/>
        <path class="cls-3" d="M335.505,44.577c-.019.4-.246.708-.513.694l-2.526-.143c-.267-.016-.467-.347-.446-.745l.1-2.26c.017-.4.247-.709.515-.692l2.525.141c.264.015.462.35.446.747Z" transform="translate(-0.807 -1.163)"/>
        <path class="cls-3" d="M334.494,66.594c.02-.4-.18-.731-.443-.745l-2.528-.141c-.264-.018-.5.294-.511.691l-.1,2.262c-.02.395.18.728.447.744l2.529.142c.262.015.491-.3.506-.692Z" transform="translate(-0.807 -1.163)"/>
        <path class="cls-3" d="M330.288,44.794a.69.69,0,0,1-.131.882L327.9,46.957c-.234.131-.557-.046-.721-.4l-.928-2.015a.7.7,0,0,1,.127-.883l2.258-1.279c.235-.135.556.046.72.4Z" transform="translate(-0.807 -1.163)"/>
        <path class="cls-3" d="M339.332,64.419c-.163-.353-.484-.533-.719-.4l-2.251,1.28a.7.7,0,0,0-.135.884l.932,2.015c.163.354.485.534.721.4l2.255-1.276a.7.7,0,0,0,.129-.885Z" transform="translate(-0.807 -1.163)"/>
        <path class="cls-3" d="M325.867,47.874a.684.684,0,0,1,.284.838l-1.375,2.358a.543.543,0,0,1-.805.056L322.26,49.9a.682.682,0,0,1-.286-.837L323.35,46.7a.543.543,0,0,1,.8-.054Z" transform="translate(-0.807 -1.163)"/>
        <path class="cls-3" d="M342.544,59.851a.545.545,0,0,0-.8.055l-1.375,2.361a.677.677,0,0,0,.286.835l1.71,1.229a.549.549,0,0,0,.808-.053l1.371-2.359a.672.672,0,0,0-.283-.836Z" transform="translate(-0.807 -1.163)"/>
        <path class="cls-3" d="M323.426,53a.606.606,0,0,1,.626.565l-.13,2.805a.59.59,0,0,1-.672.495l-2.038-.115a.606.606,0,0,1-.623-.569l.127-2.8a.588.588,0,0,1,.673-.492Z" transform="translate(-0.807 -1.163)"/>
        <path class="cls-3" d="M343.268,54.116a.59.59,0,0,0-.672.493l-.132,2.8a.608.608,0,0,0,.626.569l2.041.116a.589.589,0,0,0,.667-.5l.128-2.8a.609.609,0,0,0-.622-.568Z" transform="translate(-0.807 -1.163)"/>
        <path class="cls-3" d="M323.622,58.786a.546.546,0,0,1,.795.143l1.153,2.5a.671.671,0,0,1-.361.8l-1.815,1.032a.548.548,0,0,1-.8-.145l-1.153-2.5a.668.668,0,0,1,.359-.8Z" transform="translate(-0.807 -1.163)"/>
        <path class="cls-3" d="M341.306,48.745a.671.671,0,0,0-.359.8l1.15,2.5a.549.549,0,0,0,.8.145l1.814-1.03a.68.68,0,0,0,.365-.8l-1.155-2.5a.552.552,0,0,0-.8-.146Z" transform="translate(-0.807 -1.163)"/>
        <path class="cls-3" d="M326.4,63.692c.2-.335.533-.478.754-.318l2.126,1.526a.7.7,0,0,1,.049.893l-1.11,1.9c-.193.333-.53.473-.752.315l-2.127-1.528a.7.7,0,0,1-.051-.892Z" transform="translate(-0.807 -1.163)"/>
        <path class="cls-3" d="M337.19,45.183a.7.7,0,0,0,.048.893l2.126,1.526c.225.159.559.02.758-.315l1.108-1.9a.7.7,0,0,0-.052-.895l-2.124-1.525c-.222-.159-.56-.019-.756.314Z" transform="translate(-0.807 -1.163)"/>
        <path class="cls-4" d="M333.8,43.663c-5.887-.332-10.9,4.7-11.2,11.224s4.229,12.093,10.115,12.426,10.9-4.7,11.2-11.224S339.684,44,333.8,43.663Zm-.9,19.612c-3.876-.219-6.859-3.881-6.663-8.184s3.5-7.607,7.373-7.389,6.859,3.882,6.659,8.181S336.777,63.492,332.9,63.275Z" transform="translate(-0.807 -1.163)"/>
        <path class="cls-5" d="M216.659,105.07c0-34.229,25.01-61.972,55.853-61.972V33.008c-35.806,0-64.941,32.322-64.941,72.062s29.135,72.063,64.941,72.063V167.042C241.669,167.042,216.659,139.3,216.659,105.07Z" transform="translate(-0.807 -1.163)"/>
        <path class="cls-6" d="M216.659,105.07c0,34.229,25.01,61.972,55.853,61.972V156.956c-25.776,0-46.756-23.275-46.756-51.886s20.98-51.887,46.756-51.887V43.1C241.669,43.1,216.659,70.841,216.659,105.07Z" transform="translate(-0.807 -1.163)"/>
        <path class="cls-5" d="M234.849,105.07c0-23.048,16.892-41.8,37.663-41.8V53.183c-25.776,0-46.756,23.277-46.756,51.887s20.98,51.886,46.756,51.886V146.863C251.741,146.863,234.849,128.117,234.849,105.07Z" transform="translate(-0.807 -1.163)"/>
        <path class="cls-6" d="M234.849,105.07c0,23.047,16.892,41.793,37.663,41.793V136.781c-15.754,0-28.574-14.229-28.574-31.711s12.82-31.708,28.574-31.708V63.272C251.741,63.272,234.849,82.022,234.849,105.07Z" transform="translate(-0.807 -1.163)"/>
        <path class="cls-5" d="M253.028,105.07c0-11.919,8.74-21.62,19.484-21.62V73.362c-15.754,0-28.574,14.222-28.574,31.708s12.82,31.711,28.574,31.711V126.693C261.768,126.693,253.028,116.991,253.028,105.07Z" transform="translate(-0.807 -1.163)"/>
        <path class="cls-6" d="M253.028,105.07c0,11.921,8.74,21.623,19.484,21.623V116.6c-5.734,0-10.393-5.172-10.393-11.532s4.659-11.53,10.393-11.53V83.45C261.768,83.45,253.028,93.151,253.028,105.07Z" transform="translate(-0.807 -1.163)"/>
        <path class="cls-5" d="M262.119,105.07c0,6.36,4.659,11.532,10.393,11.532V93.54C266.778,93.54,262.119,98.711,262.119,105.07Z" transform="translate(-0.807 -1.163)"/>
        <path class="cls-7" d="M272.512,33.008V43.1c30.845,0,55.845,27.743,55.845,61.972s-25,61.972-55.845,61.972v10.091c35.809,0,64.938-32.327,64.938-72.063S308.321,33.008,272.512,33.008Z" transform="translate(-0.807 -1.163)"/>
        <path class="cls-8" d="M272.512,33.008V43.1c30.845,0,55.845,27.743,55.845,61.972s-25,61.972-55.845,61.972v10.091c35.809,0,64.938-32.327,64.938-72.063S308.321,33.008,272.512,33.008Z" transform="translate(-0.807 -1.163)"/>
        <path class="cls-6" d="M319.269,105.07c0,28.611-20.978,51.886-46.757,51.886v10.086c30.845,0,55.845-27.743,55.845-61.972s-25-61.972-55.845-61.972V53.183C298.291,53.183,319.269,76.46,319.269,105.07Z" transform="translate(-0.807 -1.163)"/>
        <path class="cls-9" d="M319.269,105.07c0,28.611-20.978,51.886-46.757,51.886v10.086c30.845,0,55.845-27.743,55.845-61.972s-25-61.972-55.845-61.972V53.183C298.291,53.183,319.269,76.46,319.269,105.07Z" transform="translate(-0.807 -1.163)"/>
        <path class="cls-10" d="M319.269,105.07c0-28.61-20.978-51.887-46.757-51.887V63.272c20.768,0,37.667,18.75,37.667,41.8s-16.9,41.793-37.667,41.793v10.093C298.291,156.956,319.269,133.681,319.269,105.07Z" transform="translate(-0.807 -1.163)"/>
        <path class="cls-8" d="M319.269,105.07c0-28.61-20.978-51.887-46.757-51.887V63.272c20.768,0,37.667,18.75,37.667,41.8s-16.9,41.793-37.667,41.793v10.093C298.291,156.956,319.269,133.681,319.269,105.07Z" transform="translate(-0.807 -1.163)"/>
        <path class="cls-6" d="M301.078,105.07c0,17.482-12.81,31.711-28.566,31.711v10.082c20.768,0,37.667-18.746,37.667-41.793s-16.9-41.8-37.667-41.8v10.09C288.268,73.362,301.078,87.584,301.078,105.07Z" transform="translate(-0.807 -1.163)"/>
        <path class="cls-9" d="M301.078,105.07c0,17.482-12.81,31.711-28.566,31.711v10.082c20.768,0,37.667-18.746,37.667-41.793s-16.9-41.8-37.667-41.8v10.09C288.268,73.362,301.078,87.584,301.078,105.07Z" transform="translate(-0.807 -1.163)"/>
        <path class="cls-10" d="M301.078,105.07c0-17.486-12.81-31.708-28.566-31.708V83.45c10.74,0,19.482,9.7,19.482,21.62s-8.742,21.623-19.482,21.623v10.088C288.268,136.781,301.078,122.552,301.078,105.07Z" transform="translate(-0.807 -1.163)"/>
        <path class="cls-8" d="M301.078,105.07c0-17.486-12.81-31.708-28.566-31.708V83.45c10.74,0,19.482,9.7,19.482,21.62s-8.742,21.623-19.482,21.623v10.088C288.268,136.781,301.078,122.552,301.078,105.07Z" transform="translate(-0.807 -1.163)"/>
        <path class="cls-6" d="M282.9,105.07c0,6.36-4.662,11.532-10.392,11.532v10.091c10.74,0,19.482-9.7,19.482-21.623s-8.742-21.62-19.482-21.62V93.54C278.242,93.54,282.9,98.711,282.9,105.07Z" transform="translate(-0.807 -1.163)"/>
        <path class="cls-9" d="M282.9,105.07c0,6.36-4.662,11.532-10.392,11.532v10.091c10.74,0,19.482-9.7,19.482-21.623s-8.742-21.62-19.482-21.62V93.54C278.242,93.54,282.9,98.711,282.9,105.07Z" transform="translate(-0.807 -1.163)"/>
        <path class="cls-10" d="M282.9,105.07c0-6.359-4.662-11.53-10.392-11.53V116.6C278.242,116.6,282.9,111.43,282.9,105.07Z" transform="translate(-0.807 -1.163)"/>
        <path class="cls-8" d="M282.9,105.07c0-6.359-4.662-11.53-10.392-11.53V116.6C278.242,116.6,282.9,111.43,282.9,105.07Z" transform="translate(-0.807 -1.163)"/>
        <path class="cls-11" d="M272.474,105.975c-5.719-9.476-15.9-20.209-15.9-20.209l-1.552,1.815-1.549,1.807S263.656,100.12,272.474,105.975Z" transform="translate(-0.807 -1.163)"/>
        <path class="cls-12" d="M255.875,88.475s2.429-2.375,1.367-3.488L239.549,66.332l-4.441,5.189,17.7,18.65C253.865,91.289,255.875,88.475,255.875,88.475Z" transform="translate(-0.807 -1.163)"/>
        <polygon class="cls-11" points="219.034 54.261 223.471 49.076 245.287 72.067 240.848 77.257 219.034 54.261"/>
        <path class="cls-13" d="M224.773,55.682s7.147-12.052.683-18.8c-4.776-4.986-16.62-18.1-27.558-9.516-7.157,12.556,5.248,25.012,9.981,30.052C214.29,64.23,224.773,55.682,224.773,55.682Z" transform="translate(-0.807 -1.163)"/>
        <g>
          <path class="cls-6" d="M213.406,26.716a21.475,21.475,0,0,0-2.755-1.251l.652,16.023-14.457.1a25.521,25.521,0,0,0,1.272,2.991l16.008-.116Z" transform="translate(-0.807 -1.163)"/>
          <path class="cls-6" d="M219.881,50.534l-.808-19.86a37.774,37.774,0,0,0-3.434-2.61l.768,18.8-16.96.117a42.127,42.127,0,0,0,2.518,3.675Z" transform="translate(-0.807 -1.163)"/>
        </g>
        <g>
          <path class="cls-4" d="M231.487,102.737c-4.466-7.725-13.763-9.984-20.727-5.029s-9,15.273-4.533,23,13.764,9.982,20.727,5.028S235.949,110.463,231.487,102.737Zm-25.765,18.331c-4.643-8.038-2.528-18.77,4.714-23.922s16.912-2.8,21.555,5.232,2.531,18.767-4.713,23.92S210.366,129.1,205.722,121.068Z" transform="translate(-0.807 -1.163)"/>
          <path class="cls-4" d="M228.827,104.629c-3.524-6.1-10.865-7.883-16.362-3.971s-7.1,12.06-3.578,18.157,10.863,7.882,16.362,3.971S232.351,110.731,228.827,104.629Zm-20.818,14.81c-3.835-6.637-2.09-15.5,3.891-19.757s13.972-2.317,17.807,4.32,2.089,15.5-3.895,19.76S211.843,126.078,208.009,119.439Z" transform="translate(-0.807 -1.163)"/>
          <path class="cls-4" d="M226.168,106.521c-2.584-4.473-7.967-5.779-12-2.911a10.3,10.3,0,0,0-2.623,13.312c2.584,4.474,7.966,5.781,12,2.914A10.3,10.3,0,0,0,226.168,106.521Zm-15.875,11.294c-3.025-5.237-1.648-12.234,3.074-15.593s11.026-1.827,14.051,3.409,1.651,12.235-3.071,15.6S213.32,123.054,210.293,117.815Z" transform="translate(-0.807 -1.163)"/>
          <path class="cls-4" d="M223.507,108.413a5.218,5.218,0,0,0-7.634-1.856,6.555,6.555,0,0,0-1.667,8.474,5.212,5.212,0,0,0,7.632,1.851A6.548,6.548,0,0,0,223.507,108.413Zm-10.927,7.774a8.841,8.841,0,0,1,2.251-11.432,7.041,7.041,0,0,1,10.305,2.5,8.845,8.845,0,0,1-2.252,11.435A7.039,7.039,0,0,1,212.58,116.187Z" transform="translate(-0.807 -1.163)"/>
        </g>
        <path class="cls-6" d="M202.138,164.956,217.675,153.9c1.44-1.025,1.727-3.36.478-5.524a3.793,3.793,0,0,0-2.6-2.13,2.562,2.562,0,0,0-1.884.608l-10.1,7.182a.338.338,0,0,1-.473-.174.42.42,0,0,1,.056-.546l13.274-9.585c1.37-.974,1.7-3.072.378-5.358-.821-1.421-1.38-2.593-2.966-2.749a2.339,2.339,0,0,0-1.749.523l-12.778,9.091a.342.342,0,0,1-.473-.172.422.422,0,0,1,.057-.548l12.811-9.114c-.021.014-.051.018-.072.034l2.7-1.92c1.442-1.026,1.693-3.427.3-5.833-.879-1.521-1.928-2.525-3.4-2.663a4.821,4.821,0,0,0-1.507.5l-16.035,11.41a.34.34,0,0,1-.475-.173.424.424,0,0,1,.057-.547l16.03-11.4,4.037-2.871,7.891-5.614a5.52,5.52,0,0,0,1.409-7.145,4.4,4.4,0,0,0-6.438-1.562l-33.445,23.8c-2.854-1.349,1.308-7.076,8.89-12.162s2.59-12.286,2.59-12.286-.234-1.6-8.924,4.2c-9.785,6.53-13.633,11.849-13.633,11.849a132.794,132.794,0,0,0-5.805,15.343,4.728,4.728,0,0,0-.241,1.525c-.617,4.322-6.074,13.71-2.061,21.05,4.907,8.977,11.319,19.376,11.319,19.376S177.786,184.477,202.138,164.956Z" transform="translate(-0.807 -1.163)"/>
        <polygon class="cls-14" points="171.899 184.712 152.935 151.888 161.985 145.448 180.95 178.275 171.899 184.712"/>
        <polygon class="cls-15" points="160.943 193.165 141.442 159.409 157.617 147.904 177.117 181.658 160.943 193.165"/>
        <polygon class="cls-13" points="151.192 176.288 141.442 159.409 157.617 147.904 167.366 164.78 151.192 176.288"/>
        <polygon class="cls-5" points="167.366 164.78 157.883 148.366 161.985 145.448 171.467 161.863 167.366 164.78"/>
        <g>
          <path class="cls-6" d="M23.744,66.517C19.6,68.029,17.336,72.983,18.7,77.59s5.827,7.106,9.976,5.594,6.407-6.466,5.045-11.071S27.893,65.005,23.744,66.517Zm4.09,13.824a5.116,5.116,0,0,1-6.57-3.69,5.93,5.93,0,0,1,3.32-7.288,5.115,5.115,0,0,1,6.572,3.685A5.942,5.942,0,0,1,27.834,80.341Z" transform="translate(-0.807 -1.163)"/>
          <path class="cls-6" d="M25.656,66.707a.56.56,0,0,1-.31.68l-2.431.885a.478.478,0,0,1-.612-.343l-.474-1.6a.56.56,0,0,1,.308-.68l2.433-.884a.472.472,0,0,1,.61.342Z" transform="translate(-0.807 -1.163)"/>
          <path class="cls-6" d="M30.114,81.771a.471.471,0,0,0-.608-.34l-2.435.885a.549.549,0,0,0-.307.678l.475,1.605a.474.474,0,0,0,.609.342l2.429-.886a.554.554,0,0,0,.311-.681Z" transform="translate(-0.807 -1.163)"/>
          <path class="cls-6" d="M20.629,69.529a.562.562,0,0,1,.213.72l-1.154,2.532a.464.464,0,0,1-.65.239l-1.358-.76a.57.57,0,0,1-.215-.724l1.157-2.531a.461.461,0,0,1,.648-.24Z" transform="translate(-0.807 -1.163)"/>
          <path class="cls-6" d="M33.377,76.679a.465.465,0,0,0-.648.239L31.575,79.45a.566.566,0,0,0,.215.722l1.358.763a.463.463,0,0,0,.65-.238l1.153-2.533a.567.567,0,0,0-.212-.722Z" transform="translate(-0.807 -1.163)"/>
          <path class="cls-6" d="M18.872,75.464a.477.477,0,0,1,.609.344l.8,2.7a.553.553,0,0,1-.31.678l-1.446.524a.474.474,0,0,1-.611-.339l-.8-2.7a.555.555,0,0,1,.308-.678Z" transform="translate(-0.807 -1.163)"/>
          <path class="cls-6" d="M32.447,70.517a.556.556,0,0,0-.311.678l.8,2.7a.478.478,0,0,0,.61.342l1.446-.528a.55.55,0,0,0,.31-.677l-.8-2.7a.477.477,0,0,0-.61-.343Z" transform="translate(-0.807 -1.163)"/>
          <path class="cls-6" d="M21.412,81.045a.461.461,0,0,1,.65-.239l2.283,1.282a.566.566,0,0,1,.215.72l-.686,1.507a.468.468,0,0,1-.65.241L20.94,83.271a.566.566,0,0,1-.215-.72Z" transform="translate(-0.807 -1.163)"/>
          <path class="cls-6" d="M27.858,66.893a.568.568,0,0,0,.215.722l2.285,1.28a.457.457,0,0,0,.647-.237l.689-1.508a.572.572,0,0,0-.214-.722L29.2,65.149a.461.461,0,0,0-.65.237Z" transform="translate(-0.807 -1.163)"/>
        </g>
        <polygon class="cls-6" points="52.971 98.631 49.946 94.308 49.012 95.11 52.045 99.435 55.066 103.767 56.001 102.961 52.971 98.631"/>
        <polygon class="cls-16" points="98.95 62.045 97.624 60.164 96.305 58.27 90.204 59.623 89.718 63.515 91.225 65.668 92.746 67.841 96.253 68.277 98.95 62.045"/>
        <polygon class="cls-17" points="97.624 60.164 96.305 58.27 90.204 59.623 89.718 63.515 91.225 65.668 97.624 60.164"/>
        <polygon class="cls-6" points="97.624 60.164 98.95 62.045 96.253 68.277 92.746 67.841 91.225 65.668 97.624 60.164"/>
        <polygon class="cls-18" points="93.75 66.525 93.228 63.953 91.11 62.749 90.204 59.623 49.946 94.308 51.654 96.753 54.293 100.519 56.001 102.961 96.253 68.277 93.75 66.525"/>
        <polygon class="cls-5" points="54.293 100.519 51.654 96.753 91.11 62.749 93.228 63.953 93.75 66.525 54.293 100.519"/>
        <polygon class="cls-14" points="56.001 102.961 54.293 100.519 93.75 66.525 96.253 68.277 56.001 102.961"/>
        <polygon class="cls-14" points="51.654 96.753 49.946 94.308 90.204 59.623 91.11 62.749 51.654 96.753"/>
        <polygon class="cls-18" points="101.09 57.177 96.305 58.27 97.624 60.164 98.95 62.045 101.09 57.177"/>
        <polygon class="cls-5" points="97.624 60.164 101.09 57.177 98.95 62.045 97.624 60.164"/>
        <polygon class="cls-14" points="97.624 60.164 101.09 57.177 96.305 58.27 97.624 60.164"/>
        <polygon class="cls-17" points="49.012 95.11 52.045 99.435 52.971 98.631 49.946 94.308 49.012 95.11"/>
        <path class="cls-10" d="M52.851,100.6l-3.032-4.324a6.056,6.056,0,0,0-1.909,3.069,6.237,6.237,0,0,0,1.406,4.307s1.322,2.335,3.4,2.579c1.464.159,3.153-1.3,3.153-1.3Z" transform="translate(-0.807 -1.163)"/>
        <polygon class="cls-6" points="55.066 103.767 52.045 99.435 52.971 98.631 56.001 102.961 55.066 103.767"/>
        <path class="cls-4" d="M52.719,106.229c-2.081-.244-3.4-2.579-3.4-2.579l3.535-3.052,3.021,4.332S54.183,106.388,52.719,106.229Z" transform="translate(-0.807 -1.163)"/>
        <path class="cls-4" d="M47.91,99.343a6.237,6.237,0,0,0,1.406,4.307l3.535-3.052-3.032-4.324A6.056,6.056,0,0,0,47.91,99.343Z" transform="translate(-0.807 -1.163)"/>
        <polygon class="cls-6" points="55.624 58.682 59.546 55.361 58.827 54.324 54.909 57.641 50.981 60.968 51.697 62.004 55.624 58.682"/>
        <polygon class="cls-19" points="88.189 110.025 89.898 108.575 91.612 107.124 90.446 100.344 86.95 99.768 84.985 101.429 83.025 103.086 82.594 106.985 88.189 110.025"/>
        <polygon class="cls-17" points="89.898 108.575 91.612 107.124 90.446 100.344 86.95 99.768 84.985 101.429 89.898 108.575"/>
        <polygon class="cls-6" points="89.898 108.575 88.189 110.025 82.594 106.985 83.025 103.086 84.985 101.429 89.898 108.575"/>
        <polygon class="cls-20" points="84.194 104.214 86.519 103.666 87.618 101.319 90.446 100.344 59.546 55.361 57.338 57.234 53.913 60.135 51.697 62.004 82.594 106.985 84.194 104.214"/>
        <polygon class="cls-13" points="53.913 60.135 57.338 57.234 87.618 101.319 86.519 103.666 84.194 104.214 53.913 60.135"/>
        <polygon class="cls-21" points="51.697 62.004 53.913 60.135 84.194 104.214 82.594 106.985 51.697 62.004"/>
        <polygon class="cls-15" points="57.338 57.234 59.546 55.361 90.446 100.344 87.618 101.319 57.338 57.234"/>
        <polygon class="cls-20" points="92.566 112.446 91.612 107.124 89.898 108.575 88.189 110.025 92.566 112.446"/>
        <polygon class="cls-22" points="89.898 108.575 92.566 112.446 88.189 110.025 89.898 108.575"/>
        <polygon class="cls-15" points="89.898 108.575 92.566 112.446 91.612 107.124 89.898 108.575"/>
        <polygon class="cls-17" points="58.827 54.324 54.909 57.641 55.624 58.682 59.546 55.361 58.827 54.324"/>
        <path class="cls-10" d="M55.715,58.805l3.918-3.318s-1.3-1.9-2.735-2.151C54.825,52.973,53,54.86,53,54.86a5.853,5.853,0,0,0-2.353,3.757,6.476,6.476,0,0,0,1.141,3.514Z" transform="translate(-0.807 -1.163)"/>
        <polygon class="cls-6" points="50.981 60.968 54.909 57.641 55.624 58.682 51.697 62.004 50.981 60.968"/>
        <path class="cls-4" d="M50.646,58.617A5.853,5.853,0,0,1,53,54.86l2.716,3.945-3.928,3.326A6.476,6.476,0,0,1,50.646,58.617Z" transform="translate(-0.807 -1.163)"/>
        <path class="cls-4" d="M56.9,53.336C54.825,52.973,53,54.86,53,54.86l2.716,3.945,3.918-3.318S58.338,53.587,56.9,53.336Z" transform="translate(-0.807 -1.163)"/>
        <path class="cls-6" d="M336.459,108.652c-.019-.345-.021-.693-.021-1.049.067-11.115,8.241-20.073,18.254-20s18.087,9.144,18.021,20.258c0,.352-.013.7-.03,1.052-.308,9.2-3.891,11.34-8.657,20.2a14.222,14.222,0,0,0-1.482,7.373l-8.13-.059-8.13-.058a14.11,14.11,0,0,0-1.408-7.387C340.214,120.051,336.659,117.854,336.459,108.652Z" transform="translate(-0.807 -1.163)"/>
        <path class="cls-9" d="M360.045,150.79a2.81,2.81,0,0,0,2.424-2.538,2.365,2.365,0,0,0-.757-1.692,2.732,2.732,0,0,0-.031-3.856,2.827,2.827,0,0,0,.832-1.956,2.781,2.781,0,0,0-.171-.923l1.982.017.031-5.119-1.827-.014a13.691,13.691,0,0,1,1.5-5.6c4.762-8.858,8.349-11,8.657-20.2.013-.346.03-.7.03-1.052.062-11.111-8-20.187-18.021-20.258l-.39,67.035A5.879,5.879,0,0,0,360.045,150.79Z" transform="translate(-0.807 -1.163)"/>
        <path class="cls-14" d="M346.253,140.633a3.156,3.156,0,0,0,3.267,3.015l9.7.074a3.145,3.145,0,0,0,3.295-2.974h0a3.143,3.143,0,0,0-3.267-3.008l-9.691-.072a3.146,3.146,0,0,0-3.3,2.965Z" transform="translate(-0.807 -1.163)"/>
        <path class="cls-13" d="M348.376,149.225c-.018,2.968,2.639,5.39,5.928,5.411s5.976-2.362,5.992-5.325-2.637-5.388-5.926-5.414S348.394,146.263,348.376,149.225Z" transform="translate(-0.807 -1.163)"/>
        <path class="cls-14" d="M346.229,144.552a3.157,3.157,0,0,0,3.264,3.013l9.7.066a3.139,3.139,0,0,0,3.3-2.962h0a3.155,3.155,0,0,0-3.271-3.017l-9.687-.07a3.154,3.154,0,0,0-3.306,2.97Z" transform="translate(-0.807 -1.163)"/>
        <path class="cls-14" d="M346.209,148.14c0,1.47,1.46,2.669,3.269,2.688l9.7.065c1.813.014,3.293-1.169,3.3-2.641h0c.018-1.47-1.453-2.669-3.267-2.691l-9.695-.058c-1.809-.019-3.285,1.165-3.3,2.637Z" transform="translate(-0.807 -1.163)"/>
        <path class="cls-6" d="M353.6,83.563a1.186,1.186,0,0,0,1.115,1.254h0a1.184,1.184,0,0,0,1.129-1.242l.07-11.932a1.2,1.2,0,0,0-1.122-1.261h0a1.189,1.189,0,0,0-1.127,1.244Z" transform="translate(-0.807 -1.163)"/>
        <path class="cls-11" d="M347.669,112.891a1.5,1.5,0,0,0-.433,2.049h0a1.3,1.3,0,0,0,1.772-.04,8.477,8.477,0,0,1,11.053.073,1.293,1.293,0,0,0,1.771.073h0a1.5,1.5,0,0,0-.41-2.059A10.548,10.548,0,0,0,347.669,112.891Z" transform="translate(-0.807 -1.163)"/>
        <path class="cls-6" d="M363.6,85.683a1.314,1.314,0,0,0,.536,1.665h0a1.083,1.083,0,0,0,1.5-.6l4.613-10.784a1.323,1.323,0,0,0-.538-1.667h0a1.092,1.092,0,0,0-1.5.593Z" transform="translate(-0.807 -1.163)"/>
        <path class="cls-6" d="M371.866,92.3a1.351,1.351,0,0,0-.147,1.76h0a1.053,1.053,0,0,0,1.583.162l8.288-7.61a1.346,1.346,0,0,0,.147-1.761h0a1.048,1.048,0,0,0-1.583-.167Z" transform="translate(-0.807 -1.163)"/>
        <path class="cls-6" d="M376.837,102.173a1.265,1.265,0,0,0-.8,1.527h0a1.126,1.126,0,0,0,1.373.893l10.411-3.019a1.257,1.257,0,0,0,.8-1.522h0a1.122,1.122,0,0,0-1.371-.9Z" transform="translate(-0.807 -1.163)"/>
        <path class="cls-6" d="M377.581,113.455a1.132,1.132,0,0,0-1.3,1h0a1.237,1.237,0,0,0,.9,1.451l10.579,2.149a1.146,1.146,0,0,0,1.313-1.007h0a1.248,1.248,0,0,0-.9-1.453Z" transform="translate(-0.807 -1.163)"/>
        <path class="cls-6" d="M373.816,123.908a1.015,1.015,0,0,0-1.482.371h0a1.281,1.281,0,0,0,.18,1.666l7.906,6.229a1.012,1.012,0,0,0,1.482-.361h0a1.28,1.28,0,0,0-.176-1.676Z" transform="translate(-0.807 -1.163)"/>
        <path class="cls-6" d="M368.055,131.4c-.213-.429-.826-.49-1.37-.145h0a1.143,1.143,0,0,0-.585,1.376l3.764,7.345c.215.42.827.486,1.374.146h0a1.163,1.163,0,0,0,.582-1.382Z" transform="translate(-0.807 -1.163)"/>
        <path class="cls-6" d="M345.805,85.555a1.308,1.308,0,0,1-.551,1.654h0a1.081,1.081,0,0,1-1.493-.61l-4.487-10.853a1.309,1.309,0,0,1,.56-1.657h0a1.087,1.087,0,0,1,1.5.613Z" transform="translate(-0.807 -1.163)"/>
        <path class="cls-6" d="M337.463,92.054a1.337,1.337,0,0,1,.128,1.763h0a1.048,1.048,0,0,1-1.586.14l-8.193-7.731a1.339,1.339,0,0,1-.131-1.759h0a1.047,1.047,0,0,1,1.588-.146Z" transform="translate(-0.807 -1.163)"/>
        <path class="cls-6" d="M332.382,101.858a1.27,1.27,0,0,1,.785,1.532h0a1.107,1.107,0,0,1-1.385.871L321.409,101.1a1.266,1.266,0,0,1-.786-1.534h0a1.115,1.115,0,0,1,1.382-.871Z" transform="translate(-0.807 -1.163)"/>
        <path class="cls-6" d="M331.506,113.122a1.142,1.142,0,0,1,1.3,1.026h0a1.236,1.236,0,0,1-.922,1.433l-10.6,2a1.144,1.144,0,0,1-1.3-1.023h0a1.243,1.243,0,0,1,.922-1.437Z" transform="translate(-0.807 -1.163)"/>
        <path class="cls-6" d="M335.153,123.633a1.006,1.006,0,0,1,1.471.387h0a1.284,1.284,0,0,1-.2,1.671l-7.976,6.115a1.021,1.021,0,0,1-1.479-.386h0a1.278,1.278,0,0,1,.2-1.668Z" transform="translate(-0.807 -1.163)"/>
        <path class="cls-6" d="M340.821,131.209c.223-.428.837-.484,1.377-.135h0a1.166,1.166,0,0,1,.568,1.393l-3.846,7.282c-.223.421-.84.482-1.373.133h0a1.161,1.161,0,0,1-.571-1.392Z" transform="translate(-0.807 -1.163)"/>
        <path class="cls-3" d="M356.227,135.994a1.26,1.26,0,0,0,.845,1.5h0a1.132,1.132,0,0,0,1.351-.937l4.206-20.411a1.258,1.258,0,0,0-.847-1.5h0a1.136,1.136,0,0,0-1.35.939Z" transform="translate(-0.807 -1.163)"/>
        <path class="cls-3" d="M352.6,135.957a1.264,1.264,0,0,1-.865,1.491h0a1.127,1.127,0,0,1-1.337-.958l-3.974-20.462a1.259,1.259,0,0,1,.861-1.49h0a1.136,1.136,0,0,1,1.341.961Z" transform="translate(-0.807 -1.163)"/>
        <rect class="cls-11" x="351.847" y="127.27" width="5.118" height="19.876" transform="translate(213.878 489.467) rotate(-89.593)"/>
        <path class="cls-9" d="M354.418,134.648l9.939.068-.026,5.121-1.987-.009a2.653,2.653,0,0,1,.171.92,2.823,2.823,0,0,1-.828,1.956,2.743,2.743,0,0,1,.031,3.853,2.381,2.381,0,0,1,.753,1.7,2.8,2.8,0,0,1-2.419,2.532,5.883,5.883,0,0,1-5.748,3.852h0Z" transform="translate(-0.807 -1.163)"/>
        <g class="cls-23">
          <path class="cls-24" d="M355.839,83.574l.07-11.931a1.2,1.2,0,0,0-1.122-1.261l-.077,14.435A1.186,1.186,0,0,0,355.839,83.574Z" transform="translate(-0.807 -1.163)"/>
          <path class="cls-24" d="M369.712,74.3a1.092,1.092,0,0,0-1.5.593L363.6,85.686a1.309,1.309,0,0,0,.535,1.658,1.084,1.084,0,0,0,1.5-.594l4.6-10.784A1.321,1.321,0,0,0,369.712,74.3Z" transform="translate(-0.807 -1.163)"/>
          <path class="cls-24" d="M381.581,86.606a1.335,1.335,0,0,0,.156-1.756,1.05,1.05,0,0,0-1.585-.164l-8.29,7.613a1.352,1.352,0,0,0-.143,1.76,1.053,1.053,0,0,0,1.583.162Z" transform="translate(-0.807 -1.163)"/>
          <path class="cls-24" d="M376.033,103.7a1.124,1.124,0,0,0,1.375.893l10.411-3.019a1.269,1.269,0,0,0,.8-1.522,1.119,1.119,0,0,0-1.375-.9l-10.413,3.016A1.268,1.268,0,0,0,376.033,103.7Z" transform="translate(-0.807 -1.163)"/>
          <path class="cls-24" d="M388.164,115.6l-10.583-2.148a1.131,1.131,0,0,0-1.306,1,1.25,1.25,0,0,0,.9,1.46l10.582,2.146a1.146,1.146,0,0,0,1.316-1.007A1.247,1.247,0,0,0,388.164,115.6Z" transform="translate(-0.807 -1.163)"/>
          <path class="cls-24" d="M381.726,130.137l-7.91-6.223a1.006,1.006,0,0,0-1.482.365,1.278,1.278,0,0,0,.178,1.667l7.906,6.228a1.015,1.015,0,0,0,1.484-.361A1.294,1.294,0,0,0,381.726,130.137Z" transform="translate(-0.807 -1.163)"/>
          <path class="cls-24" d="M368.055,131.4c-.22-.429-.835-.49-1.373-.145a1.144,1.144,0,0,0-.582,1.376l3.757,7.349c.222.416.834.482,1.377.142a1.165,1.165,0,0,0,.586-1.38Z" transform="translate(-0.807 -1.163)"/>
        </g>
        <path class="cls-4" d="M166.955,74.112a25.772,25.772,0,0,0,3.1-12.357c0-13.2-9.643-23.9-21.541-23.9s-21.537,10.7-21.537,23.9a25.75,25.75,0,0,0,3.1,12.357c5.82,11.545,7,14.307,7.072,19.579.109,7.9,0,14.206,0,14.206h22.734s-.109-6.308,0-14.206C159.952,88.419,161.136,85.657,166.955,74.112Z" transform="translate(-0.807 -1.163)"/>
        <path class="cls-25" d="M148.512,111.507h-8.076a8.128,8.128,0,0,0,16.155,0Z" transform="translate(-0.807 -1.163)"/>
        <path class="cls-12" d="M148.512,111.507h-7.425c1.1,6.062,7.425,6.062,7.425,6.062s6.327,0,7.429-6.062Z" transform="translate(-0.807 -1.163)"/>
        <polygon class="cls-11" points="144.197 96.603 135.223 67.317 136.073 66.994 145.047 96.283 144.197 96.603"/>
        <polygon class="cls-11" points="151.22 96.603 160.194 67.317 159.34 66.994 150.366 96.283 151.22 96.603"/>
        <path class="cls-12" d="M163.174,99.766a3.96,3.96,0,0,1-3.742,4.149H137.6a3.96,3.96,0,0,1-3.74-4.149h0a3.96,3.96,0,0,1,3.74-4.149h21.836a3.96,3.96,0,0,1,3.742,4.149Z" transform="translate(-0.807 -1.163)"/>
        <path class="cls-12" d="M163.174,107.9a3.962,3.962,0,0,1-3.742,4.153H137.6a3.962,3.962,0,0,1-3.74-4.153h0a3.961,3.961,0,0,1,3.74-4.15h21.836a3.961,3.961,0,0,1,3.742,4.15Z" transform="translate(-0.807 -1.163)"/>
        <path class="cls-4" d="M148.966,20.854a1.564,1.564,0,0,1,1.474,1.638v9.541a1.56,1.56,0,0,1-1.474,1.628h0a1.555,1.555,0,0,1-1.473-1.628V22.492a1.56,1.56,0,0,1,1.473-1.638Z" transform="translate(-0.807 -1.163)"/>
        <path class="cls-4" d="M129.415,26.489a1.394,1.394,0,0,1,2.011.594l4.3,8.264a1.731,1.731,0,0,1-.537,2.228h0a1.391,1.391,0,0,1-2.01-.6l-4.3-8.26a1.734,1.734,0,0,1,.536-2.229Z" transform="translate(-0.807 -1.163)"/>
        <path class="cls-4" d="M115.025,42.207a1.4,1.4,0,0,1,2.011-.6l7.446,4.769a1.738,1.738,0,0,1,.537,2.234h0a1.4,1.4,0,0,1-2.008.6l-7.447-4.772a1.733,1.733,0,0,1-.539-2.231Z" transform="translate(-0.807 -1.163)"/>
        <path class="cls-4" d="M109.642,63.81a1.562,1.562,0,0,1,1.474-1.635h8.6a1.56,1.56,0,0,1,1.471,1.635h0a1.557,1.557,0,0,1-1.471,1.631h-8.6a1.558,1.558,0,0,1-1.474-1.631Z" transform="translate(-0.807 -1.163)"/>
        <path class="cls-4" d="M114.716,85.5a1.736,1.736,0,0,1,.54-2.231L122.7,78.5a1.4,1.4,0,0,1,2.013.6h0a1.735,1.735,0,0,1-.539,2.231L116.73,86.1a1.4,1.4,0,0,1-2.014-.595Z" transform="translate(-0.807 -1.163)"/>
        <path class="cls-4" d="M168.512,26.489a1.393,1.393,0,0,0-2.009.594l-4.3,8.264a1.73,1.73,0,0,0,.538,2.228h0a1.391,1.391,0,0,0,2.011-.6l4.3-8.26a1.73,1.73,0,0,0-.539-2.229Z" transform="translate(-0.807 -1.163)"/>
        <path class="cls-4" d="M182.907,42.207a1.4,1.4,0,0,0-2.01-.6l-7.45,4.769a1.742,1.742,0,0,0-.538,2.234h0a1.4,1.4,0,0,0,2.013.6l7.444-4.772a1.733,1.733,0,0,0,.541-2.231Z" transform="translate(-0.807 -1.163)"/>
        <path class="cls-4" d="M188.286,63.81a1.559,1.559,0,0,0-1.474-1.635h-8.594a1.561,1.561,0,0,0-1.473,1.635h0a1.558,1.558,0,0,0,1.473,1.631h8.594a1.556,1.556,0,0,0,1.474-1.631Z" transform="translate(-0.807 -1.163)"/>
        <path class="cls-4" d="M183.215,85.5a1.736,1.736,0,0,0-.541-2.231L175.232,78.5a1.4,1.4,0,0,0-2.015.6h0a1.735,1.735,0,0,0,.542,2.231L181.2,86.1a1.394,1.394,0,0,0,2.012-.595Z" transform="translate(-0.807 -1.163)"/>
        <polygon class="cls-14" points="146.001 81.5 142.804 52.463 140.513 67.494 136.492 67.494 136.492 66.497 139.755 66.497 142.949 45.552 146.132 74.503 148.371 59.495 150.328 68.224 152.941 54.094 155.306 66.497 159.822 66.497 159.822 67.494 154.578 67.494 152.952 58.973 150.411 72.727 148.55 64.413 146.001 81.5"/>
        <path class="cls-25" d="M138.343,68.158A1.956,1.956,0,1,1,136.4,66,2.06,2.06,0,0,1,138.343,68.158Z" transform="translate(-0.807 -1.163)"/>
        <path class="cls-25" d="M158.686,68.158A1.954,1.954,0,1,0,160.628,66,2.059,2.059,0,0,0,158.686,68.158Z" transform="translate(-0.807 -1.163)"/>
      </g>
    </g>
  </g>
</svg>
