<svg id="Camada_1" data-name="Camada 1" xmlns="http://www.w3.org/2000/svg" xmlns:xlink="http://www.w3.org/1999/xlink" viewBox="0 0 356.643 284.5">
  <defs>
    <style>
      .cls-1 {
        fill: #0071bc;
        fill-rule: evenodd;
        opacity: 0.1;
      }

      .cls-2 {
        fill: #ecb;
      }

      .cls-3 {
        fill: #1a3151;
      }

      .cls-4 {
        fill: #145566;
      }

      .cls-5 {
        fill: #0b141e;
      }

      .cls-6 {
        fill: #132235;
      }

      .cls-7 {
        fill: #dec099;
      }

      .cls-8 {
        fill: #9ea6ad;
      }

      .cls-9 {
        fill: #a57250;
      }

      .cls-10 {
        fill: #3ababa;
      }

      .cls-11, .cls-18, .cls-22 {
        fill: #fff;
      }

      .cls-11 {
        opacity: 0.47;
      }

      .cls-12 {
        fill: #42495b;
      }

      .cls-13 {
        fill: #e0ac92;
      }

      .cls-14 {
        fill: #486362;
      }

      .cls-15 {
        fill: #b3eefc;
      }

      .cls-16 {
        fill: #c1875d;
      }

      .cls-17 {
        fill: #5d6c7e;
      }

      .cls-19 {
        fill: #00718f;
      }

      .cls-20 {
        fill: #96b344;
      }

      .cls-21 {
        fill: #a2bd44;
      }

      .cls-22 {
        opacity: 0.07;
      }

      .cls-23 {
        opacity: 0.08;
      }

      .cls-24 {
        fill: #e0ae8c;
      }

      .cls-25 {
        fill: url(#Gradiente_sem_nome_8);
      }

      .cls-26 {
        fill: url(#Gradiente_sem_nome_8-2);
      }

      .cls-27 {
        fill: #32848b;
      }

      .cls-28 {
        fill: url(#Gradiente_sem_nome_8-3);
      }

      .cls-29 {
        fill: url(#Gradiente_sem_nome_8-4);
      }

      .cls-30 {
        fill: #c7d0d8;
      }
    </style>
    <linearGradient id="Gradiente_sem_nome_8" data-name="Gradiente sem nome 8" x1="60.571" y1="121.184" x2="96.739" y2="121.184" gradientUnits="userSpaceOnUse">
      <stop offset="0" stop-color="#3d9191"/>
      <stop offset="1" stop-color="#3d9191"/>
    </linearGradient>
    <linearGradient id="Gradiente_sem_nome_8-2" x1="25.109" y1="136.752" x2="59.856" y2="136.752" xlink:href="#Gradiente_sem_nome_8"/>
    <linearGradient id="Gradiente_sem_nome_8-3" x1="233.227" y1="194.553" x2="267.546" y2="194.553" xlink:href="#Gradiente_sem_nome_8"/>
    <linearGradient id="Gradiente_sem_nome_8-4" x1="267.155" y1="213.736" x2="303.497" y2="213.736" xlink:href="#Gradiente_sem_nome_8"/>
  </defs>
  <path class="cls-1" d="M300.024,90.271c17.6-5.529,34.522-11.9,47.286,18.532,16.186,38.592,12.63,90.981-8.644,117.933-12.223,15.484-28.637,23.633-45.542,27.608-18.8,4.419-40.171-1.794-58.36,3.2-16.391,4.5-30.158,17.885-46.276,23.588-16.89,5.976-34.767,4.988-52.664.728-20.206-4.81-39.51-14.524-57.966-28.452C46.832,229.993,14.417,194.316,3.7,147.4c-9.213-40.35,3.962-85.086,29.2-104.836,18.766-14.686,42.48-18.889,62.137,2.668,9.068,9.945,22.445,17.965,33.389,21.017,17.574,4.9,17.815-12.673,31.838-20.975,20.253-11.988,44.412-20.972,67.156-3.212C247.3,57.58,253.762,93.1,279.582,94.132,286.365,94.4,293.246,92.4,300.024,90.271Z" transform="translate(-0.764 -0.835)"/>
  <g>
    <g>
      <g>
        <polygon class="cls-2" points="277.514 88.322 278.15 83.744 279.906 83.992 280.089 87.246 280.963 86.931 279.993 90.767 278.14 90.786 277.514 88.322"/>
        <path class="cls-3" d="M298.84,126.811a4.584,4.584,0,0,0,.1-1.183,8.123,8.123,0,0,0-1.983-4.771c-1.725-2.081-4.048-3.571-5.972-5.421l-6.6-6.348-2.909-18.655-3.672.248-.347,23.261c3.044,2.651,6.028,5.228,8.9,8.071,2.576,2.549,4.88,5.884,8.305,6.988A3.045,3.045,0,0,0,298.84,126.811Z" transform="translate(-0.764 -0.835)"/>
      </g>
      <g>
        <g>
          <polygon class="cls-4" points="308.61 172.403 310.035 183.332 307.175 244.977 302.376 243.855 294.416 173.775 308.61 172.403"/>
          <polygon class="cls-4" points="285.039 170.35 284.112 211.217 293.426 246.494 298.856 244.244 294.283 212.784 298.481 170.001 285.039 170.35"/>
          <path class="cls-5" d="M299.638,241.775l-6.5,3.32,2.181,5.064-3.408,2.393s-.322,2.109.823,3S301.3,249.5,301.3,249.5Z" transform="translate(-0.764 -0.835)"/>
          <path class="cls-5" d="M309.374,242.973l-7.05,1.326.928,5.522-3.85,1.326s-.8,1.943.1,3.134,9.677-3.368,9.677-3.368Z" transform="translate(-0.764 -0.835)"/>
        </g>
        <path class="cls-6" d="M295.669,104.539a22.738,22.738,0,0,0,2.138,5.169,40.416,40.416,0,0,1,1.29-9.882,1.061,1.061,0,0,0,.012-.742.791.791,0,0,0-.541-.343C294.861,97.743,294.793,101.369,295.669,104.539Z" transform="translate(-0.764 -0.835)"/>
        <g>
          <path class="cls-2" d="M297.7,109.773a6.434,6.434,0,0,0,2.306,3.765,3.732,3.732,0,0,0,4.239-.275c3.712-2.5,10.146-16.3.47-19.69C295.934,90.5,296.1,104.071,297.7,109.773Z" transform="translate(-0.764 -0.835)"/>
          <path class="cls-6" d="M305.349,109.832c.577.953,1.892.736,2.825.245,3.833-2.019,6.173-7.066,5.433-11.718-.619-3.893-4.938-6.915-5.928-2.14-.351,1.693.528,4.076.274,5.958A29.382,29.382,0,0,1,305.349,109.832Z" transform="translate(-0.764 -0.835)"/>
          <path class="cls-6" d="M295.9,88.6c-4.4,2.715-6.375,8.7-10.4,12.059a13.532,13.532,0,0,0,11.621.321c3.627-1.616,12.228-2.595,11.1-8.2C307.076,87.087,299.761,86.224,295.9,88.6Z" transform="translate(-0.764 -0.835)"/>
        </g>
        <path class="cls-3" d="M312.991,123.88c2.523,4.88,2.511,10.407,2.163,15.693-.789,11.968.234,25.843-3.468,37.283-6.989-.007-20.388-3.578-27.349-4.376-1.357-10.4-.566-16.487.2-28.268.377-5.809,1.186-13.6,3.031-19.137,1.511-4.53,5.538-10.381,11.616-10.194C304.88,115.055,310.7,119.442,312.991,123.88Z" transform="translate(-0.764 -0.835)"/>
        <path class="cls-2" d="M301.607,117.3a1.818,1.818,0,0,1-2.172-.64c-.65-.7-.45-.93-.312-1.963.2-1.523.567-3.038.849-4.546l3.763.872s-.756,4.084-.814,4.362A2.661,2.661,0,0,1,301.607,117.3Z" transform="translate(-0.764 -0.835)"/>
      </g>
      <g>
        <polygon class="cls-2" points="318.106 87.738 316.465 82.765 314.547 83.485 315.001 87.179 313.957 87.045 315.822 91.103 317.903 90.657 318.106 87.738"/>
        <path class="cls-3" d="M303.442,135.964a5.137,5.137,0,0,1-.353-1.3,9.631,9.631,0,0,1,1.256-5.848c1.513-2.767,3.816-5.022,5.6-7.58l6.118-8.778-.517-21.65,4.167-.646,5.1,26c-2.876,3.738-5.7,7.378-8.345,11.288-2.372,3.506-4.28,7.826-7.9,9.925C306.529,138.554,304.339,138.057,303.442,135.964Z" transform="translate(-0.764 -0.835)"/>
      </g>
    </g>
    <g>
      <g>
        <g>
          <polygon class="cls-7" points="229.515 241.244 229.502 247.401 232.708 247.409 232.723 240.584 229.515 241.244"/>
          <polygon class="cls-7" points="244.087 240.338 244.721 246.99 248.185 246.58 247.483 239.205 244.087 240.338"/>
        </g>
        <path class="cls-5" d="M248.9,247.192l-3.114.778-.991.993-.061,2.622,8.1,1.677h0a2.227,2.227,0,0,0-.652-3.238l-.368-.193Z" transform="translate(-0.764 -0.835)"/>
        <path class="cls-5" d="M233.472,248.244l-3.206-.009-1.123,1.647.224,2.611,8.228.568.236-.595a1.944,1.944,0,0,0-1.348-2.679l-.182-.027Z" transform="translate(-0.764 -0.835)"/>
      </g>
      <g>
        <polygon class="cls-3" points="222.252 181.988 225.291 212.341 226.499 246.325 236.809 246.364 240.933 160.789 224.317 161.08 222.252 181.988"/>
        <polygon class="cls-3" points="253.011 177.948 255.247 207.558 252.416 246.272 242.406 245.939 240.961 208.32 239.267 181.313 237.536 161.182 249.521 160.799 253.011 177.948"/>
      </g>
      <polygon class="cls-8" points="246.747 111.753 225.479 114.923 223.142 121.489 222.771 144.205 220.661 163.674 247.83 163.81 254.607 161.899 252.477 141.491 251.454 118.98 246.747 111.753"/>
      <g>
        <polygon class="cls-9" points="264.568 110.846 265.235 105.021 263.047 104.576 261.81 108.446 260.858 107.692 260.825 112.759 263.046 113.568 264.568 110.846"/>
        <polygon class="cls-8" points="245.954 116.779 256.916 125.433 260.328 111.036 264.664 112.897 262.486 142.513 258.7 143.333 243.069 131.559 245.954 116.779"/>
      </g>
      <g>
        <path class="cls-9" d="M219.679,82.858q1.392-2.091,2.773-4.19.822.663,1.643,1.327-.657,1.683-1.313,3.368c.335.072.671.141,1.006.214-.946,1.08-1.912,2.133-2.872,3.2-.62-.36-1.233-.737-1.863-1.073C219.265,84.755,219.506,83.812,219.679,82.858Z" transform="translate(-0.764 -0.835)"/>
        <path class="cls-8" d="M229.41,128.311a3.459,3.459,0,0,0,.3-1.347,9.242,9.242,0,0,0-1.5-5.512c-1.63-2.513-3.827-4.3-5.522-6.651a85.635,85.635,0,0,1-5.152-8.453,111.633,111.633,0,0,1,4.7-20.286c-1.273-.652-2.538-1.323-3.816-1.962-4.248,7.93-7.1,16.152-9.89,24.81,2.447,4.058,4.842,8.016,7.562,11.9,2.437,3.479,4.717,7.3,8.384,9.246C226.546,131.15,228.341,130.446,229.41,128.311Z" transform="translate(-0.764 -0.835)"/>
      </g>
      <path class="cls-9" d="M236.145,113.745l.255-1.314-.037-.021c-2.18-1.282-3.487-3.971-3.78-6.686a16.151,16.151,0,0,1,.392-5.291,11.842,11.842,0,0,1,1.4-2.83,6.841,6.841,0,0,1,4.245-3.141c.674-.1.481.536,1.223-.073a1.56,1.56,0,0,0,.316-.416l.264.233a11.754,11.754,0,0,0,2.867,1.515,5.155,5.155,0,0,1,2.593,4.756,6.707,6.707,0,0,0,.09,2.51,7.127,7.127,0,0,0,1.226,1.585,3.364,3.364,0,0,1,.523,1.1c-1.087,3.426-3.658,6.493-6.642,7.36l0,.038c-.011.208-.023.415-.044.618-.094.906-.487,1.918-1.287,2.131a2.244,2.244,0,0,1-1.114-.086l-2.22-.556a.556.556,0,0,1-.4-.238.69.69,0,0,1-.012-.443C236.048,114.244,236.1,114,236.145,113.745Z" transform="translate(-0.764 -0.835)"/>
      <path class="cls-6" d="M217.972,94.6c1.624-.411,3.232.393,4.718,1.179a4.888,4.888,0,0,1,2.759-4.124c1.417-.759,2.986-1.044,4.348-1.946,1.638-1.085,3.118-3.089,4.937-2.859,1.638.207,2.928,2.148,4.18,3.852l.063-.1a8.556,8.556,0,0,1,2.214-2.609c2.908-2.01,3.192,2.4,5.557,1.726.571-.161.985-.762,1.491-1.13a3.141,3.141,0,0,1,3.18-.05,21.348,21.348,0,0,0,3.016,1.438,18.8,18.8,0,0,1,2.86.571c1.357.6,1.324,2.14,1.745,3.461a15.087,15.087,0,0,0,2.054,4.542,12.8,12.8,0,0,0,2.356,1.854A3.578,3.578,0,0,1,265,103.08c.019,1.093-.612,2.1-.675,3.193-.066,1.631.214,2.454-.185,4.133a5.3,5.3,0,0,1-1,2.391,3.036,3.036,0,0,1-2.795.685,5.387,5.387,0,0,0-2.894-.011c-2.023.841-1.568,3.121-2.051,5.065a5.6,5.6,0,0,1-2.03,3.1,4.208,4.208,0,0,1-4.089.734c-2.014-.807-3.245-3.32-3.236-5.847a21.338,21.338,0,0,1,.341-2.7,7.616,7.616,0,0,0,.073-1.027c-.007-1.221-.681-2.886.285-3.892a8.1,8.1,0,0,0,.753-.658,1.9,1.9,0,0,0,.31-.811,3.981,3.981,0,0,0-.092-1.763,3.364,3.364,0,0,0-.523-1.1,7.127,7.127,0,0,1-1.226-1.585,6.707,6.707,0,0,1-.09-2.51,5.155,5.155,0,0,0-2.593-4.756,11.754,11.754,0,0,1-2.867-1.515l-.264-.233a1.56,1.56,0,0,1-.316.416c-.742.609-.549-.024-1.223.073a6.841,6.841,0,0,0-4.245,3.141,11.842,11.842,0,0,0-1.4,2.83,13.039,13.039,0,0,0-.622,5.7c.323,2.716,1.756,3.676,1,6.611a10.511,10.511,0,0,1-.682,1.88,8.557,8.557,0,0,1-3.366,3.809c-.17.031-.339.054-.509.069a5.906,5.906,0,0,1-2.513-.321,6.99,6.99,0,0,1-2.25-1.321,8.083,8.083,0,0,1-2.324-3.481,4.893,4.893,0,0,0-1.014-2.117c-.445-.392-1.045-.466-1.5-.846-1.879-1.581.674-5.545-.4-7.995-.675-1.549-2.567-1.855-3.2-3.43A3.584,3.584,0,0,1,217.972,94.6Z" transform="translate(-0.764 -0.835)"/>
    </g>
    <g>
      <g>
        <path class="cls-10" d="M270.477,31.942S250.908,56.1,250.908,76.251s13.537,24.939,19.569,24.939,19.569-4.787,19.569-24.939S270.477,31.942,270.477,31.942Z" transform="translate(-0.764 -0.835)"/>
        <path class="cls-11" d="M257.984,84.194l-.008-.043a16.249,16.249,0,0,1-.477-2.822c-.03-1.469,0-2.94.087-4.406a71.451,71.451,0,0,1,1.127-8.989,106.259,106.259,0,0,1,5.057-17.7q1.445-3.856,3.112-7.6.784-1.769,1.614-3.511c.143-.3,1.714-3.212,1.626-3.311l-.052-.057s-17.632,24.22-16.719,43.506c.059,1.246.172,2.489.348,3.721q.127.886.3,1.764a5.035,5.035,0,0,0,.274,1.465,2.433,2.433,0,0,0,1.932,1.324,1.412,1.412,0,0,0,1.57-.923A4.706,4.706,0,0,0,257.984,84.194Z" transform="translate(-0.764 -0.835)"/>
      </g>
      <path class="cls-11" d="M260.511,89.605a1.66,1.66,0,0,0-2.333-.2,2.139,2.139,0,0,0-.869,2.272,1.846,1.846,0,0,0,2.795,1.248A2.263,2.263,0,0,0,260.511,89.605Z" transform="translate(-0.764 -0.835)"/>
    </g>
    <g>
      <g>
        <polygon class="cls-5" points="179.821 251.705 179.36 254.345 174.394 256.119 172.601 253.045 175.315 250.838 180.282 249.064 179.821 251.705"/>
        <polygon class="cls-8" points="190.488 185.899 180.205 250.899 175.554 251.087 172.791 205.892 171.484 183.443 190.488 185.899"/>
      </g>
      <g>
        <polygon class="cls-8" points="204.557 185.208 197.948 248.921 193.683 249.341 189.17 200.519 185.59 186.126 204.557 185.208"/>
        <polygon class="cls-5" points="193.661 248.735 193.871 251.475 198.693 253.761 200.79 250.794 198.273 248.281 193.661 248.735"/>
      </g>
      <polygon class="cls-12" points="172.601 187.071 170.498 179.565 172.601 171.049 204.557 172.288 204.557 185.208 172.601 187.071"/>
    </g>
    <g>
      <polygon class="cls-13" points="143.594 120.528 142.967 123.711 138.127 123.17 137.04 119.99 138.639 117.667 140.402 119.342 140.52 118.745 140.093 118.017 140.755 117.551 143.594 120.528"/>
      <polygon class="cls-14" points="179.196 112.292 160.976 121.961 143.038 119.08 141.887 123.895 162.622 131.322 189.428 121.37 179.196 112.292"/>
    </g>
    <g>
      <path class="cls-13" d="M190.391,94.252c-3.231,2.248-7.8.962-10.748,3.674-1.919,1.763-2.63,4.917-2.175,7.736a7.3,7.3,0,0,0,1.481,3.567,5.794,5.794,0,0,0,1.877,1.408,7.426,7.426,0,0,0,2.9.754,18.779,18.779,0,0,1-.452,3l5.566-.705q-.176-1.813-.353-3.627a8.1,8.1,0,0,0,1.276-1.049,11.137,11.137,0,0,0,2.561-10.061A21.177,21.177,0,0,0,190.391,94.252Z" transform="translate(-0.764 -0.835)"/>
      <path class="cls-6" d="M181.911,97.236c.133-.055.267-.107.4-.156a12.974,12.974,0,0,1,6.062-.654,3.729,3.729,0,0,1,3.433,2.41,7.984,7.984,0,0,1,.2,2.319l-.031,2.933a1.149,1.149,0,0,0,.073.514c.229.469.909.264,1.2-.163a18.009,18.009,0,0,0,2.686-5.917c.275-1.547-.224-3.359.357-4.818a8.325,8.325,0,0,1,1.228-1.727,5.394,5.394,0,0,0,.776-4.514,3.739,3.739,0,0,0-1.689-2.317c-1.371-.733-3.021-.1-4.506-.464-.754-.184-1.446-.621-2.207-.765-1.6-.3-3.161.742-4.382,1.938s-2.328,2.617-3.82,3.338c-1.2.578-2.542.651-3.774,1.128a7.829,7.829,0,0,0-4.411,5.026c-.8,2.568-.609,5.8,1.1,7.808a27.7,27.7,0,0,1,2.268,3.275c.246.394,1.667,1.85,1.561.322-.083-1.186-.508-2.318-.584-3.5A6.171,6.171,0,0,1,181.911,97.236Z" transform="translate(-0.764 -0.835)"/>
    </g>
    <path class="cls-15" d="M195.616,114.522l-15.454-1.436s-5.095,7.4-10.7,28.683a94.491,94.491,0,0,0-1.452,40.123s17.435-3.5,42.053-.35l-7.172-52.81Z" transform="translate(-0.764 -0.835)"/>
    <g>
      <g>
        <polygon class="cls-16" points="144.186 92.17 145.979 90.075 145.915 87.514 146.388 87.219 146.728 87.861 147.213 85.714 148.497 84.647 150.5 85.387 151.708 87.432 150.834 89.61 148.793 91.274 146.447 94.26 144.186 92.17"/>
        <polygon class="cls-8" points="143.56 90.374 126.413 111.852 116.236 112.363 118.178 130.358 131.64 123.666 135.316 120.824 148.819 93.713 143.56 90.374"/>
      </g>
      <g>
        <polygon class="cls-5" points="116.114 249.246 116.114 251.681 121.717 254.803 124.519 251.681 121.717 248.558 121.356 248.558 121.266 249.246 116.114 249.246"/>
        <polygon class="cls-5" points="102.314 248.558 101.928 248.558 99.126 251.681 101.928 254.803 107.531 251.681 107.531 249.246 102.379 249.246 102.314 248.558"/>
        <g>
          <path class="cls-8" d="M134.7,177.472c-.351-4.1-.716-8.2-1.161-12.288A169.68,169.68,0,0,0,129.4,141c-.781-3.016-1.682-5.99-2.583-8.962q-1.646-5.43-3.29-10.86c-1.364-4.5-3.665-7.669-7.694-9.243a13.623,13.623,0,0,0-2.257-.656c-.019.093-.036.187-.047.286a2.541,2.541,0,0,1-.4,1.225l2.644.028s7.461,29.548,7.735,34.64c.1,1.936.451,6.162.836,10.613l4.052.677.174,17.027c.226.074.452.146.676.213a11.46,11.46,0,0,1,3.4,2.281C134.221,179.5,134.913,179.985,134.7,177.472Z" transform="translate(-0.764 -0.835)"/>
          <path class="cls-17" d="M124.343,158.07c.611,7.046,1.319,14.657,1.319,14.657s-3.276.088-8.014.488c.351-.009.7-.02,1.051-.023,3.3-.033,6.714,1.554,9.87,2.582l-.174-17.027Z" transform="translate(-0.764 -0.835)"/>
          <path class="cls-8" d="M109.316,112.731c.149.02-.072-1.529-.125-1.665a11.346,11.346,0,0,0-8.7,4.372,25.58,25.58,0,0,0-3.025,6.615c-2.269,6.534-3.3,12.588-4.431,19.458-.722,4.382-1.389,8.742-1.914,13.091-.582,4.817-.992,9.62-1.111,14.394-.013.528-.107,2-.159,3.767-.11,3.694-.04,8.635,1.333,8.819a1.226,1.226,0,0,0,.73-.219,48.082,48.082,0,0,0,4.713-3.349,16.457,16.457,0,0,1,1.727-1.091,20.392,20.392,0,0,1,3.879-1.565c-2.259.133-2.54-.341-2.54-.341s2.038-9.277,3.469-17.347a83.991,83.991,0,0,0,1.367-10.079c.159-6.261.866-26.939.866-26.939l3.43-7.91.633.007Z" transform="translate(-0.764 -0.835)"/>
          <path class="cls-3" d="M128.569,175.774c-3.156-1.028-6.574-2.615-9.87-2.582-.35,0-.7.014-1.051.023l-.9.078c-2.209.2-4.69.463-7.28.813l-.382.052a40.737,40.737,0,0,1-6.862,1.2,20.392,20.392,0,0,0-3.879,1.565,16.457,16.457,0,0,0-1.727,1.091l-.017,4.012,6.317,68.146H108.1v.694h.03l5.695-45.709.024-.258,3.12,45.967H117v-.694h5.2l6.6-51.187Z" transform="translate(-0.764 -0.835)"/>
          <path class="cls-18" d="M124.343,158.07c-.385-4.451-.732-8.677-.836-10.613-.274-5.092-7.735-34.64-7.735-34.64l-2.644-.028a1.056,1.056,0,0,1-.092.107.823.823,0,0,1-.284.184,1.408,1.408,0,0,1-.677.021l-2.622-.352-.633-.007-3.43,7.91s-.707,20.678-.866,26.939a84.153,84.153,0,0,1-1.366,10.079c-1.432,8.07-3.47,17.347-3.47,17.347s.281.474,2.541.341a40.747,40.747,0,0,0,6.861-1.2l.382-.052c2.59-.35,5.072-.615,7.28-.813l.9-.078c4.738-.4,8.014-.488,8.014-.488S124.954,165.116,124.343,158.07Z" transform="translate(-0.764 -0.835)"/>
        </g>
      </g>
      <g>
        <polygon class="cls-16" points="114.807 152.229 116.877 153.946 119.108 153.515 119.429 154.004 118.913 154.476 120.855 154.718 121.958 156.009 121.579 158.361 119.951 160.004 117.93 159.33 116.204 157.272 113.28 155.06 114.807 152.229"/>
        <polygon class="cls-8" points="116.632 152.132 105.662 142.269 104.764 116.807 96.027 126.69 94.434 143.081 96.581 149.262 115.14 157.868 116.632 152.132"/>
      </g>
      <g>
        <path class="cls-6" d="M117.921,93.907a11.8,11.8,0,0,1,.929,4.851,1.663,1.663,0,0,0,.3,1.237c.326.3,0,.9.275.538a8.279,8.279,0,0,0,1.269-2.081,19.938,19.938,0,0,0,.147-3.332,5.277,5.277,0,0,0-.689-2.751A5.018,5.018,0,0,0,119,91.261a5.928,5.928,0,0,0-1.951-1.133c-1.232-.335-2.018.126-.965,1.173A8.505,8.505,0,0,1,117.921,93.907Z" transform="translate(-0.764 -0.835)"/>
        <path class="cls-16" d="M109.332,112.368l5.109.844a39.513,39.513,0,0,0,.688-5.057c1.5-.2,3.281-.647,3.871-2.386a6.485,6.485,0,0,0,.249-1.747q.192-3.675.382-7.35a8.017,8.017,0,0,0-.135-2.523,4.829,4.829,0,0,0-2.588-2.879,8.737,8.737,0,0,0-8.855.095,5.1,5.1,0,0,0-1.861,1.914,9.6,9.6,0,0,0-.656,4.536q.036,2.16.073,4.318c.028,1.656.16,3.567,1.251,4.5.579.5,1.35.628,1.84,1.257C109.565,109,109.063,110.856,109.332,112.368Z" transform="translate(-0.764 -0.835)"/>
        <path class="cls-6" d="M119.818,103.076c0-.456-.118-1.8-.759-1a1.487,1.487,0,0,0-.244.807,3.461,3.461,0,0,1-.118.862,1.318,1.318,0,0,1-1.39.826,1.2,1.2,0,0,1-.625-.206,2.145,2.145,0,0,1-.458-.529l-.992-1.433c-.569-.822-1.784-.552-2.6-.479a4.814,4.814,0,0,0-2.7,1.006c-.081.066-.16.135-.239.2a2.8,2.8,0,0,1-.607.444,1.713,1.713,0,0,1-2.1-.89c-.218-.356-.415-.81-.774-.889a.729.729,0,0,0-.726.444,2.662,2.662,0,0,0-.249.994,8.305,8.305,0,0,0,.4,3.728c.939,2.5,2.956,2.913,5,2.978l2.423.076a6.878,6.878,0,0,0,4.324-.83,6.1,6.1,0,0,0,2.189-3.722A10.675,10.675,0,0,0,119.818,103.076Zm-5.551,3.136a2.534,2.534,0,0,1-2.513.183c-.362-.147-.174-.838.189-.69a2.039,2.039,0,0,0,2.052-.136C114.331,105.341,114.6,105.985,114.267,106.212Z" transform="translate(-0.764 -0.835)"/>
        <path class="cls-6" d="M120.73,89.812a14.638,14.638,0,0,0,.4-1.792,2.81,2.81,0,0,1-1.571.06c.015-.352.03-.7.044-1.057.011-.293-3.479-.7-3.762-.746-2.65-.4-5.074-.78-7.555.7a8.171,8.171,0,0,0-3.968,5.921,14.009,14.009,0,0,0,1.384,8.156,19.914,19.914,0,0,1-.078-2.959,6.29,6.29,0,0,1,.644-1.826,7.22,7.22,0,0,1,2.5-2.688,12,12,0,0,1,5.276-1.677,12.6,12.6,0,0,1,5.323.3c.777.286.9.518,1.416-.356a16.545,16.545,0,0,0,.778-1.977Z" transform="translate(-0.764 -0.835)"/>
      </g>
    </g>
    <ellipse class="cls-19" cx="169.566" cy="168.96" rx="51.592" ry="57.493"/>
    <path class="cls-20" d="M182.633,113.951q1.38.377,2.731.833Z" transform="translate(-0.764 -0.835)"/>
    <g>
      <path class="cls-21" d="M184.127,118.882q.332.114.661.232l.2-.159A5.339,5.339,0,0,1,184.127,118.882Z" transform="translate(-0.764 -0.835)"/>
      <path class="cls-21" d="M181.6,121.7c1.586,0,3.961,2.935,5.18,2.025,1.678-1.253,1.264-2.426,1.718-3.085q-1.817-.845-3.707-1.524Z" transform="translate(-0.764 -0.835)"/>
      <path class="cls-21" d="M184.127,118.882q-.753-.257-1.515-.486A5.3,5.3,0,0,0,184.127,118.882Z" transform="translate(-0.764 -0.835)"/>
      <path class="cls-22" d="M211.62,143.321a53.125,53.125,0,0,0-8.678-12.233c-.046-.048-.093-.094-.139-.142q-.514-.535-1.041-1.056c-.05-.05-.1-.1-.153-.147q-.528-.514-1.07-1.015l-.126-.114c-.375-.341-.753-.678-1.137-1.007l-.085-.071q-.6-.514-1.217-1.006l-.041-.032q-.639-.512-1.295-1l0,0q-1.339-1-2.742-1.893h0a44.459,44.459,0,0,0-16.65-6.459h0q-.52-.087-1.045-.163c-.2-.028-.394-.053-.591-.078-.227-.029-.453-.062-.682-.087h0q-1.439-.16-2.9-.223h0c-.211-.01-.422-.016-.634-.023-.432-.014-.865-.024-1.3-.024-.376,0-.751.006-1.125.016-.14,0-.28.009-.419.014-.227.008-.454.017-.681.029-.179.009-.359.02-.538.031s-.347.024-.52.037q-.32.024-.639.052l-.292.029q-1.857.18-3.671.516h0c-.321.059-.641.121-.961.188h0q-.618.128-1.23.275l-.047.011q-.594.142-1.182.3l-.065.018q-.582.157-1.158.331l-.066.02q-.581.177-1.156.368l-.046.015q-.592.2-1.179.413l0,0a46,46,0,0,0-12.2,6.757h0c-12.516,9.63-20.719,25.723-20.719,43.954a57.159,57.159,0,0,0,9.93,32.539,57.874,57.874,0,0,1-6.365-26.6c0-16.114,6.408-30.561,16.539-40.348l.227-.215c.2-.193.406-.386.611-.575.116-.107.234-.212.351-.318.167-.151.335-.3.5-.452.127-.112.256-.222.385-.333q.243-.21.487-.416c.133-.112.268-.222.4-.332q.242-.2.486-.4c.138-.11.276-.218.414-.327.163-.127.327-.254.492-.379.139-.107.279-.212.419-.317.167-.124.336-.247.5-.369.14-.1.28-.2.422-.3.173-.122.347-.242.521-.362.139-.1.278-.192.417-.286q.278-.186.557-.367c.132-.086.263-.173.4-.258.216-.137.433-.271.65-.405.106-.064.21-.131.316-.195q.481-.291.968-.569c.1-.057.2-.11.3-.165.231-.131.463-.261.7-.387.133-.071.267-.14.4-.21.2-.106.4-.213.607-.316l.436-.217c.2-.1.389-.191.585-.285l.453-.212q.29-.133.581-.264l.463-.2q.292-.126.587-.249l.465-.19c.2-.08.4-.158.6-.236l.461-.176q.312-.115.625-.226c.149-.053.3-.107.447-.158.226-.078.453-.152.68-.226l.4-.131c.291-.091.583-.178.875-.264.073-.021.144-.044.217-.064q.548-.158,1.1-.3c.112-.029.226-.055.339-.084.257-.064.515-.128.774-.187.144-.034.288-.064.432-.095.23-.051.46-.1.691-.148l.471-.091q.33-.063.662-.122l.489-.082c.218-.035.437-.07.656-.1.165-.024.33-.048.5-.07q.33-.045.663-.085c.164-.019.328-.039.493-.057q.339-.036.679-.067c.161-.015.322-.03.484-.043.236-.019.473-.035.71-.05.153-.01.306-.021.46-.03.261-.014.524-.024.786-.033.13-.005.259-.011.39-.015.393-.011.786-.017,1.181-.017.1,0,.2.005.3.005h0a43.66,43.66,0,0,1,19.951,4.989l.182.1q.46.243.916.5l.392.221c.239.136.476.275.713.415.132.078.265.156.4.236q.423.256.84.522l.325.208c.3.192.593.389.887.588l.41.284c.208.145.416.291.622.439.141.1.283.2.424.308.225.165.447.334.669.5.11.084.221.166.33.251h0A50.9,50.9,0,0,1,211.62,143.321Z" transform="translate(-0.764 -0.835)"/>
    </g>
    <g>
      <path class="cls-10" d="M169.89,117.663h0Z" transform="translate(-0.764 -0.835)"/>
      <g>
        <path class="cls-10" d="M188.46,115.956a13.508,13.508,0,0,0-4.382.071,6.417,6.417,0,0,0,1.286-1.243q-1.35-.458-2.731-.833c-.067.023-.132.047-.2.073-1.247.486-1.429.537-1.225,1.415a8.829,8.829,0,0,1-1.374-.761h-5.973c3.783,4.664-3.551,4.356-6.23,4.365-.49,0-.6-1.092-.325-1.379a15.156,15.156,0,0,1,2.581,0c2.438,0,2.132-.218,2.132-2.985-2.424,1.992-2.339,0-5.089,0a11.274,11.274,0,0,0-6.1,1.291l2.209,2.1c-.927-.234-3.952-1.557-4.779-1.164-.385.183-.484,1.326-.96,1.326-1.921,0-7.15,1.171-7.15-1.285,0-.011-.034-.021-.095-.03a51.052,51.052,0,0,0-13,8.953,27.828,27.828,0,0,1,5.612-.3,28.114,28.114,0,0,1,1.824,4.894c.086,1.983-1.128,2.766-2.027,4.651a25.964,25.964,0,0,0-2.178,11.78c.007.139,2.063,2.2,2.063,3.018,0,3.421.321,3.476,2.43,6v-4.195c1.257,3.673,2.777,5.087,3.913,8.681,1.288,4.079,6.381.946,8.111,3.633.762,1.183,2.184.64,2.863,1.8l1.842,3.134c1.111,1.889,2.465,1.234,4.45,1.234,1.906,0-1.736,7.339-1.736,7.958,0,2.544,3.118,8.337,3.1,9.356-.058,3.022,3.328,3.445,5.166,5.306,1.472,1.5.422,5.751.377,7.637a13.15,13.15,0,0,0,.7,4.386h0c.4,1.262.91,2.477,1.367,3.725.079.219.158.438.233.659.033.1.064.195.1.292q.092.278.176.558c.031.1.06.208.09.312q.081.291.153.59c.023.094.047.188.068.283.066.292.125.588.172.89.242,1.547-.292,3.215.017,4.7.317,1.523,1.49,2.47,1.472,4.153-.026,2.6,6.532,3.087,7.8,3.087-.006,0-4.787-2.767-4.787-2.435,0-2.467,1.139-2.3,1.139-3.8,0-1.787-1.455-3.259-.546-5.787.983-2.735.872-2.652,3.531-2.652a19.6,19.6,0,0,0-.515-3.711c2.375-4.127,7.9-8.1,9.366-9.211,1.988-1.514.875-5.6,1.734-7.775.756-1.913,3.047-3.68,3.157-6.034a2.933,2.933,0,0,0,0-.353c0-.027-.007-.053-.01-.08-.009-.085-.021-.167-.037-.244,0-.022-.011-.044-.016-.065a2,2,0,0,0-.073-.234l-.014-.035a1.7,1.7,0,0,0-.119-.238h0a2.421,2.421,0,0,0-2.243-.94c-1.174.044-1.291-2.145-2.179-2.145a10.863,10.863,0,0,1-7.169-2.234c-.355-.292-.751-3.8-1.356-4.673-.867-1.246-3.638.943-4.714-.752-.408-.641-1.37-3.153-2.027-3.153-.9,0-5.824-1.069-6.86-.024.159-.16-1.682-.783-1.944-.783.113,0-6.335,3.721-6.335,1.789,0-2.5,1.1-5.743-1.57-5.743-4.286,0-.639-1.242-.639-3.43,0-2.806-4.15.771-6.337.773.058,0-2.462-4.6-1.254-4.6.867,0,1-1.969,1.646-2.807,1.693-2.206,4.584-2.437,6.618-2.022.824.169,3.811,4.03,3.819,4.826,0-.19,1.218-1.059,1.383-1.34.588-1.007.256-1.441.4-2.448.494-3.382.619-4.051,3.04-6.107,1.779-1.511,4.266-3.245,5.662-5.2a9.6,9.6,0,0,1,3.609-3.114c-.158.087,1.471,1.106,1.812,1.106,1.4,0,1.738-1.318,2.5-2.5h-2.43c2.744-2.339-2.223-3.551,3.277-3.551,2.7,0,2.951.041,4.6-2.1-2.627,0-1.988-.019-1.988-3,0-.5-.743-2.317-1.452-1.541-1.938,2.124-1.869-.389-2.717-1.8-1.1-1.826-2.281.054-2.739,1.161-.567,1.373-5.23,3.519-5.22,5.312.006,1.049-1.534,1.007-1.5-.163.042-1.758-5.408-3.437-5.5-4.123-.118-.906,2.7-3.348,5.147-3.348,1.125,0,.574-1.452.921-1.452,2.334,0,5.085-.808,6.361-2.905-.319,0-3.315.024-3.315-.017,0-1.192-.457-1.92.769-1.92,2.878,0,3.731,2.5,6.891,2.5L181.6,121.7c1.586,0,3.961,2.935,5.18,2.025,2.251-1.682.734-3.219,2.606-3.565a2.218,2.218,0,0,0,.918.637c.585.23,2.692.65,3.05,1.245.431.718,1.527,4.97.722,5.34-1.308.6-5.138,5.224-2.208,6.379,2.264.892,2.845-.233,4.859-1.638,1.873-1.306,2.383-.826,4.491,0a11.71,11.71,0,0,1,3,.24c1.778.7,1.649-.551,1.835-.477a4.425,4.425,0,0,0,3.1.049A51.984,51.984,0,0,0,188.46,115.956Z" transform="translate(-0.764 -0.835)"/>
        <path class="cls-10" d="M167.047,155.982,166,157.15c3.25,0,5.229,1.168,8.112,1.168C172.178,154.94,170.662,155.982,167.047,155.982Z" transform="translate(-0.764 -0.835)"/>
        <path class="cls-10" d="M177.772,158.907c-2.608-.087-2.73.354-4.328,2.343,1.375,0,2.75,0,4.125.007C178.761,161.258,178.6,158.935,177.772,158.907Z" transform="translate(-0.764 -0.835)"/>
        <path class="cls-10" d="M181.473,161.938c0-4.076-3.72,0,0,0Z" transform="translate(-0.764 -0.835)"/>
      </g>
    </g>
    <g class="cls-23">
      <path d="M197.322,120.724a62.076,62.076,0,0,1,8.117,30.968c0,31.753-23.1,57.494-51.593,57.494a47.506,47.506,0,0,1-26.992-8.491c9.169,15.952,25.214,26.525,43.475,26.525,28.494,0,51.593-25.741,51.593-57.493C221.922,149,212.08,130.841,197.322,120.724Z" transform="translate(-0.764 -0.835)"/>
    </g>
    <polygon class="cls-15" points="195.076 119.672 211.172 136.14 217.182 155.075 221.519 153.981 217.809 130.2 195.005 113.945 195.076 119.672"/>
    <polygon class="cls-13" points="218.07 153.861 220.875 153.006 222.683 158.006 220.672 160.541 218.097 160.045 218.607 157.541 218.081 157.701 217.703 158.457 217.029 158.022 218.07 153.861"/>
    <g>
      <polygon class="cls-5" points="50.714 250.772 50.473 253.57 45.389 255.997 43.209 253.013 45.872 250.401 50.955 247.974 50.714 250.772"/>
      <polygon class="cls-4" points="54.959 194.058 51.045 249.89 46.147 250.632 42.093 203.045 38.74 187.948 54.959 194.058"/>
    </g>
    <g>
      <polygon class="cls-4" points="66.674 179.406 69.61 245.75 65.142 246.687 55.832 196.487 50.711 181.951 66.674 179.406"/>
      <polygon class="cls-5" points="65.539 248.883 70.848 250.692 72.787 247.363 69.895 245.047 65.063 246.061 65.539 248.883"/>
    </g>
    <path class="cls-15" d="M61.12,108.585c-3.618-3.337-12.341-1.418-16.93-1.418.441,0-4.35,28.548-4.5,31.038a83.014,83.014,0,0,1-6.56,26.571c-1.469,3.5-3.219,6.885-4.263,10.573-1.731,6.112-1.726,13.313-1.237,19.638,4.926,1.509,9.539,4.334,14.6,5.066,4.168.6,8.377-.251,12.562-.664,4.95-.488,9.935-.358,14.89-.783s9.963-1.439,14.349-4.043A85.722,85.722,0,0,1,79.3,181.32c-1.248-4.512-2.853-9.524-3.309-14.23-.411-4.251-.478-8.577-1.033-12.887-.646-5.014-1.422-10.012-2.5-14.935a121.534,121.534,0,0,0-4.855-16.5c-1.52-4.073-3.334-10.745-6.19-13.88C61.322,108.78,61.223,108.681,61.12,108.585Z" transform="translate(-0.764 -0.835)"/>
    <g>
      <path class="cls-6" d="M53.433,93.153c2.293.465,5.118,2.647,5.671,5.341.266,1.3-.113,2.493.221,3.869.649,2.716-2.3,6.717.62,8.605,1.5.97,3.375.656,5.082.312a1.2,1.2,0,0,0,.588-.235,1.079,1.079,0,0,0,.212-1.064,4.154,4.154,0,0,0-.513-1c-2.006-3.362-1.52-8.183-2.3-12.011S60.394,89.343,57,87.775a8.763,8.763,0,0,0-3.346,5.413Z" transform="translate(-0.764 -0.835)"/>
      <path class="cls-24" d="M56.309,109.6c2.206-1.051,3.667-3.553,4.147-6.171a18.8,18.8,0,0,0-.55-7.918c-2.161-8.562-11.8-6.11-14.052,1.212C43.9,103.1,49.9,112.656,56.309,109.6Z" transform="translate(-0.764 -0.835)"/>
      <path class="cls-6" d="M45.083,114.31a7.129,7.129,0,0,0,2.771-2.935c1.014-2.264.586-5.781.707-8.237.127-2.589.338-5.409,1.931-7.3A5.235,5.235,0,0,1,54.257,94.1c.989-.112,1.059.3,1.852-.371A5.037,5.037,0,0,0,57.248,91a4.885,4.885,0,0,0-1.315-3.693,5.482,5.482,0,0,0-4.695-2.017c-6.469.455-10.989,5.182-12.271,12.385-.616,3.462.32,7.163-.364,10.5-.423,2.063-1.475,3.51-1.779,5.693-.789,5.663-3,13.019-2.347,18.735a.85.85,0,0,0,.218.572c.312.26.721-.131.949-.484q2-3.082,4-6.165a11.037,11.037,0,0,0,1.355-2.565c.755-2.331.054-5.188,1.355-7.2A9.193,9.193,0,0,1,45.083,114.31Z" transform="translate(-0.764 -0.835)"/>
    </g>
    <g>
      <path class="cls-15" d="M51.833,163.826c1.179.626,4.642.623,5.689-.427,2.416-2.425-1.866-2.73-3.326-3.207a9.567,9.567,0,0,0,.817-1.571c.187-.516-4.508-.428-5.05-.043-1.3.922-1.063,1.982-1.342,3.555C49.7,162.668,50.764,163.257,51.833,163.826Z" transform="translate(-0.764 -0.835)"/>
      <polygon class="cls-15" points="33.091 120.631 24.306 143.82 46.85 163.456 50.113 156.24 35.729 141.81 43.209 125.507 42.711 115.604 33.091 120.631"/>
    </g>
    <path class="cls-3" d="M62.089,139.326S55.3,150.258,54.842,178.2l6.583.38s-1-24.491,4.087-38.026Z" transform="translate(-0.764 -0.835)"/>
    <path class="cls-25" d="M96.739,99.544s-22.471,3.294-31.368,14.282-2.7,27.793-2.7,27.793,15.636,5.148,24.533-5.84S96.739,99.544,96.739,99.544Z" transform="translate(-0.764 -0.835)"/>
    <path class="cls-3" d="M62.67,141.619a23.1,23.1,0,0,0,2.386.593l19.032-27.044L61.9,139.035C62.314,140.649,62.67,141.619,62.67,141.619Z" transform="translate(-0.764 -0.835)"/>
    <path class="cls-26" d="M25.109,118.816s2.714,22.337,11.544,31.148,22.267,2.592,22.267,2.592,4.069-15.568-4.76-24.379S25.109,118.816,25.109,118.816Z" transform="translate(-0.764 -0.835)"/>
    <path class="cls-3" d="M58.92,152.556s.233-.9.467-2.375L37.664,131.345l19.189,21.989A20.97,20.97,0,0,0,58.92,152.556Z" transform="translate(-0.764 -0.835)"/>
    <path class="cls-27" d="M62.67,141.619s24.372-3.45,31.986-24.541C94.656,117.078,90.924,150.537,62.67,141.619Z" transform="translate(-0.764 -0.835)"/>
    <path class="cls-3" d="M265.313,214.318s6.078,11.437,4.773,39.348l-6.591-.138s2.55-24.351-1.674-38.252Z" transform="translate(-0.764 -0.835)"/>
    <path class="cls-28" d="M233.261,171.917s22.208,5.048,30.389,16.707.938,27.936.938,27.936-15.922,3.908-24.1-7.75S233.261,171.917,233.261,171.917Z" transform="translate(-0.764 -0.835)"/>
    <path class="cls-3" d="M264.588,216.56a22.979,22.979,0,0,1-2.417.4L244.894,188.5l20.629,25.548C265,215.621,264.588,216.56,264.588,216.56Z" transform="translate(-0.764 -0.835)"/>
    <path class="cls-29" d="M303.5,196.76s-4.118,22.069-13.483,30.165-22.376.839-22.376.839-3.076-15.848,6.289-23.945S303.5,196.76,303.5,196.76Z" transform="translate(-0.764 -0.835)"/>
    <path class="cls-3" d="M267.638,227.764s-.176-.914-.315-2.406l22.858-17.085L269.651,228.7A21.327,21.327,0,0,1,267.638,227.764Z" transform="translate(-0.764 -0.835)"/>
    <path class="cls-27" d="M264.588,216.56s-24.094-5.353-30.356-26.99C234.232,189.57,235.841,223.24,264.588,216.56Z" transform="translate(-0.764 -0.835)"/>
    <g>
      <polygon class="cls-18" points="147.676 117.223 156.742 117.223 154.565 45.469 149.853 45.469 147.676 117.223"/>
      <g>
        <g>
          <path class="cls-30" d="M144.887.875,144.88.838l.01.017,0-.02.007.037C155.023,17.691,155.094,46.6,155.094,46.6l-1.77.4-.013,0-1.769.4S141.468,20.766,144.887.875Z" transform="translate(-0.764 -0.835)"/>
          <path class="cls-18" d="M144.882.906,153.3,47l-1.759.4S141.479,20.793,144.882.906Z" transform="translate(-0.764 -0.835)"/>
        </g>
        <g>
          <path class="cls-30" d="M193.356,61.949l.033.012h-.019l.014.014-.032-.012c-18.133,1.359-40.632-13.026-40.632-13.026l.573-1.908,0-.015.573-1.908S179.608,48.705,193.356,61.949Z" transform="translate(-0.764 -0.835)"/>
          <path class="cls-18" d="M193.334,61.929,153.3,47l.569-1.9S179.581,48.7,193.334,61.929Z" transform="translate(-0.764 -0.835)"/>
        </g>
        <g>
          <path class="cls-30" d="M121.659,78.188l-.026.026.008-.019-.017.007.025-.025c8.01-18.179,30.439-32.7,30.439-32.7l1.2,1.507.009.011,1.2,1.507S138.826,71.543,121.659,78.188Z" transform="translate(-0.764 -0.835)"/>
          <path class="cls-18" d="M121.685,78.178,153.3,47l1.189,1.5S138.842,71.518,121.685,78.178Z" transform="translate(-0.764 -0.835)"/>
        </g>
        <path class="cls-30" d="M157.375,46.08a4.175,4.175,0,0,0-4.883-3.6,4.625,4.625,0,0,0-3.232,5.442,4.176,4.176,0,0,0,4.883,3.6A4.625,4.625,0,0,0,157.375,46.08Z" transform="translate(-0.764 -0.835)"/>
      </g>
    </g>
  </g>
</svg>
