<svg id="Camada_1" data-name="Camada 1" xmlns="http://www.w3.org/2000/svg" viewBox="0 0 344 209.99">
  <defs>
    <style>
      .cls-1 {
        fill: #d4d4d4;
      }

      .cls-2 {
        fill: #b3eefc;
      }

      .cls-10, .cls-11, .cls-12, .cls-2, .cls-3, .cls-4, .cls-5 {
        stroke: #fff;
        stroke-miterlimit: 10;
      }

      .cls-2, .cls-3, .cls-4, .cls-5 {
        stroke-width: 0.5px;
      }

      .cls-11, .cls-3 {
        fill: #00718f;
      }

      .cls-12, .cls-4 {
        fill: #0088a1;
      }

      .cls-10, .cls-5 {
        fill: #005578;
      }

      .cls-6 {
        font-size: 12.17px;
        fill: #00303f;
        font-family: Ubuntu-Medium, Ubuntu;
        font-weight: 500;
      }

      .cls-7 {
        letter-spacing: -0.01em;
      }

      .cls-8 {
        letter-spacing: -0.01em;
      }

      .cls-9 {
        letter-spacing: -0.01em;
      }

      .cls-13 {
        font-size: 10.97px;
      }
    </style>
  </defs>
  <rect class="cls-1" x="115.62" y="26.31" width="228.38" height="172.85" rx="13.71"/>
  <g>
    <path class="cls-2" d="M139.56,93.73c-.22,0-.84.38-1-.15s.29-.74.41-.94a10.68,10.68,0,0,0-1.31,0,5.67,5.67,0,0,0-1.2.29,5,5,0,0,0-1.34,1.31c-.29.4-1,.35-1.39.4a1,1,0,0,1-.79-.27c-.27-.2-.56-.12-.9-.08s.21.71.07,1,.16.34.07.71-.7-.22-.7-.22a23.12,23.12,0,0,0-2.37-.54c-.25,0-.44.24-.61.31a1.41,1.41,0,0,1-1.37-.21c-.55-.43-.06-.63-.09-.9s-.54-.71-.8-.77-.21.39-.56.71-.3-.06-.77-.55-.2.07-.67.45-.31,1.09-.35,1.51-.39.37-.39.37l-1-.38s-.83-.77-1.2-1.09-1,.12-1.17.14a2.53,2.53,0,0,1-1.13-.32c-.54-.25-.2-1.08-.17-1.58a8.46,8.46,0,0,0,.07-1.39c-.06-.17-.36.6-.59,1.18a9.9,9.9,0,0,0-.41,1.74l-.34,1.24a10.87,10.87,0,0,0-.15,1.39,2.35,2.35,0,0,1-.3,1.19c-.27.63-.68.31-.55,1.58s.4,1.42.21,2-.71.86-.78,1.84.15,1.49.08,2-1.67,1-2,1.86-.38,1.65-.71,2.61-.52,1.58-1,1.86-1.27.3-1.7.67-.4,1-1,1.41-1,.4-.93.85.27.47.32,1a1.76,1.76,0,0,1-.54,1.81l-.12.14,0,0a1.09,1.09,0,0,0-.13.17c-.05.08-.11.16-.15.24l-.13.24a.67.67,0,0,0-.06.12l-.06.13a1.89,1.89,0,0,0-.11.25l-.11.26-.09.27,0,0-.06.21c0,.13-.08.27-.11.39a.52.52,0,0,0,0,.11c0,.08,0,.15,0,.22s0,.1,0,.14,0,.1,0,.14a.41.41,0,0,0,0,.11v.17c.06.59.12,1.13.2,1.54s.56.94.59,1.25.33.7-.09.75a.53.53,0,0,0,.09.82,3.53,3.53,0,0,0,1.67.29,3.49,3.49,0,0,1-.27,1.09c-.15.16-.53.53-.17.71s.35.6.91.26-.08-.4.76-.42,1-.16,1.29.26a8.76,8.76,0,0,0,1.63,1.13,5.35,5.35,0,0,0,2.33.4,3,3,0,0,1,1.35.48,1.36,1.36,0,0,0,.78.59c.53.21.76.78,1.16,1.19a1.08,1.08,0,0,0,.18-.33,9.1,9.1,0,0,0,0-1.05c.08-.49.85-.77,1.11-1.1l.07-.09,0-.06a.59.59,0,0,0,0-.08.26.26,0,0,0,0-.08l.06-.18s0-.06,0-.09c0-.18,0-.35.08-.51a4.27,4.27,0,0,1,.56-1.38c.22-.28,1-.38,1.52-.57s1.33-.56,1.45-.57.79-.44,1-.46a4.85,4.85,0,0,0,1.16.2c.48-.06.48-.1.6-.3a5.18,5.18,0,0,1,.86-.75,1.6,1.6,0,0,1,.76-.37,4.06,4.06,0,0,1,1.18-.15,1.27,1.27,0,0,0,.91-.22,1.26,1.26,0,0,1,1,0,10.75,10.75,0,0,1,1.2.41c.33.14,1.14-.62,1.32-.72a9,9,0,0,0,1-1,3.64,3.64,0,0,0,.67-.84c.16-.28-.12-.51-.15-.69s-.28-.68-.33-.93.17-.55.22-.69a.88.88,0,0,0-.26-.72c-.18-.09-.42,0-.75-.26s0-.66.13-1a7.23,7.23,0,0,1,.77-1.13,3.37,3.37,0,0,1,.69-.63c.2-.19-.13-.68-.36-1a5.32,5.32,0,0,0-.89-1c-.4-.38-.33-.57-.45-.86s.11-.22.3-.61,0-.41-.09-.91a2.1,2.1,0,0,1,.11-1c.06-.19.52-.21.63-.22s.53-.18,1-.35a1.55,1.55,0,0,0,.75-.53c.21-.21,0-.5-.06-.57s-.32-.33-.51-.64a5.29,5.29,0,0,1-.43-.71c0-.18.38-.64.42-.83s-.39-.53-.57-.8.23-.72.43-.81a1.1,1.1,0,0,1,.43-.06c.11,0,.5.1.8.14s.31,0,.45-.17-.08-.36-.23-.58a6.7,6.7,0,0,1-.36-.61c-.09-.15.26-.91.26-.91a9.2,9.2,0,0,1,.77.53,8.75,8.75,0,0,0,.75.66c.37.3.39,0,.66-.08a7,7,0,0,1,.82,0c0-.19-.29-.36-.3-.48l-.18-1.75c0-.49.18-.42.33-.56s0-.43-.16-.5-.66-.41-1.17-.69-.28-1.09-.25-1.34a5.56,5.56,0,0,0,0-1.22,5.45,5.45,0,0,1-.27-.92c0-.48.08-.38.34-.78s.9-.62,1.06-1S139.78,93.71,139.56,93.73Zm-4.66,14.6c0,.12-.13.18-.24.33a2.09,2.09,0,0,0,0,.86c0,.15.31.35,0,.48a7.12,7.12,0,0,1-1.13.32,9.32,9.32,0,0,1-1.66,0c-.82,0-1.47.07-1.66,0a.55.55,0,0,1-.27-.77,2.83,2.83,0,0,1,.39-.51c.07-.09.33-.29.32-.35a1.36,1.36,0,0,1,0-.82c.13-.32.38-.76.65-.8s1.25-.19,1.38-.17a3.27,3.27,0,0,0,.73.12l.88-.06.61.57Z" transform="translate(-0.34 -0.69)"/>
    <path class="cls-3" d="M135.21,171.93c.11.2.72,1,.72,1a6,6,0,0,1-.2,1.1,29.92,29.92,0,0,0-.09,3.8c0,.66-1.37,2.25-2.16,3l-.11.11-.12.13a26.46,26.46,0,0,0-2.4,3.47l-.39-.63c-.14-.22-.34-.47-.34-.47s-.44.19-.58.12-.38.41-.75.09,0,0,.1-.24a8.38,8.38,0,0,0,.67-1.32c.12-.47-.09-.86,0-1a2.43,2.43,0,0,0,.92-1.26c.29-.91-.84-.4-1-.39s-1.69.44-2.19.5a3.46,3.46,0,0,1-2.17-1c-.44-.54-3.87-2.74-4-3s-.62-.29-.62-.29-1.7-.12-2.18-.24-1.8-.74-2.84-1a13.45,13.45,0,0,0-3.82.19c-.2.05-1.6.21-2.41.3l.06-.05.12-.08.14-.09,0,0a3.11,3.11,0,0,0,.51-1.53,16.74,16.74,0,0,0-.12-2.85,3,3,0,0,0-.06-.42,7.27,7.27,0,0,1,1-.48c.21,0,.65-.17.82.18s.88.4.88.4.16-.54.42-.45.8-.49,1.11-.14a3.28,3.28,0,0,0,1.19.71c.13,0,.58-.11,1-.12s1-.21,1.39.06a2.91,2.91,0,0,0,.54.35,1.76,1.76,0,0,1,.88-.11c.43.09,1.52.83,1.89.74s1-.08.94-.35l-.11-1c0-.4-.25-1.59.5-1.67l1.13-.14a2.28,2.28,0,0,0,.47-.37c.1-.15.75-.87,1-.85a4.65,4.65,0,0,1,.65.15s0-.1.6-.31,1.13-.45,1.26-.47a1.58,1.58,0,0,1,1.14.41c.29.38.52.58.69.61s.41.26.76-.05.91-1,1.23-1.21a6.16,6.16,0,0,1,3.07-.37,2.83,2.83,0,0,0,.61.68l.51.49a12.89,12.89,0,0,0-.83,2.19c0,.36.18,1.74.2,1.9A8.59,8.59,0,0,0,135.21,171.93Z" transform="translate(-0.34 -0.69)"/>
    <path class="cls-4" d="M154.69,34.28c0,.22,0,.43-.06.6a3.75,3.75,0,0,1-.87,1.48,12.72,12.72,0,0,1-1,1.06,3.42,3.42,0,0,1-1.33.68,8.72,8.72,0,0,0-.76,1.13c-.33.61.07.69.11,1a3,3,0,0,1-.47,1.33c-.24.47-.72,1.26-.72,1.26s.05.12.15.46.55.65.55.88A1.6,1.6,0,0,1,150,45,1.37,1.37,0,0,0,150,46a4.63,4.63,0,0,0,.61,1,3.29,3.29,0,0,1,.41,1.28,1.21,1.21,0,0,1-.33.77,4.87,4.87,0,0,0-.8,1A10.89,10.89,0,0,0,150,52.8c0,.36.44.34.57.43a1.62,1.62,0,0,0,.69.24c.29,0,.45.34.54.56a3.36,3.36,0,0,1-.07,1.11,3.75,3.75,0,0,1-.5,1.1c-.22.38-.7.18-1,.23s-.6.46-1.11.74a1.1,1.1,0,0,1-1.11-.07,3.41,3.41,0,0,1-.37-.45c-.09-.14-.92.09-1.38.31s-.37.46-.54.83A5,5,0,0,1,144.5,59c-.43.32-1,1.34-1.64,1.85A12,12,0,0,1,140.72,62l-.27.25a10.66,10.66,0,0,0-.78.86,2,2,0,0,0-.43,1.16,7.4,7.4,0,0,1-.07,1.4c-.08.63-.61,1.83-.67,2.45s-.39.77-.61,1a1.39,1.39,0,0,0-.34,1.06,6,6,0,0,0,.25,1.08s.46.77.59,1a1.6,1.6,0,0,1,.11.73c0,.11.31.81.37,1s-.22.48-.25.58,0,1.42,0,1.85a1.62,1.62,0,0,1-.14.72l-1.53,0a1.49,1.49,0,0,1-.65-.52,4,4,0,0,1-.38-1,.62.62,0,0,0-.39-.39c-.07,0-.6-.33-.62-.57s.47-.71.49-.79-.08-.24-.29-.78-.38-.18-.55-.27-.71-.12-.92-.31-.16-.52-.32-.91-.3-.18-.48-.31a1,1,0,0,1-.25-.5c.21-.44.33-.87.53-1.4a6.71,6.71,0,0,0,.2-1.31c.12-.52.31-.27.59-.49s.58-.07.71-.08a2.08,2.08,0,0,0,.19-1.36,5.2,5.2,0,0,0-.54-1.54c-.2-.29-.77-.13-1.3.07a2.9,2.9,0,0,0-1.07,1c-.11.15-.91-1-1.07-1.29s-.88-.8-1.14-1.24a2.27,2.27,0,0,1-.32-1.12c0-.43-.1-.11-.42,0a1,1,0,0,1-.92-.26c-.27-.2.65-.72,1-1.09s.36-2.74.36-2.74-.08-1.1-.17-1.55-.18-2.08-.28-2.67a5.25,5.25,0,0,0-.89-1.72,14.91,14.91,0,0,0-1.57-1.23c-.46-.41-.57.11-.91.11a6.63,6.63,0,0,0-1,.13l-.51-.94a3.38,3.38,0,0,0,.27-.5c.38-.83.64-.77.9-1.13a16.32,16.32,0,0,1,1.68-1.26,3.55,3.55,0,0,0,.85-1.15c.19-.35.35-.72.53-1a16.21,16.21,0,0,0,.76-1.66c.31-.68.12-.84.2-1.26a13.66,13.66,0,0,1,1-1.68,6.16,6.16,0,0,0,.59-1.63c.11-.52,0-1.33.13-2a15.94,15.94,0,0,1,1-2.54,20.53,20.53,0,0,0,.65-4.67,28.78,28.78,0,0,0-.27-3l.29.06.17,0,.41.09.2,0,.18,0,.95.21h.07c.19.05,1.35.62,1.46.67s.69.95.85,1.07.38-.14.51-.38a1.55,1.55,0,0,1,.92-.65c.27,0,1.51,1.51,1.94,2a18.6,18.6,0,0,1,1.67,2.83c0,.16,0,.66,0,.82s.46.38.46.38l.16-.06a6,6,0,0,1,.8-.4c.09,0,.32.42.32.42a5.06,5.06,0,0,0,1-.91c.3-.4.43-.39.93-.64s1,.13,1.48.26,2.32,1,2.32,1,1,.29,1.12.28h2.39a5.29,5.29,0,0,1,1.56.45A1.32,1.32,0,0,0,154.69,34.28Z" transform="translate(-0.34 -0.69)"/>
    <path class="cls-5" d="M171.43,106.9c-.17.2-1.11.66-1.31.93a8.47,8.47,0,0,0-.71,1.28c-.11.29.63.38.54.82s-.19.63-.59.8-.72.46-.75.68a4.21,4.21,0,0,0,0,1,1.49,1.49,0,0,0,.27,1c.25.27.5.46.78.76a8.55,8.55,0,0,1,1.17,1.47c0,.19-.08.59,0,.8l-1.77,0a6,6,0,0,0-.66,1c0,.18.16.3-.22.3s-.43-.07-.75.1-1.06.4-1,.8.11,1.09.37,1.2a1,1,0,0,1,.58.66c.07.31.43.45.14.9s-1.44.45-1,.63,1.37.61,1.45,1,.61.57.2,1.49-.75,1.74-.92,2.13,0,1.29-.18,1.45a8.53,8.53,0,0,0-.86,1.11c-.26.4-.48.24-1,.53s-1.09.46-1.06.77a8.45,8.45,0,0,0,.46,1.55.14.14,0,0,0,0,.06,1.44,1.44,0,0,0-.62.75c-.1.63-.34.5-.65,1.24a5,5,0,0,0-.39,1.15c-.08.32-.14.85-.25,1.19s-.34.72-.13,1.18.17.72,0,.82a3.74,3.74,0,0,1-.6.29s-2,.68-2.24,1.16-.44.88-.64.88-.81-.18-1.2-.19a4.68,4.68,0,0,0-1.63,0l-.12,0-.07,0-.8.42-.12.06-.48.26-.51.27-.15.07-.42.2c-.57.22-2.27.92-2.27.92l-.53.64-.64.26a10.12,10.12,0,0,0-.7.77,1.35,1.35,0,0,1-.85.4,5.38,5.38,0,0,1-1,.09.93.93,0,0,0-.72.22c-.28.15-.33.48-.45,1a1.68,1.68,0,0,1-.23.65,8.76,8.76,0,0,1-2,0,1.49,1.49,0,0,1-.72-.21,2.94,2.94,0,0,1-.6-1.35c-.08-.35-.56-.5-.67-.56a2.47,2.47,0,0,1-.62-1.11c-.14-.54-.09-.41,0-.57a3.27,3.27,0,0,0-.14-1,2.77,2.77,0,0,1-.11-.87,2.82,2.82,0,0,1,.56-.87,1.9,1.9,0,0,0,.24-.95c0-.14-.48-.61-1.38-.5s-.55.25-.73.25a5.35,5.35,0,0,1-.54.07c-.12,0-.41-.82-.61-1.14a3.91,3.91,0,0,1-.52-2,1.9,1.9,0,0,0,.15-.78.65.65,0,0,0-.37-.71c-.13-.07-.71-.37-.68-.53a9.54,9.54,0,0,0,.41-1.06,2.8,2.8,0,0,0-1-1,.84.84,0,0,0-.61,0,2.72,2.72,0,0,0-.48-.22,4,4,0,0,0-1,.46c-.41.29-.34.37-.46.47a.67.67,0,0,1-.53.16,3.25,3.25,0,0,0-.83-.06c-.14,0-.27.26-.33.3a12.46,12.46,0,0,0-1.6.35,1.16,1.16,0,0,1-.83,0l-.24.12-.2.48s-.38.46-.45.58-.21-.45-.27-.74-.47.12-.47.12a8.1,8.1,0,0,1-.66.54c-.12.07-.24-.47-.29-.72s-.17-.67-.25-1.05-.22-.27-.22-.27a8.74,8.74,0,0,0-1.14,0,9.16,9.16,0,0,0-1.32.48,9.29,9.29,0,0,1-1.19.14,2.25,2.25,0,0,1-1.25-.46c-.14-.19-.82-.22-1-.21s-.4.39-.66.56l-.22.2a.46.46,0,0,0-.07.07l-.18.18-.17.18-.22.23-.13.14,0,0-.09.1-.19.2-.07.07h0l-.07.08h0s0,0,0,.05l0,0h0s-.18-.73-.2-.91-.26-.94-.29-1.23.28-.49.66-.93a.9.9,0,0,0,.18-.33,9.1,9.1,0,0,0,0-1.05c.08-.49.85-.77,1.11-1.09l.07-.1,0-.06a.59.59,0,0,0,0-.08l0-.08a1.27,1.27,0,0,0,.06-.18s0-.06,0-.09c0-.18,0-.35.08-.51a4.27,4.27,0,0,1,.56-1.38c.22-.28,1-.38,1.52-.57s1.33-.56,1.46-.57.77-.44.94-.46a4.85,4.85,0,0,0,1.16.2c.48-.06.48-.1.6-.3a5.5,5.5,0,0,1,.85-.75,1.68,1.68,0,0,1,.77-.37,4.48,4.48,0,0,1,1.18-.15,1.26,1.26,0,0,0,.91-.22,1.26,1.26,0,0,1,1,0,10.75,10.75,0,0,1,1.2.41c.33.14,1.14-.62,1.32-.72a9.85,9.85,0,0,0,1-1,3.93,3.93,0,0,0,.67-.84c.16-.28-.11-.51-.15-.69s-.29-.68-.33-.93.17-.55.22-.69a.88.88,0,0,0-.26-.72c-.18-.09-.42,0-.74-.26s0-.66.12-1a7.23,7.23,0,0,1,.77-1.13,3.37,3.37,0,0,1,.69-.63c.2-.19-.13-.68-.36-1a5.6,5.6,0,0,0-.88-1,1.46,1.46,0,0,1-.45-.86c-.11-.28.1-.22.29-.61s0-.4-.09-.9a2.13,2.13,0,0,1,.11-1c.06-.19.53-.21.63-.22s.53-.18,1-.35a1.55,1.55,0,0,0,.75-.53c.21-.21,0-.5-.06-.57a8.41,8.41,0,0,1-.95-1.35c0-.18.39-.64.44-.83s-.4-.53-.57-.8.22-.72.42-.81a1.13,1.13,0,0,1,.44-.06c.1,0,.49.11.79.14s.31,0,.45-.17-.08-.36-.23-.58-.28-.46-.37-.61.27-.91.27-.91.68.43.78.53a6.89,6.89,0,0,0,.74.66c.37.3.4,0,.67-.08a6.84,6.84,0,0,1,.81,0c0,.19-.21.12-.3.62s-.29,1-.09,1a3.21,3.21,0,0,0,1.26-.52c.1-.16,1.3-1.57,1.48-1.8a7.62,7.62,0,0,1,1-1,8.67,8.67,0,0,1,1.47-.76l.18-.15.6-.5a9.51,9.51,0,0,1,1.66-1.61,7.79,7.79,0,0,1,2.35-.44,6.53,6.53,0,0,1,.76.61,1.19,1.19,0,0,1-.1.66c-.16.35-.4.75-.19,1.15a1.28,1.28,0,0,0,.87.78c.37.05.75.19.93,0s.23-.73.54-1,.19-.67,1.08-.53a2.94,2.94,0,0,1,1.59.72,2.24,2.24,0,0,0,1.17.75,13.13,13.13,0,0,1,1.72.8,3.6,3.6,0,0,0,1,.21,4.9,4.9,0,0,0,1.36-.47c.14-.2.3-.34.47-.3a6.21,6.21,0,0,1,.71.31l1.36,2.07a3.53,3.53,0,0,0,.2.8c.1.14,1,.18,1,.18s.43-.15.48-.3-.1-.39.4-.42.46-.18,1.16,0,.88.11.93.34.59.48.84.45a2.22,2.22,0,0,1,1.27.12c.37.23.77.34,1.05.85S171.61,106.69,171.43,106.9Z" transform="translate(-0.34 -0.69)"/>
    <path class="cls-5" d="M154.37,144.53c-.11.29-.37.78-.37.78l-.4.72a5.32,5.32,0,0,0-1.51.83c-.44.42.08.79.1,1s-.24.51-.24.51a3.24,3.24,0,0,0-1.06.36,14,14,0,0,0-1.14,1c-.06.07-.67.52-.78.67s.1.38.2.48a9.38,9.38,0,0,0,1,.33c.13.08-.92,1.28-1.3,1.26s-2.38-.92-2.65-.91a.94.94,0,0,0-.68.36,6.06,6.06,0,0,1-.76,1.17c-.24.19-1.19.12-1.46.24a5.33,5.33,0,0,0-1.37,1.39c-.21.41-.27.67-.34.78s-.47.17-.71.45-3.17,2.68-3.17,2.68a10.33,10.33,0,0,0-.33,1.69,2.21,2.21,0,0,1-.51,1,1.35,1.35,0,0,0-.45-.54c-.31-.14-.5-1.59-.75-1.56l-1.09.14s-.33,1.19-.38.73-.2-1.9-.2-1.9a.65.65,0,0,0-.61-.24,8.83,8.83,0,0,0-1.59.19,8.45,8.45,0,0,1-1.5.14,3,3,0,0,1-.07-.68,4.06,4.06,0,0,0,.08-.84c0-.27.06-.65-.28-.93a8.08,8.08,0,0,1-1.17-1.28,4.34,4.34,0,0,1-.56-1.3c0-.32.13-1.21-.17-1.68a11,11,0,0,0-1.47-2c-.26-.11-1.28-.49-1.59-.22a8,8,0,0,1-1.48.68l-1.79-.28s-.46-.64-.65-.61-3.07-.13-3.07-.13l-1.38-.29a5.11,5.11,0,0,0-1.07-.1,1.2,1.2,0,0,0-.6.3,4.76,4.76,0,0,1-1.23.38c-.54.07-1.88.09-1.88.09l-1.57,0,.12-.14c.46-.51,1-1.17,1.49-1.72a1.83,1.83,0,0,0,.13-.16l.23-.27.13-.16.29-.36,0,0c.18-.25.89-.75,1.42-1.3s.7-.56.59-.82a1.12,1.12,0,0,1,.11-1,3.91,3.91,0,0,1,.75-.51,4.89,4.89,0,0,0-.29-1.15c-.15-.21.08-.52.65-1.55s.69-.22,1-.49,0-.64-.1-1.14a3.69,3.69,0,0,1,.08-2.07c.36-.64,1.56-.84,1.69-.85a5.47,5.47,0,0,0,.46-1.23h0l0,0s0,0,0-.05h0l.07-.08h0l.07-.07.19-.2.09-.1,0,0,.13-.14.22-.23.17-.18.18-.18a.46.46,0,0,1,.07-.07l.22-.2c.26-.17.54-.54.66-.56s.81,0,1,.21a2.25,2.25,0,0,0,1.25.46,9.29,9.29,0,0,0,1.19-.14,9.16,9.16,0,0,1,1.32-.48,8.74,8.74,0,0,1,1.14,0s.14-.11.22.27.21.8.25,1.05.17.79.29.72a8.1,8.1,0,0,0,.66-.54s.42-.42.47-.12.2.87.27.74.45-.58.45-.58l.2-.48.24-.12a1.16,1.16,0,0,0,.83,0,12.46,12.46,0,0,1,1.6-.35c.06,0,.19-.28.33-.3a3.25,3.25,0,0,1,.83.06.67.67,0,0,0,.53-.16c.12-.1.05-.18.46-.47a4,4,0,0,1,1-.46,2.72,2.72,0,0,1,.48.22.84.84,0,0,1,.61,0,2.8,2.8,0,0,1,1,1,9.54,9.54,0,0,1-.41,1.06c0,.16.55.46.68.53a.65.65,0,0,1,.37.71,1.9,1.9,0,0,1-.15.78,3.91,3.91,0,0,0,.52,2c.2.32.49,1.11.61,1.14a5.35,5.35,0,0,0,.54-.07c.18,0-.17-.14.73-.25s1.37.36,1.38.5a1.9,1.9,0,0,1-.24.95,2.82,2.82,0,0,0-.56.87,2.77,2.77,0,0,0,.11.87,3.27,3.27,0,0,1,.14,1c0,.16-.1,0,0,.57a2.47,2.47,0,0,0,.62,1.11c.11.06.59.21.67.56a2.94,2.94,0,0,0,.6,1.35,1.49,1.49,0,0,0,.72.21,8.76,8.76,0,0,0,2,0,1.68,1.68,0,0,0,.23-.65c.12-.49.17-.82.45-1a.93.93,0,0,1,.72-.22,5.38,5.38,0,0,0,1-.09,1.35,1.35,0,0,0,.85-.4,10.12,10.12,0,0,1,.7-.77l.64-.26.53-.64a4.7,4.7,0,0,0,.11,1.09,1.46,1.46,0,0,0,.64.44,14.06,14.06,0,0,0,1.57-.07C154,144.18,154.48,144.24,154.37,144.53Z" transform="translate(-0.34 -0.69)"/>
    <path class="cls-4" d="M181.3,79.36l-.12.32c0,.1-.07.19-.1.28-.15.39-.27.72-.34.93-.27.81-1.71,2.64-2,3.29a27.44,27.44,0,0,0-.86,2.84,2.29,2.29,0,0,1-1.15,1.17c-.5.29-.44-.38-.6-.52s-.93,1-1.28,1.58,0,1,.13,1.36a2.09,2.09,0,0,1-.26,1.2c-.18.46.11.61.27,1a5.94,5.94,0,0,1,.17,1.64c0,.47.14,1.28.15,1.4a7,7,0,0,0-.56,1.47,4.35,4.35,0,0,0,.54,1.79c.25.61.35,1.95.48,2.33a18.29,18.29,0,0,1,.37,2.57,14.88,14.88,0,0,1-.36,1.88c-.2.89-.19,2.18-.35,3.34a11.62,11.62,0,0,0,.19,3c0,.09.49,1.66.56,2a2.67,2.67,0,0,1-.28,1.09s-.63.72-1,1.09a1.47,1.47,0,0,0-.2.26,7,7,0,0,0-.59,1.39l-.28-.12a9,9,0,0,1-1.66-.89c-.17-.22-.88-.44-1.17-.63a.44.44,0,0,1-.12-.1c-.1-.21,0-.61,0-.8a8.55,8.55,0,0,0-1.17-1.47c-.28-.3-.53-.49-.78-.76a1.49,1.49,0,0,1-.27-1,4.21,4.21,0,0,1,0-1c0-.22.34-.5.75-.68s.49-.36.59-.8-.65-.53-.54-.82a8.47,8.47,0,0,1,.71-1.28c.2-.27,1.14-.73,1.31-.93s.16-.69-.12-1.21-.68-.62-1.05-.85a2.22,2.22,0,0,0-1.27-.12c-.25,0-.78-.21-.84-.45s-.24-.15-.93-.34-.66,0-1.16,0-.37.26-.4.42-.48.3-.48.3-.93,0-1-.18a3.53,3.53,0,0,1-.2-.8l-1.36-2.07a6.21,6.21,0,0,0-.71-.31c-.17,0-.33.1-.47.3a4.9,4.9,0,0,1-1.36.47,3.6,3.6,0,0,1-1-.21,13.13,13.13,0,0,0-1.72-.8,2.24,2.24,0,0,1-1.17-.75,2.94,2.94,0,0,0-1.59-.72c-.89-.14-.76.3-1.08.53s-.37.75-.54,1-.56.07-.93,0a1.28,1.28,0,0,1-.87-.78c-.21-.4,0-.8.19-1.15a1.19,1.19,0,0,0,.1-.66,6.53,6.53,0,0,0-.76-.61,7.79,7.79,0,0,0-2.35.44,9.51,9.51,0,0,0-1.66,1.61l-.6.5-.18.15a8.67,8.67,0,0,0-1.47.76,7.62,7.62,0,0,0-1,1c-.18.23-1.38,1.64-1.48,1.8a3.21,3.21,0,0,1-1.26.52c-.2,0,0-.49.09-1s.26-.43.3-.62-.29-.36-.3-.48l-.18-1.75c0-.49.18-.42.33-.56s0-.43-.16-.5-.66-.41-1.17-.69-.28-1.09-.25-1.34a5.56,5.56,0,0,0,0-1.22,5.45,5.45,0,0,1-.27-.92c0-.48.07-.38.34-.78s.89-.62,1.06-1-.75-.18-1-.16-.83.38-1-.15.29-.74.42-.94a3.68,3.68,0,0,1,.23-.39c.1-.14-.1-.51-.24-.56a.57.57,0,0,1-.39-.44,1.67,1.67,0,0,1,.24-1c.23-.33,0-.46-.06-.6s-.43-.16-.55-.24a6.71,6.71,0,0,1-.72-1.81s.06-.08.15-.11l.09,0h.06a1.44,1.44,0,0,0,.24-.09l.07,0,.16-.1a.63.63,0,0,0,.18-.21l0-.1c.16-.54-1.18-.65-1.18-.65s-.08-.51,0-.61.91-.2,1.2-.33-.23-.62-.36-.78-1-.07-1.2-.19a3.31,3.31,0,0,1-1.06-.7c-.17-.28.77-2,1-2.48s1.19-1.52,1.56-2.06.87-1.14,1.06-1.47a.36.36,0,0,0-.05-.5l-.05-.08c.15-.22.45-.75.61-.68a2.53,2.53,0,0,1,.86,1.24c0,.39.3.43.33.7a3.17,3.17,0,0,0,.1,1c.15.32.17.78.72,1a4,4,0,0,0,1.42.13c.14,0,.59.26.91,0l.09-.07a4.31,4.31,0,0,0,.87-.9,9.43,9.43,0,0,1,.84-1.21,2.58,2.58,0,0,0,.62.11,4.05,4.05,0,0,0,1.15-.65,5.9,5.9,0,0,0,.95-1.41,8.1,8.1,0,0,0,.64-2.19,2.05,2.05,0,0,0-.59-.84c-.27-.22-.85-.6-.49-1.23A6.11,6.11,0,0,1,150,70.5c.11,0,.49-.73.56-.07s.17.9.43.9a1.38,1.38,0,0,0,.64,0c.41-.11,1-.31,1.11-.13s0,.6.52.72.87.26,1.11-.13a8.34,8.34,0,0,1,.76-1.16,3.32,3.32,0,0,1,1.12-.6c.3-.07.92-.27.92-.27l1.35-1.42s0-.45.69-.91A10.88,10.88,0,0,0,160.68,66a1.61,1.61,0,0,0,.34.35c.58.42.79.27,1.22.65a7.92,7.92,0,0,1,1.16,1.36c.07.14.21.21,0,.45a1.26,1.26,0,0,0-.24.67c0,.12.54.85.7.77s1.14-1,1.14-1a1.05,1.05,0,0,0,.39-.33,1.36,1.36,0,0,0,.27-.88c0-.4-.3-.52-.06-.58a4.62,4.62,0,0,1,.64-.08,1.48,1.48,0,0,0,.61-.35c.1-.1.22,0,.41-.42a7.78,7.78,0,0,1,.8-1.22,3.51,3.51,0,0,1,.83-.9c.24-.12.43-.79.76-.34s.51.82.71.92,0,.12.69.13,1-.09,1.12,0a4.19,4.19,0,0,0,.68.56,1.72,1.72,0,0,0,.75.18,1.42,1.42,0,0,1,1.08.18,2.18,2.18,0,0,1,.56,1.06,1,1,0,0,0,.21.43l.1.14c.23.28.69.59.71.83a.3.3,0,0,0,0,.12,9.83,9.83,0,0,1,.31,1,1.88,1.88,0,0,0,.45,1.05,5.15,5.15,0,0,1,.64.63h0c.14.15.26.29.33.35a.86.86,0,0,1,.32.56,4,4,0,0,1-.3.94s-.12-.08.07.45.29.61.29.91-.56.56-.64.54-.54-.24-.54-.24,0-.13-.33,0-.85,0-.8.41a2.75,2.75,0,0,0,.46,1.16c.2.31.28.3.49.64a4.61,4.61,0,0,1,.37.88c.12.32,0,.09.35.66a2.89,2.89,0,0,0,.93.86,4.2,4.2,0,0,1,1.19-.15c.13.11.58-.16.84-.1A3,3,0,0,0,181.3,79.36Z" transform="translate(-0.34 -0.69)"/>
    <path class="cls-5" d="M168.27,139.72c-.38.21-1.75.62-2,.79s.05.43.08.71-.32.24-.78.41a1.83,1.83,0,0,0-.78.62c-.18.16,0,.63,0,.78s.65.32.65.32l.05.47c0,.18-.33.34-.68.59a27.45,27.45,0,0,1-3.88.65,4.68,4.68,0,0,0-1,.12c-.28.11-.61.83-.79.9a5.74,5.74,0,0,1-1.27.21c-.39,0-.35-.14-.47-.29s-1.14-.05-1.33,0a1.31,1.31,0,0,0-.72.59,1.46,1.46,0,0,1-.2.25,2.74,2.74,0,0,1-.67.48,6.24,6.24,0,0,1-1.07.29c-.27,0-.13-.31-.09-.5s.19-.23.56-.68-.11-.4-.19-.42l-.13,0,.4-.72s.26-.49.37-.78-.37-.35-.62-.35a14.06,14.06,0,0,1-1.57.07,1.46,1.46,0,0,1-.64-.44,4.7,4.7,0,0,1-.11-1.09s1.7-.7,2.27-.92l.42-.2.15-.07.51-.27.48-.26.12-.06.8-.42.07,0,.12,0a4.68,4.68,0,0,1,1.63,0c.39,0,1,.18,1.2.19s.44-.39.64-.88,2.24-1.16,2.24-1.16a3.74,3.74,0,0,0,.6-.29c.13-.1.18-.36,0-.82s0-.83.13-1.18.17-.87.25-1.19a5,5,0,0,1,.39-1.15c.31-.74.55-.61.65-1.24a1.44,1.44,0,0,1,.62-.75c.08.28,0,.78.17,1a1.78,1.78,0,0,1,.48,1c.06.55,0,.6.41.73a7.07,7.07,0,0,0,1.68.06h.19l1.13.18.49-.06a2,2,0,0,0,0,.26c-.14,1-.4,1.56-.29,1.87s.61,1,.81,1.53S168.65,139.51,168.27,139.72Z" transform="translate(-0.34 -0.69)"/>
    <path class="cls-3" d="M136.91,161.28a17.12,17.12,0,0,1-1.75,1.8,4.2,4.2,0,0,0-.86,1.85.83.83,0,0,0,.1.43,6.16,6.16,0,0,0-3.07.37c-.32.23-.88.89-1.23,1.21s-.59.07-.76.05-.4-.23-.69-.61a1.58,1.58,0,0,0-1.14-.41c-.13,0-.69.27-1.26.47s-.6.31-.6.31a4.65,4.65,0,0,0-.65-.15c-.21,0-.86.7-1,.85a2.28,2.28,0,0,1-.47.37l-1.13.14c-.75.08-.54,1.27-.5,1.67l.11,1c0,.27-.57.25-.94.35s-1.46-.65-1.89-.74a1.76,1.76,0,0,0-.88.11,2.91,2.91,0,0,1-.54-.35c-.36-.27-1-.06-1.39-.06s-.83.15-1,.12a3.28,3.28,0,0,1-1.19-.71c-.31-.35-.85.23-1.11.14s-.42.45-.42.45-.72-.05-.88-.4-.61-.2-.82-.18a7.27,7.27,0,0,0-1,.48,4.38,4.38,0,0,0-.69-1.56s-.77-1.69-.91-2.06-.38-.35-.58-.44a5.47,5.47,0,0,0-1.45,0c-.37,0-.46.24-1.05.43s-.45-.22-.43-.29a8.32,8.32,0,0,1,.35-1.08,6.11,6.11,0,0,0,.2-1.7,5.19,5.19,0,0,1,.36-2.22,2.46,2.46,0,0,0-.2-1.95c-.12-.31-.23-.87-.34-1.06a2.23,2.23,0,0,0,1-.46c.47-.38.33-.5.41-1s0-.82.06-1.43.5-.56.84-.88.15-.57.13-.75a4.32,4.32,0,0,1,.35-1.56,12.81,12.81,0,0,1,1.71-1.81l.14-.14.1-.09.11-.11,0,0,.17-.19.1-.1h0l1.57,0s1.34,0,1.88-.09a4.76,4.76,0,0,0,1.23-.38,1.2,1.2,0,0,1,.6-.3,5.11,5.11,0,0,1,1.07.1l1.38.29s2.88.15,3.07.13.65.61.65.61l1.79.28a8,8,0,0,0,1.48-.68c.31-.27,1.33.11,1.59.22a11,11,0,0,1,1.47,2c.3.47.14,1.36.17,1.68a4.34,4.34,0,0,0,.56,1.3,8.08,8.08,0,0,0,1.17,1.28c.34.28.25.66.28.93a4.06,4.06,0,0,1-.08.84,3,3,0,0,0,.07.68,8.45,8.45,0,0,0,1.5-.14,8.83,8.83,0,0,1,1.59-.19.65.65,0,0,1,.61.24s.15,1.45.2,1.9.38-.73.38-.73l1.09-.14c.25,0,.44,1.42.75,1.56A1.35,1.35,0,0,1,136.91,161.28Z" transform="translate(-0.34 -0.69)"/>
    <path class="cls-3" d="M129.58,181.09c-.11.15.1.54,0,1a8.38,8.38,0,0,1-.67,1.32c-.1.24-.47-.08-.1.24s.62-.17.75-.09.58-.12.58-.12.2.25.34.47l.39.63c-.12.2-.23.4-.33.59l-.12.21a7,7,0,0,0-.51,1.14c-.54,1.55-2.75,7.31-3,8a15.36,15.36,0,0,1-3,3.51,16,16,0,0,0-1.78,1.51c-.51.53-.59,1.38-1.13,2a8.32,8.32,0,0,0-.88.9,5.6,5.6,0,0,0-.67,2.21,8.83,8.83,0,0,1-1.11,3.2c-.25.34-.62.45-.9.76-.45.48-1.21,2-1.93,1.87s-.7-1.14-.83-1.71a2.38,2.38,0,0,1,.05-1.57c.15-.54.57-.57.72-.82a12,12,0,0,0,.86-1.07c.21-.41-.35-.9-.59-1.14s-1-.25-1.34-.39a1.45,1.45,0,0,1-.72-1.06c0-.38-.59-.82-1.06-1.22l-1-.84a3.51,3.51,0,0,1-1.87-.94c-.67-.77-.68-.65-.88-.72a5.15,5.15,0,0,1-1.58-.63c-.51-.4-.55-.17-1.33-.44a3.15,3.15,0,0,1-1.49-.9,15.18,15.18,0,0,0-1.46-1.29c-.42-.22-.43.36-.48.91a.72.72,0,0,1-1.09.46c-.24-.25-.38-.87-.7-1.32s-1.51-1.51-2-2a5,5,0,0,0-2.07-1.12,1,1,0,0,0-1.35.51c-.18.27-1.39.81-1.74.64s-.29-.3-.06-.75,2.32-3.7,3-4.53,2.44-3.76,2.76-4.12.76-1.06,1-1.39.73-.07.89-.34-.52-.1.16-.94a36.87,36.87,0,0,1,2.9-2.95,22.11,22.11,0,0,1,2.33-2,8.37,8.37,0,0,0,1.92-1,4.61,4.61,0,0,1,.83-.73l.1-.07c.81-.09,2.21-.25,2.41-.3a13.45,13.45,0,0,1,3.82-.19c1,.24,2.37.85,2.84,1s2.18.24,2.18.24.51,0,.62.29,3.54,2.46,4,3a3.46,3.46,0,0,0,2.17,1c.5-.06,2.06-.48,2.19-.5s1.25-.52,1,.39A2.43,2.43,0,0,1,129.58,181.09Z" transform="translate(-0.34 -0.69)"/>
    <path class="cls-2" d="M132.51,29.6a20.53,20.53,0,0,1-.65,4.67,15.94,15.94,0,0,0-1,2.54c-.1.71,0,1.52-.13,2a6.16,6.16,0,0,1-.59,1.63,13.66,13.66,0,0,0-1,1.68c-.08.42.11.58-.2,1.26a16.21,16.21,0,0,1-.76,1.66c-.18.31-.34.68-.53,1a3.55,3.55,0,0,1-.85,1.15,16.32,16.32,0,0,0-1.68,1.26c-.26.36-.52.3-.9,1.13a3.38,3.38,0,0,1-.27.5c-.35.53-.74.87-.91,1.11s-1.22.88-.92.93,1.31,0,1.49.05a9.31,9.31,0,0,1,1,.75c.13.08.63.75.57,1a3.19,3.19,0,0,1-.53.94,1.27,1.27,0,0,0-.09.84,1.46,1.46,0,0,1-.25,1.22,23.48,23.48,0,0,1-1.49,2.43c-.26.26-1,.26-1.23.61s-.74.64-.86,1.11-.37,0-.36,1A6.35,6.35,0,0,1,120,64a3,3,0,0,0,.36,1.06c.16.3,1,.84,1.15,1.33a6.94,6.94,0,0,1-.34,3.21c-.39.69-.86,1.07-1.06,1.55s-.24,1-.59,1.22-.83.19-1.07,1.14-.7,2.15-.76,2.39-.38,1.39-.51,1.85a1.63,1.63,0,0,0,0-.18h0l-6.71.29L87,78.89l-1.63.2-1.22-.44-.67-1.16c-.15-.26-1,0-1.21-.22s-.49-.76-.69-1.06-.61-.16-.72-.37a13.2,13.2,0,0,1-.64-1.71,3.32,3.32,0,0,0-.54-1.59,3.33,3.33,0,0,1-.74-1.42,4.32,4.32,0,0,1-.18-1.73,4.18,4.18,0,0,0-1.46-.88,15.56,15.56,0,0,0-1.38-2.25,1.58,1.58,0,0,1-.61-1c0-.36,1.2-1.92,1.57-3.25s2.65-8.16,3-9.86S82.26,45,82.66,44s.06-1.6,0-2.57.25-.83.66-1.31a11.54,11.54,0,0,1,1.07-1L84,38.48a6.12,6.12,0,0,1-1.75,1.07,1.46,1.46,0,0,1-1.44-.32c-.17,0-.42-.31-.91-1.23s-1-.36-1.35-.51-1.15-.22-2.2-.65-1.12-.47-1.39-.93a1.39,1.39,0,0,1-.11-1l-1.56.19s-.3-.21-.78-.58a3.48,3.48,0,0,1-.94-.86,6.48,6.48,0,0,1-.89-2.1c-.22-.52-.79-.57-1.14-1.2a8.09,8.09,0,0,1-.27-2.6L69,22.08l.41,0c.08,0,1.37-.53,1.48-.79a3.75,3.75,0,0,1,.6-1.2c.2-.11.91.43,1.41.3s.16-.81.52-1.09,1.33-.08,1.54-.18.63-1,1.1-1.47.69-.27.74-.27a7.27,7.27,0,0,0,1.39.26,1.59,1.59,0,0,0,1-.42,4,4,0,0,1,1.85,0c.48.09,1.27.47,1.75.2S83,16,83,16a2.16,2.16,0,0,0-.83-.93c-.29-.15.42-1.4.42-1.4s1.57.48,1.8.51.61-.07,1-.68,1.63-.56,1.8-.58a3.61,3.61,0,0,1,.88.65,2.93,2.93,0,0,1,.17,1.56c-.22.53,0,1.79.3,1.8s1.35-.79,1.79-.6,1.48,1.3,1.79,1.44a9.13,9.13,0,0,0,1.43.33,4.14,4.14,0,0,1,1.22.4,10.5,10.5,0,0,1,1.07,1.76c0,.18.66.69,1,1s.68.56.73,1a9.9,9.9,0,0,1,.2,1.95c-.1.24.1.54.41,1.05s2.18,1.57,2.23,2a3.47,3.47,0,0,0,.47,1.32c.14.12.46.31.52.53s.23,1.35.58,1.49a17.54,17.54,0,0,0,2,.36s1,.69,1.32-.76a7.74,7.74,0,0,1,.71-2.52c.22-.3.94-1.08.94-1.08s.24-1.41.37-1.79a2.72,2.72,0,0,1,.86-1.07,11.63,11.63,0,0,0,1-.63,3.5,3.5,0,0,0,.69-1.09c.09-.29.46-1.26.82-1.43A9.41,9.41,0,0,1,111.8,20a2.46,2.46,0,0,0,.47-.2.7.7,0,0,0,.06.19,2.45,2.45,0,0,1,.24.75c0,.24,0,.66.2.84a3.65,3.65,0,0,0,.88,0l.73-.09a4.44,4.44,0,0,1,1.18.61,17,17,0,0,1,1.21,1.5,1.39,1.39,0,0,0,.94.53,5.74,5.74,0,0,0,1.1-.23,6.28,6.28,0,0,1,1.24-.17c.21,0,.71.65.71.65s-.24.42-.38.69.74.46.83.47a3.85,3.85,0,0,0,1.36-.12,14.22,14.22,0,0,1,3.21,0l.29,0h.15l.49.07.26,0,.19,0,.41.07.74.13.46.08.36.07.78.15.27.05,1.69.34.34.07h0A28.78,28.78,0,0,1,132.51,29.6Z" transform="translate(-0.34 -0.69)"/>
    <path class="cls-4" d="M191.39,56.1a48.46,48.46,0,0,1-.18,6.51c-.05.15-.28.71-.55,1.38l-.41-.46a8.55,8.55,0,0,1-.82-.27,2.56,2.56,0,0,0-.91-.16c-.23,0-.65.44-.65.44s-.72.37-.78.38a5,5,0,0,0-.77.16c-.3.08-.41.32-.57.57s-.45.61-.61.88-.42.37-.7.59-.68.11-.89.16a4.67,4.67,0,0,0-1,.6c-.17.14-.69.06-1,.12a.58.58,0,0,1-.47-.06,1.48,1.48,0,0,1-.59-.45c-.1-.17-.63-.41-.71-.51s-.78,0-.9,0-.33-.48-.39-.52-.76-.52-.82-.54-.37.5-.45.72l-.06.13a.91.91,0,0,1-.07.14h0a2.51,2.51,0,0,1-.21.37c-.07.1-.5.22-.54.25a.8.8,0,0,0-.23.44c-.08.28-.63.64-.63.64a1,1,0,0,1-.21-.43,2.18,2.18,0,0,0-.56-1.06,1.42,1.42,0,0,0-1.08-.18,1.72,1.72,0,0,1-.75-.18,4.19,4.19,0,0,1-.68-.56c-.09,0-.47.06-1.12,0s-.48,0-.69-.13-.39-.47-.71-.92-.52.22-.76.34a3.51,3.51,0,0,0-.83.9,7.78,7.78,0,0,0-.8,1.22c-.19.39-.31.32-.41.42a1.48,1.48,0,0,1-.61.35,4.62,4.62,0,0,0-.64.08c-.24.06,0,.18.06.58a1.36,1.36,0,0,1-.27.88,1.05,1.05,0,0,1-.39.33s-1,.88-1.14,1-.69-.65-.7-.77a1.26,1.26,0,0,1,.24-.67c.17-.24,0-.31,0-.45A7.92,7.92,0,0,0,162.24,67c-.43-.38-.64-.23-1.22-.65a1.61,1.61,0,0,1-.34-.35l.1-.11s.06-.22.83-1A7.85,7.85,0,0,0,163,63.42a6.4,6.4,0,0,0,.41-1.21c0-.09,0-.15,0-.15a5.26,5.26,0,0,0-.42-1.54c-.26-.37-.45-.56-.47-.77a2.76,2.76,0,0,1,.22-1.13l.2-.44a13.51,13.51,0,0,0,1.53.26,7.37,7.37,0,0,0,1.18,0,2.46,2.46,0,0,0,.9-.5c.19-.23,1.33-.14,1.33-.14a4.45,4.45,0,0,1,1.06.63,10.4,10.4,0,0,1,.82,1,1.61,1.61,0,0,0,1.23.67c.32.08.28-.15.51-.61a9.39,9.39,0,0,1,.64-1,.35.35,0,0,1,.09.11c0,.21.69.4.76.39a4.19,4.19,0,0,0,.67-.42c.32-.23.49.28.59.4a1.44,1.44,0,0,0,.79.5c.35.06,1.65-1,2-1.39a3.75,3.75,0,0,0,.82-1.2c.23-.48.48-.51.83-1s.84,0,1.18,0,.72.69.75.92a.55.55,0,0,1-.19.46,2,2,0,0,0-.54.5c-.12.22,0,.36.06.54s-.2.3-.39.51a.92.92,0,0,0-.2.66,3.28,3.28,0,0,0,.52.45c.16.11.23.91.32,1a1,1,0,0,0,.72.23c.28,0,.39-.33.57-.49s.52-.06.66-.08a1,1,0,0,0,.53-.8,1.84,1.84,0,0,1,.24-1,2.93,2.93,0,0,1,.48-.62c.21-.25.34-.21.83-.16a3.79,3.79,0,0,0,1.16-.14,1.44,1.44,0,0,0,.68-.22,5.38,5.38,0,0,1,1-.4.87.87,0,0,0,.68-.52,1.6,1.6,0,0,0,.08-.67,3.91,3.91,0,0,1,.84-.68.72.72,0,0,1,.65-.08s1.17.53,1.23.52Z" transform="translate(-0.34 -0.69)"/>
    <path class="cls-4" d="M178.15,42.59a10.37,10.37,0,0,1-1.37.4c-.46.08-.58-.09-.73.3a6.61,6.61,0,0,0-.35,1.46,5.67,5.67,0,0,1-.61,1.48c-.36.82-.45,1.34-.65,1.82s-.16.75-.56,1.12-.35.3-1,1-.83,1.08-.78,1.37c0,0,0,0,0,0a1.84,1.84,0,0,1,.1,1,3.14,3.14,0,0,0-.22,1.06c.06.34.44.33.22.68s-.49.36-.51.59.14.31.39.71.84,1.21.72,1.64a6.57,6.57,0,0,1-.51,1.18.41.41,0,0,0,0,.09,9.39,9.39,0,0,0-.64,1c-.23.46-.19.69-.51.61a1.61,1.61,0,0,1-1.23-.67,10.4,10.4,0,0,0-.82-1,4.45,4.45,0,0,0-1.06-.63s-1.14-.09-1.33.14a2.46,2.46,0,0,1-.9.5,7.37,7.37,0,0,1-1.18,0,13.51,13.51,0,0,1-1.53-.26,5.39,5.39,0,0,0,.37-.79c.07-.22.47-2,.06-2.43s-1,.13-1.43-.83a8.64,8.64,0,0,1-.78-2.32,2.11,2.11,0,0,0-.48-1.1,3.83,3.83,0,0,1-.34-1.71,4.05,4.05,0,0,0-.07-1.76,9.4,9.4,0,0,0-1.37-1.3c-.34-.3-.46-1.2-.51-1.35a5.52,5.52,0,0,1,.1-1.78c.17-.54.62-1.33.28-1.87s-.81-1.1-1-1.47a3.79,3.79,0,0,1-.55-1.55,21.07,21.07,0,0,1,0-2.75,7.41,7.41,0,0,0,.05-.75l.19-.05.61-.17.32-.1.52-.17.26-.08.42-.13.4-.12.18-.05a2.37,2.37,0,0,1,.31-.08,23.73,23.73,0,0,1,3.2-.3A23.12,23.12,0,0,1,167,35c1,.54,2.55,1.59,2.77,1.7a8.29,8.29,0,0,0,1.12.41c.15,0,.61.59.61.59L173,39.16a2.93,2.93,0,0,0,1.25.67,5.24,5.24,0,0,1,1.57.91c.1.1.25.22.41.35l.16.13.26.21a6.5,6.5,0,0,1,.56.5A5,5,0,0,0,178.15,42.59Z" transform="translate(-0.34 -0.69)"/>
    <path class="cls-2" d="M37,87.8a1.4,1.4,0,0,0-.31.44c-.22.46-.45.78-.56,1,0,0,0,0,0,0a5.93,5.93,0,0,1-.86.91c-.06,0-1.22.24-1.46.3s-.45.4-.58.71a4.87,4.87,0,0,1-.64.81c-.16.23-.41,0-.58.07a10.39,10.39,0,0,0-1.42.36c-.49.17-.08.84-.07,1.13A4.94,4.94,0,0,1,28,95.72c-1.06.29-.31-.56-.53-.88s-.81.34-1,.36a6.7,6.7,0,0,1-1.12-.45,2.08,2.08,0,0,0-.77,0c-.11,0-1.05.47-1.3.37a7.91,7.91,0,0,0-1-.34,1.15,1.15,0,0,0-1,.6.93.93,0,0,1-.94.53c-.37,0-1.53.07-1.65-.28a30.74,30.74,0,0,1-.51-3.24,9.28,9.28,0,0,1,.06-2c0-.49-.24-.68-.31-1.22s.24-.72.21-1-.27-.56-.46-.54-.71.66-1.07,1.05a11.16,11.16,0,0,0-1.41,1.73,3,3,0,0,1-1.84,1.15,7.43,7.43,0,0,1-2.94.12c-.51-.21-.73-2-1.05-2.48s-1.21-.22-1.91-.27-2,.15-2.25-.09.49-1,.73-1.54,0-.82-.53-1.43a20.88,20.88,0,0,0-1.54-1.46c-.17-.21-.83-.47-1-.72s-.52-.95-.75-1.34a1.9,1.9,0,0,1-.25-1,1.26,1.26,0,0,0-.43-.93A2.41,2.41,0,0,1,.6,79.16a1.23,1.23,0,0,1,.37-1c.36-.44.13-.57.13-.82,0,0,4.49,1,5.15,1.3a49.69,49.69,0,0,0,6.94.94c1.26,0,4.06.1,4.74.61s3.14,1.36,4.42,2.35,7.87,3,9.36,3.58,3.7,1.11,3.7,1.11l.91.36Z" transform="translate(-0.34 -0.69)"/>
    <path class="cls-2" d="M112.55,18.26c0,.59-.39,1-.28,1.58a2.46,2.46,0,0,1-.47.2,9.41,9.41,0,0,0-1.14.58c-.36.17-.73,1.14-.82,1.43a3.5,3.5,0,0,1-.69,1.09,11.63,11.63,0,0,1-1,.63,2.72,2.72,0,0,0-.86,1.07c-.13.38-.37,1.79-.37,1.79s-.72.78-.94,1.08a7.74,7.74,0,0,0-.71,2.52c-.27,1.45-1.32.76-1.32.76a17.54,17.54,0,0,1-2-.36c-.35-.14-.51-1.27-.58-1.49s-.38-.41-.52-.53a3.47,3.47,0,0,1-.47-1.32c0-.45-1.92-1.51-2.23-2s-.51-.81-.41-1.05a9.9,9.9,0,0,0-.2-1.95c-.05-.45-.45-.72-.73-1s-.93-.8-1-1a10.5,10.5,0,0,0-1.07-1.76,4.14,4.14,0,0,0-1.22-.4,9.13,9.13,0,0,1-1.43-.33c-.31-.14-1.35-1.25-1.79-1.44s-1.46.6-1.79.6-.52-1.27-.3-1.8a2.93,2.93,0,0,0-.17-1.56h0l.7.62a16.67,16.67,0,0,0,2.1.11c.16-.08,1.8-.53,2.06-.68a9.51,9.51,0,0,1,2-.18s1.2.22,1.37.2a6.49,6.49,0,0,0,2.16-1.37,7.38,7.38,0,0,0,1.3-3.15A17.94,17.94,0,0,1,102,4a5.42,5.42,0,0,0,.71-2.35.64.64,0,0,1,.44-.66l1.73,1,.23.5a10.11,10.11,0,0,1,.23,1c0,.3.07.82.11,1.2S105.75,6,106,7a27.49,27.49,0,0,0,1,2.6c0,.32.52.68.65,1a5,5,0,0,0,.44,1c.12.08.61,0,.76,0a2,2,0,0,1,.82.24c.18.11.29.77.56,1.49s.44.36.52.38a6.64,6.64,0,0,1,1.3.5,5.67,5.67,0,0,1,.56,1.77A13.57,13.57,0,0,1,112.55,18.26Z" transform="translate(-0.34 -0.69)"/>
    <path class="cls-2" d="M69,22.08l.24,5.66h-.56c-.31,0-.71,0-1.16,0H66l-.44,0c-1,.09-1.84.28-1.91.63A15.81,15.81,0,0,1,63,30.88c-.27.62-.93,2.13-.71,2.32s.56.24.64.48-.31.64-.54.76a3.66,3.66,0,0,1-.86.38c-.2,0-.77-.33-.77-.33s-.39-.78-.71-.92-1.81-.58-2-.31-1.18.91-1.23,1.47.22.82.32,1.24a.9.9,0,0,1-.14.81.9.9,0,0,0-.13.66,1.39,1.39,0,0,0,.41.87c.32.42.53.58.41.74s-.42.05-.66-.07-.42-.8-.83-.75-.6.16-.73,0-.81-1.07-.88-1.15a3.56,3.56,0,0,0-1.17-1c-.53-.21-1.43-.47-1.34-.69a7.5,7.5,0,0,1,1.1-1.06,1.48,1.48,0,0,0,.34-1.05,1.62,1.62,0,0,0-.51-1.43,5.88,5.88,0,0,1-1.34-2.56c-.07-.48-.31-.7-.34-1s-.32-.85-.13-1.3.61-1.2.45-1.43a7.36,7.36,0,0,0-.84-1.27c-.17-.07-1.56-1-1.56-1a5.55,5.55,0,0,1,.14-1.34c.16-.6.31-1,0-1.25a4.53,4.53,0,0,0-1.24-.56c-.14,0-1.06-.17-1.06-.17a4.76,4.76,0,0,0-.84-.31c0-.36,0-.8,0-.93s-.35-.43-.4-.47a1.65,1.65,0,0,0-.81.35c-.13.17-.86.12-1.32.1l-.16,0h0l-.08,0h0l-.07,0h0l0,0,0,0-.11-.1h0l-.05-.05,0-.06,0,0,0,0a1.57,1.57,0,0,1-.06-.86,1.91,1.91,0,0,0-.13-.93c-.1-.33-.58-.61-.92-.87s-.43-1.08-.44-1.14-.09-.6-.11-.78.21-.29.3-.53a1.05,1.05,0,0,0,0-.64,11.73,11.73,0,0,0-1.44-1,20.72,20.72,0,0,1-2-1.42c-.65-.58-.37-1-.37-1a9.24,9.24,0,0,0,1.44.7,4.72,4.72,0,0,0,1.41,0c.45-.06.44.22.47.29a4.92,4.92,0,0,0,.78.73c.07,0,.46-.26.56-.34a5,5,0,0,1,1.15.23,2.71,2.71,0,0,0,.81,0c.12-.06.67-.59.84-.68s.5.24.58.31a5.75,5.75,0,0,1,1.06,1,1.32,1.32,0,0,0,.36.46s.28-.17.33-.3a1.28,1.28,0,0,1,.35-.35s.35.19.52.06,0-1.45-.09-1.67,1-1,1.17-1.05A5.84,5.84,0,0,1,51,8.59,3.09,3.09,0,0,0,52,8.37a14,14,0,0,1,1.27-.66A1.79,1.79,0,0,0,54,7c.12-.29,1-.64,1.13-.76a9.85,9.85,0,0,1,1.46-.38c.43-.13.15-.5.19-.73S58,3.87,58.18,3.63a1,1,0,0,0,.22-.75c0-.21-.22-.37-.32-.53a.61.61,0,0,1,.08-.57c.07-.06.72-.23.84-.33a2.62,2.62,0,0,1,1.3-.06,4.35,4.35,0,0,1,.84,1.51,13.87,13.87,0,0,1-.42,1.33,2.08,2.08,0,0,0-.11.84s1.67.18,1.79.23.14.27.17.51a5.47,5.47,0,0,0,.28,1c.1.25,1,.81,1,1.2s-1.21,1.32-1.21,1.32,0,.81,0,.9a3.6,3.6,0,0,1,.16.93c0,.32-.4.84-.45,1.34s0,2.23,0,2.34a8.58,8.58,0,0,0,.29,1.45c.13.27,1.08.72,1.27,1.13a2.33,2.33,0,0,1,0,1.2l.62,1.09c.1.17,1,.82,1.11,1a6.79,6.79,0,0,0,1.22.86c.17.08,1.09.38,1.21.4Z" transform="translate(-0.34 -0.69)"/>
    <path class="cls-2" d="M134.83,107.61l.07.72c0,.12-.13.18-.24.34s0,.71,0,.85.31.35,0,.48a7.12,7.12,0,0,1-1.13.32,9.32,9.32,0,0,1-1.66,0c-.82,0-1.47.07-1.66,0a.54.54,0,0,1-.27-.76,2.67,2.67,0,0,1,.39-.52c.07-.09.33-.28.32-.35a1.36,1.36,0,0,1,0-.82c.13-.32.38-.76.65-.8s1.25-.19,1.38-.16a5,5,0,0,0,.73.12c.1,0,.88-.07.88-.07Z" transform="translate(-0.34 -0.69)"/>
    <path class="cls-4" d="M190.66,64c-.48,1.17-1.11,2.66-1.22,2.92-.17.41-1.58,1.82-1.89,2.27s-1.79,2.92-2.28,3.9a1.31,1.31,0,0,1-.09.17,6.79,6.79,0,0,1-.65-.63c-.15-.18-.72-.64-.85-.81a12.92,12.92,0,0,0-1.45-.83,14.11,14.11,0,0,1-1.95-.93,2.17,2.17,0,0,0-.5-.28l-.23-.09-.42-.15a5.37,5.37,0,0,1-.59-.22l-.27-.12s0,0-.06,0A1.57,1.57,0,0,1,178,69a3.44,3.44,0,0,0-1.63-.31.3.3,0,0,1,0-.12c0-.24-.48-.55-.71-.83l-.1-.14s.55-.36.63-.64a.8.8,0,0,1,.23-.44s.47-.15.54-.25a2.51,2.51,0,0,0,.21-.37h0a.91.91,0,0,0,.07-.14l.06-.13c.08-.22.39-.74.45-.72s.75.5.82.54.27.58.39.52.83-.12.9,0,.61.34.71.51a1.48,1.48,0,0,0,.59.45.58.58,0,0,0,.47.06c.31-.06.83,0,1-.12a4.67,4.67,0,0,1,1-.6c.21,0,.61.06.89-.16s.54-.32.7-.59.45-.63.61-.88.27-.49.57-.57a5,5,0,0,1,.77-.16c.06,0,.78-.38.78-.38s.42-.41.65-.44a2.56,2.56,0,0,1,.91.16,8.55,8.55,0,0,0,.82.27Z" transform="translate(-0.34 -0.69)"/>
    <path class="cls-4" d="M191.39,56.1l-.79-.23c-.06,0-1.23-.52-1.23-.52a.72.72,0,0,0-.65.08,3.91,3.91,0,0,0-.84.68,1.6,1.6,0,0,1-.08.67.87.87,0,0,1-.68.52,5.38,5.38,0,0,0-1,.4,1.44,1.44,0,0,1-.68.22,3.79,3.79,0,0,1-1.16.14c-.49-.05-.62-.09-.83.16a2.93,2.93,0,0,0-.48.62,1.84,1.84,0,0,0-.24,1,1,1,0,0,1-.53.8c-.14,0-.49-.07-.66.08s-.29.45-.57.49a1,1,0,0,1-.72-.23c-.09-.13-.16-.93-.32-1a3.28,3.28,0,0,1-.52-.45.92.92,0,0,1,.2-.66c.19-.21.41-.33.39-.51s-.18-.32-.06-.54a2,2,0,0,1,.54-.5.55.55,0,0,0,.19-.46c0-.23-.42-.94-.75-.92s-.82-.43-1.18,0-.6.49-.83,1a3.75,3.75,0,0,1-.82,1.2c-.34.34-1.64,1.45-2,1.39a1.44,1.44,0,0,1-.79-.5c-.1-.12-.27-.63-.59-.4a4.19,4.19,0,0,1-.67.42c-.07,0-.72-.18-.76-.39a.35.35,0,0,0-.09-.11.41.41,0,0,1,0-.09,6.57,6.57,0,0,0,.51-1.18c.12-.43-.46-1.23-.72-1.64s-.41-.48-.39-.71.29-.24.51-.59S172,54,172,53.61a3.14,3.14,0,0,1,.22-1.06,1.84,1.84,0,0,0-.1-1s0,0,0,0a.71.71,0,0,0,.28-.07.28.28,0,0,1,.39.09s.8.63.85.71a2.41,2.41,0,0,0,.88.11,2.82,2.82,0,0,0,.95-.62c.44-.4.19-.3.37-.67a1.43,1.43,0,0,1,.46-.67c.21-.17.61-.17.83-.35a1.77,1.77,0,0,0,.55-.51c.15-.27.64-.4,1.18-.67s.21.59.22.66-.09.56-.08.74-.52.18-.7.29,0,.33-.24.72-.16.32-.14.48a2.12,2.12,0,0,0,.2.78c.09,0,.34.62.48.72a.26.26,0,0,0,.29,0,7.42,7.42,0,0,1,.7-.36c.08,0,.56.32.73.28s.22-.27.45-.49.35.1.54.17.16.67.22.89.42.29.54.27.34-.36.4-.53.28-.22.37-.39a.24.24,0,0,0-.1-.33,1.3,1.3,0,0,1-.23-.61c0-.14.19-.23.24-.38s0-.24-.25-.52l-.1-.12s0,0-.09-.06-.09-.31-.06-.63.32-.34.5-.41.5.28.66.43a1.08,1.08,0,0,0,.32.18,2.8,2.8,0,0,1,.62-.07c.28,0,.33,0,.33,0a4.67,4.67,0,0,0,.75.25,4.88,4.88,0,0,0,1.14-.21c.07-.1.54,0,.6-.07s.81.5.81.5l1.05-.23a4,4,0,0,0,.93-.36c.32.84.62,1.66.78,2.18a33.16,33.16,0,0,1,.68,3.26C191.37,55.89,191.38,56,191.39,56.1Z" transform="translate(-0.34 -0.69)"/>
    <path class="cls-4" d="M189.9,50.38a4,4,0,0,1-.93.36l-1.05.23s-.75-.55-.81-.5-.53,0-.6.07a4.88,4.88,0,0,1-1.14.21,4.67,4.67,0,0,1-.75-.25s-.05,0-.33,0a2.8,2.8,0,0,0-.62.07,1.08,1.08,0,0,1-.32-.18c-.16-.15-.47-.5-.66-.43s-.47.08-.5.41-.12.45.06.63.09.06.09.06l.1.12c.22.28.29.38.25.52s-.23.24-.24.38a1.3,1.3,0,0,0,.23.61.24.24,0,0,1,.1.33c-.09.17-.31.23-.37.39s-.27.52-.4.53-.47-.06-.54-.27,0-.83-.22-.89-.31-.38-.54-.17-.29.45-.45.49-.65-.29-.73-.28a7.42,7.42,0,0,0-.7.36.26.26,0,0,1-.29,0c-.14-.1-.39-.67-.48-.72a2.12,2.12,0,0,1-.2-.78c0-.16-.08-.08.14-.48s.06-.61.24-.72.72-.11.7-.29.08-.67.08-.74.32-.94-.22-.66-1,.4-1.18.67a1.77,1.77,0,0,1-.55.51c-.22.18-.62.18-.83.35a1.43,1.43,0,0,0-.46.67c-.18.37.07.27-.37.67a2.82,2.82,0,0,1-.95.62,2.41,2.41,0,0,1-.88-.11c-.05-.08-.85-.71-.85-.71a.28.28,0,0,0-.39-.09.71.71,0,0,1-.28.07c-.05-.29.12-.75.78-1.37s.63-.58,1-1,.35-.64.56-1.12.29-1,.65-1.82a5.67,5.67,0,0,0,.61-1.48,6.61,6.61,0,0,1,.35-1.46c.15-.39.27-.22.73-.3a10.37,10.37,0,0,0,1.37-.4,4.08,4.08,0,0,0,.54.26c.3.1.93,0,1.26.35s.85.1,1.74.13a3.69,3.69,0,0,0,1.79-.4,6.35,6.35,0,0,1,2.31-.14c.4,0,1.41,1.24,1.71,1.62a32.74,32.74,0,0,1,1.32,3.17C189,48,189.47,49.22,189.9,50.38Z" transform="translate(-0.34 -0.69)"/>
    <path class="cls-4" d="M185.18,73.25l-.12.18a.22.22,0,0,1-.07.09.36.36,0,0,1-.13.12l-.05,0,0,0c-.18,0-.33-.08-.49,0a6,6,0,0,0-.78.83l-.46.56a2.14,2.14,0,0,0-.28.48,8.84,8.84,0,0,0-.57,1.32,2.16,2.16,0,0,0-.08.26l-.06.14s0,0,0,0,0,.07,0,.11l-.3.83-.17.45-.09.23c0,.13-.09.27-.14.4a3,3,0,0,1-.54,0c-.26-.06-.71.21-.84.1a4.2,4.2,0,0,0-1.19.15,2.89,2.89,0,0,1-.93-.86c-.37-.57-.23-.34-.35-.66a4.61,4.61,0,0,0-.37-.88c-.21-.34-.29-.33-.49-.64a2.75,2.75,0,0,1-.46-1.16c0-.45.45-.25.8-.41s.33,0,.33,0,.45.22.54.24.65-.24.64-.54-.09-.38-.29-.91-.07-.45-.07-.45a4,4,0,0,0,.3-.94.86.86,0,0,0-.32-.56c-.07-.06-.19-.2-.33-.35h0a5.15,5.15,0,0,0-.64-.63,1.88,1.88,0,0,1-.45-1.05,9.83,9.83,0,0,0-.31-1A3.44,3.44,0,0,1,178,69a1.57,1.57,0,0,0,.25.14s0,0,.06,0l.27.12a5.37,5.37,0,0,0,.59.22l.42.15.23.09a2.17,2.17,0,0,1,.5.28,14.11,14.11,0,0,0,1.95.93,12.92,12.92,0,0,1,1.45.83c.13.17.7.63.85.81A6.79,6.79,0,0,0,185.18,73.25Z" transform="translate(-0.34 -0.69)"/>
    <path class="cls-5" d="M174,118.46a4.15,4.15,0,0,0,.18,1.93c.1.52.29,2.85.29,2.85s0,1.43-.06,1.66-1.27,1.1-1.52,1.45-.44,1.18-.75,1.86-.67,2.1-1,2.73-.66.75-.87,1.19a2.29,2.29,0,0,0-.17.62,3.23,3.23,0,0,0,0,.51,3.88,3.88,0,0,0-.86,1.59l-.49.06-1.13-.18h-.19a7.07,7.07,0,0,1-1.68-.06c-.39-.13-.35-.18-.41-.73a1.78,1.78,0,0,0-.48-1c-.14-.2-.09-.7-.17-1a.14.14,0,0,1,0-.06,8.45,8.45,0,0,1-.46-1.55c0-.31.58-.48,1.06-.77s.7-.13,1-.53a8.53,8.53,0,0,1,.86-1.11c.16-.16,0-1.06.18-1.45s.51-1.21.92-2.13-.12-1.13-.2-1.49-1-.79-1.45-1,.74-.18,1-.63-.07-.59-.14-.9a1,1,0,0,0-.58-.66c-.26-.11-.33-.79-.37-1.2s.69-.63,1-.8.37-.1.75-.1.2-.12.22-.3a6,6,0,0,1,.66-1l1.77,0a.44.44,0,0,0,.12.1c.29.19,1,.41,1.17.63a9,9,0,0,0,1.66.89l.28.12C174.07,118.23,174,118.36,174,118.46Z" transform="translate(-0.34 -0.69)"/>
    <path class="cls-2" d="M139.52,77.59c-.19.33-.69.94-1.06,1.47s-1.32,1.63-1.56,2.06-1.18,2.2-1,2.48a3.31,3.31,0,0,0,1.06.7c.24.12,1.07,0,1.2.19s.66.65.36.78-1.13.23-1.2.33,0,.61,0,.61,1.34.11,1.18.65l0,.1a.63.63,0,0,1-.18.21l-.16.1-.07,0a1.44,1.44,0,0,1-.24.09h-.06l-.09,0c-.09,0-.14.06-.15.11a6.71,6.71,0,0,0,.72,1.81c.12.08.46.1.55.24s.29.27.06.6a1.67,1.67,0,0,0-.24,1,.57.57,0,0,0,.39.44c.14,0,.34.42.24.56a3.68,3.68,0,0,0-.23.39,10.78,10.78,0,0,0-1.32,0,5.58,5.58,0,0,0-1.19.29,4.89,4.89,0,0,0-1.35,1.31c-.29.4-1,.35-1.39.4a1,1,0,0,1-.79-.27c-.27-.2-.55-.12-.9-.08s.21.71.07,1,.16.34.07.71-.69-.22-.69-.22a23.37,23.37,0,0,0-2.38-.54c-.25,0-.44.24-.6.32a1.47,1.47,0,0,1-1.38-.22c-.55-.43-.06-.63-.09-.9s-.54-.71-.79-.77-.22.39-.57.71-.29-.06-.77-.55-.2.07-.67.45-.31,1.09-.35,1.51-.38.37-.38.37l-1-.38s-.84-.77-1.21-1.09-1,.12-1.17.15a2.62,2.62,0,0,1-1.13-.33c-.54-.25-.19-1.08-.16-1.58a7.26,7.26,0,0,0,.06-1.39c-.06-.17-.36.6-.59,1.18a9.9,9.9,0,0,0-.41,1.74,3,3,0,0,0-.69-.18c-.26,0-.25-1.12-.25-1.12s-.21-1.47-.39-2.75c-.12-.83-.22-1.58-.25-1.81-.06-.59-.59-1.21-.61-1.44s.36-1,.45-1.75-.12-1.59.07-3c.15-1.12.72-3.49.93-4.4,0,0,0,0,0,0a.14.14,0,0,1,0-.07v-.06c.13-.46.46-1.66.51-1.85s.52-1.44.76-2.39.72-.87,1.07-1.14.39-.73.59-1.22.67-.86,1.06-1.55a6.94,6.94,0,0,0,.34-3.21c-.13-.49-1-1-1.15-1.33A3,3,0,0,1,120,64a6.35,6.35,0,0,0,.44-1.88c0-.92.24-.49.36-1s.6-.76.86-1.11,1-.35,1.23-.61A23.48,23.48,0,0,0,124.38,57a1.46,1.46,0,0,0,.25-1.22,1.27,1.27,0,0,1,.09-.84,3.19,3.19,0,0,0,.53-.94c.06-.28-.44-1-.57-1a9.31,9.31,0,0,0-1-.75c-.18,0-1.18,0-1.49-.05s.7-.63.92-.93.56-.58.91-1.11l.51.94a6.63,6.63,0,0,1,1-.13c.34,0,.45-.52.91-.11a14.91,14.91,0,0,1,1.57,1.23,5.25,5.25,0,0,1,.89,1.72c.1.59.19,2.23.28,2.67s.17,1.55.17,1.55,0,2.38-.36,2.74-1.26.89-1,1.09a1,1,0,0,0,.92.26c.32-.14.37-.46.42,0a2.27,2.27,0,0,0,.32,1.12c.26.44,1,1,1.14,1.24s1,1.44,1.07,1.29a2.9,2.9,0,0,1,1.07-1c.53-.2,1.1-.36,1.3-.07a5.2,5.2,0,0,1,.54,1.54,2.08,2.08,0,0,1-.19,1.36c-.13,0-.44-.13-.71.08s-.47,0-.59.49a6.71,6.71,0,0,1-.2,1.31c-.2.53-.32,1-.53,1.4a1,1,0,0,0,.25.5c.18.13.33-.09.48.31s.12.72.32.91.76.22.92.31.34-.27.55.27.31.7.29.78-.52.55-.49.79.55.54.62.57a.62.62,0,0,1,.39.39,4,4,0,0,0,.38,1,1.49,1.49,0,0,0,.65.52l1.53,0s.75-.11.84-.1a.3.3,0,0,0,.09-.1l.05.08A.36.36,0,0,1,139.52,77.59Z" transform="translate(-0.34 -0.69)"/>
    <path class="cls-2" d="M119,133.57c0,.18.2.91.2.91a5.47,5.47,0,0,1-.46,1.23c-.13,0-1.33.21-1.69.85a3.69,3.69,0,0,0-.08,2.07c.05.5.43.87.1,1.14s-.46-.54-1,.49-.8,1.34-.65,1.55a4.89,4.89,0,0,1,.29,1.15,3.91,3.91,0,0,0-.75.51,1.12,1.12,0,0,0-.11,1c.11.26,0,.27-.59.82s-1.24,1-1.42,1.3l0,0-.29.36-.13.16-.23.27a1.83,1.83,0,0,1-.13.16c-.46.55-1,1.21-1.49,1.72l-.12.14h0l-.1.1-.17.19,0,0-.11.11-.1.09-.14.14a12.81,12.81,0,0,0-1.71,1.81,4.32,4.32,0,0,0-.35,1.56c0,.18.22.43-.13.75s-.77.28-.84.88,0,1-.06,1.43.06.59-.41,1a2.23,2.23,0,0,1-1,.46c-.1-.19-.57-.8-.6-.89a2.75,2.75,0,0,0-1.22.2c-.16.11-.73.5-.91.66a5.37,5.37,0,0,1-2,0c-.78,0-.67-.37-.71-.71a3.06,3.06,0,0,0-.55-1.08c-.26-.43,0-.87-.07-1.12a2.37,2.37,0,0,0-.21-.94c-.18-.36-.5-.53-.57-1a7.62,7.62,0,0,1,.12-1.32c0-.55-.31-.54-.37-.69s-.21-.64-.31-1-.75-.64-1.23-.85-.42.05-.71.08a1.77,1.77,0,0,1-1.25-.42.91.91,0,0,0-.8-.4c-.25,0-.24.71-.85,1a22.35,22.35,0,0,1-3.23.39,1.8,1.8,0,0,1-1.41-.62c-.4-.38-.33.05-.73.08s-.65.1-1,.13-.36-.44-.11-.59.21-.92.17-1.3-.22-.3-.4-.62a.55.55,0,0,1,.12-.63s.2-1.33.25-2.26a3.89,3.89,0,0,0-.51-2.07,8.65,8.65,0,0,0-1-1.32,4.21,4.21,0,0,1-.51-2.07c0-.14,1.11-.48,1.11-.48a.57.57,0,0,0-.11-.68c-.33-.3-.73-.3-1-.54s-.08-.61,0-.87.77-2.53.92-2.94.48,0,.66-.08,0-.8-.13-1.31-.24-.43-.23-.57.11-1,.14-1.71.2-.71.33-.87.46-.42.41-.71-.52-.56-.83-1a1.82,1.82,0,0,1-.29-1l.41-.07a3,3,0,0,0,1.31-.38A6.94,6.94,0,0,0,89.23,123c.33-.92,1.36-.35,1.77-.41s.46-.09.63-.44.6-.3,1.06-.36a23.27,23.27,0,0,1,2.83.48,8.14,8.14,0,0,0,2.5.89c.8-.05.69-.32.79-.51a3.5,3.5,0,0,1,1.39-.81c.69-.27.78.59,1.14.82a5,5,0,0,0,.73.37,2,2,0,0,0,.71-.78c.17-.43.38-.45.38-.45a12.47,12.47,0,0,1,1.2-1.43,3.92,3.92,0,0,1,.57,1.48c0,.36-.23.63-.48,1a1.68,1.68,0,0,0-.33.91c0,.13.67.79.8.77s1-.21,1.2-.24a14.76,14.76,0,0,0,1.71.3.53.53,0,0,0,.09.82,3.53,3.53,0,0,0,1.67.29,3.73,3.73,0,0,1-.26,1.09c-.16.16-.54.53-.18.71s.35.6.91.26-.08-.4.76-.42,1-.16,1.29.26a8.31,8.31,0,0,0,1.63,1.13,5.21,5.21,0,0,0,2.33.4,2.91,2.91,0,0,1,1.35.48,1.36,1.36,0,0,0,.78.59c.53.21.76.78,1.16,1.19-.38.44-.69.64-.66.93S119,133.39,119,133.57Z" transform="translate(-0.34 -0.69)"/>
    <path class="cls-2" d="M117.23,77.58h0a1.63,1.63,0,0,1,0,.18v.06a.14.14,0,0,0,0,.07s0,0,0,0c-.21.91-.78,3.28-.93,4.4-.19,1.4,0,2.25-.07,3s-.48,1.53-.45,1.75.55.85.61,1.44c0,.23.13,1,.25,1.81.18,1.28.39,2.75.39,2.75s0,1.1.25,1.12a3,3,0,0,1,.69.18l-.34,1.24a10.87,10.87,0,0,0-.15,1.39,2.23,2.23,0,0,1-.3,1.19c-.27.63-.68.31-.55,1.58s.4,1.42.21,2-.71.86-.78,1.84.16,1.49.08,2-1.66,1-2,1.85a26.56,26.56,0,0,0-.7,2.61c-.33,1-.53,1.58-1,1.86s-1.27.3-1.69.67-.41,1-1,1.41-1,.4-.92.85.26.47.31,1a1.77,1.77,0,0,1-.53,1.81l-.13.14s0,0,0,0a1.18,1.18,0,0,0-.13.18l-.15.23c0,.08-.09.16-.13.24a1.34,1.34,0,0,0-.06.12l-.06.13a1.89,1.89,0,0,0-.11.25c0,.09-.07.18-.11.26l-.09.27a0,0,0,0,0,0,0c0,.07-.05.14-.07.21s-.08.27-.11.4a.36.36,0,0,0,0,.1,2.25,2.25,0,0,0,0,.22.77.77,0,0,0,0,.15s0,.09,0,.13a.41.41,0,0,0,0,.11v.17c.06.59.12,1.13.2,1.54s.56.94.6,1.25.32.7-.1.75a14.76,14.76,0,0,1-1.71-.3c-.21,0-1.08.23-1.2.24s-.79-.64-.8-.77a1.68,1.68,0,0,1,.33-.91c.25-.4.52-.67.48-1a3.92,3.92,0,0,0-.57-1.48,12.47,12.47,0,0,0-1.2,1.43s-.21,0-.38.45a2,2,0,0,1-.71.78,5,5,0,0,1-.73-.37c-.36-.23-.45-1.09-1.14-.82a3.5,3.5,0,0,0-1.39.81c-.1.19,0,.46-.79.51a8.14,8.14,0,0,1-2.5-.89,23.27,23.27,0,0,0-2.83-.48c-.46.06-.88,0-1.06.36s-.21.39-.63.44-1.44-.51-1.77.41a6.94,6.94,0,0,1-1.82,2.38,3,3,0,0,1-1.31.38l-.41.07c0-.2,0-.37,0-.42a5.86,5.86,0,0,0-1.11-1.18c-.08,0-.28,0-.62-.17a6,6,0,0,1-1.41-.72c-1.23-.82-.61-.94-.83-1.48a6.1,6.1,0,0,1-.44-2.15,5.56,5.56,0,0,0,.57-1c.18-.52,0-.73-.18-1.17S81,118,81,118l-1.48.18c-.44.06-4.8.32-5.07.33s-1.76-.22-1.85-.56a13.53,13.53,0,0,1-.31-1.93,6.32,6.32,0,0,0-.57-2.07c-.24-.42-1.53-.7-1.57-1.09s.46-.42.8-.46.45-.27.4-1a4.63,4.63,0,0,0-.51-1.81,8.33,8.33,0,0,1-.75-2.16,6,6,0,0,0-.21-1.44,2.77,2.77,0,0,0-.67-.91,1.51,1.51,0,0,0-.35-.23l-.08,0s.82-.72,1-1.07a2.43,2.43,0,0,0,.12-1.25,3.07,3.07,0,0,1,.39-1.1,6.62,6.62,0,0,0,.68-2c0-.5,0-.27.28-.91a3.34,3.34,0,0,0,.29-1.78c-.05-.45-.38-.78-1.08-1.84s-.63-.79-.68-1.2a1.29,1.29,0,0,1,.14-.75,4.89,4.89,0,0,0,.35-1.1,1.42,1.42,0,0,0-.09-.81,4.46,4.46,0,0,1-1.7-.2c-.67-.29,0-.41,0-.41l-4.33.53a2.05,2.05,0,0,1-1.19-.13c-.27-.15-.22-.89,0-1.47s-.06-.77-.13-1.26a6.24,6.24,0,0,0-.58-1.36c-.23-.52.18-1.07.28-1.32,0-.1,0-.26-.17-.42s-.38-.43-.39-.54a2.47,2.47,0,0,1,.13-.77,2.28,2.28,0,0,0-.31-1.34,6.11,6.11,0,0,1-.43-.91l.67-.91s-.13-1.22-.17-1.63a.25.25,0,0,0-.13-.21l9.47-1.3,5.69-.79a6.7,6.7,0,0,0-.11-1,2.51,2.51,0,0,1,.09-1.25c.08-.38.37-1.24.12-1.62A6.71,6.71,0,0,1,76.34,71c0-.13.63-.85.67-1.32s-.92-1.08-.12-1.17a.92.92,0,0,1,.4,0,4.18,4.18,0,0,1,1.46.88,4.32,4.32,0,0,0,.18,1.73,3.33,3.33,0,0,0,.74,1.42,3.32,3.32,0,0,1,.54,1.59,13.2,13.2,0,0,0,.64,1.71c.11.21.52.09.72.37s.5.81.69,1.06,1.06,0,1.21.22l.67,1.16,1.22.44,1.63-.2,23.53-1Z" transform="translate(-0.34 -0.69)"/>
    <path class="cls-2" d="M71.54,96.7a3.34,3.34,0,0,1-.29,1.78c-.31.64-.29.41-.28.91a6.62,6.62,0,0,1-.68,2,3.07,3.07,0,0,0-.39,1.1,2.43,2.43,0,0,1-.12,1.25c-.22.35-1.08,1-1,1.07a3.19,3.19,0,0,0-.7-.28c-.36-.07-1.07,0-1.33-.05a8,8,0,0,0-2-.06c-.82.1-.59.25-1,.42s-1.11-.35-1.41-.73a11.44,11.44,0,0,0-1.11-1l0,0,0,0L61,103a.69.69,0,0,0-.23-.09l-.13,0-.13,0h-.45a2.91,2.91,0,0,1-.3,0,5.57,5.57,0,0,1-2.23-.62c-.93-.53-1-.88-1.14-1.17s-.7-.51-.7-.51a8.36,8.36,0,0,1-.76.42,7.6,7.6,0,0,1-1.38-.66,2.23,2.23,0,0,0-1.41-.22c-.29,0-.77.19-1,.24a3.64,3.64,0,0,1-1.51-.28,7.93,7.93,0,0,1-3.45-2.35,18.4,18.4,0,0,1-1.5-2.32,2.64,2.64,0,0,1-.07-2.07,2.31,2.31,0,0,0-.18-.95l0-.1h0l0-.06a1.17,1.17,0,0,1-.05-.11.56.56,0,0,1,0-.08c-.05-.09-.1-.18-.16-.27L44,91.6a3.42,3.42,0,0,1-.34-.66A1.51,1.51,0,0,1,44,89.61a.72.72,0,0,0-.1-.79c-.2-.29-.08-.54-.08-.77a9.23,9.23,0,0,0,.27-1.22c0-.32-.6-.71-.81-.73s-.44.42-.6.51a4,4,0,0,1-1.25,0A15,15,0,0,0,39,87c-.6.16-1.52.37-1.52.37a2.76,2.76,0,0,0-.47.39l-.65-.26s1.28-.81,1.39-1.33.08-1.3.48-1.48a3.53,3.53,0,0,1,1.94,0c.15.17.7.65.95.66a6.53,6.53,0,0,0,1.38-.62s.28-.5.5-.48.34-.36.53-.07,1.18,0,1.3-.15a2.15,2.15,0,0,0,.42-1.2c.06-.65-.2-1.17.37-1.33a3.24,3.24,0,0,1,1.64.35s.66.28,1,0a.93.93,0,0,0,.43-.75,5,5,0,0,1,.23-1.45,4.46,4.46,0,0,1,.79-.59s-.31-.93-.13-1.23a12.73,12.73,0,0,1,.78-1,4.7,4.7,0,0,0,.62-.9c.13-.34,1.39-.86,1.52-.88s2.51.29,2.51.29a14,14,0,0,1,1.23,1.23c.15.26,1,1.23,1.27,1.24a1.2,1.2,0,0,1,1,.68c.27.56,1.73.85,1.73.85l.86-.71a.9.9,0,0,1,.55,0h0a.25.25,0,0,1,.13.21c0,.41.17,1.63.17,1.63l-.67.91a6.11,6.11,0,0,0,.43.91A2.28,2.28,0,0,1,62,83.65a2.47,2.47,0,0,0-.13.77c0,.11.22.33.39.54s.22.32.17.42c-.1.25-.51.8-.28,1.32a6.24,6.24,0,0,1,.58,1.36c.07.49.3.69.13,1.26s-.22,1.32,0,1.47a2.05,2.05,0,0,0,1.19.13l4.33-.53s-.62.12,0,.41a4.46,4.46,0,0,0,1.7.2,1.42,1.42,0,0,1,.09.81,4.89,4.89,0,0,1-.35,1.1,1.29,1.29,0,0,0-.14.75c0,.41,0,.14.68,1.2S71.49,96.25,71.54,96.7Z" transform="translate(-0.34 -0.69)"/>
    <path class="cls-2" d="M84.4,39a11.54,11.54,0,0,0-1.07,1c-.41.48-.7.33-.66,1.31s.39,1.54,0,2.57-2.37,6.46-2.76,8.16-2.66,8.53-3,9.86-1.61,2.89-1.57,3.25a1.58,1.58,0,0,0,.61,1,15.56,15.56,0,0,1,1.38,2.25.92.92,0,0,0-.4,0c-.8.09.15.71.12,1.17s-.68,1.19-.67,1.32a6.71,6.71,0,0,0,.55,1.68c.25.38,0,1.24-.12,1.62a2.51,2.51,0,0,0-.09,1.25,6.7,6.7,0,0,1,.11,1l-5.69.79-9.47,1.3h0a.9.9,0,0,0-.55,0l-.86.71s-1.46-.29-1.73-.85a1.2,1.2,0,0,0-1-.68c-.22,0-1.12-1-1.27-1.24a14,14,0,0,0-1.23-1.23s-2.39-.3-2.51-.29-1.39.54-1.52.88a4.7,4.7,0,0,1-.62.9,12.73,12.73,0,0,0-.78,1c-.18.3.13,1.23.13,1.23a4.46,4.46,0,0,0-.79.59,5,5,0,0,0-.23,1.45.93.93,0,0,1-.43.75c-.31.26-1,0-1,0a3.24,3.24,0,0,0-1.64-.35c-.57.16-.31.68-.37,1.33a2.15,2.15,0,0,1-.42,1.2c-.12.1-1.1.45-1.3.15s-.32.09-.53.07-.5.48-.5.48a6.53,6.53,0,0,1-1.38.62c-.25,0-.8-.49-.95-.66a3.53,3.53,0,0,0-1.94,0c-.4.18-.36,1-.48,1.48s-1.39,1.33-1.39,1.33l-.91-.36s-2.21-.56-3.7-1.11-8.07-2.59-9.36-3.58-3.73-1.84-4.42-2.35-3.48-.58-4.74-.61a49.69,49.69,0,0,1-6.94-.94c-.66-.29-5.15-1.3-5.15-1.3,0-.25-.05-.5-.12-1.15S1.9,74.37,2.35,74a7.94,7.94,0,0,0,1.53-1.29c.12-.26-.95-1.42-.88-2a5.25,5.25,0,0,1,.86-1.64A2.34,2.34,0,0,0,4,67.82,10.76,10.76,0,0,1,4.28,66c0-.4.64-.73.89-1s2.29-1.89,2.56-2.15.78-1,1-1.29.83-.11,1.25-.16a11.82,11.82,0,0,0,1.65-.75c.44-.17,1.83-.45,1.85-.66a2.21,2.21,0,0,1,.74-.94,3.2,3.2,0,0,1,1.25-.41,9.76,9.76,0,0,1,.62.84c.21.28,1.08.06,1.5-.18s.54-2.47.61-3.19.65-6.8.7-8,.06-5.51.14-6.14-.31-1-.8-1.44-.17-1-.21-1.42-.86-1-1.56-1.39a2.89,2.89,0,0,1-1.09-1,14.42,14.42,0,0,1-.65-3.59c0-.16,1-.6,1.15-.73a3.73,3.73,0,0,1,.77-.28s1-.35,1.09-.34.79.13,1.2.24,0-1.67,0-1.67a2.39,2.39,0,0,0-.23-.64,4.8,4.8,0,0,0-1.23-.4c-.27-.06-1.05.17-1.36.12s-.58-.42-.78-.69a5.31,5.31,0,0,1-.28-1.69c-.06-.59.9-1.29,1-1.31s1.24,0,1.46-.05,5.3-.51,5.34-.52.32-.22.26-.32-.4-.35-.51-.54.08-.26.22-.42.68.29.87.4a.83.83,0,0,0,.67-.05,2.73,2.73,0,0,0,.3-.54c.06-.15.66-.25.76-.26a1.51,1.51,0,0,0,.43-.71c.08-.29.52-.54.67-.62s.37.31.37.31a13,13,0,0,0,.33,1.3c.11.25.79.27.88.4a9.14,9.14,0,0,1,.29,1.54,11.64,11.64,0,0,0,.34,1.57c.11.21.5.07.56.06s.8,0,1,0,1,.84,1.2,1.09,1,.71,1.16.93,1.47-.23,1.67-.51.57-1,.64-1.09a3.4,3.4,0,0,1,.72-.32,5.27,5.27,0,0,1,.68.47,2.06,2.06,0,0,1,.18.3,2,2,0,0,0-.35.91c0,.32.55.22.55.22s.44-.37.47-.53A2.59,2.59,0,0,1,37.6,28c.15-.19.55-.18.62-.34s.07-.48.12-.61.42-.46.58-.7a2.71,2.71,0,0,1,.72-.62c.16-.1.59.13.71.1a6.74,6.74,0,0,0,.9-1.17.34.34,0,0,1,.4-.17s.23.34.37.34.29-.37.42-.61.87-.91,1-1.24a11,11,0,0,0-.09-1.71c0-.15.68-.08.9,0a.88.88,0,0,0,.85-.4,4.22,4.22,0,0,1,1.1-.75c.09-.06.13-.26.15-.49a4.76,4.76,0,0,1,.84.31s.92.16,1.06.17a4.53,4.53,0,0,1,1.24.56c.3.23.15.65,0,1.25a5.55,5.55,0,0,0-.14,1.34s1.39,1,1.56,1a7.36,7.36,0,0,1,.84,1.27c.16.23-.27,1-.45,1.43s.11,1,.13,1.3.27.55.34,1a5.88,5.88,0,0,0,1.34,2.56,1.62,1.62,0,0,1,.51,1.43,1.48,1.48,0,0,1-.34,1.05,7.5,7.5,0,0,0-1.1,1.06c-.09.22.81.48,1.34.69a3.56,3.56,0,0,1,1.17,1c.07.08.75,1,.88,1.15s.31,0,.73,0,.6.63.83.75.54.24.66.07-.09-.32-.41-.74a1.39,1.39,0,0,1-.41-.87.9.9,0,0,1,.13-.66.9.9,0,0,0,.14-.81c-.1-.42-.38-.69-.32-1.24s1.06-1.21,1.23-1.47,1.64.17,2,.31.71.92.71.92.57.36.77.33a3.66,3.66,0,0,0,.86-.38c.23-.12.62-.53.54-.76s-.43-.29-.64-.48.44-1.7.71-2.32a15.81,15.81,0,0,0,.59-2.46c.07-.35.91-.54,1.91-.63l.44,0H67.5c.45,0,.85,0,1.16,0h.56a8.09,8.09,0,0,0,.27,2.6c.35.63.92.68,1.14,1.2a6.48,6.48,0,0,0,.89,2.1,3.48,3.48,0,0,0,.94.86c.48.37.78.58.78.58l1.56-.19a1.39,1.39,0,0,0,.11,1c.27.46.33.52,1.39.93s1.9.51,2.2.65.86-.41,1.35.51.74,1.19.91,1.23a1.46,1.46,0,0,0,1.44.32A6.12,6.12,0,0,0,84,38.48Z" transform="translate(-0.34 -0.69)"/>
    <path class="cls-4" d="M162.81,58.62a2.76,2.76,0,0,0-.22,1.13c0,.21.21.4.47.77a5.26,5.26,0,0,1,.42,1.54s0,.06,0,.15a6.4,6.4,0,0,1-.41,1.21A7.85,7.85,0,0,1,161.61,65c-.77.73-.83,1-.83,1l-.1.11a10.88,10.88,0,0,1-1.52,1.37c-.69.46-.69.91-.69.91l-1.35,1.42s-.62.2-.92.27a3.32,3.32,0,0,0-1.12.6,8.34,8.34,0,0,0-.76,1.16c-.24.39-.62.26-1.11.13s-.42-.55-.52-.72-.7,0-1.11.13a1.38,1.38,0,0,1-.64,0c-.26,0-.37-.23-.43-.9s-.45,0-.56.07a6.11,6.11,0,0,0-1.5,1.53c-.36.63.22,1,.49,1.23a2.05,2.05,0,0,1,.59.84,8.1,8.1,0,0,1-.64,2.19,5.9,5.9,0,0,1-.95,1.41,4.05,4.05,0,0,1-1.15.65,2.58,2.58,0,0,1-.62-.11,9.43,9.43,0,0,0-.84,1.21,4.31,4.31,0,0,1-.87.9l-.09.07c-.32.22-.77,0-.91,0a4,4,0,0,1-1.42-.13c-.55-.21-.57-.67-.72-1a3.17,3.17,0,0,1-.1-1c0-.27-.29-.31-.33-.7a2.53,2.53,0,0,0-.86-1.24c-.16-.07-.46.46-.61.68a.3.3,0,0,1-.09.1c-.09,0-.84.1-.84.1a1.62,1.62,0,0,0,.14-.72c0-.43,0-1.75,0-1.85s.32-.36.25-.58-.36-.92-.37-1a1.6,1.6,0,0,0-.11-.73c-.13-.2-.59-1-.59-1a6,6,0,0,1-.25-1.08,1.39,1.39,0,0,1,.34-1.06c.22-.28.55-.43.61-1s.59-1.82.67-2.45a7.4,7.4,0,0,0,.07-1.4,2,2,0,0,1,.43-1.16,10.66,10.66,0,0,1,.78-.86l.27-.25a12,12,0,0,0,2.14-1.14c.61-.51,1.21-1.53,1.64-1.85a5,5,0,0,0,1.26-1.2c.17-.37.09-.61.54-.83s1.29-.45,1.38-.31a3.41,3.41,0,0,0,.37.45,1.1,1.1,0,0,0,1.11.07c.51-.28.82-.69,1.11-.74s.77.15,1-.23a3.75,3.75,0,0,0,.5-1.1,3.36,3.36,0,0,0,.07-1.11c-.09-.22-.25-.54-.54-.56a1.62,1.62,0,0,1-.69-.24c-.13-.09-.53-.07-.57-.43a10.89,10.89,0,0,1-.16-2.75,4.87,4.87,0,0,1,.8-1,1.21,1.21,0,0,0,.33-.77,3.29,3.29,0,0,0-.41-1.28,4.63,4.63,0,0,1-.61-1A1.37,1.37,0,0,1,150,45a1.6,1.6,0,0,0,.28-.77c0-.23-.44-.54-.55-.88s-.15-.46-.15-.46.48-.79.72-1.26a3,3,0,0,0,.47-1.33c0-.34-.44-.42-.11-1a8.72,8.72,0,0,1,.76-1.13,3.42,3.42,0,0,0,1.33-.68,12.72,12.72,0,0,0,1-1.06,3.75,3.75,0,0,0,.87-1.48c0-.17,0-.38.06-.6l.12,0,.12,0h0l.11,0,.64.09.26,0h.11l.29,0h.23a2.25,2.25,0,0,0,.41,0l.15,0,.13,0a7.41,7.41,0,0,1-.05.75,21.07,21.07,0,0,0,0,2.75,3.79,3.79,0,0,0,.55,1.55c.21.37.68.93,1,1.47s-.11,1.33-.28,1.87a5.52,5.52,0,0,0-.1,1.78c0,.15.17,1,.51,1.35a9.4,9.4,0,0,1,1.37,1.3,4.05,4.05,0,0,1,.07,1.76,3.83,3.83,0,0,0,.34,1.71,2.11,2.11,0,0,1,.48,1.1,8.64,8.64,0,0,0,.78,2.32c.43,1,1,.43,1.43.83s0,2.21-.06,2.43a5.39,5.39,0,0,1-.37.79Z" transform="translate(-0.34 -0.69)"/>
  </g>
  <g>
    <text x="-0.34" y="-0.69"/>    <text class="cls-6" transform="translate(199.58 62.74) scale(0.96 1)">Nossa equipe <tspan class="cls-7" x="78.45" y="0">c</tspan><tspan x="84.06" y="0">onta </tspan><tspan class="cls-8" x="112.88" y="0">c</tspan><tspan x="118.5" y="0">om </tspan><tspan x="-1.04" y="14.61">pesquisadores das cin</tspan><tspan class="cls-8" x="121.67" y="14.61">c</tspan><tspan x="127.28" y="14.61">o </tspan><tspan x="-2.63" y="29.21">regies do Brasil, sendo </tspan><tspan x="-4.85" y="43.82">a maior </tspan><tspan class="cls-8" x="39.89" y="43.82">c</tspan><tspan x="45.5" y="43.82">oncentrao </tspan><tspan x="-7.91" y="58.43">nas regies Sudes</tspan><tspan class="cls-9" x="92.53" y="58.43">t</tspan><tspan x="97.51" y="58.43">e, Sul </tspan><tspan x="-12.19" y="73.03">e Nordes</tspan><tspan class="cls-9" x="38.56" y="73.03">t</tspan><tspan x="43.54" y="73.03">e.</tspan></text>
  </g>
  <g>
    <ellipse class="cls-10" cx="185.17" cy="163.49" rx="8.93" ry="8.69"/>
    <ellipse class="cls-11" cx="219.94" cy="163.49" rx="8.93" ry="8.69"/>
    <ellipse class="cls-12" cx="254.71" cy="162.58" rx="8.93" ry="8.69"/>
    <text class="cls-6" transform="translate(198.94 166.56) scale(0.96 1)">+</text>
    <text class="cls-6" transform="translate(233.77 167.31) scale(0.96 1)">+</text>
    <text class="cls-6" transform="translate(269.06 166.96) scale(0.96 1)"><tspan xml:space="preserve">=  </tspan><tspan class="cls-13" x="12.59" y="0">92,9%</tspan></text>
  </g>
</svg>
