<svg id="Camada_1" data-name="Camada 1" xmlns="http://www.w3.org/2000/svg" viewBox="0 0 450 199">
  <defs>
    <style>
      .cls-1, .cls-5 {
        fill: #d4d4d4;
      }

      .cls-2 {
        font-size: 13.41px;
        fill: #00303f;
      }

      .cls-2, .cls-6, .cls-7, .cls-8, .cls-9 {
        font-family: Ubuntu-Medium, Ubuntu;
        font-weight: 500;
      }

      .cls-3 {
        letter-spacing: -0.01em;
      }

      .cls-4 {
        fill: #005578;
        fill-rule: evenodd;
      }

      .cls-5 {
        font-size: 19.33px;
        font-family: MyriadPro-Regular, Myriad Pro;
      }

      .cls-6 {
        letter-spacing: -0.01em;
      }

      .cls-10, .cls-8 {
        letter-spacing: -0.01em;
      }

      .cls-9 {
        letter-spacing: -0.01em;
      }

      .cls-11 {
        letter-spacing: -0.01em;
      }
    </style>
  </defs>
  <rect class="cls-1" x="29.36" y="13.25" width="420.64" height="185.75" rx="9.48"/>
  <text class="cls-2" transform="translate(278.25 94.55) scale(0.98 1)"><tspan class="cls-3">c</tspan><tspan x="6.18" y="0">ompõem as áreas de </tspan><tspan x="-17.36" y="16.1">experiência profissional de </tspan><tspan x="-2.92" y="32.19">nossos pesquisadores.</tspan></text>
  <path class="cls-4" d="M233.62,29.18V173.44a9.15,9.15,0,0,1-9.22,9.07H10a9.15,9.15,0,0,1-9.22-9.07V9.71A9.15,9.15,0,0,1,10,.64H194.86" transform="translate(-0.81 -0.64)"/>
  <text class="cls-5" transform="translate(53.55 52.74) scale(0.97 1)">• <tspan class="cls-6" x="9.55" y="0">A</tspan><tspan class="cls-7" x="22.5" y="0">cademia</tspan><tspan x="0" y="23.2">• </tspan><tspan class="cls-7" x="9.55" y="23.2">Se</tspan><tspan class="cls-8" x="31.03" y="23.2">t</tspan><tspan class="cls-7" x="38.88" y="23.2">or públi</tspan><tspan class="cls-9" x="108.13" y="23.2">c</tspan><tspan class="cls-7" x="117.04" y="23.2">o</tspan><tspan class="cls-7"><tspan x="0" y="46.4">• Se</tspan><tspan class="cls-10" x="33.14" y="46.4">t</tspan><tspan x="40.99" y="46.4">or privado</tspan><tspan x="0" y="69.6">• Nacional</tspan><tspan x="0" y="92.8">• In</tspan><tspan class="cls-11" x="28.61" y="92.8">t</tspan><tspan x="36.52" y="92.8">ernacional</tspan></tspan></text>
</svg>
