<svg id="Camada_1" data-name="Camada 1" xmlns="http://www.w3.org/2000/svg" xmlns:xlink="http://www.w3.org/1999/xlink" viewBox="0 0 344.07 308.94">
  <defs>
    <style>
      .cls-1 {
        fill: url(#Gradiente_sem_nome_21);
      }

      .cls-2 {
        fill: url(#Gradiente_sem_nome_21-2);
      }

      .cls-3 {
        font-size: 17.54px;
      }

      .cls-3, .cls-9 {
        fill: #d4d4d4;
        font-family: Ubuntu-Medium, Ubuntu;
        font-weight: 500;
      }

      .cls-4 {
        letter-spacing: -0.01em;
      }

      .cls-5 {
        letter-spacing: -0.01em;
      }

      .cls-6 {
        letter-spacing: -0.01em;
      }

      .cls-7 {
        letter-spacing: -0.01em;
      }

      .cls-8 {
        letter-spacing: -0.01em;
      }

      .cls-9 {
        font-size: 14px;
      }

      .cls-10 {
        letter-spacing: -0.01em;
      }

      .cls-11 {
        letter-spacing: -0.01em;
      }

      .cls-12 {
        letter-spacing: -0.01em;
      }
    </style>
    <linearGradient id="Gradiente_sem_nome_21" data-name="Gradiente sem nome 21" x1="105.16" y1="112" x2="309.83" y2="112" gradientUnits="userSpaceOnUse">
      <stop offset="0" stop-color="#005578"/>
      <stop offset="0.99" stop-color="#00718f"/>
    </linearGradient>
    <linearGradient id="Gradiente_sem_nome_21-2" x1="0" y1="207.27" x2="138" y2="207.27" xlink:href="#Gradiente_sem_nome_21"/>
  </defs>
  <ellipse class="cls-1" cx="207.5" cy="112" rx="102.33" ry="112"/>
  <ellipse class="cls-2" cx="69" cy="207.27" rx="69" ry="76.5"/>
  <text class="cls-3" transform="translate(168.09 86.38) scale(0.97 1)"><tspan class="cls-4">E</tspan><tspan class="cls-5" x="10.03" y="0">c</tspan><tspan x="18.12" y="0">onomia,</tspan><tspan class="cls-4" x="-19.25" y="21.04">A</tspan><tspan x="-7.5" y="21.04">dministração,</tspan><tspan x="-56.56" y="42.09">Rela</tspan><tspan class="cls-5" x="-20.75" y="42.09">ç</tspan><tspan x="-12.66" y="42.09">ões In</tspan><tspan class="cls-6" x="35.32" y="42.09">t</tspan><tspan x="42.49" y="42.09">ernacionais,</tspan><tspan x="-24.42" y="63.13">De</tspan><tspan class="cls-7" x="-1.68" y="63.13">f</tspan><tspan x="5.16" y="63.13">esa e Direi</tspan><tspan class="cls-8" x="90.23" y="63.13">t</tspan><tspan x="97.35" y="63.13">o</tspan></text>
  <text class="cls-9" transform="translate(18.93 190.96) scale(0.96 1)">são algumas das <tspan x="-9.94" y="16.8">di</tspan><tspan class="cls-10" x="2.27" y="16.8">v</tspan><tspan x="9.46" y="16.8">ersas </tspan><tspan class="cls-11" x="46.63" y="16.8">f</tspan><tspan x="52.09" y="16.8">orma</tspan><tspan class="cls-12" x="85.69" y="16.8">ç</tspan><tspan x="92.15" y="16.8">ões </tspan><tspan x="5.51" y="33.6">acadêmicas de </tspan><tspan x="8.22" y="50.4">nossa equipe.</tspan></text>
</svg>
