<svg id="Camada_1" data-name="Camada 1" xmlns="http://www.w3.org/2000/svg" viewBox="0 0 297 297">
  <defs>
    <style>
      .cls-1 {
        fill: #e0e0e0;
      }

      .cls-2 {
        fill: #003549;
      }

      .cls-3 {
        fill: #002b35;
      }

      .cls-4 {
        fill: #00303f;
      }

      .cls-5 {
        fill: #37474f;
      }

      .cls-6 {
        fill: #263238;
      }

      .cls-7 {
        fill: #fafafa;
      }

      .cls-8 {
        fill: #0f3c43;
      }

      .cls-9 {
        fill: #27debf;
      }

      .cls-10, .cls-21, .cls-22, .cls-25 {
        fill: #fff;
      }

      .cls-10 {
        opacity: 0.3;
      }

      .cls-11 {
        fill: #5ea8a8;
      }

      .cls-12, .cls-15, .cls-16, .cls-17, .cls-18 {
        fill: #3d9191;
      }

      .cls-13 {
        opacity: 0.15;
      }

      .cls-14 {
        fill: #005578;
      }

      .cls-15, .cls-28 {
        opacity: 0.2;
      }

      .cls-16, .cls-27 {
        opacity: 0.1;
      }

      .cls-17 {
        opacity: 0.35;
      }

      .cls-18 {
        opacity: 0.05;
      }

      .cls-19 {
        fill: #0d689a;
      }

      .cls-20 {
        fill: #006388;
      }

      .cls-21 {
        opacity: 0.7;
      }

      .cls-22 {
        opacity: 0.4;
      }

      .cls-23 {
        fill: #3d878c;
      }

      .cls-24 {
        fill: #4f9996;
      }

      .cls-26 {
        opacity: 0.25;
      }
    </style>
  </defs>
  <g>
    <path id="Shadow" class="cls-1" d="M226.947,263.258a4.5,4.5,0,0,1-2.3-.6l-27.176-16.3a2.975,2.975,0,0,1,0-5.227l45-27a4.683,4.683,0,0,1,4.594,0l27.175,16.3a2.973,2.973,0,0,1,0,5.227l-45,27A4.482,4.482,0,0,1,226.947,263.258Z" transform="translate(-2 -2)"/>
    <path id="Shadow-2" data-name="Shadow" class="cls-1" d="M169.829,299a42.349,42.349,0,0,1-10.18-1.2,36.6,36.6,0,0,1-8.988-3.448l-.067-.038c-.544-.318-1.248-.757-2.151-1.342q-1.274-.825-2.615-1.741T143.3,289.47c-.82-.582-1.45-1.051-1.917-1.428a18.9,18.9,0,0,1-5.227-6.44,13.152,13.152,0,0,1-1.1-8.251,17.219,17.219,0,0,1,4.13-7.988,32.237,32.237,0,0,1,9.059-6.916,58.356,58.356,0,0,1,12.7-5.3,45.768,45.768,0,0,1,11.521-1.7l.342,0a36.008,36.008,0,0,1,10,1.354,41.962,41.962,0,0,1,8.836,3.664q1.622.935,3.486,2.2c1.261.859,2.315,1.628,3.223,2.352a10.9,10.9,0,0,1,3.536,4.3,8.4,8.4,0,0,1,.613,4.546c.1-.006.2-.011.3-.014l.189,0a5.549,5.549,0,0,1,3.431,1.139,4.365,4.365,0,0,1,1.722,4.2,26.009,26.009,0,0,1-.838,3.643,15,15,0,0,1-2.5,4.666,27.855,27.855,0,0,1-4.554,4.556,49.752,49.752,0,0,1-7.421,4.849,48.528,48.528,0,0,1-11.549,4.622A47.158,47.158,0,0,1,170.064,299Zm-2.409-24.181q.185.139.417.3a8.1,8.1,0,0,0,3.58,1.451,5.527,5.527,0,0,0,.631.038,4.285,4.285,0,0,0,1.471-.251c-.113-.083-.237-.172-.373-.265a8.462,8.462,0,0,0-3.621-1.49,5,5,0,0,0-.627-.042A4.293,4.293,0,0,0,167.42,274.819Z" transform="translate(-2 -2)"/>
    <path class="cls-2" d="M6.72,229.709,88.9,279a8.564,8.564,0,0,0,8.575.168l165.451-99.261c2.606-1.563,4.72-5.061,4.72-7.811s-2.112-6.248-4.719-7.812l-81.876-49.117a10.115,10.115,0,0,0-9.439,0L6.72,214.087C4.113,215.65,2,219.148,2,221.9S4.113,228.146,6.72,229.709Z" transform="translate(-2 -2)"/>
    <path class="cls-3" d="M88.9,279,6.72,229.709C4.113,228.146,2,224.648,2,221.9s2.113-6.248,4.72-7.811L93.373,162.1V280.224A8.482,8.482,0,0,1,88.9,279Z" transform="translate(-2 -2)"/>
    <path class="cls-4" d="M90.855,270.217a8.924,8.924,0,0,0,8.323,0l163.77-98.244c3.521-2.112,3.521-5.568,0-7.681l-81.89-49.125a10.115,10.115,0,0,0-9.439,0L6.727,214.087c-2.6,1.557-2.6,4.105,0,5.662Z" transform="translate(-2 -2)"/>
    <path class="cls-5" d="M98.808,260.326a9.582,9.582,0,0,0,8.97,0L248.7,175.788c2.477-1.486,2.477-3.9,0-5.382L171.662,124.2a9.616,9.616,0,0,0-8.97,0L21.773,208.736c-2.467,1.48-2.467,3.9,0,5.382Z" transform="translate(-2 -2)"/>
    <path class="cls-6" d="M167.45,123.1a8.768,8.768,0,0,1,4.212,1.094L248.7,170.406c2.477,1.486,2.477,3.9,0,5.382l-15.27,9.16L167.45,141.171Z" transform="translate(-2 -2)"/>
    <path class="cls-7" d="M162.639,127.7a9.616,9.616,0,0,1,8.97,0l77.035,46.208a4.611,4.611,0,0,1,1.171.976,4.765,4.765,0,0,1-1.118.907L107.778,260.326a9.582,9.582,0,0,1-8.97,0L21.773,214.118a4.628,4.628,0,0,1-1.163-.966,4.568,4.568,0,0,1,1.11-.917Z" transform="translate(-2 -2)"/>
    <g>
      <path class="cls-8" d="M220.538,148.794l-13.652-8.19c-.815-.489-.856-1.257-.092-1.715a3.055,3.055,0,0,1,2.859.055l13.653,8.19c.814.489.855,1.256.091,1.715A3.058,3.058,0,0,1,220.538,148.794Z" transform="translate(-2 -2)"/>
      <g>
        <path class="cls-8" d="M197.094,134.751a.888.888,0,0,1,0-1.661,2.958,2.958,0,0,1,2.767,0,.888.888,0,0,1,0,1.66A2.955,2.955,0,0,1,197.094,134.751Z" transform="translate(-2 -2)"/>
        <path class="cls-8" d="M191.56,131.426a.888.888,0,0,1,0-1.66,2.958,2.958,0,0,1,2.767,0,.888.888,0,0,1,0,1.66A2.958,2.958,0,0,1,191.56,131.426Z" transform="translate(-2 -2)"/>
        <path class="cls-8" d="M235.836,157.988a.888.888,0,0,1,0-1.66,2.958,2.958,0,0,1,2.767,0,.888.888,0,0,1,0,1.66A2.952,2.952,0,0,1,235.836,157.988Z" transform="translate(-2 -2)"/>
        <path class="cls-8" d="M230.3,154.664a.888.888,0,0,1,0-1.66,2.958,2.958,0,0,1,2.767,0,.888.888,0,0,1,0,1.66A2.958,2.958,0,0,1,230.3,154.664Z" transform="translate(-2 -2)"/>
      </g>
    </g>
    <path class="cls-9" d="M95.367,236.714v.309a1.727,1.727,0,0,0,.747,1.345l16.03,9.617a1.6,1.6,0,0,0,1.495,0l26.545-15.925a1.727,1.727,0,0,0,.747-1.344v-.31a1.731,1.731,0,0,0-.747-1.345l-16.03-9.616a1.6,1.6,0,0,0-1.495,0L96.114,235.369A1.728,1.728,0,0,0,95.367,236.714Z" transform="translate(-2 -2)"/>
    <path class="cls-9" d="M95.367,236.714v.309a1.727,1.727,0,0,0,.747,1.345l16.03,9.617a1.6,1.6,0,0,0,1.495,0l26.545-15.925a1.727,1.727,0,0,0,.747-1.344v-.31a1.731,1.731,0,0,0-.747-1.345l-16.03-9.616a1.6,1.6,0,0,0-1.495,0L96.114,235.369A1.728,1.728,0,0,0,95.367,236.714Z" transform="translate(-2 -2)"/>
    <path class="cls-10" d="M140.184,229.061l-16.03-9.616a1.6,1.6,0,0,0-1.495,0l-9.767,5.859v22.867h0a1.483,1.483,0,0,0,.748-.186l26.545-15.925a1.727,1.727,0,0,0,.747-1.344v-.31A1.731,1.731,0,0,0,140.184,229.061Z" transform="translate(-2 -2)"/>
    <path class="cls-11" d="M140.184,229.061l-16.03-9.616a1.6,1.6,0,0,0-1.495,0l-9.767,5.859v22.867h0a1.483,1.483,0,0,0,.748-.186l26.545-15.925a1.727,1.727,0,0,0,.747-1.344v-.31A1.731,1.731,0,0,0,140.184,229.061Z" transform="translate(-2 -2)"/>
    <path class="cls-10" d="M112.892,225.3,96.114,235.369a1.731,1.731,0,0,0-.747,1.345v.309a1.727,1.727,0,0,0,.747,1.345l16.03,9.617a1.481,1.481,0,0,0,.747.186h0Z" transform="translate(-2 -2)"/>
    <path class="cls-11" d="M112.892,225.3,96.114,235.369a1.731,1.731,0,0,0-.747,1.345v.309a1.727,1.727,0,0,0,.747,1.345l16.03,9.617a1.481,1.481,0,0,0,.747.186h0Z" transform="translate(-2 -2)"/>
    <path class="cls-9" d="M109.578,244.343l-13.464-8.077a.48.48,0,0,1,0-.9l26.545-15.924a1.6,1.6,0,0,1,1.495,0l16.03,9.616a.48.48,0,0,1,0,.9l-4.4,2.642-1.541.924-20.6,12.358a1.6,1.6,0,0,1-1.495,0l-1.306-.783Z" transform="translate(-2 -2)"/>
    <path class="cls-12" d="M109.578,244.343l-13.464-8.077a.48.48,0,0,1,0-.9l26.545-15.924a1.6,1.6,0,0,1,1.495,0l16.03,9.616a.48.48,0,0,1,0,.9l-4.4,2.642-1.541.924-20.6,12.358a1.6,1.6,0,0,1-1.495,0l-1.306-.783Z" transform="translate(-2 -2)"/>
    <path class="cls-13" d="M121.8,230.925l18.384-1.864-18.222,1.072,2.192-10.688a1.493,1.493,0,0,0-.815-.178L119.9,233.715,95.81,235.779a.524.524,0,0,0,.3.487l19.455-1.174-2.677,10.976,3.424-11.021h0l3.323-.2a1.765,1.765,0,0,0,1.1-.476h0v0a1.887,1.887,0,0,0,.561-1Z" transform="translate(-2 -2)"/>
    <path class="cls-10" d="M101.558,235.287l18.343-1.572.657-2.731.363-1.521,2.421-10.2a1.461,1.461,0,0,0-.683.179l-13.273,7.962-13.272,7.962a.562.562,0,0,0-.3.41l3.68-.315Z" transform="translate(-2 -2)"/>
    <path class="cls-14" d="M120.371,217.164a6.483,6.483,0,0,1,6.071,0c1.676,1.006,1.676,2.636,0,3.642a6.483,6.483,0,0,1-6.071,0C118.694,219.8,118.694,218.17,120.371,217.164Z" transform="translate(-2 -2)"/>
    <path class="cls-7" d="M121.286,219.584a.216.216,0,0,1-.126-.045.09.09,0,0,1-.035-.088l.251-1.147c.007-.028.016-.061.029-.1a.191.191,0,0,1,.092-.1l.614-.368a.3.3,0,0,1,.272,0l3.251,1.95a.1.1,0,0,1,.055.082.094.094,0,0,1-.055.081l-.659.4a.289.289,0,0,1-.272,0l-2.2-1.319-.146.631a.115.115,0,0,1-.073.077.292.292,0,0,1-.144.023Z" transform="translate(-2 -2)"/>
    <path class="cls-12" d="M151.2,224.561,133.166,213.74a.477.477,0,0,1,0-.892l65.451-39.266a1.59,1.59,0,0,1,1.487,0L218.143,184.4a.477.477,0,0,1,0,.892l-65.454,39.266A1.59,1.59,0,0,1,151.2,224.561Z" transform="translate(-2 -2)"/>
    <g>
      <path class="cls-7" d="M147.736,212.334a.36.36,0,0,1-.19.055c-.063,0-.112,0-.144,0l-3.75-.439,2.219,1.331a.1.1,0,0,1,.059.087.1.1,0,0,1-.059.087l-.436.262a.29.29,0,0,1-.146.037.274.274,0,0,1-.145-.037l-3.481-2.088a.1.1,0,0,1-.06-.087.1.1,0,0,1,.06-.087l.377-.226a.358.358,0,0,1,.188-.055c.065,0,.114,0,.146,0l3.751.44-2.221-1.332a.094.094,0,0,1,0-.175l.437-.262a.283.283,0,0,1,.145-.035.287.287,0,0,1,.146.035l3.48,2.089a.1.1,0,0,1,.06.087.1.1,0,0,1-.06.087Z" transform="translate(-2 -2)"/>
      <path class="cls-7" d="M147.509,210.79a1.841,1.841,0,0,1-.477-.4.828.828,0,0,1-.2-.437.671.671,0,0,1,.108-.436,1.241,1.241,0,0,1,.433-.4,2.287,2.287,0,0,1,.657-.262,2.926,2.926,0,0,1,1.417.03,2.406,2.406,0,0,1,.62.259l.243.145a.1.1,0,0,1,.06.087.1.1,0,0,1-.06.088l-1.8,1.079a.8.8,0,0,0,.27.1,1.088,1.088,0,0,0,.3.013,1.332,1.332,0,0,0,.3-.061,1.349,1.349,0,0,0,.263-.12.985.985,0,0,0,.246-.189.373.373,0,0,0,.088-.16.322.322,0,0,1,.038-.093.259.259,0,0,1,.087-.072l.431-.258a.282.282,0,0,1,.148-.037.228.228,0,0,1,.142.037.31.31,0,0,1,.111.166.484.484,0,0,1,0,.28.99.99,0,0,1-.192.347,1.66,1.66,0,0,1-.45.367,2.3,2.3,0,0,1-.651.265,2.647,2.647,0,0,1-.717.071,2.86,2.86,0,0,1-.725-.118A2.912,2.912,0,0,1,147.509,210.79Zm.512-1.278a.721.721,0,0,0-.221.188.332.332,0,0,0-.067.182.286.286,0,0,0,.046.167.514.514,0,0,0,.117.132l1.218-.73a1.513,1.513,0,0,0-.209-.077.963.963,0,0,0-.259-.039,1.116,1.116,0,0,0-.3.035A1.221,1.221,0,0,0,148.021,209.512Z" transform="translate(-2 -2)"/>
      <path class="cls-7" d="M153.667,207.418l-1.054-1.215a.243.243,0,0,1-.041-.08c-.01-.029.011-.059.061-.089l.409-.245a.314.314,0,0,1,.292,0,.093.093,0,0,1,.031.026l1.672,1.978a.193.193,0,0,1,.043.084c.006.03-.015.06-.065.091l-.41.245a.239.239,0,0,1-.148.038,1.427,1.427,0,0,1-.143-.025l-1.96-.55.915,1.177a.355.355,0,0,1,.041.086c.009.028-.012.058-.062.088l-.41.246a.246.246,0,0,1-.15.039.751.751,0,0,1-.141-.026l-3.3-1a.171.171,0,0,1-.042-.019.1.1,0,0,1-.059-.088.1.1,0,0,1,.058-.087l.41-.246a.237.237,0,0,1,.148-.037.928.928,0,0,1,.133.025l2.025.633-1.023-1.234a.117.117,0,0,1-.035-.083.1.1,0,0,1,.055-.086l.41-.245a.275.275,0,0,1,.144-.035.467.467,0,0,1,.137.022Z" transform="translate(-2 -2)"/>
      <path class="cls-7" d="M156.1,205.634a1.816,1.816,0,0,1-.476-.4.838.838,0,0,1-.2-.437.678.678,0,0,1,.108-.436,1.246,1.246,0,0,1,.434-.4,2.276,2.276,0,0,1,.657-.262,2.926,2.926,0,0,1,1.417.03,2.421,2.421,0,0,1,.62.259l.243.145a.094.094,0,0,1,0,.175l-1.8,1.079a.773.773,0,0,0,.269.1,1.09,1.09,0,0,0,.3.013,1.267,1.267,0,0,0,.3-.061,1.331,1.331,0,0,0,.264-.12.976.976,0,0,0,.245-.189.377.377,0,0,0,.089-.16.217.217,0,0,1,.124-.164l.432-.259a.283.283,0,0,1,.147-.037.245.245,0,0,1,.144.037.324.324,0,0,1,.11.167.49.49,0,0,1,0,.279,1,1,0,0,1-.191.348,1.678,1.678,0,0,1-.45.366,2.3,2.3,0,0,1-.652.265,2.608,2.608,0,0,1-.717.071,2.86,2.86,0,0,1-.725-.118A2.949,2.949,0,0,1,156.1,205.634Zm.513-1.277a.683.683,0,0,0-.221.188.34.34,0,0,0-.068.182.285.285,0,0,0,.047.166.5.5,0,0,0,.117.133l1.218-.731a1.482,1.482,0,0,0-.21-.077.955.955,0,0,0-.258-.039,1.166,1.166,0,0,0-.3.035A1.19,1.19,0,0,0,156.616,204.357Z" transform="translate(-2 -2)"/>
      <path class="cls-7" d="M158.906,202.6a.471.471,0,0,1,.073-.332.858.858,0,0,1,.3-.279,1.875,1.875,0,0,1,.682-.257,2.222,2.222,0,0,1,.671,0,.453.453,0,0,1-.022-.219.674.674,0,0,1,.073-.219.858.858,0,0,1,.15-.2,1.151,1.151,0,0,1,.214-.163,1.919,1.919,0,0,1,.614-.246,2.114,2.114,0,0,1,1.185.1,3.367,3.367,0,0,1,.534.257l1.449.87a.1.1,0,0,1,.06.088.1.1,0,0,1-.06.087l-.409.246a.32.32,0,0,1-.291,0l-1.422-.854a1.333,1.333,0,0,0-.653-.223,1.011,1.011,0,0,0-.539.149.4.4,0,0,0-.228.306q-.013.175.325.392l1.45.869a.1.1,0,0,1,.059.088.1.1,0,0,1-.059.087l-.41.246a.31.31,0,0,1-.29,0l-1.423-.853a1.343,1.343,0,0,0-.652-.224,1.011,1.011,0,0,0-.539.149.4.4,0,0,0-.229.315c0,.122.111.255.353.4l1.423.854a.094.094,0,0,1,0,.175l-.41.245a.274.274,0,0,1-.145.036.277.277,0,0,1-.146-.036l-2.51-1.506a.094.094,0,0,1,0-.175l.409-.246a.322.322,0,0,1,.292,0Z" transform="translate(-2 -2)"/>
      <path class="cls-7" d="M163.577,200.3a.531.531,0,0,1-.142-.2.471.471,0,0,1-.022-.278.764.764,0,0,1,.164-.322,1.525,1.525,0,0,1,.41-.333,2.51,2.51,0,0,1,.567-.254,2.353,2.353,0,0,1,.594-.1,2.081,2.081,0,0,1,.6.065,2.128,2.128,0,0,1,.572.24l1.586.95a.106.106,0,0,1,.058.088.1.1,0,0,1-.058.087l-.41.246a.28.28,0,0,1-.146.036.265.265,0,0,1-.145-.037l-.178-.106a.486.486,0,0,1-.059.356,1.132,1.132,0,0,1-.431.391,2.149,2.149,0,0,1-.478.212,1.918,1.918,0,0,1-.482.079,1.786,1.786,0,0,1-.458-.045,1.425,1.425,0,0,1-.4-.162c-.248-.149-.353-.318-.318-.508a1.113,1.113,0,0,1,.421-.594l.727-.618a.693.693,0,0,0-.458-.1,1.172,1.172,0,0,0-.452.162.461.461,0,0,0-.173.149.353.353,0,0,0-.043.148.177.177,0,0,1-.03.089.227.227,0,0,1-.072.063l-.5.3a.25.25,0,0,1-.123.036A.149.149,0,0,1,163.577,200.3Zm2.42.373a1.029,1.029,0,0,0,.275-.227.434.434,0,0,0,.1-.226.314.314,0,0,0-.048-.2.509.509,0,0,0-.173-.161l-.054-.033-.6.517a.588.588,0,0,0-.208.258c-.016.067.017.126.1.176a.383.383,0,0,0,.283.031A1.137,1.137,0,0,0,166,200.669Z" transform="translate(-2 -2)"/>
      <path class="cls-7" d="M165.523,197.074a.271.271,0,0,1,.145-.036.28.28,0,0,1,.146.036l.419.252a.1.1,0,0,1,.06.087.1.1,0,0,1-.059.087l-.463.278a.314.314,0,0,1-.292,0l-.42-.252a.1.1,0,0,1-.059-.087.1.1,0,0,1,.059-.087Zm3.8,2.136a.106.106,0,0,1,.06.088.1.1,0,0,1-.06.087l-.409.245a.289.289,0,0,1-.145.037.275.275,0,0,1-.146-.037l-2.511-1.5a.1.1,0,0,1-.059-.088.1.1,0,0,1,.058-.087l.41-.246a.31.31,0,0,1,.292,0Z" transform="translate(-2 -2)"/>
      <path class="cls-7" d="M170.765,198.344a.1.1,0,0,1,.06.088.1.1,0,0,1-.06.087l-.409.245a.276.276,0,0,1-.145.036.266.266,0,0,1-.146-.036l-3.535-2.12a.094.094,0,0,1,0-.175l.41-.245a.271.271,0,0,1,.145-.036.277.277,0,0,1,.146.036Z" transform="translate(-2 -2)"/>
    </g>
    <path class="cls-7" d="M149.39,215.35l53.4-32.036a2.323,2.323,0,0,1,2.148-.138c.53.317.426.894-.231,1.288L151.3,216.5a2.317,2.317,0,0,1-2.145.137C148.629,216.322,148.733,215.744,149.39,215.35Z" transform="translate(-2 -2)"/>
    <path class="cls-7" d="M153.14,217.6l53.4-32.035a2.327,2.327,0,0,1,2.148-.139c.529.318.426.895-.231,1.289l-53.408,32.04a2.314,2.314,0,0,1-2.145.136C152.378,218.571,152.483,217.993,153.14,217.6Z" transform="translate(-2 -2)"/>
    <polygon id="Shadow-3" data-name="Shadow" class="cls-1" points="71.848 236.393 43.957 219.66 168.901 144.706 197.362 161.097 71.848 236.393"/>
    <g id="Back">
      <g>
        <path class="cls-12" d="M66.3,134.075l118.83-71.286,4.755,2.852a5.2,5.2,0,0,1,2.235,4.023v91.082a5.2,5.2,0,0,1-2.235,4.023L75.53,233.373a4.791,4.791,0,0,1-4.471,0l-2.519-1.511a5.2,5.2,0,0,1-2.235-4.023Z" transform="translate(-2 -2)"/>
        <path class="cls-15" d="M66.3,134.075l118.83-71.286,4.755,2.852a5.2,5.2,0,0,1,2.235,4.023v91.082a5.2,5.2,0,0,1-2.235,4.023L75.53,233.373a4.791,4.791,0,0,1-4.471,0l-2.519-1.511a5.2,5.2,0,0,1-2.235-4.023Z" transform="translate(-2 -2)"/>
        <path class="cls-12" d="M184.478,54.782l.486-.275-1.846-1.115v0a3.16,3.16,0,0,0-.491-.244l-52.3-20.135a3.524,3.524,0,0,0-4.017,1.327l-58.5,88.768a10.808,10.808,0,0,0-1.51,5.068v5.9l1.813,1.094L185.134,62.789v-5.9A4.091,4.091,0,0,0,184.478,54.782Z" transform="translate(-2 -2)"/>
        <path class="cls-16" d="M128.737,34.772a3.008,3.008,0,0,0-.606.666L69.625,124.2a9.684,9.684,0,0,0-1.087,2.537l-1.817-1.093a12.629,12.629,0,0,1,.472-1.342c.009-.018.009-.028.018-.037.08-.185.16-.361.249-.537.018-.027.027-.055.045-.083a4.875,4.875,0,0,1,.312-.537l58.5-88.765a2.878,2.878,0,0,1,.294-.37c.1-.1.2-.2.312-.3Z" transform="translate(-2 -2)"/>
        <path class="cls-17" d="M184.943,54.5a2.766,2.766,0,0,0-.5-.249L132.14,34.1a3.483,3.483,0,0,0-3.4.667l-1.818-1.092a3.52,3.52,0,0,1,3.412-.667l52.3,20.134a2.729,2.729,0,0,1,.49.25Z" transform="translate(-2 -2)"/>
        <g>
          <path class="cls-12" d="M67.5,123.645a6.189,6.189,0,0,1,.312-.535C67.707,123.273,67.6,123.453,67.5,123.645Z" transform="translate(-2 -2)"/>
          <path class="cls-12" d="M126.608,33.976a3.816,3.816,0,0,1,.314-.3A3.14,3.14,0,0,0,126.608,33.976Z" transform="translate(-2 -2)"/>
          <path class="cls-12" d="M66.718,125.65a11.935,11.935,0,0,1,.475-1.347A11.866,11.866,0,0,0,66.718,125.65Z" transform="translate(-2 -2)"/>
          <path class="cls-12" d="M67.208,124.265c.08-.186.165-.362.251-.532C67.373,123.9,67.288,124.079,67.208,124.265Z" transform="translate(-2 -2)"/>
          <path class="cls-15" d="M67.193,124.3l.015-.038Z" transform="translate(-2 -2)"/>
          <polygon class="cls-15" points="64.718 123.65 64.718 123.65 64.718 123.65 64.718 123.65"/>
          <polygon class="cls-15" points="124.922 31.68 124.922 31.68 124.922 31.68 124.922 31.68"/>
          <path class="cls-15" d="M67.459,123.733c.015-.028.028-.06.043-.088C67.487,123.673,67.474,123.705,67.459,123.733Z" transform="translate(-2 -2)"/>
          <path class="cls-15" d="M126.314,34.342a3.059,3.059,0,0,1,.294-.366A2.677,2.677,0,0,0,126.314,34.342Z" transform="translate(-2 -2)"/>
        </g>
        <path class="cls-12" d="M128.127,35.436l-58.5,88.769a10.8,10.8,0,0,0-1.51,5.068v5.9L186.948,63.877v-5.89a4.28,4.28,0,0,0-2.506-3.742l-52.3-20.136A3.526,3.526,0,0,0,128.127,35.436Z" transform="translate(-2 -2)"/>
        <path class="cls-18" d="M186.947,57.987a4.077,4.077,0,0,0-.635-2.075L68.538,126.74l-.011.019a9.617,9.617,0,0,0-.41,2.514v5.9L186.948,63.877Z" transform="translate(-2 -2)"/>
      </g>
    </g>
    <path class="cls-9" d="M181.871,32.966a1.435,1.435,0,0,0-.557-1.293c-.35-.214-3.278-1.966-3.627-2.175a1.313,1.313,0,0,0-1.363.14L78.855,88.107a4.469,4.469,0,0,0-1.929,3.472V212.866a1.427,1.427,0,0,0,.564,1.3l3.62,2.172a1.313,1.313,0,0,0,1.364-.141l97.468-58.469a4.464,4.464,0,0,0,1.929-3.471Z" transform="translate(-2 -2)"/>
    <path class="cls-19" d="M181.871,32.966a1.435,1.435,0,0,0-.557-1.293c-.35-.214-3.278-1.966-3.627-2.175a1.313,1.313,0,0,0-1.363.14L78.855,88.107a4.469,4.469,0,0,0-1.929,3.472V212.866a1.427,1.427,0,0,0,.564,1.3l3.62,2.172a1.313,1.313,0,0,0,1.364-.141l97.468-58.469a4.464,4.464,0,0,0,1.929-3.471Z" transform="translate(-2 -2)"/>
    <path class="cls-9" d="M82.475,216.194l97.468-58.469a4.464,4.464,0,0,0,1.929-3.471V32.966c0-1.278-.863-1.8-1.928-1.157L82.474,90.278a4.467,4.467,0,0,0-1.929,3.472V215.037C80.546,216.315,81.409,216.833,82.475,216.194Z" transform="translate(-2 -2)"/>
    <path class="cls-20" d="M82.475,216.194l97.468-58.469a4.464,4.464,0,0,0,1.929-3.471V32.966c0-1.278-.863-1.8-1.928-1.157L82.474,90.278a4.467,4.467,0,0,0-1.929,3.472V215.037C80.546,216.315,81.409,216.833,82.475,216.194Z" transform="translate(-2 -2)"/>
    <path class="cls-9" d="M80.542,215.036A1.544,1.544,0,0,0,81,216.258c-.651-.38-3.181-1.907-3.5-2.092a1.417,1.417,0,0,1-.57-1.3V91.576A4.137,4.137,0,0,1,77.5,89.6l3.617,2.166a4.174,4.174,0,0,0-.57,1.981Z" transform="translate(-2 -2)"/>
    <path class="cls-21" d="M80.542,215.036A1.544,1.544,0,0,0,81,216.258c-.651-.38-3.181-1.907-3.5-2.092a1.417,1.417,0,0,1-.57-1.3V91.576A4.137,4.137,0,0,1,77.5,89.6l3.617,2.166a4.174,4.174,0,0,0-.57,1.981Z" transform="translate(-2 -2)"/>
    <path class="cls-19" d="M80.542,215.036A1.544,1.544,0,0,0,81,216.258c-.651-.38-3.181-1.907-3.5-2.092a1.417,1.417,0,0,1-.57-1.3V91.576A4.137,4.137,0,0,1,77.5,89.6l3.617,2.166a4.174,4.174,0,0,0-.57,1.981Z" transform="translate(-2 -2)"/>
    <path class="cls-9" d="M189.109,161.96a1.15,1.15,0,0,1-.124.185L139.466,145.83a8.36,8.36,0,0,0-10.7,3.422L75.828,231.007l-1.958,1.175-.018.009a1.549,1.549,0,0,1-1.515.176L126.781,148.1a8.384,8.384,0,0,1,10.71-3.432Z" transform="translate(-2 -2)"/>
    <path class="cls-22" d="M123.89,157.277l.125-.111L75.826,231.01l-1.96,1.176-.018.009a1.564,1.564,0,0,1-1.514.176l49.649-76.279Z" transform="translate(-2 -2)"/>
    <path class="cls-11" d="M189.113,161.963a1.159,1.159,0,0,1-.125.185l-49.525-16.322a8.359,8.359,0,0,0-10.7,3.426l-1.96-1.185a8.378,8.378,0,0,1,10.691-3.407Z" transform="translate(-2 -2)"/>
    <path class="cls-9" d="M192.083,69.082h-.009c-.107-.666-.446-.851-.882-.537a2.606,2.606,0,0,0-.57.611l-.25.361L141.506,146.71l-7.3,10.562a4.082,4.082,0,0,1-4.018,1.565l-6.3-1.556L75.811,138.889a2.358,2.358,0,0,0-.98-.037,1.753,1.753,0,0,0-.365.12l1.812-1.088,46.1,17.554,6.07,2.251a4.061,4.061,0,0,0,4.018-1.565l7.3-10.553,49.106-77.553a2,2,0,0,1,.553-.528l-4.25-2.546,1.782-1.064,2.94,1.759A5.313,5.313,0,0,1,192.083,69.082Z" transform="translate(-2 -2)"/>
    <path class="cls-22" d="M141.5,146.706l-7.3,10.562a4.082,4.082,0,0,1-4.018,1.565l-6.3-1.556.125-.111.3-.5,4.124,1.019a4.059,4.059,0,0,0,4.018-1.565l7.226-10.442Z" transform="translate(-2 -2)"/>
    <path class="cls-11" d="M189.888,65.635l-2.94-1.759-1.782,1.064,4.25,2.546.01.008-.007,0a1.983,1.983,0,0,0-.553.528l-49.109,77.549-.071.1v.009l1.817,1.028,48.866-77.193.249-.361a2.628,2.628,0,0,1,.571-.611c.436-.314.775-.129.882.537h.008A5.308,5.308,0,0,0,189.888,65.635Z" transform="translate(-2 -2)"/>
    <path class="cls-9" d="M76.788,140.367,66.3,134.075v93.764a5.2,5.2,0,0,0,2.235,4.023l2.519,1.511a4.791,4.791,0,0,0,4.471,0l1.258-.755Z" transform="translate(-2 -2)"/>
    <path class="cls-23" d="M76.788,140.367,66.3,134.075v93.764a5.2,5.2,0,0,0,2.235,4.023l2.519,1.511a4.791,4.791,0,0,0,4.471,0l1.258-.755Z" transform="translate(-2 -2)"/>
    <path class="cls-12" d="M192.127,69.665v91.08a4.866,4.866,0,0,1-.7,2.351,5.013,5.013,0,0,1-1.309,1.527l-.089.047a1.525,1.525,0,0,1-.143.1L75.535,233.366l-.018.009a1.541,1.541,0,0,1-1.523.185,1.414,1.414,0,0,1-.668-1.111,3.019,3.019,0,0,1-.027-.416V140.944a1.963,1.963,0,0,1,2.512-2.055l48.082,18.392,6.3,1.556a4.082,4.082,0,0,0,4.018-1.565l7.3-10.562,48.866-77.193.25-.361C191.45,67.962,192.127,68.184,192.127,69.665Z" transform="translate(-2 -2)"/>
    <path class="cls-9" d="M189.89,164.772a1.38,1.38,0,0,0,.146-.1l.086-.054a5.3,5.3,0,0,0,2-3.832l-50.614-14.077,33.9,26.751Z" transform="translate(-2 -2)"/>
    <path class="cls-24" d="M189.89,164.772a1.38,1.38,0,0,0,.146-.1l.086-.054a5.3,5.3,0,0,0,2-3.832l-50.614-14.077,33.9,26.751Z" transform="translate(-2 -2)"/>
    <path class="cls-9" d="M73.3,232.029a1.622,1.622,0,0,0,.7,1.528,1.541,1.541,0,0,0,1.523-.178l.017-.009,39.372-23.618,8.991-52.473L73.3,230.515Z" transform="translate(-2 -2)"/>
    <path class="cls-24" d="M128.745,149.242,73.991,233.556a1.622,1.622,0,0,1-.695-1.527l0-1.514,53.486-82.421c0-.009.009-.018.018-.027Z" transform="translate(-2 -2)"/>
    <path class="cls-12" d="M191.43,163.1a4.91,4.91,0,0,1-1.308,1.519l-.086.054-114.5,68.7-.017.009a1.541,1.541,0,0,1-1.523.178l54.76-84.329A8.432,8.432,0,0,1,139.52,145.8Z" transform="translate(-2 -2)"/>
    <path class="cls-13" d="M66.721,125.647l1.817,1.093a9.568,9.568,0,0,0-.418,2.536v5.888L66.3,134.071v-5.9A9.575,9.575,0,0,1,66.721,125.647Z" transform="translate(-2 -2)"/>
    <polygon class="cls-9" points="74.278 135.884 72.466 136.972 70.631 135.871 66.114 133.168 67.869 132.085 74.278 135.884"/>
    <path class="cls-11" d="M76.359,137.919l-6.49-3.834-1.755,1.083,4.517,2.7,1.835,1.1.019-.011a1.745,1.745,0,0,1,.343-.113,2.358,2.358,0,0,1,.98.037l3.654,1.4,41.972,16.055.656-1.012Z" transform="translate(-2 -2)"/>
    <polygon class="cls-20" points="255.061 110.497 279.352 94.333 290.053 97.902 255.061 110.497"/>
    <polygon class="cls-20" points="255.061 110.497 276.056 92.304 271.39 86.707 255.061 110.497"/>
    <polygon class="cls-9" points="276.056 92.304 276.056 96.526 255.061 110.497 276.056 92.304"/>
    <polygon class="cls-4" points="276.056 92.304 276.056 96.526 255.061 110.497 276.056 92.304"/>
    <g>
      <path class="cls-25" d="M283.037,91.861a.674.674,0,0,1-.519-.246.734.734,0,0,1,.07-1.007q.635-.572,1.245-1.176a.668.668,0,0,1,.971.024.733.733,0,0,1-.022,1.008q-.636.63-1.295,1.224A.673.673,0,0,1,283.037,91.861Z" transform="translate(-2 -2)"/>
      <path class="cls-25" d="M286.651,88.12a.675.675,0,0,1-.453-.177.733.733,0,0,1-.063-1.007c.719-.852,1.42-1.758,2.085-2.694a.67.67,0,0,1,.96-.15.733.733,0,0,1,.145,1c-.688.967-1.414,1.905-2.158,2.787A.673.673,0,0,1,286.651,88.12Zm4.025-5.649a.666.666,0,0,1-.364-.109.73.73,0,0,1-.218-.983c.58-.963,1.139-1.974,1.663-3.005a.674.674,0,0,1,.928-.3.728.728,0,0,1,.287.964c-.54,1.062-1.116,2.1-1.714,3.095A.679.679,0,0,1,290.676,82.471Zm3.161-6.217a.67.67,0,0,1-.277-.061.726.726,0,0,1-.35-.941c.446-1.048.865-2.131,1.248-3.221a.68.68,0,0,1,.88-.425.721.721,0,0,1,.41.914c-.393,1.119-.824,2.232-1.282,3.309A.688.688,0,0,1,293.837,76.254Zm2.322-6.609a.646.646,0,0,1-.193-.029.717.717,0,0,1-.466-.885c.311-1.1.592-2.235.837-3.364a.685.685,0,0,1,.821-.539.714.714,0,0,1,.519.852c-.251,1.159-.54,2.32-.859,3.452A.692.692,0,0,1,296.159,69.645Zm1.488-6.864a.668.668,0,0,1-.109-.009.711.711,0,0,1-.57-.817c.175-1.137.317-2.3.423-3.448a.691.691,0,0,1,.749-.642.706.706,0,0,1,.618.778c-.109,1.181-.255,2.371-.434,3.536A.7.7,0,0,1,297.647,62.781Zm.642-7.006h-.022a.7.7,0,0,1-.665-.736q.026-.823.025-1.648,0-.914-.031-1.825a.7.7,0,0,1,.662-.737.678.678,0,0,1,.71.687q.033.938.032,1.875,0,.846-.025,1.693A.7.7,0,0,1,298.289,55.775Zm-.24-7.032a.7.7,0,0,1-.682-.64c-.115-1.155-.269-2.31-.459-3.436a.713.713,0,0,1,.558-.827.688.688,0,0,1,.8.58c.195,1.159.354,2.349.472,3.537a.707.707,0,0,1-.613.783C298.1,48.742,298.073,48.743,298.049,48.743Zm-1.173-6.93a.694.694,0,0,1-.665-.539c-.273-1.123-.59-2.241-.941-3.324a.72.72,0,0,1,.432-.9.679.679,0,0,1,.869.448c.363,1.117.69,2.272.972,3.43a.717.717,0,0,1-.5.867A.654.654,0,0,1,296.876,41.813Zm-2.168-6.664a.686.686,0,0,1-.63-.431c-.441-1.062-.928-2.11-1.448-3.113a.73.73,0,0,1,.28-.967.675.675,0,0,1,.93.291c.538,1.039,1.042,2.124,1.5,3.224a.725.725,0,0,1-.358.938A.677.677,0,0,1,294.708,35.149Zm-3.208-6.19a.678.678,0,0,1-.573-.321c-.61-.961-1.267-1.9-1.955-2.791a.733.733,0,0,1,.107-1,.67.67,0,0,1,.965.111c.714.925,1.4,1.9,2.029,2.9a.73.73,0,0,1-.2.988A.661.661,0,0,1,291.5,28.959Zm-4.225-5.49a.673.673,0,0,1-.5-.221c-.752-.819-1.557-1.633-2.392-2.417a.734.734,0,0,1-.049-1.008.67.67,0,0,1,.97-.051c.861.808,1.689,1.646,2.465,2.491a.735.735,0,0,1-.023,1.009A.677.677,0,0,1,287.275,23.469Zm-5.019-4.724a.666.666,0,0,1-.424-.153c-.859-.7-1.765-1.4-2.691-2.066a.73.73,0,0,1-.174-.992.671.671,0,0,1,.956-.181c.949.684,1.877,1.4,2.759,2.118a.732.732,0,0,1,.114,1A.675.675,0,0,1,282.256,18.745Zm-5.565-4.011a.664.664,0,0,1-.357-.105c-.938-.595-1.915-1.178-2.906-1.734a.727.727,0,0,1-.279-.966.672.672,0,0,1,.93-.289c1.013.567,2.013,1.163,2.971,1.771a.73.73,0,0,1,.228.981A.679.679,0,0,1,276.691,14.734Zm-5.96-3.346a.651.651,0,0,1-.294-.07c-1-.5-2.034-.974-3.063-1.421a.725.725,0,0,1-.369-.934.678.678,0,0,1,.9-.383c1.049.456,2.1.944,3.123,1.451a.725.725,0,0,1,.325.95A.685.685,0,0,1,270.731,11.388ZM201.4,9.615a.688.688,0,0,1-.646-.473.721.721,0,0,1,.415-.912c1.075-.4,2.161-.783,3.228-1.14a.681.681,0,0,1,.864.461.719.719,0,0,1-.443.9c-1.053.352-2.126.73-3.186,1.125A.676.676,0,0,1,201.4,9.615Zm63.088-.949a.655.655,0,0,1-.236-.043c-1.032-.393-2.1-.772-3.179-1.127a.72.72,0,0,1-.447-.9.682.682,0,0,1,.863-.464c1.1.361,2.184.748,3.235,1.147a.722.722,0,0,1,.409.915A.689.689,0,0,1,264.485,8.666ZM207.846,7.46a.692.692,0,0,1-.66-.517.717.717,0,0,1,.47-.882c1.08-.322,2.188-.632,3.294-.921a.685.685,0,0,1,.834.517.716.716,0,0,1-.5.866c-1.091.285-2.184.591-3.249.909A.668.668,0,0,1,207.846,7.46Zm50.182-.923a.632.632,0,0,1-.181-.025c-1.058-.3-2.155-.582-3.261-.844a.715.715,0,0,1-.516-.855.681.681,0,0,1,.822-.536c1.123.266,2.239.555,3.315.858a.717.717,0,0,1,.483.875A.693.693,0,0,1,258.028,6.537Zm-43.61-.794a.694.694,0,0,1-.671-.563.715.715,0,0,1,.526-.848c1.111-.249,2.235-.481,3.342-.69a.687.687,0,0,1,.8.574.713.713,0,0,1-.553.83c-1.093.206-2.2.435-3.3.681A.657.657,0,0,1,214.418,5.743Zm37-.767a.68.68,0,0,1-.126-.012c-1.081-.209-2.2-.4-3.317-.571a.71.71,0,0,1-.58-.809.686.686,0,0,1,.779-.6c1.137.173,2.271.368,3.369.58a.712.712,0,0,1,.55.832A.7.7,0,0,1,251.422,4.976Zm-30.345-.487a.7.7,0,0,1-.678-.611.708.708,0,0,1,.58-.808c1.127-.172,2.264-.324,3.381-.453a.7.7,0,0,1,.758.63.708.708,0,0,1-.607.788c-1.1.128-2.222.277-3.334.446A.562.562,0,0,1,221.077,4.489Zm23.641-.528a.627.627,0,0,1-.074,0c-1.094-.121-2.221-.223-3.349-.305a.714.714,0,0,1,.095-1.424c1.146.083,2.29.188,3.4.311a.707.707,0,0,1,.61.785A.7.7,0,0,1,244.718,3.961Zm-16.912-.249a.7.7,0,0,1-.684-.66.705.705,0,0,1,.633-.765c1.136-.089,2.281-.159,3.4-.206a.68.68,0,0,1,.714.683.7.7,0,0,1-.658.742c-1.106.047-2.235.116-3.356.2Zm10.153-.236h-.022c-.982-.032-1.97-.048-2.937-.048h-.428a.714.714,0,0,1,0-1.427H235c.981,0,1.984.017,2.979.05a.714.714,0,0,1-.02,1.426Z" transform="translate(-2 -2)"/>
      <path class="cls-25" d="M196.572,11.545a.686.686,0,0,1-.635-.441.724.724,0,0,1,.374-.932q.8-.342,1.6-.672a.681.681,0,0,1,.891.4.724.724,0,0,1-.387.926c-.527.215-1.056.437-1.583.663A.678.678,0,0,1,196.572,11.545Z" transform="translate(-2 -2)"/>
    </g>
    <polygon class="cls-20" points="41.681 74.592 73.256 58.51 50.484 81.01 41.681 74.592"/>
    <polygon class="cls-20" points="73.256 58.51 38.441 70.411 29.638 63.993 73.256 58.51"/>
    <polygon class="cls-9" points="38.441 70.411 39.816 79.598 41.681 74.592 73.256 58.51 38.441 70.411"/>
    <polygon class="cls-4" points="38.441 70.411 39.816 79.598 41.681 74.592 73.256 58.51 38.441 70.411"/>
    <polygon class="cls-20" points="39.816 79.598 44.615 76.731 41.681 74.592 39.816 79.598"/>
    <polygon class="cls-26" points="41.681 74.592 44.615 76.731 43.85 77.188 41.681 74.592"/>
    <path class="cls-25" d="M46.053,172.889a.678.678,0,0,1-.232-.042c-1.114-.416-2.2-.842-3.231-1.266a.723.723,0,0,1-.386-.926.68.68,0,0,1,.891-.4c1.018.419,2.091.839,3.19,1.25a.721.721,0,0,1,.415.912A.69.69,0,0,1,46.053,172.889Zm-6.377-2.631a.661.661,0,0,1-.275-.061c-1.069-.488-2.125-1-3.138-1.513a.727.727,0,0,1-.315-.954.677.677,0,0,1,.919-.328c1,.508,2.035,1.009,3.086,1.489a.723.723,0,0,1,.352.94A.685.685,0,0,1,39.676,170.258Zm-6.157-3.142a.661.661,0,0,1-.329-.088c-1.021-.581-2.03-1.19-3-1.808a.731.731,0,0,1-.225-.982.673.673,0,0,1,.945-.234c.947.607,1.935,1.2,2.936,1.773a.728.728,0,0,1,.272.968A.683.683,0,0,1,33.519,167.116Zm-5.834-3.745a.672.672,0,0,1-.392-.128c-.959-.7-1.9-1.421-2.785-2.155a.732.732,0,0,1-.11-1,.668.668,0,0,1,.965-.114c.866.715,1.78,1.422,2.716,2.1a.732.732,0,0,1,.17.994A.679.679,0,0,1,27.685,163.371Zm-5.36-4.438a.668.668,0,0,1-.463-.187c-.862-.819-1.7-1.671-2.481-2.535a.735.735,0,0,1,.028-1.009.669.669,0,0,1,.971.029c.761.839,1.572,1.667,2.408,2.462a.734.734,0,0,1,.044,1.008A.674.674,0,0,1,22.325,158.933Zm-4.7-5.183a.671.671,0,0,1-.535-.266c-.727-.936-1.425-1.916-2.074-2.911a.729.729,0,0,1,.183-.99.67.67,0,0,1,.954.189c.628.963,1.3,1.911,2.006,2.818a.731.731,0,0,1-.1,1A.664.664,0,0,1,17.628,153.75Zm-3.846-5.893a.683.683,0,0,1-.6-.363c-.564-1.041-1.1-2.125-1.586-3.226a.725.725,0,0,1,.337-.946.677.677,0,0,1,.911.35c.472,1.065.988,2.115,1.535,3.121a.729.729,0,0,1-.261.972A.671.671,0,0,1,13.782,147.857Zm-2.873-6.466a.689.689,0,0,1-.643-.466c-.4-1.111-.761-2.267-1.086-3.437a.718.718,0,0,1,.47-.883.685.685,0,0,1,.85.488c.316,1.136.67,2.258,1.053,3.337a.72.72,0,0,1-.405.916A.649.649,0,0,1,10.909,141.391ZM9,134.548a.694.694,0,0,1-.67-.561c-.241-1.151-.455-2.344-.638-3.548a.711.711,0,0,1,.572-.816.692.692,0,0,1,.785.594c.178,1.177.387,2.343.623,3.466a.714.714,0,0,1-.525.849A.669.669,0,0,1,9,134.548Zm-1.072-7.043a.7.7,0,0,1-.682-.639c-.116-1.152-.21-2.359-.28-3.588a.687.687,0,1,1,1.371-.084c.068,1.207.16,2.393.274,3.523A.707.707,0,0,1,8,127.5C7.974,127.5,7.95,127.505,7.926,127.505Zm-.357-7.121H7.557a.7.7,0,0,1-.674-.726c.021-1.2.09-2.418.206-3.619a.7.7,0,0,1,.753-.638.707.707,0,0,1,.614.782c-.113,1.16-.18,2.339-.2,3.5A.7.7,0,0,1,7.569,120.384Zm.686-7.092a.669.669,0,0,1-.125-.012.711.711,0,0,1-.551-.831c.208-1.181.466-2.37.766-3.535a.686.686,0,0,1,.84-.5.716.716,0,0,1,.486.873c-.29,1.129-.54,2.281-.742,3.425A.694.694,0,0,1,8.255,113.292Zm1.769-6.888a.654.654,0,0,1-.228-.041.72.72,0,0,1-.419-.91c.385-1.132.82-2.264,1.292-3.366a.675.675,0,0,1,.907-.36.724.724,0,0,1,.347.942c-.457,1.066-.878,2.164-1.252,3.26A.687.687,0,0,1,10.024,106.4Zm2.792-6.511a.658.658,0,0,1-.327-.086.728.728,0,0,1-.276-.968c.555-1.059,1.155-2.106,1.786-3.112a.672.672,0,0,1,.951-.208.731.731,0,0,1,.2.987c-.611.975-1.194,1.989-1.73,3.015A.683.683,0,0,1,12.816,99.893Zm3.746-5.971a.666.666,0,0,1-.42-.15.731.731,0,0,1-.123-1c.71-.953,1.464-1.887,2.242-2.776a.672.672,0,0,1,.971-.047.735.735,0,0,1,.045,1.009c-.754.859-1.485,1.764-2.172,2.686A.676.676,0,0,1,16.562,93.922Zm4.62-5.266a.671.671,0,0,1-.5-.228.733.733,0,0,1,.034-1.008c.849-.823,1.74-1.617,2.646-2.361a.669.669,0,0,1,.965.117.732.732,0,0,1-.113,1c-.878.72-1.739,1.49-2.562,2.286A.67.67,0,0,1,21.182,88.656Zm5.382-4.418a.679.679,0,0,1-.573-.318.732.732,0,0,1,.192-.99c.962-.664,1.964-1.3,2.98-1.881a.673.673,0,0,1,.933.279.728.728,0,0,1-.268.97c-.983.565-1.954,1.178-2.885,1.821A.663.663,0,0,1,26.564,84.238Zm6-3.451a.687.687,0,0,1-.626-.42.724.724,0,0,1,.342-.944c1.051-.494,2.137-.952,3.228-1.362a.68.68,0,0,1,.88.428.723.723,0,0,1-.413.914c-1.057.4-2.11.842-3.129,1.32A.662.662,0,0,1,32.563,80.787Z" transform="translate(-2 -2)"/>
    <path class="cls-9" d="M204.756,270.812a.725.725,0,0,0-.351-.637,2.227,2.227,0,0,0-1.514-.462,3.465,3.465,0,0,0-1.59.4l-2.764,1.523a5.326,5.326,0,0,0,.5-1.309,4.283,4.283,0,0,0,.11-1.069c-.013-.6,0-3.928,0-4.242a4.96,4.96,0,0,0-.412-1.967,7.443,7.443,0,0,0-2.457-2.887q-1.266-1.012-3.038-2.218t-3.233-2.048a38.433,38.433,0,0,0-8.128-3.368,32.726,32.726,0,0,0-9.389-1.222,42.22,42.22,0,0,0-10.681,1.582,54.726,54.726,0,0,0-11.957,5,29.188,29.188,0,0,0-8.108,6.141,13.633,13.633,0,0,0-3.318,6.288,9.755,9.755,0,0,0-.167,1.9c.008.7,0,3.7,0,4.305a9.557,9.557,0,0,0,.974,4.154,15.3,15.3,0,0,0,4.259,5.215q.606.488,1.761,1.31t2.46,1.713q1.311.891,2.548,1.7t2.019,1.26A33.143,33.143,0,0,0,160.445,295a38.963,38.963,0,0,0,9.6,1.1,43.67,43.67,0,0,0,10.424-1.376,45.021,45.021,0,0,0,10.749-4.306,46.188,46.188,0,0,0,6.9-4.5,24.691,24.691,0,0,0,3.989-3.969,11.406,11.406,0,0,0,1.914-3.522,22.163,22.163,0,0,0,.721-3.118.9.9,0,0,0,.011-.134C204.757,274.92,204.755,270.853,204.756,270.812Zm-10.3,5.126a11.728,11.728,0,0,1-1.577,1.85,22.167,22.167,0,0,1-2.674,2.169,45.768,45.768,0,0,1-4.176,2.552,32.372,32.372,0,0,1-7.265,2.957,30.955,30.955,0,0,1-7.239,1.075,28.476,28.476,0,0,1-6.841-.629,24.563,24.563,0,0,1-6.125-2.195,21.184,21.184,0,0,1-2-1.173q-1.16-.753-2.37-1.575t-2.281-1.59a15.079,15.079,0,0,1-1.619-1.291,11.194,11.194,0,0,1-2.971-4c-.067-.16-.125-.321-.179-.482a10.379,10.379,0,0,1,2.337-3.7,22.173,22.173,0,0,1,5.567-4.111,45.922,45.922,0,0,1,8.093-3.571,31.675,31.675,0,0,1,4.141-1.025l-.708.389a1.31,1.31,0,0,0-.761.927.928.928,0,0,0,.483.934l.463.315a14.593,14.593,0,0,0-3.657.02,12.941,12.941,0,0,0-4.4,1.635,9.508,9.508,0,0,0-3.333,2.785,4.769,4.769,0,0,0-.915,2.747c0,.134,0,3.655,0,4.379,0,.134.006.267.019.4a6.639,6.639,0,0,0,1.4,3.309,14.761,14.761,0,0,0,3.614,3.293A21.389,21.389,0,0,0,169.829,286a19.419,19.419,0,0,0,5.309-.3,16.8,16.8,0,0,0,4.88-1.769,18.021,18.021,0,0,0,2.953-1.943,7.083,7.083,0,0,0,1.489-1.643,3.184,3.184,0,0,0,.492-1.411,12.468,12.468,0,0,0,.022-1.277,17.772,17.772,0,0,0,4.182-.309,18.35,18.35,0,0,0,5.525-2.126c.109-.06.209-.126.315-.188C194.836,275.329,194.659,275.628,194.458,275.938Zm-24.506-4.209a11.7,11.7,0,0,1,5.074,2.046A11.37,11.37,0,0,1,176.557,275a6.965,6.965,0,0,1-.8.516,7.681,7.681,0,0,1-4.717.89,11.337,11.337,0,0,1-5.079-2.012,10.661,10.661,0,0,1-1.568-1.27,6.486,6.486,0,0,1,.727-.47A7.733,7.733,0,0,1,169.952,271.729Zm19.141-4.224a6.631,6.631,0,0,1-2.461.564,4.588,4.588,0,0,1-2.86-.768l-9.294-6.325a23.141,23.141,0,0,1,2.783.5,27.9,27.9,0,0,1,6.525,2.543,32.327,32.327,0,0,1,3.037,1.839C187.639,266.409,188.386,266.958,189.093,267.505Z" transform="translate(-2 -2)"/>
    <path class="cls-11" d="M204.756,270.812a.725.725,0,0,0-.351-.637,2.227,2.227,0,0,0-1.514-.462,3.465,3.465,0,0,0-1.59.4l-2.764,1.523a5.326,5.326,0,0,0,.5-1.309,4.283,4.283,0,0,0,.11-1.069c-.013-.6,0-3.928,0-4.242a4.96,4.96,0,0,0-.412-1.967,7.443,7.443,0,0,0-2.457-2.887q-1.266-1.012-3.038-2.218t-3.233-2.048a38.433,38.433,0,0,0-8.128-3.368,32.726,32.726,0,0,0-9.389-1.222,42.22,42.22,0,0,0-10.681,1.582,54.726,54.726,0,0,0-11.957,5,29.188,29.188,0,0,0-8.108,6.141,13.633,13.633,0,0,0-3.318,6.288,9.755,9.755,0,0,0-.167,1.9c.008.7,0,3.7,0,4.305a9.557,9.557,0,0,0,.974,4.154,15.3,15.3,0,0,0,4.259,5.215q.606.488,1.761,1.31t2.46,1.713q1.311.891,2.548,1.7t2.019,1.26A33.143,33.143,0,0,0,160.445,295a38.963,38.963,0,0,0,9.6,1.1,43.67,43.67,0,0,0,10.424-1.376,45.021,45.021,0,0,0,10.749-4.306,46.188,46.188,0,0,0,6.9-4.5,24.691,24.691,0,0,0,3.989-3.969,11.406,11.406,0,0,0,1.914-3.522,22.163,22.163,0,0,0,.721-3.118.9.9,0,0,0,.011-.134C204.757,274.92,204.755,270.853,204.756,270.812Zm-10.3,5.126a11.728,11.728,0,0,1-1.577,1.85,22.167,22.167,0,0,1-2.674,2.169,45.768,45.768,0,0,1-4.176,2.552,32.372,32.372,0,0,1-7.265,2.957,30.955,30.955,0,0,1-7.239,1.075,28.476,28.476,0,0,1-6.841-.629,24.563,24.563,0,0,1-6.125-2.195,21.184,21.184,0,0,1-2-1.173q-1.16-.753-2.37-1.575t-2.281-1.59a15.079,15.079,0,0,1-1.619-1.291,11.194,11.194,0,0,1-2.971-4c-.067-.16-.125-.321-.179-.482a10.379,10.379,0,0,1,2.337-3.7,22.173,22.173,0,0,1,5.567-4.111,45.922,45.922,0,0,1,8.093-3.571,31.675,31.675,0,0,1,4.141-1.025l-.708.389a1.31,1.31,0,0,0-.761.927.928.928,0,0,0,.483.934l.463.315a14.593,14.593,0,0,0-3.657.02,12.941,12.941,0,0,0-4.4,1.635,9.508,9.508,0,0,0-3.333,2.785,4.769,4.769,0,0,0-.915,2.747c0,.134,0,3.655,0,4.379,0,.134.006.267.019.4a6.639,6.639,0,0,0,1.4,3.309,14.761,14.761,0,0,0,3.614,3.293A21.389,21.389,0,0,0,169.829,286a19.419,19.419,0,0,0,5.309-.3,16.8,16.8,0,0,0,4.88-1.769,18.021,18.021,0,0,0,2.953-1.943,7.083,7.083,0,0,0,1.489-1.643,3.184,3.184,0,0,0,.492-1.411,12.468,12.468,0,0,0,.022-1.277,17.772,17.772,0,0,0,4.182-.309,18.35,18.35,0,0,0,5.525-2.126c.109-.06.209-.126.315-.188C194.836,275.329,194.659,275.628,194.458,275.938Zm-24.506-4.209a11.7,11.7,0,0,1,5.074,2.046A11.37,11.37,0,0,1,176.557,275a6.965,6.965,0,0,1-.8.516,7.681,7.681,0,0,1-4.717.89,11.337,11.337,0,0,1-5.079-2.012,10.661,10.661,0,0,1-1.568-1.27,6.486,6.486,0,0,1,.727-.47A7.733,7.733,0,0,1,169.952,271.729Zm19.141-4.224a6.631,6.631,0,0,1-2.461.564,4.588,4.588,0,0,1-2.86-.768l-9.294-6.325a23.141,23.141,0,0,1,2.783.5,27.9,27.9,0,0,1,6.525,2.543,32.327,32.327,0,0,1,3.037,1.839C187.639,266.409,188.386,266.958,189.093,267.505Z" transform="translate(-2 -2)"/>
    <path class="cls-12" d="M147.137,273.609a10.379,10.379,0,0,1,2.337-3.7,22.173,22.173,0,0,1,5.567-4.111,45.922,45.922,0,0,1,8.093-3.571,31.836,31.836,0,0,1,4.141-1.025l2.5-1.377a3.165,3.165,0,0,1,1.586-.366,2.614,2.614,0,0,1,1.466.393l1.651,1.123a23.106,23.106,0,0,1,2.783.5,27.921,27.921,0,0,1,6.526,2.543,32.443,32.443,0,0,1,3.036,1.839c.816.555,1.563,1.1,2.269,1.651.134-.061.271-.117.4-.187a2.571,2.571,0,0,0,1.436-1.645q.2-.965-1.321-2.152-1.264-1.012-2.782-2.044a32.658,32.658,0,0,0-3.036-1.839,27.917,27.917,0,0,0-6.526-2.542,23.337,23.337,0,0,0-6.81-.647,28.919,28.919,0,0,0-7.317,1.4,45.839,45.839,0,0,0-8.093,3.57,22.173,22.173,0,0,0-5.567,4.111,9.826,9.826,0,0,0-2.512,4.293,6.772,6.772,0,0,0,.354,4.265,9.621,9.621,0,0,0,1.18,2.057,9.621,9.621,0,0,1-1.18-2.057C147.249,273.931,147.191,273.77,147.137,273.609Z" transform="translate(-2 -2)"/>
    <path class="cls-27" d="M175.026,269.4a11.715,11.715,0,0,0-5.073-2.046,7.735,7.735,0,0,0-4.838.925q-2.163,1.19-1.917,2.8a3.813,3.813,0,0,0,1.2,2.057l-.006-.006a6.486,6.486,0,0,1,.727-.47,7.732,7.732,0,0,1,4.837-.924,11.7,11.7,0,0,1,5.074,2.046A11.37,11.37,0,0,1,176.557,275q-.172.127-.365.253c1.209-.769,1.755-1.619,1.624-2.549C177.666,271.667,176.74,270.565,175.026,269.4Z" transform="translate(-2 -2)"/>
    <path class="cls-12" d="M169.829,281.625a21.416,21.416,0,0,1-10.35-3.664,14.763,14.763,0,0,1-3.614-3.294,6.632,6.632,0,0,1-1.4-3.308,4.328,4.328,0,0,1,0-.634c0,.077-.019.153-.019.23,0,.134,0,3.655,0,4.379,0,.134.006.267.019.4a6.639,6.639,0,0,0,1.4,3.309,14.761,14.761,0,0,0,3.614,3.293A21.389,21.389,0,0,0,169.829,286Z" transform="translate(-2 -2)"/>
    <path class="cls-27" d="M184.974,273.284a12.765,12.765,0,0,1-.022,1.277l.022,3.1a17.772,17.772,0,0,0,4.182-.309v-4.377A17.726,17.726,0,0,1,184.974,273.284Z" transform="translate(-2 -2)"/>
    <path class="cls-12" d="M160.445,290.62a33.183,33.183,0,0,1-8.168-3.126q-.778-.455-2.019-1.26t-2.548-1.7q-1.311-.892-2.46-1.713t-1.761-1.309a15.3,15.3,0,0,1-4.259-5.216,9.525,9.525,0,0,1-.967-4.183c0,.034,0,.067,0,.1.008.7,0,3.7,0,4.305a9.557,9.557,0,0,0,.974,4.154,15.3,15.3,0,0,0,4.259,5.215q.606.488,1.761,1.31t2.46,1.713q1.311.891,2.548,1.7t2.019,1.26A33.143,33.143,0,0,0,160.445,295a38.963,38.963,0,0,0,9.6,1.1v-4.377A39.011,39.011,0,0,1,160.445,290.62Z" transform="translate(-2 -2)"/>
    <path class="cls-11" d="M196.278,260.162a7.443,7.443,0,0,1,2.457,2.887,4.659,4.659,0,0,1,.3,2.9,5.971,5.971,0,0,1-1.475,2.679,11.073,11.073,0,0,1-2.88,2.219,18.318,18.318,0,0,1-5.525,2.125,17.726,17.726,0,0,1-4.182.31,12.449,12.449,0,0,1-.022,1.276,3.176,3.176,0,0,1-.492,1.411,7.085,7.085,0,0,1-1.489,1.644,18.026,18.026,0,0,1-2.953,1.942,16.769,16.769,0,0,1-4.88,1.769,19.419,19.419,0,0,1-5.309.3,21.416,21.416,0,0,1-10.35-3.664,14.763,14.763,0,0,1-3.614-3.294,6.632,6.632,0,0,1-1.4-3.308,4.669,4.669,0,0,1,.9-3.151,9.508,9.508,0,0,1,3.333-2.785,12.941,12.941,0,0,1,4.4-1.635,14.593,14.593,0,0,1,3.657-.02l-.463-.315a.928.928,0,0,1-.483-.934,1.31,1.31,0,0,1,.761-.927l3.209-1.766a3.157,3.157,0,0,1,1.584-.366,2.616,2.616,0,0,1,1.467.393l10.945,7.448a4.586,4.586,0,0,0,2.86.768,6.44,6.44,0,0,0,2.859-.751,2.572,2.572,0,0,0,1.435-1.645q.2-.965-1.321-2.152-1.264-1.012-2.782-2.044a32.658,32.658,0,0,0-3.036-1.839,27.917,27.917,0,0,0-6.526-2.542,23.337,23.337,0,0,0-6.81-.647,28.919,28.919,0,0,0-7.317,1.4,45.839,45.839,0,0,0-8.093,3.57,22.173,22.173,0,0,0-5.567,4.111,9.826,9.826,0,0,0-2.512,4.293,6.772,6.772,0,0,0,.354,4.265,11.194,11.194,0,0,0,2.971,4,15.079,15.079,0,0,0,1.619,1.291q1.074.769,2.281,1.59t2.37,1.575a20.969,20.969,0,0,0,2,1.173,24.563,24.563,0,0,0,6.125,2.195,28.476,28.476,0,0,0,6.841.629,30.955,30.955,0,0,0,7.239-1.075,32.372,32.372,0,0,0,7.265-2.957,45.768,45.768,0,0,0,4.176-2.552,22.167,22.167,0,0,0,2.674-2.169,11.728,11.728,0,0,0,1.577-1.85,12.047,12.047,0,0,0,.89-1.6,6.68,6.68,0,0,1,.488-1,2.506,2.506,0,0,1,.9-.717l4.564-2.514a3.465,3.465,0,0,1,1.59-.4,2.227,2.227,0,0,1,1.514.462.731.731,0,0,1,.34.762,22.2,22.2,0,0,1-.721,3.118,11.419,11.419,0,0,1-1.913,3.521,24.743,24.743,0,0,1-3.99,3.969,46.184,46.184,0,0,1-6.9,4.5,45.021,45.021,0,0,1-10.749,4.306,43.667,43.667,0,0,1-10.424,1.375,38.963,38.963,0,0,1-9.6-1.1,33.183,33.183,0,0,1-8.168-3.126q-.778-.455-2.019-1.26t-2.548-1.7q-1.311-.892-2.46-1.713t-1.761-1.309a15.316,15.316,0,0,1-4.259-5.216,9.482,9.482,0,0,1-.8-5.979,13.637,13.637,0,0,1,3.318-6.288,29.188,29.188,0,0,1,8.108-6.141,54.726,54.726,0,0,1,11.957-5,42.22,42.22,0,0,1,10.681-1.582,32.726,32.726,0,0,1,9.389,1.222,38.433,38.433,0,0,1,8.128,3.368q1.459.842,3.233,2.048T196.278,260.162Zm-30.322,14.231a11.333,11.333,0,0,0,5.079,2.012,7.681,7.681,0,0,0,4.717-.89q2.281-1.255,2.064-2.812c-.15-1.036-1.076-2.138-2.79-3.3a11.715,11.715,0,0,0-5.073-2.046,7.736,7.736,0,0,0-4.838.925q-2.163,1.19-1.917,2.8T165.956,274.393Z" transform="translate(-2 -2)"/>
    <path class="cls-9" d="M197.237,240.722v.525a2.934,2.934,0,0,0,1.267,2.28l27.176,16.3a2.711,2.711,0,0,0,2.534,0l45-27a2.934,2.934,0,0,0,1.266-2.28v-.524a2.931,2.931,0,0,0-1.267-2.28l-27.176-16.3a2.7,2.7,0,0,0-2.533,0l-45,27A2.934,2.934,0,0,0,197.237,240.722Z" transform="translate(-2 -2)"/>
    <path class="cls-9" d="M197.237,240.722v.525a2.934,2.934,0,0,0,1.267,2.28l27.176,16.3a2.711,2.711,0,0,0,2.534,0l45-27a2.934,2.934,0,0,0,1.266-2.28v-.524a2.931,2.931,0,0,0-1.267-2.28l-27.176-16.3a2.7,2.7,0,0,0-2.533,0l-45,27A2.934,2.934,0,0,0,197.237,240.722Z" transform="translate(-2 -2)"/>
    <path class="cls-28" d="M226.947,221.379,198.5,238.442a2.934,2.934,0,0,0-1.267,2.28v.525a2.934,2.934,0,0,0,1.267,2.28l27.176,16.3a2.52,2.52,0,0,0,1.267.314h0Z" transform="translate(-2 -2)"/>
    <path class="cls-11" d="M226.947,221.379,198.5,238.442a2.934,2.934,0,0,0-1.267,2.28v.525a2.934,2.934,0,0,0,1.267,2.28l27.176,16.3a2.52,2.52,0,0,0,1.267.314h0Z" transform="translate(-2 -2)"/>
    <path class="cls-11" d="M273.215,227.749l-27.175-16.3a2.706,2.706,0,0,0-2.534,0l-16.559,9.933v38.765h0a2.5,2.5,0,0,0,1.267-.314l45-27a2.934,2.934,0,0,0,1.266-2.28v-.524A2.931,2.931,0,0,0,273.215,227.749Z" transform="translate(-2 -2)"/>
    <path class="cls-12" d="M221.329,253.655,198.5,239.962a.813.813,0,0,1,0-1.52l45-27a2.7,2.7,0,0,1,2.533,0l27.176,16.3a.813.813,0,0,1,0,1.52l-7.465,4.478-2.614,1.568-34.922,20.95a2.706,2.706,0,0,1-2.534,0l-2.214-1.328Z" transform="translate(-2 -2)"/>
    <path class="cls-13" d="M242.049,230.908l31.166-3.159-30.891,1.817,3.716-18.12a2.551,2.551,0,0,0-1.381-.3l-5.828,24.494-40.841,3.5a.884.884,0,0,0,.514.824l32.983-1.989-4.54,18.607,5.805-18.683h0l5.634-.34a3,3,0,0,0,1.859-.807h0v0a3.2,3.2,0,0,0,.951-1.7Z" transform="translate(-2 -2)"/>
    <path class="cls-10" d="M207.734,238.3l31.1-2.665,1.113-4.63.614-2.578,4.106-17.286a2.452,2.452,0,0,0-1.158.3l-22.5,13.5-22.5,13.5a.952.952,0,0,0-.514.7l6.237-.535Z" transform="translate(-2 -2)"/>
  </g>
</svg>
