<svg id="Camada_1" data-name="Camada 1" xmlns="http://www.w3.org/2000/svg" xmlns:xlink="http://www.w3.org/1999/xlink" viewBox="0 0 500 500"><defs><style>.cls-1{fill:url(#Gradiente_sem_nome_6);}.cls-2{fill:#fff;}</style><linearGradient id="Gradiente_sem_nome_6" y1="250" x2="500" y2="250" gradientUnits="userSpaceOnUse"><stop offset="0" stop-color="#3d9191"/><stop offset="1" stop-color="#005578"/></linearGradient></defs><circle class="cls-1" cx="250" cy="250" r="250"/><path class="cls-2" d="M267.24,317a18.18,18.18,0,0,1,16.57,24.54A36.39,36.39,0,0,0,249,339.19a36.59,36.59,0,0,0-14,11.43,18.16,18.16,0,0,1,14.44-7.12c.39,0,.78,0,1.16,0a18.19,18.19,0,1,1-6.43,35.56c-.53-.16-1-.34-1.56-.55-1.14-.41-2.26-.85-3.38-1.3A91.29,91.29,0,0,1,190,328.77c-.88-2.07-1.7-4.18-2.43-6.32A91.12,91.12,0,0,0,69.41,274a145,145,0,0,0,26.45,68.5A18.19,18.19,0,0,0,111.21,370a37.72,37.72,0,0,0,.33-4.91,36.92,36.92,0,0,0-.3-4.61,145.54,145.54,0,0,0,170.14,26.09q2.78-1.46,5.48-3l1-.67a36.38,36.38,0,0,0-20.59-66ZM142.07,339a22.76,22.76,0,0,0,21.23-.56,46.52,46.52,0,0,0-2.72-5.54,45.67,45.67,0,0,0-6.31-8.49,46,46,0,0,1,17.29,20.93A22.79,22.79,0,0,1,142.07,339Z"/><path class="cls-2" d="M431.2,309.38l0-.57.09-2.26.08-2.27,0-1.13,0-.57v-.53l0-4.27c0-.71,0-1.42,0-2.14l0-2.13c0-1.42-.05-2.84-.08-4.26l-.18-4.25-.09-2.13-.14-2.12-.29-4.24-.38-4.23-.19-2.12-.24-2.11-.49-4.21-.58-4.19-.3-2.1-.34-2.09c-.23-1.39-.45-2.78-.69-4.16l-.78-4.16c-.13-.69-.25-1.38-.39-2.07l-.44-2.06a259.09,259.09,0,0,0-22-62.95L402,176.37l-1.95-3.65c-.33-.6-.64-1.21-1-1.81l-1-1.8-1-1.8c-.35-.59-.67-1.2-1-1.78-1.41-2.36-2.79-4.73-4.27-7l-1.1-1.74-.55-.87-.56-.86-2.26-3.42c-.38-.58-.77-1.14-1.16-1.7L385,148.22c-.78-1.12-1.55-2.25-2.36-3.35l-2.41-3.3c-.82-1.09-1.65-2.17-2.48-3.25l-1.24-1.62-1.27-1.6-2.56-3.18c-1.75-2.07-3.46-4.17-5.28-6.19-3.55-4.1-7.27-8-11.07-11.86L353.42,111c-1-1-2-1.86-2.93-2.79L349,106.84c-.49-.46-1-.9-1.49-1.36l-3-2.7a252.86,252.86,0,0,0-25.36-19.66c-2.19-1.52-4.44-2.94-6.67-4.39-1.12-.71-2.26-1.39-3.39-2.09l-1.7-1c-.56-.35-1.14-.67-1.71-1l-3.44-2-3.48-1.92-1.73-1-1.76-.92L291.78,67a246.27,246.27,0,0,0-29-12.35L260.93,54l-.93-.33-.93-.3-3.72-1.21-.93-.3-.94-.28L251.6,51l-1.87-.56-.94-.28-.94-.26-3.77-1-.94-.25-.94-.23-1.9-.47-1.89-.47-.94-.23-.95-.21-3.8-.84-.95-.21-1-.19-1.91-.37L227,45l-.95-.18-1-.17L221.28,44l-.95-.16-1-.15-1.92-.28-1.91-.28-1-.14-1-.12-3.91-.48c-1.32-.19-2.57-.22-3.85-.31L202,41.86l-15.21-.93-1,0-.47,0h-.49l-2,0h-3.84c-2.55,0-5.09.11-7.63.21l-1.92.09a2.14,2.14,0,0,0-.08,4.27l1.86.19,2.55.29a41.31,41.31,0,0,0-2.57,66.86,44.13,44.13,0,0,0,3.85,2.68v0c1.18.84,2.36,1.71,3.5,2.61A86.12,86.12,0,0,1,193.3,238.93a86.45,86.45,0,0,1-88.48,30.43c0-.31.06-.62.08-.94A18.18,18.18,0,1,0,101,278.57a94.65,94.65,0,0,0,18.36,3,95.95,95.95,0,0,0,65.38-171.27c-1.6-1.25-3.25-2.47-4.92-3.61l0,0c-.82-.53-1.63-1.1-2.4-1.71a31.47,31.47,0,0,1,5.81-53.13,31.72,31.72,0,0,1,9.25-2.8l8.27,1.77,3.65.79c1.21.27,2.46.49,3.6.85l3.49,1,.87.25.88.27,1.77.54,1.76.54.88.27.88.29L222,56.78l.88.29.86.31,1.73.62,1.73.62.87.31.85.33,3.42,1.32.86.33.85.35,1.69.7,1.69.7.84.35.84.37,3.34,1.48.84.37.82.39,1.65.78,1.65.77.82.39L249,68l3.25,1.63.81.41.81.43,1.6.85A224.86,224.86,0,0,1,280.1,86.48L283,88.6l1.45,1.06,1.42,1.09,2.85,2.19,2.79,2.24c.46.38.93.74,1.39,1.13l1.36,1.15c.91.78,1.83,1.53,2.73,2.32,1.78,1.58,3.58,3.13,5.3,4.77a222.35,222.35,0,0,1,19.53,20.53l2.23,2.74c.37.45.75.9,1.11,1.36l1.08,1.39c.72.93,1.45,1.84,2.15,2.78l2.1,2.82c2.75,3.79,5.41,7.62,7.9,11.56a215.41,215.41,0,0,1,23.54,49.86,208.69,208.69,0,0,1,9.88,53l.09,1.66c0,.56,0,1.12.06,1.67l.12,3.34,0,3.33,0,1.66,0,1.67,0,3.32-.13,3.32-.06,1.65-.11,1.65a37.84,37.84,0,0,0-20.37-7.53,37.85,37.85,0,1,0,4.84,74.94q-2.34,5.55-5,10.94a39,39,0,0,0-2.07,5.21,36.51,36.51,0,0,0,69.71,21.73l.23-.73q2.6-8.32,4.66-16.77t3.56-16.95q1.5-8.5,2.45-17.05l.26-2.27.25-2.38,0-.3,0-.25,0-.5.07-1,.13-2,.52-8.05.06-1,0-.25v-.27ZM330.86,303a18.19,18.19,0,1,1,17,19.3A18.19,18.19,0,0,1,330.86,303Z"/></svg>