<svg id="Camada_1" data-name="Camada 1" xmlns="http://www.w3.org/2000/svg" xmlns:xlink="http://www.w3.org/1999/xlink" viewBox="0 0 500 500"><defs><style>.cls-1{fill:url(#Gradiente_sem_nome_5);}.cls-2{fill:url(#Gradiente_sem_nome_5-2);}.cls-3{fill:url(#Gradiente_sem_nome_5-3);}.cls-4{fill:#005578;}</style><linearGradient id="Gradiente_sem_nome_5" x1="222.23" y1="206.24" x2="237.43" y2="206.24" gradientUnits="userSpaceOnUse"><stop offset="0" stop-color="#3d9191"/><stop offset="1" stop-color="#3d9191"/></linearGradient><linearGradient id="Gradiente_sem_nome_5-2" x1="257.3" y1="312.23" x2="275.3" y2="312.23" xlink:href="#Gradiente_sem_nome_5"/><linearGradient id="Gradiente_sem_nome_5-3" x1="13.78" y1="217.59" x2="486.22" y2="217.59" xlink:href="#Gradiente_sem_nome_5"/></defs><path class="cls-1" d="M222.23,205c0,11.17,4.65,19.86,15.2,26.07V181.41C228.12,184.21,222.23,192,222.23,205Z"/><path class="cls-2" d="M257.3,284.76v54.93c12.72-2.79,18-13.34,18-24.83C275.3,299.35,269.09,291,257.3,284.76Z"/><path class="cls-3" d="M486.22,160a30.95,30.95,0,0,0-30-31,247.1,247.1,0,0,1-72.56,178.58q-4.17,4.17-8.48,8.09a247.22,247.22,0,0,0,64-182.22l-1.29.82c.05-1,.08-1.95.08-2.94a62,62,0,0,0-88.25-56.1,247.77,247.77,0,0,1-13.23,58.55q-2,5.53-4.2,10.94a246.59,246.59,0,0,0,10.72-65.81l-.43.27a93.11,93.11,0,0,0-181.53-.13,247.25,247.25,0,0,0,10.72,65.67q-2.22-5.4-4.2-10.94A248.5,248.5,0,0,1,154.4,75.47a62,62,0,0,0-88.73,55.87q0,3.07.3,6.07c-.33-.31-.67-.61-1-.91a247.18,247.18,0,0,0,64.18,179.18q-4.32-3.92-8.48-8.09A247.13,247.13,0,0,1,48.09,129.18a31,31,0,0,0-33.85,36.14q-.47,7.56-.46,15.24C13.78,313.65,118.5,422.27,250,428.39c131.49-6.12,236.22-114.74,236.22-247.83q0-7.68-.46-15.24A31.49,31.49,0,0,0,486.22,160ZM257.3,372.59v27H237.43v-27c-51.51-4-60.82-31.66-60.82-63.62v-6.52h42.82c0,17.07,1.56,33.21,18,37.24V277l-15.51-5.58c-30.11-10.87-42.52-31.66-42.52-59.59,0-37.86,21.41-59.28,58-63.31V127.1H257.3v21.42c45.62,3.72,57.41,31,57.41,58.65v4.35H271.88c-.31-15.83-4-26.69-14.58-30.11v58.66L281.81,250c23,9.62,38.18,21.72,38.18,56.17C320,350.86,298.26,369.8,257.3,372.59Z"/><path class="cls-4" d="M497.9,426.6c-4.55-2.71-16-4.66-29.62-4.76.91,15.34-24.69,30.74-76.79,42.44q-4.41,1-9,1.93c49.42-12.19,72-27.9,67.75-43.31l-1.36.19a3.26,3.26,0,0,0,.07-.7c0-8.13-29.35-14.72-65.56-14.72a268.33,268.33,0,0,0-27.83,1.39c-2.09,4.65-6.7,9.31-14,13.91q-2.1,1.32-4.45,2.6c7.06-5.19,10.75-10.44,11.35-15.64L348,410c-9.95-9.86-49.18-17.21-96.07-17.21s-86,7.34-96,17.17c.61,5.19,4.3,10.44,11.34,15.61q-2.35-1.27-4.44-2.6c-7.28-4.58-11.88-9.23-14-13.86a268.43,268.43,0,0,0-28.34-1.44c-36.2,0-65.56,6.59-65.56,14.72a3.5,3.5,0,0,0,.32,1.44l-1.07-.21c-3.37,15.18,19.27,30.59,67.92,42.59-3-.63-6-1.27-9-1.93-52.07-11.69-77.66-27.07-76.8-42.4-1.17,0-2.35-.05-3.54-.05-14,0-26,2-30.68,4.77-1.36.81-2.1,1.68-2.1,2.6a2,2,0,0,0,.49,1.27A13.55,13.55,0,0,0,0,434.09C0,465.72,110.83,491.54,250,493c139.16-1.46,250-27.28,250-58.91a13.55,13.55,0,0,0-.49-3.62,2.09,2.09,0,0,0,.49-1.27C500,428.28,499.26,427.41,497.9,426.6Z"/></svg>