<svg id="Camada_1" data-name="Camada 1" xmlns="http://www.w3.org/2000/svg" viewBox="0 0 500 500"><defs><style>.cls-1{fill:#389192;}.cls-2{fill:#005578;}</style></defs><path class="cls-1" d="M323.43,380.28h2.16a74.49,74.49,0,0,0,59.6-29.49l18.46-24.14a75.89,75.89,0,0,1-11.74-12.26l-39.63-51.82-39.62,51.82a74.44,74.44,0,0,1-54.25,29.31l5.42,7.09A74.5,74.5,0,0,0,323.43,380.28Z"/><path class="cls-2" d="M137.88,390.71c-.15-111.77-9-201.9-19.95-201.9s-19.8,90.13-20,201.9Z"/><path class="cls-1" d="M116.2,195.71a39.89,39.89,0,0,1-39.9,39.91H15.36v-4a39.9,39.9,0,0,1,39.8-37h61C116.2,195,116.2,195.35,116.2,195.71Z"/><path class="cls-1" d="M133.39,86.36A39.89,39.89,0,0,1,148,140.87l-30.47,52.77-3.48-2a39.88,39.88,0,0,1-12.12-52.94l30.52-52.86Z"/><path class="cls-1" d="M119,195.06a39.86,39.86,0,0,1,54.51,14.6L204,262.43l-3.48,2a39.88,39.88,0,0,1-51.91-16l-30.51-52.85C118.35,195.42,118.66,195.24,119,195.06Z"/><path class="cls-2" d="M374.39,381.09c-.19-139.71-11.28-252.37-24.94-252.37S324.7,241.38,324.51,381.09Z"/><path class="cls-2" d="M324.51,480h-1.08a175.71,175.71,0,0,1-41.05-4.86,173.39,173.39,0,0,1-58.17-26.06A173.39,173.39,0,0,1,166,475.19q-7.57,1.81-15.32,3a250.65,250.65,0,0,0,207-1.08,175.84,175.84,0,0,1-32.17,3Z"/><path class="cls-1" d="M464.44,350.79A75.8,75.8,0,0,0,476.1,363a247.42,247.42,0,0,0,12.38-28.78,74.14,74.14,0,0,1-29.59,9.33Z"/><path class="cls-1" d="M125,380.28a74.49,74.49,0,0,0,59.6-29.49L203,326.65a75.89,75.89,0,0,1-11.74-12.26l-39.62-51.82-39.63,51.82a74.43,74.43,0,0,1-52.12,29.13l5,6.68A74.43,74.43,0,0,0,125,380.28Z"/><path class="cls-2" d="M52.45,343.88q3.78,0,7.48-.36L24.79,296.63,11.52,314.55q2.85,10.74,6.64,21.1A74.74,74.74,0,0,0,52.45,343.88Z"/><path class="cls-2" d="M251.21,343.88h1.85c1.79,0,3.58-.06,5.35-.18L224.21,299,203,326.65a74.4,74.4,0,0,0,47.86,17.23Z"/><path class="cls-2" d="M410.46,438.79a173.33,173.33,0,0,1-58.18-26.06,173.11,173.11,0,0,1-58.17,26.06,175.64,175.64,0,0,1-41.05,4.86H250.9a174.13,174.13,0,0,1-78.72-18.71,173.1,173.1,0,0,1-20.5-12.21,173.39,173.39,0,0,1-58.17,26.06l-3.42.78a250.77,250.77,0,0,0,60.63,38.59q7.74-1.16,15.32-3a173.39,173.39,0,0,0,58.17-26.06,173.39,173.39,0,0,0,58.17,26.06,175.71,175.71,0,0,0,41.05,4.86h2.16a175.84,175.84,0,0,0,32.17-3,249.89,249.89,0,0,0,57.83-37.14Q413,439.4,410.46,438.79Z"/><path class="cls-2" d="M458.89,343.53,424.82,299l-21.17,27.68a74.38,74.38,0,0,0,47.86,17.23Q455.23,343.88,458.89,343.53Z"/><path class="cls-2" d="M476.1,363a75.8,75.8,0,0,1-11.66-12.19l-5.55-7.26q-3.66.35-7.38.35a74.38,74.38,0,0,1-47.86-17.23l-18.46,24.14a74.49,74.49,0,0,1-59.6,29.49h-2.16a74.5,74.5,0,0,1-59.6-29.49l-5.42-7.09c-1.77.12-3.56.18-5.35.18H250.9A74.4,74.4,0,0,1,203,326.65l-18.46,24.14a75,75,0,0,1-119.65-.59l-5-6.68q-3.7.36-7.48.36a74.74,74.74,0,0,1-34.29-8.23A250.39,250.39,0,0,0,90.09,439.57l3.42-.78a173.39,173.39,0,0,0,58.17-26.06,173.39,173.39,0,0,0,58.17,26.06,175.64,175.64,0,0,0,41.05,4.86h2.16a174.21,174.21,0,0,0,78.73-18.71,173.79,173.79,0,0,0,20.49-12.21,173.33,173.33,0,0,0,58.18,26.06q2.55.61,5.13,1.15A251,251,0,0,0,476.1,363Z"/><path class="cls-1" d="M347.3,137.35a49.87,49.87,0,0,1-49.89,49.88H221.24v-5A49.83,49.83,0,0,1,271,136h76.29C347.29,136.45,347.3,136.9,347.3,137.35Z"/><path class="cls-1" d="M368.78.66A49.84,49.84,0,0,1,387,68.8l-38.09,66-4.35-2.51a49.83,49.83,0,0,1-15.14-66.18L367.6,0C368,.21,368.39.43,368.78.66Z"/><path class="cls-1" d="M350.76,136.53a49.86,49.86,0,0,1,68.14,18.25l38.08,66-4.35,2.51a49.84,49.84,0,0,1-64.89-20L349.6,137.22C350,137,350.37,136.75,350.76,136.53Z"/></svg>