<svg id="Camada_1" data-name="Camada 1" xmlns="http://www.w3.org/2000/svg" viewBox="0 0 500 500"><defs><style>.cls-1{fill:#005578;}.cls-2{fill:none;stroke:#000;stroke-miterlimit:10;stroke-width:0.06px;}.cls-3{fill:#399;}</style></defs><path class="cls-1" d="M371.36,370a.4.4,0,0,0,0-.8.4.4,0,0,0,0,.8Z"/><path class="cls-2" d="M293.48,369v5.89c0-1,0-2,0-3S293.46,369.94,293.48,369Z"/><path class="cls-1" d="M410.89,443.4h38.55a9.81,9.81,0,0,0,6.93-16.76A122.83,122.83,0,0,1,425.18,305.5a9.81,9.81,0,0,0-9.42-12.57H420a9.44,9.44,0,0,0,9.44-9.44h0a9.39,9.39,0,0,0-2.3-6.16,47,47,0,0,0,12-28.21,124.43,124.43,0,0,0-.91-13.17,122.19,122.19,0,0,0-31-67.35q-1.54-1.71-3.17-3.36a18.85,18.85,0,0,0-26,27.11,9.82,9.82,0,0,1,1.38,1.14l5.63,5.63,14.38,14.38a9.43,9.43,0,1,1-13.34,13.34l-20-20c-.09-.08-.17-.17-.26-.26A47.18,47.18,0,0,0,357,277.26a9.35,9.35,0,0,0-2.35,6.23h0a9.44,9.44,0,0,0,9.43,9.44h4.25a9.82,9.82,0,0,0-9.42,12.57,122.83,122.83,0,0,1-31.19,121.14,9.81,9.81,0,0,0,6.93,16.76h38.55a56.6,56.6,0,0,0-56.6,56.6H467.49A56.6,56.6,0,0,0,410.89,443.4Z"/><path class="cls-1" d="M32.51,443.37a75.52,75.52,0,0,0,16.34-26.88,75.43,75.43,0,0,0,4.2-24.89,75.28,75.28,0,0,0-7-31.91v0c-.46-1-.94-2-1.44-2.92a120.64,120.64,0,0,1-6.88-18,122.66,122.66,0,0,1-5-34.75q0-5.87.54-11.58a122.42,122.42,0,0,1,43-82.11h0l.8-.71q1.32-1.1,2.67-2.16l0,0a122,122,0,0,1,56-24.51,1.9,1.9,0,0,1,2,2.68l-8.15,17.45a.22.22,0,0,0,.1.29l.27.14,68,31.81h0a28.31,28.31,0,1,1-35.57,35.58l0-.09a.24.24,0,0,0-.21-.16l-14.06-.38a.23.23,0,0,0-.2.11,47.43,47.43,0,0,1-17.62,16.45.22.22,0,0,0-.12.23,18.51,18.51,0,0,0,1.78,5.38,18.87,18.87,0,0,0,10.16,9.1,42.76,42.76,0,0,1,10.06,5.34,75.85,75.85,0,0,1,31.33,59.82v67a9.69,9.69,0,0,1-9.69,9.69H127.84A56.61,56.61,0,0,1,184.45,500H33.51a56.6,56.6,0,0,1,56.6-56.6H32.51Z"/><path class="cls-3" d="M158.66,286.57a37.75,37.75,0,0,1-3.53-5.29l-1.74,0a58.37,58.37,0,0,1-9.27,9.32,8.08,8.08,0,0,0,1.75.91,54.78,54.78,0,0,1,12,6.3q8,.32,16.16.57c-.68-.29-1.36-.61-2-.94A39.43,39.43,0,0,1,158.66,286.57Z"/><path class="cls-3" d="M480.55,199.1q-1.47-10-3.83-19.9a231.32,231.32,0,0,0-12-36.46q-3.37-8-7.31-15.65a231.44,231.44,0,0,0-13.72-23.31,234.31,234.31,0,0,0-103-85.14A230.82,230.82,0,0,0,260.07.52a97.76,97.76,0,0,0-20.14,0A232.29,232.29,0,0,0,85.2,68.61a233.9,233.9,0,0,0-28.92,35.17,231.44,231.44,0,0,0-13.72,23.31q-3.93,7.66-7.31,15.65a231.32,231.32,0,0,0-12,36.46q-2.36,9.86-3.83,19.9a236.4,236.4,0,0,0,0,68.85q1.38,9.44,3.55,18.71A132.3,132.3,0,0,1,32.85,251q-.69-8.64-.69-17.45a218.6,218.6,0,0,1,3-36.23c14.72-1.6,30.13-3,46.12-4.28A132.86,132.86,0,0,1,134,172.31,12.68,12.68,0,0,1,148,189c30.42-1.32,62.11-2,94.44-2.15v93.33q-9.1,0-18.13-.13a39,39,0,0,1-21.37,19q19.53.38,39.5.44v65.32q-24.46-.19-48.29-1.6c.07,1.09.11,2.18.14,3.28v16.06q23.77,1.36,48.15,1.56v67.36l-1.28-.13c-16.36-1.78-32.2-8.46-46.87-19.61v2A20.52,20.52,0,0,1,177,453.93c.5.54,1,1.09,1.48,1.64a231.38,231.38,0,0,0,61.42,11q5,.21,10.07.21t10.07-.21a231.41,231.41,0,0,0,62.82-11.42q1.26-1.41,2.61-2.76l.17-.17a20.06,20.06,0,0,1-2.93-1.72A20.78,20.78,0,0,1,314.28,430a20.32,20.32,0,0,1,4.64-9.8c-18.15,18.1-38.64,28.8-60,31.13l-1.28.13V384.11c30-.23,59.52-1.82,88.15-4.75a111.58,111.58,0,0,0,5.47-20,921.79,921.79,0,0,1-93.62,5.41V299.49c31-.1,61.47-.77,90.74-2,.09-.32.17-.63.27-.94a20.24,20.24,0,0,1-4.24-17.87l-.24-.34c-28,1.11-57,1.73-86.53,1.82V186.86c36.63.11,72.44,1,106.5,2.71a29.77,29.77,0,0,1-.11-19.34c-34-1.65-69.78-2.56-106.39-2.67V102.24a913.21,913.21,0,0,1,101.62,6.33,281.76,281.76,0,0,1,15.4,47.23,29.27,29.27,0,0,1,14.29-5.52q-.8-3.33-1.67-6.63a301.39,301.39,0,0,0-10.66-32.81c21,3,41.29,6.73,60.55,11.19a217.32,217.32,0,0,1,23.39,55.39q-16.95-1.77-35-3.23a133.57,133.57,0,0,1,11.85,20.39q14.06,1.26,27.41,2.71a219.61,219.61,0,0,1,0,72.47q-10.27,1.11-21,2.12a56.8,56.8,0,0,1-4.15,7,20,20,0,0,1-1.23,12.92q11.25-1,22.07-2.13A217.47,217.47,0,0,1,437.14,345c-1.94.45-3.89.88-5.84,1.32a111.76,111.76,0,0,0,5,27.34c2.57-3.4,5-6.88,7.41-10.41A230.48,230.48,0,0,0,457.44,340q3.93-7.67,7.31-15.65a231,231,0,0,0,12-36.46q2.36-9.84,3.83-19.89a236.4,236.4,0,0,0,0-68.85ZM180.39,26.94c-13.49,11.18-25.74,25.53-36.53,42.81q-6.08,9.75-11.35,20.43-13.71,1.75-27.11,3.93-13.61,2.2-26.64,4.8A218.7,218.7,0,0,1,180.39,26.94ZM106.62,171.87c-23.5,1.49-46,3.34-67.15,5.55A217.32,217.32,0,0,1,62.86,122c19.26-4.46,39.52-8.2,60.55-11.19a301.39,301.39,0,0,0-10.66,32.81Q109.09,157.5,106.62,171.87Zm135.77-4.31c-41.59.13-82.07,1.28-120.18,3.39a289.84,289.84,0,0,1,18.56-62.38,913.21,913.21,0,0,1,101.62-6.33Zm0-151.9V82.94c-31.25.24-61.9,2-91.61,5.1,1.93-3.49,3.92-6.91,6-10.23,23-36.92,52.7-58.66,84.33-62.1l1.28-.13Zm15.22,67.28V15.58l1.28.13c31.63,3.44,61.29,25.18,84.33,62.1,2.08,3.32,4.07,6.74,6,10.23C319.51,84.89,288.86,83.18,257.61,82.94Zm137,11.17q-13.39-2.17-27.11-3.93-5.26-10.67-11.35-20.43c-10.79-17.28-23-31.63-36.53-42.81a218.7,218.7,0,0,1,101.63,72Q408.21,96.32,394.6,94.11Z"/><path class="cls-2" d="M237.72,366.86v5.89c0-1,0-2,0-2.94S237.69,367.84,237.72,366.86Z"/><path class="cls-2" d="M194.27,373.52v5.9c0-1,0-2,0-2.95S194.24,374.5,194.27,373.52Z"/></svg>