<svg id="Camada_1" data-name="Camada 1" xmlns="http://www.w3.org/2000/svg" viewBox="0 0 500 500"><defs><style>.cls-1{fill:#005578;}.cls-2{fill:#3d9191;}.cls-3{fill:none;}</style></defs><path class="cls-1" d="M446.58,341.09l-19.67-41.72-.3-.08.09-.35-4.52-9.6,6.38,2.29A184.36,184.36,0,0,0,433.31,250c0-95.67-71.75-174.2-166.89-182.66L272.32,1a250.19,250.19,0,0,1,219.25,313.3l6.78,2.43Z"/><path class="cls-1" d="M72.59,374.53l46,3.86.22-.22.26.26,10.54.89-5.17,4.37a181.85,181.85,0,0,0,125.5,49.67,183.76,183.76,0,0,0,150.09-78l54.49,38.34A250.36,250.36,0,0,1,198.86,494.75,249.88,249.88,0,0,1,73.29,426.89l-5.51,4.66Z"/><path class="cls-1" d="M14.09,166.85A250.26,250.26,0,0,1,184.78,8.56l-1.27-7.09,47,32.68L204.15,72l.08.31-.35.09-6.06,8.71-1.2-6.68A183.56,183.56,0,0,0,83.48,327.07l-60.42,28A248.15,248.15,0,0,1,5.92,304.6a251.46,251.46,0,0,1,8.17-137.75Z"/><path class="cls-2" d="M382.69,160.29l-.48.57a32.13,32.13,0,0,1-24.14,10.9c-.53,0-1.06,0-1.59,0a21.43,21.43,0,0,0,8.7,28.2A32.19,32.19,0,0,1,320,170.48q0-.69,0-1.38a85.33,85.33,0,0,0-44.78,21.17q-1.9,1.71-3.69,3.54c-.61.62-1.21,1.24-1.8,1.88-1.29,1.4-2.53,2.83-3.73,4.31-2,1.82-4.12,3.55-6.3,5.18a10.69,10.69,0,0,0,5.94,8.87,21.4,21.4,0,0,1-29.78,3.61A85.79,85.79,0,0,1,130.8,172.38,140.06,140.06,0,0,1,188.55,126a53.65,53.65,0,0,1,67.9-30.44,32,32,0,0,0,7.63,20.53,137.42,137.42,0,0,1,21.64,5c2.59.81,5.13,1.7,7.65,2.66q2.69,1,5.32,2.15a139.11,139.11,0,0,1,27.25,15.57c1.92,1.4,3.81,2.85,5.65,4.36a32.18,32.18,0,0,1,51.1,14.54Z"/><path class="cls-3" d="M336.42,387.88q4.15-2.65,8.14-5.57c-1.41.81-2.8,1.66-4.15,2.57S337.72,386.83,336.42,387.88Z"/><path class="cls-2" d="M143.51,368.65c.86-.58,1.72-1.16,2.57-1.75s1.67-1.23,2.49-1.86,1.61-1.3,2.4-2a72.92,72.92,0,0,0,15.67-18.62A69.9,69.9,0,0,0,175,322.21a67.19,67.19,0,0,0,1.17-11.6V308.1l0-.36-.06-1.43,0-.72c0-.23,0-.47-.05-.71-.08-.94-.16-1.88-.27-2.82s-.25-1.86-.39-2.79a62.1,62.1,0,0,0-7.24-20.71,56.77,56.77,0,0,0-6.06-8.71,54.21,54.21,0,0,0-7.33-7.21c-.16-.13-.32-.27-.49-.39l-.5-.39-1-.76c-.33-.25-.68-.49-1-.72l-1-.71c-.68-.46-1.4-.88-2.1-1.31-.35-.22-.72-.41-1.07-.61l-1.07-.6c-.71-.39-1.45-.73-2.18-1.08l-.55-.25-.55-.25-1.1-.47c-.37-.16-.75-.3-1.12-.44l-1.12-.41-1.13-.37-1.12-.36a43.28,43.28,0,0,0-9.09-1.65l-2.27-.09-2.24.05c-.75.06-1.49.11-2.22.2s-1.47.2-2.2.34l-1.22,3.6a47.51,47.51,0,0,1,6.42,3,48.35,48.35,0,0,1,5.87,3.92,47.49,47.49,0,0,1,5.17,4.75,45.91,45.91,0,0,1,4.39,5.45,44.73,44.73,0,0,1,3.47,6,43.49,43.49,0,0,1,2.51,6.47l.24.84.12.41c0,.14.07.28.11.42l.21.85.1.42.09.42.18.85.08.42c0,.14.05.29.08.43l.14.85c.05.29.1.57.13.86a45.42,45.42,0,0,1,.42,6.9,46.29,46.29,0,0,1-.63,6.86,44.55,44.55,0,0,1-17.62,28.44,43.35,43.35,0,0,1-5.8,3.59l-1.53.75-1.56.69-1.59.64-1.4.5.32-.07-.57.15.25-.08c-1.33.24-2.65.53-4,.84a164,164,0,0,0,25.51,29.5l1.37-.78C141.75,369.76,142.64,369.22,143.51,368.65Z"/><path class="cls-2" d="M118.27,340.67l-.32.07-.25.08Z"/><path class="cls-2" d="M195.49,340.67l-.33.07-.24.08Z"/><path class="cls-2" d="M208.35,375.16l-.68.28-.34.14-.17.07-.09,0,0,0,.17-.06,9.3-3.22-6.79,2.16h0Z"/><path class="cls-2" d="M174.68,394.76l.14-.14.26-.28.53-.57c.08-.1.17-.19.26-.29l.27-.27c.19-.18.36-.36.54-.55,1.45-1.45,2.94-2.83,4.49-4.13s3.15-2.52,4.8-3.65,3.36-2.16,5.11-3.12A62.53,62.53,0,0,1,202.16,377l7.55-2.41c.95-.42,1.91-.86,2.85-1.3s1.87-.95,2.79-1.43,1.83-1,2.73-1.55,1.77-1.08,2.65-1.65,1.72-1.16,2.57-1.75,1.67-1.23,2.49-1.86,1.61-1.3,2.4-2a72.92,72.92,0,0,0,15.67-18.62,70.14,70.14,0,0,0,8.39-22.25,68.2,68.2,0,0,0,1.17-11.6v-2.87l-.07-1.43,0-.72c0-.23,0-.47-.05-.71-.08-.94-.16-1.88-.27-2.82s-.25-1.86-.39-2.79a62.1,62.1,0,0,0-7.24-20.71,56.77,56.77,0,0,0-6.06-8.71,54.8,54.8,0,0,0-7.33-7.21c-.16-.13-.32-.27-.49-.39l-.5-.39-1-.76c-.33-.25-.67-.49-1-.72l-1-.71c-.69-.46-1.41-.88-2.1-1.31-.35-.22-.72-.41-1.07-.61l-1.07-.6c-.71-.39-1.46-.73-2.18-1.08l-.55-.25-.55-.25-1.11-.47c-.36-.16-.74-.3-1.11-.44l-1.12-.41-1.13-.37-1.12-.36a43.25,43.25,0,0,0-9.1-1.65l-2.26-.09-2.24.05c-.76.06-1.49.11-2.23.2s-1.46.2-2.19.34l-1.22,3.6a46.41,46.41,0,0,1,12.28,6.92,46.68,46.68,0,0,1,5.18,4.75,45.51,45.51,0,0,1,10.37,18l.24.84.12.41c0,.14.07.28.11.42l.2.85.11.42.09.42.17.85.09.42c0,.14.05.29.08.43l.14.85c0,.29.1.57.13.86a46.75,46.75,0,0,1,.42,6.9A45.23,45.23,0,0,1,223,312.8a44.29,44.29,0,0,1-6.29,12.13,44.78,44.78,0,0,1-9.65,9.64,42.83,42.83,0,0,1-5.81,3.59l-1.53.75-1.56.69-1.58.64-1.41.5.33-.07-.57.15.24-.08q-2.64.48-5.25,1.15c-.93.23-1.84.49-2.76.76l-2.72.86a81.59,81.59,0,0,0-10.53,4.41,79.57,79.57,0,0,0-26.33,21.52l-.88,1.12-.44.57-.41.57-.84,1.16-.41.58-.21.29-.2.3-.48.73a163,163,0,0,0,30.55,20.5l.31-.35Z"/><path class="cls-2" d="M249.74,397.28c.35-.4.69-.79,1-1.2l1-1.17.12-.15.14-.14.26-.28.52-.57c.09-.1.18-.19.26-.29l.28-.27.54-.55q2.16-2.18,4.49-4.13c1.55-1.29,3.15-2.52,4.8-3.65s3.36-2.16,5.11-3.12A62.53,62.53,0,0,1,279.38,377l7.55-2.41c.95-.42,1.9-.86,2.85-1.3s1.87-.95,2.79-1.43,1.82-1,2.73-1.55,1.77-1.08,2.65-1.65,1.72-1.16,2.57-1.75,1.67-1.23,2.49-1.86,1.61-1.3,2.39-2a72.52,72.52,0,0,0,15.67-18.62,69.9,69.9,0,0,0,8.39-22.25,67.21,67.21,0,0,0,1.18-11.6v-2.87l-.07-1.43,0-.72c0-.23,0-.47,0-.71-.08-.94-.16-1.88-.27-2.82l-.39-2.79a62.32,62.32,0,0,0-7.24-20.71,56.77,56.77,0,0,0-6.06-8.71,54.8,54.8,0,0,0-7.33-7.21c-.17-.13-.32-.27-.49-.39l-.51-.39-1-.76q-.49-.37-1-.72l-1-.71c-.68-.46-1.4-.88-2.1-1.31-.34-.22-.71-.41-1.07-.61l-1.06-.6c-.72-.39-1.46-.73-2.18-1.08l-.55-.25-.56-.25-1.1-.47c-.36-.16-.74-.3-1.12-.44l-1.11-.41-1.13-.37c-.38-.12-.75-.25-1.13-.36a43.28,43.28,0,0,0-9.09-1.65l-2.26-.09-2.25.05c-.75.06-1.48.11-2.22.2s-1.47.2-2.19.34l-1.22,3.6a46.41,46.41,0,0,1,12.28,6.92,46.68,46.68,0,0,1,5.18,4.75,45.3,45.3,0,0,1,7.86,11.49,45.79,45.79,0,0,1,2.51,6.47l.24.84.12.41c0,.14.07.28.1.42l.21.85.11.42c0,.14.05.28.08.42l.18.85.09.42c0,.14.05.29.07.43l.14.85c.05.29.1.57.13.86a45.33,45.33,0,0,1-.21,13.76,45.82,45.82,0,0,1-1.67,6.67,44.57,44.57,0,0,1-15.94,21.77,42.83,42.83,0,0,1-5.81,3.59l-1.53.75-1.56.69-1.58.64-1.41.5.32-.07-.56.15.24-.08c-1.76.32-3.52.7-5.26,1.15-.92.23-1.84.49-2.75.76l-2.72.86a79.89,79.89,0,0,0-20.33,10.28A79.49,79.49,0,0,0,232.5,361a78.67,78.67,0,0,0-7.71,8.41l-.88,1.12-.44.57-.42.57-.83,1.16-.42.58-.2.29-.2.3-1.57,2.38-1.47,2.45a79.5,79.5,0,0,0-5,10.25A78.2,78.2,0,0,0,209.91,400a74,74,0,0,0-1.52,8.34,162.76,162.76,0,0,0,31.91,4.86c.73-1.75,1.49-3.45,2.34-5.07A67.09,67.09,0,0,1,249.74,397.28Z"/><path class="cls-2" d="M285.57,375.16l-.68.28-.34.14-.17.07-.09,0,0,0,.17-.06,9.3-3.22-6.79,2.16h0Z"/><path class="cls-2" d="M272.7,340.67l-.32.07-.24.08Z"/><path class="cls-2" d="M393.73,269.85a54.28,54.28,0,0,0-7.34-7.21c-.16-.13-.32-.27-.49-.39l-.5-.39-1-.76c-.33-.25-.68-.49-1-.72l-1-.71c-.68-.46-1.4-.88-2.1-1.31-.35-.22-.71-.41-1.07-.61l-1.07-.6c-.71-.39-1.45-.73-2.17-1.08l-.56-.25-.55-.25-1.1-.47c-.36-.16-.74-.3-1.12-.44l-1.12-.41-1.12-.37c-.38-.12-.75-.25-1.13-.36a43.28,43.28,0,0,0-9.09-1.65l-2.26-.09-2.25.05c-.75.06-1.49.11-2.22.2s-1.47.2-2.2.34L350,256a46.84,46.84,0,0,1,12.28,6.92,46.58,46.58,0,0,1,5.17,4.75,45,45,0,0,1,7.87,11.49,45.79,45.79,0,0,1,2.51,6.47l.24.84.12.41c0,.14.07.28.1.42l.21.85.1.42c0,.14.06.28.09.42l.18.85.09.42c0,.14,0,.29.07.43l.14.85c.05.29.1.57.13.86a45.33,45.33,0,0,1-.21,13.76,45.82,45.82,0,0,1-1.67,6.67,44.67,44.67,0,0,1-15.95,21.77,42.72,42.72,0,0,1-5.8,3.59l-1.53.75-1.56.69-1.58.64-1.41.5.32-.07-.57.15.25-.08c-1.76.32-3.52.7-5.26,1.15-.92.23-1.84.49-2.75.76l-2.72.86a79.89,79.89,0,0,0-20.33,10.28A80.44,80.44,0,0,0,302,369.44l-.87,1.12-.44.57-.42.57-.83,1.16-.42.58-.21.29-.19.3c-.53.79-1.05,1.59-1.57,2.38l-1.48,2.45a79.44,79.44,0,0,0-5,10.25A78.2,78.2,0,0,0,287.13,400a75.73,75.73,0,0,0-1.63,9.3,161.48,161.48,0,0,0,50.92-21.38c1.3-1.05,2.62-2.06,4-3s2.74-1.76,4.15-2.57a162.82,162.82,0,0,0,61.3-88.62,61.26,61.26,0,0,0-6.07-15.13A57.48,57.48,0,0,0,393.73,269.85Z"/><path class="cls-2" d="M349.92,340.67l-.32.07-.25.08Z"/></svg>