<svg id="Camada_1" data-name="Camada 1" xmlns="http://www.w3.org/2000/svg" xmlns:xlink="http://www.w3.org/1999/xlink" viewBox="0 0 500 500"><defs><style>.cls-1{fill:#005578;}.cls-2{fill:url(#Gradiente_sem_nome_5);}</style><linearGradient id="Gradiente_sem_nome_5" x1="93.27" y1="250" x2="405.77" y2="250" gradientUnits="userSpaceOnUse"><stop offset="0" stop-color="#3d9191"/><stop offset="1" stop-color="#3d9191"/></linearGradient></defs><path class="cls-1" d="M218.9.1,93.38,125.61H204.15a14.75,14.75,0,0,0,14.75-14.74Z"/><path class="cls-2" d="M232.4,0V125.61h0a13.5,13.5,0,0,1-13.5,13.5H93.27v346.5A14.39,14.39,0,0,0,107.66,500H391.34a14.43,14.43,0,0,0,14.43-14.43V12.6A12.6,12.6,0,0,0,393.17,0ZM366.65,457.14a86.79,86.79,0,0,1-26.36-12.33,87.13,87.13,0,0,1-29.14,13.05,88,88,0,0,1-41.33-.06,86.89,86.89,0,0,1-29.2-13.19,87.44,87.44,0,0,1-120.46-19.18l40-29.92a37.54,37.54,0,0,0,60.28-.14l20-26.94,20.11,26.83a37.54,37.54,0,0,0,59.92.3l19.85-26,19.84,26a38.82,38.82,0,0,0,6.52,6.66Zm0-117.78A86.15,86.15,0,0,1,340.29,327a86.58,86.58,0,0,1-29.14,13.05A87.49,87.49,0,0,1,250.78,333a86.56,86.56,0,0,1-10.16-6.11,86.84,86.84,0,0,1-29.47,13.43,87.48,87.48,0,0,1-91-32.61l40-29.93a37.55,37.55,0,0,0,60.28-.13l20-26.94,20.11,26.83a37.55,37.55,0,0,0,59.92.29l19.85-25.95,19.84,25.95a38.11,38.11,0,0,0,6.52,6.66Z"/></svg>