<svg id="Camada_1" data-name="Camada 1" xmlns="http://www.w3.org/2000/svg" viewBox="0 0 500 500"><defs><style>.cls-1{fill:none;}.cls-2{fill:#005578;}.cls-3{fill:#3d9191;}</style></defs><path class="cls-1" d="M62.67,408.53c-1.55-1.76-3.07-3.53-4.57-5.33C59.6,405,61.12,406.77,62.67,408.53Z"/><path class="cls-1" d="M58,403.07c-1.48-1.78-2.95-3.59-4.38-5.41C55,399.48,56.5,401.29,58,403.07Z"/><path class="cls-2" d="M262.86,160.2a75,75,0,0,0,41.49-27.4L337,90.09l7.16-9.37,7.17,9.37L384,132.8a74.86,74.86,0,0,0,59.9,29.64h2.17a75,75,0,0,0,37.14-9.72A250.88,250.88,0,0,0,367.51,22.26L340.39,57.73a74.87,74.87,0,0,1-59.9,29.65h-2.17a76.14,76.14,0,0,1-15.46-1.58h0Z"/><path class="cls-2" d="M103.68,132.42l31.38-42.33,8.68-11.73,8.78,11.73,31.57,42.12a74.75,74.75,0,0,0,55,30V76.44a75.82,75.82,0,0,1-20.7-18.71L178.59,5.65,138.76,57.73a74.85,74.85,0,0,1-59.9,29.65,75.92,75.92,0,0,1-21.94-3.22c-1.61,2-3.18,3.93-4.73,5.93A249.5,249.5,0,0,0,15,157.61,75.45,75.45,0,0,0,43.09,163,74.71,74.71,0,0,0,103.68,132.42Z"/><path class="cls-3" d="M89.59,205.27,104,185.85l20.28-27.37,14.09,18.81,20.83,27.8a82.1,82.1,0,0,0,131,.64l15.18-19.85,19.29-25.23L337.94,178l21.19,27.72A81.57,81.57,0,0,0,424.39,238h2.17a81.57,81.57,0,0,0,65.26-32.29l4.47-5.85q-1.11-6.45-2.56-12.77a247.06,247.06,0,0,0-10.52-34.39,75,75,0,0,1-37.14,9.72H443.9A74.86,74.86,0,0,1,384,132.8L351.34,90.09l-7.17-9.37L337,90.09,304.35,132.8a75,75,0,0,1-41.49,27.4v60.9A74.59,74.59,0,0,1,239.12,230V162.26a74.75,74.75,0,0,1-55-30L152.52,90.09l-8.78-11.73-8.68,11.73-31.38,42.33A74.71,74.71,0,0,1,43.09,163,75.45,75.45,0,0,1,15,157.61q-2.85,7.83-5.18,15.91A250,250,0,0,0,.12,235.2a82.8,82.8,0,0,0,23.46,3.36A81.43,81.43,0,0,0,89.59,205.27Z"/><path class="cls-2" d="M500,243a250.83,250.83,0,0,0-3.71-43.09l-4.47,5.85A81.57,81.57,0,0,1,426.56,238h-2.17a81.57,81.57,0,0,1-65.26-32.29L337.94,178l-13.28-17.36-19.29,25.23-15.18,19.85a82.1,82.1,0,0,1-131-.64l-20.83-27.8-14.09-18.81L104,185.85,89.59,205.27a81.43,81.43,0,0,1-66,33.29A82.8,82.8,0,0,1,.12,235.2Q0,239.07,0,243,0,250.56.45,258A250.64,250.64,0,0,0,6,297.83H5.79L8,306.27q2.49,9.53,5.7,18.79A250.19,250.19,0,0,0,250.32,493.35q8.44,0,16.82-.56a249.19,249.19,0,0,0,137.48-52.62,251,251,0,0,0,54.69-59.25A248.83,248.83,0,0,0,491.06,312q.82-2.86,1.58-5.76l2.2-8.44H494a250,250,0,0,0,5.78-43.49Q500,248.69,500,243ZM53.6,397.66c1.43,1.82,2.9,3.63,4.38,5.41C56.5,401.29,55,399.48,53.6,397.66Zm4.5,5.54c1.5,1.8,3,3.57,4.57,5.33C61.12,406.77,59.6,405,58.1,403.2Zm181-159.56a87.48,87.48,0,0,0,23.74-7.31v71.56a94.45,94.45,0,0,0-23.74-.27Zm10.79,76.84a79.49,79.49,0,0,1,44.31,13.42l-7.88,25.93L221.56,387l-16.11-53A79.43,79.43,0,0,1,249.91,320.48ZM89.62,417.1l68.47-20.94,55.73,29.62L230.1,479A236.89,236.89,0,0,1,89.62,417.1Zm135.52-18.27,56.57-23.74-8.22,27.06-42,17.62Zm24.68,81.22-8.1-26.66,18.57-7.79Zm15.1-49.71-26.79,11.24-3-10,33.76-14.17Zm4.59,48.75,16.31-53.31,55.73-29.62,69.22,21.17A236.87,236.87,0,0,1,269.51,479.09Z"/></svg>