<svg id="Camada_1" data-name="Camada 1" xmlns="http://www.w3.org/2000/svg" xmlns:xlink="http://www.w3.org/1999/xlink" viewBox="0 0 500 500"><defs><style>.cls-1{fill:#005578;}.cls-2{fill:url(#Gradiente_sem_nome_5);}</style><linearGradient id="Gradiente_sem_nome_5" x1="0.08" y1="250" x2="498.59" y2="250" gradientUnits="userSpaceOnUse"><stop offset="0" stop-color="#3d9191"/><stop offset="1" stop-color="#3d9191"/></linearGradient></defs><path class="cls-1" d="M273,379.31A25,25,0,0,1,295.74,413a49.95,49.95,0,0,0-67,12.53,24.91,24.91,0,0,1,19.82-9.78c.54,0,1.07,0,1.6.05a25,25,0,0,1-1.6,49.92,24.7,24.7,0,0,1-7.23-1.07,22.57,22.57,0,0,1-2.14-.75q-2.34-.86-4.65-1.8A122.57,122.57,0,0,1,219,454.43a125.43,125.43,0,0,1-52.09-58.9q-1.83-4.26-3.34-8.69A125.19,125.19,0,0,0,1.23,320.24a199.15,199.15,0,0,0,36.35,94.09,25,25,0,0,0,21.07,37.89,50.13,50.13,0,0,0,.45-6.75,51,51,0,0,0-.4-6.33A199.91,199.91,0,0,0,292.4,475c2.54-1.33,5.05-2.72,7.53-4.15.45-.3.89-.61,1.32-.92A50,50,0,0,0,273,379.31ZM101,409.51a31.26,31.26,0,0,0,29.16-.77,62.74,62.74,0,0,0-12.4-19.27,62.41,62.41,0,0,1,20,21.14,64.53,64.53,0,0,1,3.74,7.61A31.31,31.31,0,0,1,101,409.51Z"/><path class="cls-2" d="M498.19,368.9l0-.78.12-3.12.11-3.11.05-1.56,0-.77v-.74l0-5.86c0-1,0-2,0-2.93l-.05-2.93c0-2-.06-3.91-.11-5.85l-.24-5.85c-.05-1-.08-1.95-.13-2.92l-.19-2.92-.39-5.82-.53-5.81-.26-2.9-.33-2.9-.67-5.78-.8-5.77-.41-2.87-.47-2.87c-.31-1.92-.61-3.83-.94-5.73l-1.07-5.7c-.18-1-.35-1.9-.55-2.85l-.6-2.83a355.55,355.55,0,0,0-30.16-86.47l-2.57-5.07-2.68-5c-.45-.83-.88-1.67-1.35-2.49l-1.39-2.47-1.4-2.47c-.47-.82-.92-1.65-1.41-2.45-1.94-3.24-3.84-6.5-5.87-9.67l-1.5-2.39-.75-1.19-.78-1.18-3.11-4.71c-.51-.78-1.05-1.55-1.59-2.32l-1.6-2.32c-1.07-1.54-2.13-3.08-3.25-4.59l-3.31-4.54c-1.12-1.5-2.27-3-3.4-4.47L423,131.7l-1.75-2.19c-1.18-1.46-2.33-2.92-3.51-4.37-2.41-2.85-4.77-5.74-7.25-8.51-4.88-5.63-10-11-15.21-16.29l-3.95-3.92c-1.32-1.29-2.68-2.55-4-3.83l-2-1.9c-.67-.63-1.36-1.25-2.05-1.87l-4.11-3.71a345.49,345.49,0,0,0-34.83-27c-3-2.08-6.1-4-9.16-6-1.54-1-3.11-1.92-4.66-2.88l-2.33-1.43c-.77-.47-1.57-.92-2.35-1.38l-4.72-2.75L316.32,41l-2.39-1.31-2.42-1.26-4.83-2.51a336.51,336.51,0,0,0-39.83-17l-2.54-.9L263,17.62l-1.28-.42-5.12-1.67-1.28-.41-1.29-.39L251.5,14l-2.58-.76-1.28-.39-1.3-.35-5.17-1.41-1.29-.35-1.3-.32L236,9.74l-2.6-.64-1.3-.32-1.3-.29-5.22-1.16-1.3-.28L223,6.79l-2.62-.52-2.62-.51-1.3-.25-1.32-.23-5.25-.9-1.31-.22L207.22,4l-2.63-.38L202,3.19,200.65,3l-1.34-.17-5.38-.66c-1.8-.27-3.52-.3-5.28-.43l-5.23-.32L162.53.16l-1.3-.08-.66,0h-.67l-2.7,0h-2.65c-.87,0-1.75,0-2.63,0q-5.25.06-10.48.29L138.8.45a2.93,2.93,0,0,0-.11,5.85l2.55.26,3.51.4a56.75,56.75,0,0,0-3.53,91.84,58.75,58.75,0,0,0,5.28,3.68l0,0c1.63,1.15,3.24,2.35,4.81,3.58a118.28,118.28,0,0,1,20.08,166.08A118.73,118.73,0,0,1,49.88,313.93c0-.43.08-.86.11-1.29a25,25,0,1,0-5.35,13.94A132,132,0,0,0,182,280.46a131.7,131.7,0,0,0-22.37-185c-2.19-1.72-4.46-3.39-6.75-5l0,.07c-1.13-.73-2.24-1.51-3.3-2.35a43.2,43.2,0,0,1-7.34-60.67,42.65,42.65,0,0,1,15.32-12.3,43.16,43.16,0,0,1,12.7-3.85l11.36,2.43,5,1.08c1.67.37,3.38.67,4.95,1.16l4.79,1.35c.39.11.79.21,1.19.34l1.22.37,2.42.74,2.42.74,1.21.37,1.2.39,4.81,1.6,1.19.39,1.19.43,2.38.85,2.38.86,1.18.42,1.18.45,4.7,1.82,1.17.45,1.17.48,2.32,1L232,30l1.16.48,1.15.51,4.59,2,1.15.51,1.13.53,2.27,1.07,2.26,1.07,1.14.53,1.12.56,4.46,2.25,1.12.56,1.1.58,2.21,1.18a309.46,309.46,0,0,1,33.78,20.86l4,2.91,2,1.45,2,1.5,3.9,3,3.83,3.08c.64.52,1.29,1,1.91,1.55l1.88,1.59c1.25,1.06,2.51,2.1,3.74,3.17,2.45,2.18,4.92,4.31,7.29,6.56A307.35,307.35,0,0,1,348,115.74L351,119.5c.5.62,1,1.24,1.52,1.87l1.48,1.91c1,1.28,2,2.53,3,3.82l2.88,3.88c3.77,5.2,7.44,10.46,10.85,15.87a296.07,296.07,0,0,1,32.34,68.49,286.63,286.63,0,0,1,13.56,72.82l.14,2.29c0,.76.05,1.53.08,2.29l.15,4.58.05,4.58,0,2.28,0,2.29L417,311l-.18,4.56-.08,2.28-.15,2.26a52,52,0,1,0-21.33,92.59q-3.21,7.63-6.84,15a54.75,54.75,0,0,0-2.85,7.16,50.15,50.15,0,0,0,95.76,29.85l.31-1q3.57-11.44,6.4-23t4.89-23.28Q495,405.76,496.27,394l.35-3.12.35-3.27,0-.41,0-.35.05-.69.09-1.38.18-2.77.71-11,.09-1.38,0-.35,0-.17Zm-137.82-8.8a25,25,0,1,1,23.36,26.51A25,25,0,0,1,360.37,360.1Z"/></svg>