<svg id="Camada_1" data-name="Camada 1" xmlns="http://www.w3.org/2000/svg" xmlns:xlink="http://www.w3.org/1999/xlink" viewBox="0 0 500 500"><defs><style>.cls-1{fill:#005578;}.cls-2{fill:url(#Gradiente_sem_nome_5);}</style><linearGradient id="Gradiente_sem_nome_5" x1="76.41" y1="106.52" x2="375.75" y2="405.86" gradientUnits="userSpaceOnUse"><stop offset="0" stop-color="#3d9191"/><stop offset="1" stop-color="#3d9191"/></linearGradient></defs><path class="cls-1" d="M488.75,137.77,424.27,72.59a39.47,39.47,0,0,0-28.08-11.73H267.64a39.6,39.6,0,0,0-5.77.43,33.37,33.37,0,0,0-23.24,9.8l-4.78,4.78L230,79.7l-3.83,3.83-.8.8L220,89.74l-5.42,5.42L142.62,167.1c-.21.2-.4.41-.59.63s-.42.48-.62.72a15.37,15.37,0,0,0-1,1.45c-.15.23-.28.45-.41.68a16.14,16.14,0,0,0-1.44,3.38c-.15.5-.27,1-.37,1.52a16.65,16.65,0,0,0-.28,2.33,13.53,13.53,0,0,0,0,1.56,16.69,16.69,0,0,0,.28,2.32c.1.51.22,1,.37,1.52a15.91,15.91,0,0,0,1.44,3.38c.13.23.26.45.41.68s.32.49.49.73a15.87,15.87,0,0,0,1,1.3l.13.15c.19.21.38.42.59.62l12.18,12.19c.41.41.83.8,1.25,1.19a35.66,35.66,0,0,0,3.31,2.63l1,.67.33.2.7.43.38.22.68.38.37.21.77.39.29.14c.36.18.71.34,1.07.5l.24.1.84.35.39.15.72.27.42.15.72.24.4.12.89.26.23.07c.37.09.74.19,1.12.27l.37.08.76.16.45.08c.24,0,.47.09.71.12l.46.08.73.09.42.05,1.11.11h.26l.9.05.46,0h1.56c.64,0,1.29-.05,1.93-.1h.18l.78-.07.24,0,.79-.1.17,0,1-.15h0l.9-.17.24-.05.71-.15.26-.06.79-.2.13,0,.93-.26.21-.07.7-.22.29-.1L190,210l.27-.1.89-.34a33.77,33.77,0,0,0,3.22-1.53c.37-.2.74-.4,1.11-.62l.71-.43q1.05-.66,2.07-1.41c.7-.52,1.39-1.07,2.06-1.65s1.23-1.09,1.82-1.68L277.36,127l3-3,.83-.84,3-3,1.78-1.79c.69-.69,1.34-1.4,2-2.13L427.19,255.56l61.56-62.24A39.5,39.5,0,0,0,488.75,137.77Z"/><path class="cls-2" d="M419.57,263.26,288,131.7l-6.83,6.83-71.38,71.39a44,44,0,0,1-10.58,7.82,44.82,44.82,0,0,1-4.09,1.91,44.27,44.27,0,0,1-48-9.73L135,197.73a27.12,27.12,0,0,1,0-38.29l64.29-64.28H104.14a39.52,39.52,0,0,0-28.09,11.72L11.58,172.06a39.51,39.51,0,0,0,0,55.56l45,45.5,7.81-7.81a32.54,32.54,0,0,1,46,0l2.91,2.91a32.51,32.51,0,0,1,9.34,26.42,33.25,33.25,0,0,1,41.42,4.49l2,2a33.25,33.25,0,0,1,3.65,42.67c1.1-.11,2.21-.16,3.33-.16a33.32,33.32,0,0,1,23.69,9.81l1.57,1.57a33.58,33.58,0,0,1,6.06,39.14,33.43,33.43,0,0,1,4.6-.32,32.9,32.9,0,0,1,23.41,9.69l2.15,2.15a33.1,33.1,0,0,1,1.05,45.7l5.62,5.61a33.46,33.46,0,0,0,47.34,0h0a33.48,33.48,0,0,0,4.26-42.13l12.36,12.36a33.49,33.49,0,0,0,47.34,0h0A33.45,33.45,0,0,0,359,389.06a33.5,33.5,0,0,0,39.42-5.87h0a33.47,33.47,0,0,0,0-47.35l-4.34-4.34a33.5,33.5,0,0,0,42.13-4.26h0a33.46,33.46,0,0,0,0-47.34Z"/><path class="cls-1" d="M227.34,412.84l-2.14-2.15a22.93,22.93,0,0,0-31.3-1c-.39.34-.76.68-1.13,1l-2.4,2.4-.33.36a22.91,22.91,0,0,0,.33,32.06l2.15,2.15a22.88,22.88,0,0,0,32.07.34c.12-.11.24-.22.35-.34l2.4-2.4c.37-.36.71-.74,1-1.12a22.91,22.91,0,0,0-1-31.3Z"/><path class="cls-1" d="M191.12,395.19a23.33,23.33,0,0,0,0-33l-1.56-1.56a23.33,23.33,0,0,0-33,0l-5.84,5.84-3.83,3.83-3.83,3.83-9,9a23.35,23.35,0,0,0,0,33l1.57,1.57a23.35,23.35,0,0,0,33,0l9-9,3.83-3.83,3.83-3.83Z"/><path class="cls-1" d="M94,319.26l.32-.32,3.83-3.83,8-8a22.41,22.41,0,0,0,0-31.66l-2.91-2.91a22.38,22.38,0,0,0-31.66,0l-7.85,7.85-3.83,3.83-.51.51a22.84,22.84,0,0,0-3,3.67,22.43,22.43,0,0,0,3,28l2.91,2.91a22.4,22.4,0,0,0,31.66,0Z"/><path class="cls-1" d="M137.35,362.43l3.83-3.83,17.71-17.71a23.06,23.06,0,0,0,0-32.6h0l-2-2a23.06,23.06,0,0,0-32.6,0l-17.54,17.54L103,327.69l-3.83,3.83L86,344.64a23.07,23.07,0,0,0,0,32.6l2,2a23.08,23.08,0,0,0,32.6,0l13-12.95Z"/></svg>