<svg id="Camada_1" data-name="Camada 1" xmlns="http://www.w3.org/2000/svg" viewBox="0 0 500 500"><defs><style>.cls-1{fill:#389192;}.cls-2{fill:#005578;}</style></defs><path class="cls-1" d="M356.15,305h8.78a24.86,24.86,0,0,0,.26,34.42,24.79,24.79,0,0,0-7,13.77,25.52,25.52,0,0,0-.29,3.84,24.86,24.86,0,0,0,24.87,24.87,49.75,49.75,0,0,1,49.61,49.75,50.75,50.75,0,0,1-.74,8.6,49.76,49.76,0,0,1-98,0,49.8,49.8,0,0,0,49,58.35h1.29a74.77,74.77,0,0,0,23.44-145.31,24.78,24.78,0,0,0-6.76-13.59A24.87,24.87,0,0,0,401.1,305h11.74a24.93,24.93,0,0,0,23.78-17.48L498.88,88.38A24.91,24.91,0,0,0,475.11,56H293.89a24.91,24.91,0,0,0-23.78,32.35l62.27,199.17A24.91,24.91,0,0,0,356.15,305Z"/><path class="cls-2" d="M333.87,308a35.43,35.43,0,0,1-11.76-17.21L308.42,247A124.51,124.51,0,1,1,259,88.24a35.11,35.11,0,0,1-.21-13.59A35.89,35.89,0,0,1,277.4,49.29a35.33,35.33,0,0,1,16.49-4h11.05a50.09,50.09,0,0,1-.21-16.57A198.23,198.23,0,0,0,235.89.15a49.68,49.68,0,0,1-40.16,20.39A49.69,49.69,0,0,1,155.46,0,198,198,0,0,0,85.88,28.68,49.74,49.74,0,0,1,28.93,85.49,198.09,198.09,0,0,0,.13,154.77a49.68,49.68,0,0,1,20.55,40.28A49.7,49.7,0,0,1,0,235.4,197.75,197.75,0,0,0,28.89,305a49.75,49.75,0,0,1,56.32,56.35A197.93,197.93,0,0,0,154.9,390.3a49.75,49.75,0,0,1,81.25-.21,198.1,198.1,0,0,0,68.62-28.63A49.78,49.78,0,0,1,333.87,308Z"/><path class="cls-2" d="M307,224.4a.3.3,0,0,0,0-.6.3.3,0,0,0,0,.6Z"/></svg>