<svg id="Camada_1" data-name="Camada 1" xmlns="http://www.w3.org/2000/svg" viewBox="0 0 500 500"><defs><style>.cls-1{fill:#005578;}.cls-2{fill:#389192;}</style></defs><path class="cls-1" d="M330,418.66q7.5-1.32,14.81-2.77a186.56,186.56,0,0,1-86.68,61.39c11.5-9.53,21.95-21.77,31.15-36.51A198.4,198.4,0,0,0,299,423.34q8.37-1.06,16.59-2.32l-.35-.11a213.19,213.19,0,0,1-31.8-12.28c-25.15,2.71-51.36,4.22-78.16,4.43V357.34l8.42,0A276.5,276.5,0,0,1,192.3,332v8.86c-36.37-.11-71.81-1.16-105-3.06a306.5,306.5,0,0,1,0-73.48c21.08-1.2,43-2.07,65.57-2.56q-3.27-8.05-6.14-16.33c-19.48.49-38.51,1.24-56.89,2.26a247.49,247.49,0,0,1,15.82-53.21q13.35-1.6,27.1-2.74-1.46-8.1-2.53-16.29c-5.38.46-10.72,1-16,1.53q2.48-4.49,5.12-8.73c2.82-4.53,5.77-8.79,8.81-12.77q-.72-9.44-1-19a163.74,163.74,0,0,0-18.85,24.85q-5.17,8.31-9.68,17.43-11.68,1.5-23.13,3.35t-22.72,4.1A186.94,186.94,0,0,1,127,129.59c0-1.08,0-2.16,0-3.24,0-3.61.06-7.24.16-10.87-1.92.74-3.82,1.51-5.72,2.32a199.7,199.7,0,0,0-87.85,72.62,195.71,195.71,0,0,0-11.7,19.88q-3.36,6.54-6.24,13.35a198.78,198.78,0,0,0-10.21,31.1q-2,8.4-3.27,17a202.47,202.47,0,0,0,0,58.72q1.26,8.56,3.27,17a198.78,198.78,0,0,0,10.21,31.1q2.88,6.81,6.24,13.35a195.71,195.71,0,0,0,11.7,19.88,199.79,199.79,0,0,0,87.85,72.63,197.26,197.26,0,0,0,68.79,15.45c2.85.12,5.72.18,8.59.18s5.74-.06,8.59-.18a198.07,198.07,0,0,0,132-58.08,199.58,199.58,0,0,0,24.66-30q4-5.91,7.5-12.11A217.33,217.33,0,0,1,330,418.66ZM39.18,206c16.42-3.8,33.7-7,51.63-9.54a256.59,256.59,0,0,0-9.08,28q-3.12,11.82-5.24,24.07c-20,1.27-39.21,2.85-57.26,4.73A184.81,184.81,0,0,1,39.18,206ZM15.55,332a187.17,187.17,0,0,1,0-61.82c18.37-2,38-3.68,58.55-5a317.43,317.43,0,0,0,0,71.86C53.54,335.67,33.92,334,15.55,332Zm3.68,16.95c18.05,1.88,37.23,3.46,57.26,4.73,1.41,8.16,3.16,16.2,5.24,24.07a255.19,255.19,0,0,0,9.08,28c-17.93-2.55-35.21-5.74-51.63-9.54A184.81,184.81,0,0,1,19.23,348.94Zm33.5,66.95q11.12,2.22,22.72,4.1,11.43,1.86,23.13,3.35,4.5,9.11,9.68,17.43c9.2,14.74,19.65,27,31.16,36.51A186.59,186.59,0,0,1,52.73,415.89Zm139.57,71V487l-1.09-.11c-27-2.93-52.28-21.48-71.93-53q-2.66-4.26-5.12-8.73c25.35,2.69,51.48,4.15,78.14,4.35Zm0-73.84a780.09,780.09,0,0,1-86.68-5.4A247.49,247.49,0,0,1,89.8,354.45c32.5,1.8,67,2.79,102.5,2.89Zm14.07,73.8-1.09.11V429.52c26.66-.2,52.8-1.66,78.14-4.35q-2.46,4.47-5.12,8.73C258.65,465.38,233.35,483.93,206.37,486.86Z"/><path class="cls-2" d="M319.17,0c-42.58,63.3-106.51,103.63-178,103.85q-.69,11.15-.69,22.5c0,136.7,76.18,251.27,178.61,281.63,102.44-30.36,178.62-144.93,178.62-281.63q0-11.35-.7-22.5C425.56,103.56,361.71,63.25,319.17,0Z"/></svg>