<svg id="Camada_1" data-name="Camada 1" xmlns="http://www.w3.org/2000/svg" xmlns:xlink="http://www.w3.org/1999/xlink" viewBox="0 0 500 500"><defs><style>.cls-1{fill:url(#Gradiente_sem_nome_5);}.cls-2{fill:url(#Gradiente_sem_nome_5-2);}.cls-3,.cls-4{fill:none;stroke:#000;stroke-miterlimit:10;}.cls-3{stroke-width:0.07px;}.cls-4{stroke-width:0.06px;}.cls-5{fill:#005578;}.cls-6{fill:#fff;}.cls-7{fill:url(#Gradiente_sem_nome_5-3);}</style><linearGradient id="Gradiente_sem_nome_5" x1="19.63" y1="225.73" x2="223.37" y2="225.73" gradientTransform="translate(243 451.46) rotate(-180)" gradientUnits="userSpaceOnUse"><stop offset="0" stop-color="#3d9191"/><stop offset="1" stop-color="#3d9191"/></linearGradient><linearGradient id="Gradiente_sem_nome_5-2" x1="121.11" y1="97.58" x2="324.86" y2="97.58" gradientTransform="translate(445.98 195.16) rotate(-180)" xlink:href="#Gradiente_sem_nome_5"/><linearGradient id="Gradiente_sem_nome_5-3" x1="245.08" y1="225.73" x2="448.83" y2="225.73" gradientTransform="matrix(1, 0, 0, 1, 0, 0)" xlink:href="#Gradiente_sem_nome_5"/></defs><rect class="cls-1" x="19.63" y="169.85" width="203.75" height="111.75" transform="translate(243 451.46) rotate(180)"/><rect class="cls-2" x="121.11" y="41.71" width="203.75" height="111.75" transform="translate(445.98 195.16) rotate(180)"/><rect class="cls-3" x="248.21" y="329.09" width="0.08" height="0.11"/><rect class="cls-3" x="248.21" y="329.09" width="0.08" height="0.11"/><rect class="cls-4" x="248.21" y="329.09" width="0.08" height="0.11"/><rect class="cls-3" x="248.21" y="329.09" width="0.08" height="0.11"/><polygon class="cls-5" points="57.93 340.4 0 398.33 0 424.94 84.54 340.4 40.89 296.74 14.27 296.74 57.93 340.4"/><polygon class="cls-5" points="0 455.95 0 459.22 68.75 459.22 187.58 340.4 143.92 296.74 71.9 296.74 115.55 340.4 0 455.95"/><path class="cls-5" d="M228.41,296.74l43.66,43.66L153.25,459.22H297v.06h48c84.87-3.77,152.8-72.73,155-158v-45H297l-.06.06-40.43,40.42Zm68.57,0h.08v.12H297Z"/><rect class="cls-6" x="296.98" y="296.74" width="0.08" height="0.12"/><polygon class="cls-7" points="286.42 245.75 286.48 245.69 290.86 241.32 297.04 241.32 448.83 241.32 448.83 169.85 245.08 169.85 245.08 281.6 250.57 281.6 286.42 245.75"/></svg>