<svg id="Camada_1" data-name="Camada 1" xmlns="http://www.w3.org/2000/svg" viewBox="0 0 500 500"><defs><style>.cls-1{fill:#005578;}.cls-2{fill:#389192;}</style></defs><path class="cls-1" d="M423.62,184.33a154.11,154.11,0,0,0-157.49,2c1.28.67,2.55,1.36,3.82,2.09a96.24,96.24,0,0,1,47.31,70.48,95.81,95.81,0,0,1,46.42,7.67l-81.42,141,9,5.21L373,271.21l.43.25a95.86,95.86,0,0,1,34.94,34.67,96.37,96.37,0,0,1,91.68-2.28A154,154,0,0,0,423.62,184.33Z"/><path class="cls-2" d="M272.4,408.43l1.14-2a251.58,251.58,0,0,0,1.14-48,249.31,249.31,0,0,0-73.14-159.26,251.65,251.65,0,0,0,85,12.63,88.68,88.68,0,0,0-20.62-16.38c-1.14-.66-2.31-1.3-3.5-1.91l-12.75-6.63,12.27-7.49A161.88,161.88,0,0,1,279.62,170a96.59,96.59,0,0,0-82.73-18.57A251.54,251.54,0,0,0,257.5,69.51a96.49,96.49,0,0,0-112,79.8c-.77-.9-1.55-1.8-2.36-2.68A96.39,96.39,0,0,0,6.93,140.39q-3.64,3.35-6.88,7a249.86,249.86,0,0,0,81.69,25.38,96.42,96.42,0,0,0-57.38,88.17c0,3.3.17,6.55.49,9.77a249.12,249.12,0,0,0,50.67-25.87,96.34,96.34,0,0,0,10,64,250.72,250.72,0,0,0,70.95-119.24,249.41,249.41,0,0,1,77.89,181.37,252,252,0,0,1-1.8,30.14A248.69,248.69,0,0,1,272.4,408.43Z"/><path class="cls-1" d="M265.17,430.3a170.43,170.43,0,0,1,68.28,14.17c0-.9.06-1.81.06-2.72a68.34,68.34,0,1,0-136.67,0c0,.91,0,1.82.06,2.72A170.35,170.35,0,0,1,265.17,430.3Z"/></svg>