<svg id="Camada_1" data-name="Camada 1" xmlns="http://www.w3.org/2000/svg" viewBox="0 0 244.21 141.68">
  <defs>
    <style>
      .cls-1 {
        fill: #0071bc;
        fill-rule: evenodd;
        opacity: 0.1;
      }

      .cls-2 {
        fill: #002254;
      }

      .cls-3 {
        fill: #005578;
      }

      .cls-4, .cls-6 {
        fill: #fff;
      }

      .cls-5 {
        fill: #42ada9;
      }

      .cls-6 {
        opacity: 0.5;
      }

      .cls-7 {
        fill: #389192;
      }

      .cls-8 {
        fill: #004e78;
      }

      .cls-9 {
        fill: #00718f;
      }

      .cls-10 {
        fill: #3ababa;
      }

      .cls-11 {
        fill: #33ceff;
      }

      .cls-12 {
        fill: #7ce9f7;
      }

      .cls-13 {
        fill: #e3fdff;
      }

      .cls-14 {
        fill: #fffcfa;
      }

      .cls-15 {
        fill: #0088a1;
      }
    </style>
  </defs>
  <path class="cls-1" d="M112.51.89c33.65-1.1,30.1,42.16,68.35,36.25,14.37-2.22,27.74-6.9,40.91-1,12.67,5.69,22.37,19.25,23.64,31.75,1.9,18.73-16.85,32.19-34.52,41.77C178.88,127,140.2,138.59,104,141.87c-27.32,2.48-58.47-1.35-75.18-19.62-14.08-15.41-42.12-59.17-18-78.92,9.73-8,28.38-11,40-17C67.93,17.53,92.44,1.54,112.51.89Z" transform="translate(-1.33 -0.87)"/>
  <g>
    <rect class="cls-2" x="77.34" y="67.13" width="5.55" height="27.46"/>
    <rect class="cls-2" x="86.95" y="54.6" width="5.55" height="40"/>
    <rect class="cls-2" x="99.04" y="75.07" width="5.54" height="19.52"/>
    <rect class="cls-2" x="109.88" y="67.13" width="5.55" height="27.46"/>
    <g>
      <polygon class="cls-3" points="101.44 72.9 89.92 45.12 79.08 65.08 77.86 64.21 90.09 41.69 101.66 69.58 110.2 54.93 111.4 55.85 101.44 72.9"/>
      <polygon class="cls-3" points="112.7 58.01 113.08 51.45 107.94 54.35 112.7 58.01"/>
    </g>
    <rect class="cls-4" x="69.11" y="41.69" width="1.97" height="59.22"/>
    <rect class="cls-4" x="64.18" y="94.59" width="59.89" height="2.1"/>
    <polygon class="cls-5" points="57.97 90.46 52.68 83.73 68.97 69.17 74.25 75.91 57.97 90.46"/>
    <path class="cls-6" d="M111.21,39.2c-9.56-12.17-26.55-13.78-38-3.57S60.33,64,69.89,76.14s26.56,13.78,38,3.58S120.77,51.38,111.21,39.2Z" transform="translate(-1.33 -0.87)"/>
    <path class="cls-5" d="M111.21,39.2c-9.56-12.17-26.55-13.78-38-3.57S60.33,64,69.89,76.14s26.56,13.78,38,3.58S120.77,51.38,111.21,39.2Zm-35.82,32a22.09,22.09,0,0,1,2.46-29.74,18.94,18.94,0,0,1,27.87,2.63,22.1,22.1,0,0,1-2.46,29.73A18.94,18.94,0,0,1,75.39,71.23Z" transform="translate(-1.33 -0.87)"/>
    <path class="cls-3" d="M34,120.09a3.57,3.57,0,0,1-5.24-.49l-6.14-7.82a4.16,4.16,0,0,1,.47-5.59L53.71,78.77a3.57,3.57,0,0,1,5.24.5l6.14,7.81a4.16,4.16,0,0,1-.46,5.59Z" transform="translate(-1.33 -0.87)"/>
    <path class="cls-7" d="M61.85,89.05,75.59,76.78l-2.67-3.4L61.91,83S61.85,86.7,61.85,89.05Z" transform="translate(-1.33 -0.87)"/>
    <path class="cls-8" d="M65.09,87.08l-3.18-4L25.78,115.85h0l2.94,3.75a3.57,3.57,0,0,0,5.24.49L64.63,92.67A4.16,4.16,0,0,0,65.09,87.08Z" transform="translate(-1.33 -0.87)"/>
    <path class="cls-7" d="M107.86,79.72c11.41-10.21,12.91-28.34,3.35-40.52l-5.49,4.92a22.1,22.1,0,0,1-2.46,29.73,18.94,18.94,0,0,1-27.87-2.62h0l-5.5,4.91C79.45,88.32,96.45,89.92,107.86,79.72Z" transform="translate(-1.33 -0.87)"/>
    <path class="cls-9" d="M141.83,11.29a1.11,1.11,0,0,1-1.07,1.15H135A1.12,1.12,0,0,1,134,11.29V7.67A1.12,1.12,0,0,1,135,6.52h5.72a1.11,1.11,0,0,1,1.07,1.15Z" transform="translate(-1.33 -0.87)"/>
    <path class="cls-9" d="M141.83,40a1.12,1.12,0,0,0-1.07-1.15H135A1.12,1.12,0,0,0,134,40v3.63A1.12,1.12,0,0,0,135,44.73h5.72a1.12,1.12,0,0,0,1.07-1.15Z" transform="translate(-1.33 -0.87)"/>
    <path class="cls-9" d="M131.19,12.52a1.21,1.21,0,0,1,0,1.63l-4,4.31a1,1,0,0,1-1.53,0l-2.4-2.56a1.19,1.19,0,0,1,0-1.63l4-4.31a1,1,0,0,1,1.52,0Z" transform="translate(-1.33 -0.87)"/>
    <path class="cls-9" d="M150.18,32.79a1,1,0,0,0-1.53,0l-4,4.31a1.2,1.2,0,0,0,0,1.62l2.4,2.57a1,1,0,0,0,1.53,0l4-4.31a1.21,1.21,0,0,0,0-1.63Z" transform="translate(-1.33 -0.87)"/>
    <path class="cls-9" d="M124.47,21.42a1.13,1.13,0,0,1,1.08,1.16v6.09a1.12,1.12,0,0,1-1.08,1.15h-3.4A1.11,1.11,0,0,1,120,28.67V22.58a1.12,1.12,0,0,1,1.08-1.16Z" transform="translate(-1.33 -0.87)"/>
    <path class="cls-9" d="M151.33,21.42a1.12,1.12,0,0,0-1.08,1.16v6.09a1.11,1.11,0,0,0,1.08,1.15h3.4a1.11,1.11,0,0,0,1.07-1.15V22.58a1.12,1.12,0,0,0-1.07-1.16Z" transform="translate(-1.33 -0.87)"/>
    <path class="cls-9" d="M125.62,32.79a1,1,0,0,1,1.53,0l4,4.31a1.22,1.22,0,0,1,0,1.62l-2.41,2.57a1,1,0,0,1-1.52,0l-4-4.31a1.19,1.19,0,0,1,0-1.63Z" transform="translate(-1.33 -0.87)"/>
    <path class="cls-9" d="M144.61,12.52a1.21,1.21,0,0,0,0,1.63l4,4.31a1,1,0,0,0,1.53,0l2.4-2.56a1.21,1.21,0,0,0,0-1.63l-4-4.31A1,1,0,0,0,147,10Z" transform="translate(-1.33 -0.87)"/>
    <path class="cls-3" d="M137.9,12.17c-7,0-12.6,6-12.6,13.45s5.64,13.45,12.6,13.45,12.6-6,12.6-13.45S144.86,12.17,137.9,12.17Zm0,24.08c-5.5,0-10-4.76-10-10.63S132.4,15,137.9,15s10,4.76,10,10.63S143.4,36.25,137.9,36.25Z" transform="translate(-1.33 -0.87)"/>
    <g>
      <path class="cls-9" d="M133.42,97.76a8,8,0,0,0-4.68,9.88,7.24,7.24,0,0,0,9.26,5,8,8,0,0,0,4.68-9.88A7.24,7.24,0,0,0,133.42,97.76Zm3.8,12.33a4.77,4.77,0,0,1-6.1-3.29,5.22,5.22,0,0,1,3.08-6.5,4.77,4.77,0,0,1,6.1,3.29A5.23,5.23,0,0,1,137.22,110.09Z" transform="translate(-1.33 -0.87)"/>
      <path class="cls-9" d="M135.19,97.93a.48.48,0,0,1-.28.6l-2.26.79a.45.45,0,0,1-.57-.3l-.44-1.43a.49.49,0,0,1,.29-.61l2.26-.79a.43.43,0,0,1,.56.31Z" transform="translate(-1.33 -0.87)"/>
      <path class="cls-9" d="M139.33,111.37a.43.43,0,0,0-.56-.3l-2.26.79a.49.49,0,0,0-.29.6l.44,1.43a.45.45,0,0,0,.57.31l2.26-.79a.49.49,0,0,0,.28-.61Z" transform="translate(-1.33 -0.87)"/>
      <path class="cls-9" d="M130.53,100.44a.51.51,0,0,1,.2.65l-1.08,2.26a.44.44,0,0,1-.6.21l-1.26-.68a.5.5,0,0,1-.2-.64l1.08-2.26a.44.44,0,0,1,.6-.22Z" transform="translate(-1.33 -0.87)"/>
      <path class="cls-9" d="M142.36,106.83a.43.43,0,0,0-.6.21l-1.07,2.26a.49.49,0,0,0,.2.64l1.26.68a.43.43,0,0,0,.6-.21l1.07-2.26a.47.47,0,0,0-.2-.64Z" transform="translate(-1.33 -0.87)"/>
      <path class="cls-9" d="M128.9,105.74a.44.44,0,0,1,.56.31l.74,2.41a.48.48,0,0,1-.28.6l-1.34.47a.45.45,0,0,1-.57-.3l-.74-2.41a.5.5,0,0,1,.28-.61Z" transform="translate(-1.33 -0.87)"/>
      <path class="cls-9" d="M141.5,101.33a.48.48,0,0,0-.29.6l.74,2.41a.45.45,0,0,0,.57.31l1.34-.47a.5.5,0,0,0,.29-.61l-.74-2.41a.45.45,0,0,0-.57-.3Z" transform="translate(-1.33 -0.87)"/>
      <path class="cls-9" d="M131.26,110.72a.43.43,0,0,1,.6-.21l2.12,1.14a.51.51,0,0,1,.2.65l-.64,1.34a.43.43,0,0,1-.6.21l-2.12-1.14a.49.49,0,0,1-.2-.64Z" transform="translate(-1.33 -0.87)"/>
      <path class="cls-9" d="M137.24,98.09a.51.51,0,0,0,.2.65l2.12,1.14a.44.44,0,0,0,.6-.21l.64-1.35a.5.5,0,0,0-.2-.64l-2.12-1.14a.43.43,0,0,0-.6.21Z" transform="translate(-1.33 -0.87)"/>
    </g>
    <g>
      <path class="cls-2" d="M192,43.15A8,8,0,0,0,187.34,53a7.25,7.25,0,0,0,9.26,5,8,8,0,0,0,4.68-9.88A7.26,7.26,0,0,0,192,43.15Zm3.8,12.34a4.77,4.77,0,0,1-6.1-3.29,5.23,5.23,0,0,1,3.08-6.5A4.77,4.77,0,0,1,198.9,49,5.24,5.24,0,0,1,195.82,55.49Z" transform="translate(-1.33 -0.87)"/>
      <path class="cls-2" d="M193.8,43.33a.49.49,0,0,1-.29.6l-2.26.79a.44.44,0,0,1-.56-.3L190.24,43a.49.49,0,0,1,.29-.6l2.26-.79a.44.44,0,0,1,.57.3Z" transform="translate(-1.33 -0.87)"/>
      <path class="cls-2" d="M197.93,56.77a.45.45,0,0,0-.56-.31l-2.26.8a.49.49,0,0,0-.29.6l.45,1.43a.44.44,0,0,0,.56.31l2.26-.79a.51.51,0,0,0,.29-.61Z" transform="translate(-1.33 -0.87)"/>
      <path class="cls-2" d="M189.13,45.84a.51.51,0,0,1,.2.65l-1.07,2.26a.45.45,0,0,1-.61.21l-1.26-.68a.51.51,0,0,1-.2-.65l1.08-2.26a.44.44,0,0,1,.6-.21Z" transform="translate(-1.33 -0.87)"/>
      <path class="cls-2" d="M201,52.23a.43.43,0,0,0-.6.21l-1.07,2.26a.49.49,0,0,0,.2.64l1.26.68a.43.43,0,0,0,.6-.21l1.07-2.26a.49.49,0,0,0-.19-.64Z" transform="translate(-1.33 -0.87)"/>
      <path class="cls-2" d="M187.5,51.14a.45.45,0,0,1,.57.31l.74,2.41a.49.49,0,0,1-.29.6l-1.34.47a.45.45,0,0,1-.57-.31l-.74-2.4a.49.49,0,0,1,.29-.61Z" transform="translate(-1.33 -0.87)"/>
      <path class="cls-2" d="M200.1,46.73a.48.48,0,0,0-.29.6l.74,2.41a.44.44,0,0,0,.57.3l1.34-.47a.48.48,0,0,0,.29-.6L202,46.56a.45.45,0,0,0-.57-.3Z" transform="translate(-1.33 -0.87)"/>
      <path class="cls-2" d="M189.86,56.12a.43.43,0,0,1,.6-.21l2.12,1.14a.5.5,0,0,1,.2.64L192.14,59a.43.43,0,0,1-.6.21l-2.12-1.14a.5.5,0,0,1-.2-.64Z" transform="translate(-1.33 -0.87)"/>
      <path class="cls-2" d="M195.84,43.49a.51.51,0,0,0,.2.65l2.12,1.14a.44.44,0,0,0,.6-.21l.64-1.35a.49.49,0,0,0-.2-.64l-2.12-1.15a.43.43,0,0,0-.6.22Z" transform="translate(-1.33 -0.87)"/>
    </g>
    <g>
      <path class="cls-4" d="M214.72,93.11a5.46,5.46,0,0,0-3.21,6.78,5,5,0,0,0,6.35,3.42,5.44,5.44,0,0,0,3.21-6.77A5,5,0,0,0,214.72,93.11Zm2.6,8.46a3.27,3.27,0,0,1-4.18-2.26,3.58,3.58,0,0,1,2.12-4.45,3.27,3.27,0,0,1,4.18,2.25A3.59,3.59,0,0,1,217.32,101.57Z" transform="translate(-1.33 -0.87)"/>
      <path class="cls-4" d="M215.94,93.23a.35.35,0,0,1-.2.42l-1.55.54a.3.3,0,0,1-.38-.21l-.31-1a.34.34,0,0,1,.2-.42l1.55-.54a.31.31,0,0,1,.39.21Z" transform="translate(-1.33 -0.87)"/>
      <path class="cls-4" d="M218.77,102.45a.29.29,0,0,0-.38-.21l-1.55.54a.34.34,0,0,0-.2.41l.31,1a.3.3,0,0,0,.38.21l1.55-.55a.33.33,0,0,0,.2-.41Z" transform="translate(-1.33 -0.87)"/>
      <path class="cls-4" d="M212.74,95a.33.33,0,0,1,.13.44L212.14,97a.3.3,0,0,1-.41.14l-.87-.46a.35.35,0,0,1-.13-.45l.73-1.54a.29.29,0,0,1,.41-.15Z" transform="translate(-1.33 -0.87)"/>
      <path class="cls-4" d="M220.85,99.33a.3.3,0,0,0-.41.15L219.7,101a.35.35,0,0,0,.14.44l.87.47a.3.3,0,0,0,.41-.15l.73-1.55a.33.33,0,0,0-.13-.44Z" transform="translate(-1.33 -0.87)"/>
      <path class="cls-4" d="M211.62,98.59a.3.3,0,0,1,.39.21l.51,1.65a.33.33,0,0,1-.2.41l-.92.32a.3.3,0,0,1-.39-.2l-.51-1.65a.34.34,0,0,1,.2-.42Z" transform="translate(-1.33 -0.87)"/>
      <path class="cls-4" d="M220.26,95.56a.34.34,0,0,0-.2.42l.51,1.65a.31.31,0,0,0,.39.21l.92-.33a.33.33,0,0,0,.2-.41l-.51-1.65a.31.31,0,0,0-.39-.21Z" transform="translate(-1.33 -0.87)"/>
      <path class="cls-4" d="M213.24,102a.29.29,0,0,1,.41-.14l1.45.78a.34.34,0,0,1,.14.44l-.43.92a.31.31,0,0,1-.42.15l-1.45-.79a.33.33,0,0,1-.14-.44Z" transform="translate(-1.33 -0.87)"/>
      <path class="cls-4" d="M217.34,93.34a.34.34,0,0,0,.14.45l1.45.78a.29.29,0,0,0,.41-.15l.44-.92a.34.34,0,0,0-.14-.44l-1.45-.78a.29.29,0,0,0-.41.14Z" transform="translate(-1.33 -0.87)"/>
    </g>
    <path class="cls-10" d="M191.05,93.67a3.81,3.81,0,0,1-3.69,3.93h-40a3.81,3.81,0,0,1-3.69-3.93V57A3.81,3.81,0,0,1,147.35,53h40A3.81,3.81,0,0,1,191.05,57Z" transform="translate(-1.33 -0.87)"/>
    <path class="cls-4" d="M145.39,64V93.26A2.65,2.65,0,0,0,148,96h38.82a2.65,2.65,0,0,0,2.55-2.72V64Z" transform="translate(-1.33 -0.87)"/>
    <path class="cls-11" d="M150,57.11a1.39,1.39,0,1,1-1.39-1.48A1.43,1.43,0,0,1,150,57.11Z" transform="translate(-1.33 -0.87)"/>
    <path class="cls-11" d="M153.9,57.11a1.38,1.38,0,1,1-1.38-1.48A1.43,1.43,0,0,1,153.9,57.11Z" transform="translate(-1.33 -0.87)"/>
    <path class="cls-11" d="M157.85,57.11a1.38,1.38,0,1,1-1.38-1.48A1.43,1.43,0,0,1,157.85,57.11Z" transform="translate(-1.33 -0.87)"/>
    <path class="cls-12" d="M149.82,57a1.25,1.25,0,1,1-1.25-1.33A1.29,1.29,0,0,1,149.82,57Z" transform="translate(-1.33 -0.87)"/>
    <path class="cls-12" d="M153.77,57a1.25,1.25,0,1,1-1.25-1.33A1.29,1.29,0,0,1,153.77,57Z" transform="translate(-1.33 -0.87)"/>
    <path class="cls-13" d="M145.39,93.26a2.77,2.77,0,0,0,.91,2.06l43-31.31H145.39Z" transform="translate(-1.33 -0.87)"/>
    <path class="cls-12" d="M157.72,57a1.25,1.25,0,1,1-1.25-1.33A1.29,1.29,0,0,1,157.72,57Z" transform="translate(-1.33 -0.87)"/>
    <rect class="cls-5" x="142.33" y="59.39" width="47.39" height="1.5"/>
    <g>
      <path class="cls-2" d="M153.9,79.84V78.39l7.52-4.8,1.11,1.87-4.36,2.88-1.78.73,1.76.64,4.48,2.85-1.12,1.87Z" transform="translate(-1.33 -0.87)"/>
      <path class="cls-2" d="M169.87,71l1.91.91-7,16.79-1.9-1Z" transform="translate(-1.33 -0.87)"/>
      <path class="cls-2" d="M180.81,78.18v1.45l-7.52,4.8-1.11-1.89,4.37-2.87,1.77-.74-1.75-.63-4.48-2.86,1.11-1.85Z" transform="translate(-1.33 -0.87)"/>
    </g>
    <path class="cls-14" d="M27.63,59.76a8.07,8.07,0,0,1-8.49,7.72C14.82,67.1,11.6,63,12,58.38a8.07,8.07,0,0,1,8.49-7.71A8.26,8.26,0,0,1,27.63,59.76Z" transform="translate(-1.33 -0.87)"/>
    <path class="cls-9" d="M22.59,45.58c-1-.23-1.86-.81-1.84-1.49s1.07-1.14,2.32-.86a15.61,15.61,0,0,1,11.23,11A17.17,17.17,0,0,1,31,70.16,14.6,14.6,0,0,1,16.45,75,15.67,15.67,0,0,1,5.31,63.9c-.38-1.29,0-2.46.62-2.53s1.21.76,1.53,1.83A13.41,13.41,0,0,0,17,72.67a12.48,12.48,0,0,0,12.39-4.14A14.65,14.65,0,0,0,32.16,55,13.38,13.38,0,0,0,22.59,45.58Z" transform="translate(-1.33 -0.87)"/>
    <path class="cls-9" d="M6.65,58.92c-.44-.94-1.23-1.08-1.76,0a17.27,17.27,0,0,0-1.54,5.39c-.13,1.33.42,1.72,1.1.89l.5-.54A4.58,4.58,0,0,1,8.1,63.46h.7c1,0,1.16-.47.5-1A12.05,12.05,0,0,1,6.65,58.92Z" transform="translate(-1.33 -0.87)"/>
    <g>
      <path class="cls-5" d="M19.68,59.16c-.07.71-.53,1.25-1.05,1.21h0A1.18,1.18,0,0,1,17.78,59l.73-9.44c.06-.71.52-1.25,1-1.21h0a1.19,1.19,0,0,1,.84,1.38Z" transform="translate(-1.33 -0.87)"/>
      <path class="cls-5" d="M18.32,60.39c-.55-.63.11-1.48.45-1.82l-.82.06c.34-.33,1.05-.1,1.6.53l7.25,8.35c.55.63.71,1.41.37,1.76h0c-.34.34-1.06.11-1.6-.52Z" transform="translate(-1.33 -0.87)"/>
    </g>
    <path class="cls-15" d="M12.36,47.68c-.85.64-1.83.9-2.26.42s0-1.62,1-2.4a14.35,14.35,0,0,1,15.17-1.27,16.32,16.32,0,0,1,8.57,13.48A16.76,16.76,0,0,1,28.17,72.6,14.36,14.36,0,0,1,13,73.72c-1.14-.59-1.67-1.69-1.31-2.22s1.35-.43,2.3.06a12.27,12.27,0,0,0,12.94-1,14.3,14.3,0,0,0,5.67-12.51,13.93,13.93,0,0,0-7.3-11.49A12.26,12.26,0,0,0,12.36,47.68Z" transform="translate(-1.33 -0.87)"/>
    <path class="cls-4" d="M116,115.22c0,7.23-5.5,13.09-12.27,13.09s-12.28-5.86-12.28-13.09,5.5-13.1,12.28-13.1S116,108,116,115.22Z" transform="translate(-1.33 -0.87)"/>
    <polygon class="cls-3" points="94.5 108.12 103.33 120.53 110.62 111.93 103.33 115.53 94.5 108.12"/>
  </g>
</svg>
