<svg xmlns="http://www.w3.org/2000/svg" xmlns:xlink="http://www.w3.org/1999/xlink" viewBox="0 0 258.38 151">
  <defs>
    <style>
      .cls-1 {
        isolation: isolate;
      }

      .cls-2 {
        fill: #0071bc;
        fill-rule: evenodd;
        opacity: 0.1;
      }

      .cls-3 {
        fill: #7ce9f7;
      }

      .cls-4 {
        fill: #b3eefc;
      }

      .cls-5 {
        fill: #00718f;
      }

      .cls-6 {
        fill: #fff;
      }

      .cls-7 {
        fill: #e30707;
      }

      .cls-8 {
        fill: #006f97;
      }

      .cls-24, .cls-9 {
        fill: #e3fdff;
      }

      .cls-23, .cls-9 {
        mix-blend-mode: multiply;
      }

      .cls-10 {
        fill: #ff2942;
      }

      .cls-11 {
        fill: #3ababa;
      }

      .cls-12 {
        fill: #1a3151;
      }

      .cls-13 {
        fill: #42ada9;
      }

      .cls-14 {
        fill: #005578;
      }

      .cls-15 {
        fill: #389192;
      }

      .cls-16 {
        fill: #f7ad3e;
      }

      .cls-17 {
        fill: #e6e7e8;
      }

      .cls-18 {
        fill: #301606;
      }

      .cls-19 {
        fill: #48d4e4;
      }

      .cls-20 {
        fill: #fcd751;
      }

      .cls-21 {
        fill: url(#Gradiente_sem_nome_8);
      }

      .cls-22 {
        fill: url(#Gradiente_sem_nome_8-2);
      }

      .cls-25 {
        fill: #002254;
      }
    </style>
    <linearGradient id="Gradiente_sem_nome_8" data-name="Gradiente sem nome 8" x1="34.4" y1="56.63" x2="56.03" y2="56.63" gradientUnits="userSpaceOnUse">
      <stop offset="0" stop-color="#3d9191"/>
      <stop offset="1" stop-color="#3d9191"/>
    </linearGradient>
    <linearGradient id="Gradiente_sem_nome_8-2" x1="58.68" y1="74.9" x2="61.6" y2="74.9" xlink:href="#Gradiente_sem_nome_8"/>
  </defs>
  <g class="cls-1">
    <g id="Camada_1" data-name="Camada 1">
      <path class="cls-2" d="M102.82,1.51C136,1.51,161,17.64,191.35,27.25c12.09,3.82,26.33,5.65,37.11,12.17,26.76,16.19,20.95,45.22,6.06,66.43-16.7,23.79-39.05,13.17-65.69,16s-32.16,28.21-57,30.43C65.66,156.36,1.11,115.08,1.11,70.89,1.11,32.57,46.65,1.51,102.82,1.51Z" transform="translate(-1.11 -1.51)"/>
      <g>
        <path class="cls-3" d="M76.89,84.76c0,.4-.24.71-.51.7l-2.5-.15c-.26,0-.46-.35-.44-.75l.1-2.28c0-.4.25-.71.51-.69l2.5.14c.26,0,.46.35.44.75Z" transform="translate(-1.11 -1.51)"/>
        <path class="cls-3" d="M75.89,106.94c0-.4-.18-.74-.44-.75l-2.5-.14c-.26,0-.49.29-.51.69l-.1,2.28c0,.4.18.74.44.75l2.51.15c.26,0,.48-.3.5-.7Z" transform="translate(-1.11 -1.51)"/>
        <path class="cls-3" d="M71.73,85a.7.7,0,0,1-.13.88l-2.23,1.29c-.23.14-.55,0-.72-.4l-.91-2a.7.7,0,0,1,.12-.89l2.24-1.29c.23-.13.55,0,.71.4Z" transform="translate(-1.11 -1.51)"/>
        <path class="cls-3" d="M80.68,104.75c-.16-.36-.48-.54-.72-.4l-2.22,1.29c-.24.13-.29.53-.14.89l.92,2c.17.35.49.53.72.4l2.23-1.29a.71.71,0,0,0,.13-.89Z" transform="translate(-1.11 -1.51)"/>
        <path class="cls-3" d="M67.35,88.08a.7.7,0,0,1,.29.84L66.28,91.3a.54.54,0,0,1-.8.06l-1.69-1.24a.71.71,0,0,1-.29-.85l1.36-2.38a.54.54,0,0,1,.8,0Z" transform="translate(-1.11 -1.51)"/>
        <path class="cls-3" d="M83.86,100.15c-.3-.22-.66-.2-.8,0l-1.36,2.38a.68.68,0,0,0,.28.84l1.69,1.24a.54.54,0,0,0,.8,0l1.36-2.38a.69.69,0,0,0-.28-.84Z" transform="translate(-1.11 -1.51)"/>
        <path class="cls-3" d="M64.94,93.24a.62.62,0,0,1,.62.57l-.13,2.83a.59.59,0,0,1-.66.5l-2-.12a.61.61,0,0,1-.62-.57l.13-2.83a.58.58,0,0,1,.67-.49Z" transform="translate(-1.11 -1.51)"/>
        <path class="cls-3" d="M84.57,94.37a.6.6,0,0,0-.67.49l-.12,2.83a.59.59,0,0,0,.61.57l2,.12a.58.58,0,0,0,.66-.5l.13-2.83a.6.6,0,0,0-.62-.57Z" transform="translate(-1.11 -1.51)"/>
        <path class="cls-3" d="M65.13,99.07a.54.54,0,0,1,.79.15l1.14,2.52a.68.68,0,0,1-.36.81l-1.79,1a.53.53,0,0,1-.79-.14L63,100.92a.69.69,0,0,1,.35-.81Z" transform="translate(-1.11 -1.51)"/>
        <path class="cls-3" d="M82.63,89a.65.65,0,0,0-.35.8l1.13,2.52a.54.54,0,0,0,.79.15l1.8-1a.68.68,0,0,0,.35-.81l-1.14-2.52a.52.52,0,0,0-.78-.14Z" transform="translate(-1.11 -1.51)"/>
        <path class="cls-3" d="M67.88,104c.19-.34.53-.48.75-.32l2.1,1.53a.73.73,0,0,1,0,.91l-1.1,1.91c-.19.34-.53.48-.75.32l-2.1-1.54a.72.72,0,0,1,0-.9Z" transform="translate(-1.11 -1.51)"/>
        <path class="cls-3" d="M78.56,85.37a.7.7,0,0,0,0,.9l2.1,1.53c.22.16.55,0,.75-.31l1.09-1.92a.72.72,0,0,0,0-.9l-2.1-1.54c-.22-.16-.55,0-.75.32Z" transform="translate(-1.11 -1.51)"/>
        <path class="cls-4" d="M75.2,83.84c-5.82-.34-10.78,4.73-11.08,11.31s4.19,12.18,10,12.52,10.78-4.73,11.08-11.31S81,84.17,75.2,83.84Zm-.88,19.76c-3.84-.22-6.79-3.91-6.59-8.25s3.46-7.66,7.29-7.44,6.78,3.91,6.59,8.24S78.15,103.82,74.32,103.6Z" transform="translate(-1.11 -1.51)"/>
        <path class="cls-3" d="M223.83,30.93c0,.27-.16.48-.34.47l-1.68-.09c-.18,0-.31-.24-.3-.51l.07-1.53c0-.27.17-.48.34-.47l1.68.1c.18,0,.31.23.3.5Z" transform="translate(-1.11 -1.51)"/>
        <path class="cls-3" d="M223.16,45.86c0-.27-.12-.5-.3-.51l-1.68-.09c-.17,0-.33.19-.34.46l-.07,1.54c0,.26.12.49.3.5l1.68.1c.18,0,.33-.2.34-.47Z" transform="translate(-1.11 -1.51)"/>
        <path class="cls-3" d="M220.36,31.08a.47.47,0,0,1-.09.6l-1.5.87c-.15.09-.37,0-.48-.27l-.61-1.37c-.11-.24-.08-.51.08-.6l1.5-.86c.16-.1.37,0,.48.26Z" transform="translate(-1.11 -1.51)"/>
        <path class="cls-3" d="M226.38,44.38c-.11-.24-.32-.36-.48-.27l-1.5.87c-.16.09-.19.36-.09.6l.62,1.36c.11.24.33.36.48.27l1.5-.86a.47.47,0,0,0,.09-.6Z" transform="translate(-1.11 -1.51)"/>
        <path class="cls-3" d="M217.42,33.17a.48.48,0,0,1,.19.57l-.92,1.6c-.09.16-.33.18-.53,0L215,34.54a.47.47,0,0,1-.19-.57l.91-1.6a.37.37,0,0,1,.54,0Z" transform="translate(-1.11 -1.51)"/>
        <path class="cls-3" d="M228.52,41.29a.37.37,0,0,0-.54,0l-.91,1.6a.47.47,0,0,0,.19.57l1.13.83a.37.37,0,0,0,.54,0l.91-1.6a.46.46,0,0,0-.18-.57Z" transform="translate(-1.11 -1.51)"/>
        <path class="cls-3" d="M215.79,36.64a.41.41,0,0,1,.42.38l-.09,1.91a.39.39,0,0,1-.44.33l-1.36-.08a.39.39,0,0,1-.41-.38l.08-1.9a.4.4,0,0,1,.45-.34Z" transform="translate(-1.11 -1.51)"/>
        <path class="cls-3" d="M229,37.4a.4.4,0,0,0-.45.33l-.09,1.9a.41.41,0,0,0,.42.39l1.36.08a.4.4,0,0,0,.44-.34l.09-1.9a.4.4,0,0,0-.42-.38Z" transform="translate(-1.11 -1.51)"/>
        <path class="cls-3" d="M215.92,40.56c.22-.12.45-.08.53.1l.77,1.7a.46.46,0,0,1-.24.54l-1.21.7a.36.36,0,0,1-.53-.1l-.76-1.69a.46.46,0,0,1,.23-.55Z" transform="translate(-1.11 -1.51)"/>
        <path class="cls-3" d="M227.69,33.76a.46.46,0,0,0-.24.54l.77,1.7a.36.36,0,0,0,.53.1l1.21-.7a.47.47,0,0,0,.24-.55l-.77-1.69a.36.36,0,0,0-.53-.1Z" transform="translate(-1.11 -1.51)"/>
        <path class="cls-3" d="M217.77,43.89c.13-.23.36-.32.5-.22l1.42,1a.48.48,0,0,1,0,.6L219,46.6c-.13.23-.35.32-.5.22l-1.41-1a.47.47,0,0,1,0-.6Z" transform="translate(-1.11 -1.51)"/>
        <path class="cls-3" d="M225,31.35a.48.48,0,0,0,0,.6l1.42,1c.15.11.37,0,.5-.21l.74-1.29a.47.47,0,0,0,0-.6l-1.42-1c-.14-.1-.37,0-.5.22Z" transform="translate(-1.11 -1.51)"/>
        <path class="cls-4" d="M222.7,30.31c-3.92-.22-7.25,3.19-7.45,7.61s2.81,8.2,6.73,8.42,7.25-3.18,7.45-7.6S226.61,30.54,222.7,30.31Zm-.6,13.3c-2.58-.15-4.56-2.63-4.43-5.55s2.33-5.16,4.9-5,4.57,2.63,4.43,5.55S224.68,43.75,222.1,43.61Z" transform="translate(-1.11 -1.51)"/>
        <path class="cls-5" d="M144.75,71.93c0-23.2,16.64-42,37.16-42V23.09c-23.82,0-43.21,21.91-43.21,48.84s19.39,48.84,43.21,48.84v-6.84C161.39,113.93,144.75,95.13,144.75,71.93Z" transform="translate(-1.11 -1.51)"/>
        <path class="cls-6" d="M144.75,71.93c0,23.2,16.64,42,37.16,42V107.1c-17.15,0-31.11-15.78-31.11-35.17s14-35.16,31.11-35.16V29.93C161.39,29.93,144.75,48.73,144.75,71.93Z" transform="translate(-1.11 -1.51)"/>
        <path class="cls-5" d="M156.85,71.93c0-15.62,11.24-28.33,25.06-28.33V36.77c-17.15,0-31.11,15.77-31.11,35.16s14,35.17,31.11,35.17v-6.84C168.09,100.26,156.85,87.55,156.85,71.93Z" transform="translate(-1.11 -1.51)"/>
        <path class="cls-6" d="M156.85,71.93c0,15.62,11.24,28.33,25.06,28.33V93.42c-10.48,0-19-9.64-19-21.49s8.53-21.49,19-21.49V43.6C168.09,43.6,156.85,56.31,156.85,71.93Z" transform="translate(-1.11 -1.51)"/>
        <path class="cls-5" d="M169,71.93c0-8.08,5.81-14.65,13-14.65V50.44c-10.48,0-19,9.64-19,21.49s8.53,21.49,19,21.49V86.59C174.76,86.59,169,80,169,71.93Z" transform="translate(-1.11 -1.51)"/>
        <path class="cls-6" d="M169,71.93c0,8.08,5.81,14.66,13,14.66V79.75c-3.81,0-6.91-3.51-6.91-7.82s3.1-7.81,6.91-7.81V57.28C174.76,57.28,169,63.85,169,71.93Z" transform="translate(-1.11 -1.51)"/>
        <path class="cls-5" d="M175,71.93c0,4.31,3.1,7.82,6.91,7.82V64.12C178.1,64.12,175,67.62,175,71.93Z" transform="translate(-1.11 -1.51)"/>
        <path class="cls-7" d="M181.91,23.09v6.84c20.53,0,37.17,18.8,37.17,42s-16.64,42-37.17,42v6.84c23.83,0,43.22-21.91,43.22-48.84S205.74,23.09,181.91,23.09Z" transform="translate(-1.11 -1.51)"/>
        <path class="cls-8" d="M181.91,23.09v6.84c20.53,0,37.17,18.8,37.17,42s-16.64,42-37.17,42v6.84c23.83,0,43.22-21.91,43.22-48.84S205.74,23.09,181.91,23.09Z" transform="translate(-1.11 -1.51)"/>
        <path class="cls-6" d="M213,71.93c0,19.39-14,35.17-31.12,35.17v6.83c20.53,0,37.17-18.8,37.17-42s-16.64-42-37.17-42v6.84C199.07,36.77,213,52.54,213,71.93Z" transform="translate(-1.11 -1.51)"/>
        <path class="cls-9" d="M213,71.93c0,19.39-14,35.17-31.12,35.17v6.83c20.53,0,37.17-18.8,37.17-42s-16.64-42-37.17-42v6.84C199.07,36.77,213,52.54,213,71.93Z" transform="translate(-1.11 -1.51)"/>
        <path class="cls-10" d="M213,71.93c0-19.39-14-35.16-31.12-35.16V43.6C195.73,43.6,207,56.31,207,71.93s-11.25,28.33-25.07,28.33v6.84C199.07,107.1,213,91.32,213,71.93Z" transform="translate(-1.11 -1.51)"/>
        <path class="cls-8" d="M213,71.93c0-19.39-14-35.16-31.12-35.16V43.6C195.73,43.6,207,56.31,207,71.93s-11.25,28.33-25.07,28.33v6.84C199.07,107.1,213,91.32,213,71.93Z" transform="translate(-1.11 -1.51)"/>
        <path class="cls-6" d="M200.92,71.93c0,11.85-8.52,21.49-19,21.49v6.84c13.82,0,25.07-12.71,25.07-28.33S195.73,43.6,181.91,43.6v6.84C192.4,50.44,200.92,60.08,200.92,71.93Z" transform="translate(-1.11 -1.51)"/>
        <path class="cls-9" d="M200.92,71.93c0,11.85-8.52,21.49-19,21.49v6.84c13.82,0,25.07-12.71,25.07-28.33S195.73,43.6,181.91,43.6v6.84C192.4,50.44,200.92,60.08,200.92,71.93Z" transform="translate(-1.11 -1.51)"/>
        <path class="cls-10" d="M200.92,71.93c0-11.85-8.52-21.49-19-21.49v6.84c7.15,0,13,6.57,13,14.65s-5.82,14.66-13,14.66v6.83C192.4,93.42,200.92,83.78,200.92,71.93Z" transform="translate(-1.11 -1.51)"/>
        <path class="cls-8" d="M200.92,71.93c0-11.85-8.52-21.49-19-21.49v6.84c7.15,0,13,6.57,13,14.65s-5.82,14.66-13,14.66v6.83C192.4,93.42,200.92,83.78,200.92,71.93Z" transform="translate(-1.11 -1.51)"/>
        <path class="cls-6" d="M188.83,71.93c0,4.31-3.1,7.82-6.92,7.82v6.84c7.15,0,13-6.58,13-14.66s-5.82-14.65-13-14.65v6.84C185.73,64.12,188.83,67.62,188.83,71.93Z" transform="translate(-1.11 -1.51)"/>
        <path class="cls-9" d="M188.83,71.93c0,4.31-3.1,7.82-6.92,7.82v6.84c7.15,0,13-6.58,13-14.66s-5.82-14.65-13-14.65v6.84C185.73,64.12,188.83,67.62,188.83,71.93Z" transform="translate(-1.11 -1.51)"/>
        <path class="cls-10" d="M188.83,71.93c0-4.31-3.1-7.81-6.92-7.81V79.75C185.73,79.75,188.83,76.24,188.83,71.93Z" transform="translate(-1.11 -1.51)"/>
        <path class="cls-8" d="M188.83,71.93c0-4.31-3.1-7.81-6.92-7.81V79.75C185.73,79.75,188.83,76.24,188.83,71.93Z" transform="translate(-1.11 -1.51)"/>
        <path class="cls-11" d="M181.89,72.55c-3.81-6.43-10.58-13.7-10.58-13.7l-1,1.23-1,1.22S176,68.58,181.89,72.55Z" transform="translate(-1.11 -1.51)"/>
        <path class="cls-12" d="M170.84,60.69s1.62-1.61.91-2.37L160,45.68l-3,3.52L168.8,61.83C169.5,62.59,170.84,60.69,170.84,60.69Z" transform="translate(-1.11 -1.51)"/>
        <polygon class="cls-11" points="145.75 36.77 148.71 33.26 163.23 48.84 160.27 52.36 145.75 36.77"/>
        <path class="cls-13" d="M150.15,38.46s4.75-8.17.45-12.74c-3.18-3.38-11.06-12.27-18.34-6.45-4.76,8.51,3.49,17,6.64,20.36C143.17,44.25,150.15,38.46,150.15,38.46Z" transform="translate(-1.11 -1.51)"/>
        <g>
          <path class="cls-6" d="M142.58,18.83a13.71,13.71,0,0,0-1.83-.85l.43,10.86-9.62.07a18.93,18.93,0,0,0,.85,2l10.65-.08Z" transform="translate(-1.11 -1.51)"/>
          <path class="cls-6" d="M146.89,35l-.54-13.46a25.16,25.16,0,0,0-2.28-1.77l.51,12.75-11.29.08A28.48,28.48,0,0,0,135,35.06Z" transform="translate(-1.11 -1.51)"/>
        </g>
        <g>
          <path class="cls-4" d="M154.61,70.35c-3-5.23-9.16-6.77-13.79-3.41s-6,10.35-3,15.59,9.16,6.76,13.8,3.41S157.58,75.59,154.61,70.35ZM137.47,82.77c-3.09-5.44-1.68-12.72,3.13-16.21s11.26-1.9,14.35,3.55,1.68,12.72-3.14,16.21S140.56,88.22,137.47,82.77Z" transform="translate(-1.11 -1.51)"/>
          <path class="cls-4" d="M152.84,71.63c-2.34-4.13-7.23-5.34-10.88-2.69s-4.73,8.18-2.39,12.31,7.23,5.34,10.89,2.69S155.19,75.77,152.84,71.63ZM139,81.67c-2.55-4.5-1.39-10.5,2.59-13.39s9.3-1.57,11.85,2.93,1.39,10.51-2.59,13.39S141.54,86.17,139,81.67Z" transform="translate(-1.11 -1.51)"/>
          <path class="cls-4" d="M151.07,72.92a5.4,5.4,0,0,0-8-2,7.07,7.07,0,0,0-1.75,9,5.41,5.41,0,0,0,8,2A7.06,7.06,0,0,0,151.07,72.92Zm-10.56,7.65A8.27,8.27,0,0,1,142.56,70c3.14-2.28,7.33-1.24,9.35,2.31a8.29,8.29,0,0,1-2,10.57C146.72,85.16,142.52,84.12,140.51,80.57Z" transform="translate(-1.11 -1.51)"/>
          <path class="cls-4" d="M149.3,74.2a3.43,3.43,0,0,0-5.08-1.26,4.51,4.51,0,0,0-1.11,5.74,3.44,3.44,0,0,0,5.08,1.26A4.48,4.48,0,0,0,149.3,74.2ZM142,79.47a6.07,6.07,0,0,1,1.5-7.75,4.64,4.64,0,0,1,6.86,1.69,6.08,6.08,0,0,1-1.5,7.75A4.64,4.64,0,0,1,142,79.47Z" transform="translate(-1.11 -1.51)"/>
        </g>
        <path class="cls-6" d="M135.08,112.52,145.42,105c1-.7,1.15-2.28.32-3.75A2.56,2.56,0,0,0,144,99.84a1.67,1.67,0,0,0-1.25.41L136,105.12c-.1.07-.24,0-.32-.12a.29.29,0,0,1,0-.37l8.83-6.49c.92-.66,1.14-2.09.26-3.64-.55-1-.92-1.75-2-1.86a1.53,1.53,0,0,0-1.16.36l-8.5,6.16c-.1.07-.24,0-.32-.12a.28.28,0,0,1,0-.37l8.52-6.18s0,0,0,0l1.79-1.31c1-.69,1.13-2.32.2-3.95a3,3,0,0,0-2.26-1.8,3.13,3.13,0,0,0-1,.34l-10.67,7.73c-.09.07-.23,0-.31-.12a.28.28,0,0,1,0-.37l10.66-7.73,2.69-1.94,5.25-3.81a3.79,3.79,0,0,0,.94-4.84,2.9,2.9,0,0,0-4.29-1.06L122.19,89.79c-1.9-.92.87-4.8,5.91-8.25s1.73-8.32,1.73-8.32-.16-1.09-5.94,2.85c-6.51,4.42-9.07,8-9.07,8A91.5,91.5,0,0,0,111,94.49a3.56,3.56,0,0,0-.16,1c-.41,2.93-4,9.29-1.37,14.26,3.27,6.09,7.53,13.14,7.53,13.14S118.88,125.75,135.08,112.52Z" transform="translate(-1.11 -1.51)"/>
        <polygon class="cls-14" points="114.39 125.19 101.77 102.94 107.79 98.58 120.41 120.82 114.39 125.19"/>
        <polygon class="cls-15" points="107.1 130.91 94.12 108.04 104.89 100.24 117.86 123.11 107.1 130.91"/>
        <polygon class="cls-13" points="100.61 119.48 94.12 108.04 104.89 100.24 111.37 111.68 100.61 119.48"/>
        <polygon class="cls-5" points="111.37 111.68 105.06 100.55 107.79 98.58 114.1 109.7 111.37 111.68"/>
        <g>
          <path class="cls-6" d="M16.37,45.8c-2.76,1-4.26,4.39-3.36,7.51s3.88,4.81,6.64,3.79A6.14,6.14,0,0,0,23,49.6C22.1,46.48,19.13,44.78,16.37,45.8Zm2.72,9.37a3.39,3.39,0,0,1-4.37-2.5,4,4,0,0,1,2.21-4.94,3.4,3.4,0,0,1,4.37,2.5A4,4,0,0,1,19.09,55.17Z" transform="translate(-1.11 -1.51)"/>
          <path class="cls-6" d="M17.64,45.93a.37.37,0,0,1-.2.46l-1.62.6a.31.31,0,0,1-.41-.23l-.31-1.09a.38.38,0,0,1,.2-.46l1.62-.6a.32.32,0,0,1,.41.24Z" transform="translate(-1.11 -1.51)"/>
          <path class="cls-6" d="M20.61,56.14a.32.32,0,0,0-.4-.23l-1.62.6a.37.37,0,0,0-.21.46l.32,1.09a.31.31,0,0,0,.4.23l1.62-.6a.38.38,0,0,0,.21-.46Z" transform="translate(-1.11 -1.51)"/>
          <path class="cls-6" d="M14.3,47.85a.37.37,0,0,1,.14.48l-.77,1.72a.3.3,0,0,1-.43.16l-.9-.51a.39.39,0,0,1-.15-.49L13,47.49a.3.3,0,0,1,.43-.16Z" transform="translate(-1.11 -1.51)"/>
          <path class="cls-6" d="M22.78,52.69a.3.3,0,0,0-.43.16l-.77,1.72a.39.39,0,0,0,.15.49l.9.52a.31.31,0,0,0,.43-.17l.77-1.71a.4.4,0,0,0-.14-.49Z" transform="translate(-1.11 -1.51)"/>
          <path class="cls-6" d="M13.13,51.87a.31.31,0,0,1,.4.23l.54,1.83a.39.39,0,0,1-.21.46l-1,.35a.31.31,0,0,1-.41-.23L12,52.69a.38.38,0,0,1,.21-.46Z" transform="translate(-1.11 -1.51)"/>
          <path class="cls-6" d="M22.16,48.52A.36.36,0,0,0,22,49l.53,1.83a.32.32,0,0,0,.4.24l1-.36a.37.37,0,0,0,.2-.46l-.53-1.83a.32.32,0,0,0-.4-.23Z" transform="translate(-1.11 -1.51)"/>
          <path class="cls-6" d="M14.82,55.65a.3.3,0,0,1,.43-.16l1.52.87a.37.37,0,0,1,.14.48l-.45,1A.3.3,0,0,1,16,58l-1.52-.87a.39.39,0,0,1-.15-.49Z" transform="translate(-1.11 -1.51)"/>
          <path class="cls-6" d="M19.11,46.06a.39.39,0,0,0,.14.49l1.52.87a.3.3,0,0,0,.43-.16l.46-1a.39.39,0,0,0-.14-.49L20,44.88a.3.3,0,0,0-.43.16Z" transform="translate(-1.11 -1.51)"/>
        </g>
        <polygon class="cls-6" points="35.25 66.84 33.24 63.91 32.62 64.46 34.63 67.39 36.64 70.33 37.27 69.78 35.25 66.84"/>
        <polygon class="cls-16" points="65.85 42.05 64.96 40.77 64.09 39.49 60.03 40.41 59.7 43.05 60.71 44.51 61.72 45.98 64.05 46.27 65.85 42.05"/>
        <polygon class="cls-17" points="64.96 40.77 64.09 39.49 60.03 40.41 59.7 43.05 60.71 44.51 64.96 40.77"/>
        <polygon class="cls-6" points="64.96 40.77 65.85 42.05 64.05 46.27 61.72 45.98 60.71 44.51 64.96 40.77"/>
        <polygon class="cls-18" points="62.39 45.09 62.04 43.34 60.63 42.53 60.03 40.41 33.24 63.91 34.37 65.57 36.13 68.13 37.27 69.78 64.05 46.27 62.39 45.09"/>
        <polygon class="cls-5" points="36.13 68.13 34.37 65.57 60.63 42.53 62.04 43.34 62.39 45.09 36.13 68.13"/>
        <polygon class="cls-14" points="37.27 69.78 36.13 68.13 62.39 45.09 64.05 46.27 37.27 69.78"/>
        <polygon class="cls-14" points="34.37 65.57 33.24 63.91 60.03 40.41 60.63 42.53 34.37 65.57"/>
        <polygon class="cls-18" points="67.27 38.75 64.09 39.49 64.96 40.77 65.85 42.05 67.27 38.75"/>
        <polygon class="cls-5" points="64.96 40.77 67.27 38.75 65.85 42.05 64.96 40.77"/>
        <polygon class="cls-14" points="64.96 40.77 67.27 38.75 64.09 39.49 64.96 40.77"/>
        <polygon class="cls-17" points="32.62 64.46 34.63 67.39 35.25 66.84 33.24 63.91 32.62 64.46"/>
        <path class="cls-10" d="M35.74,68.9l-2-2.93a4.17,4.17,0,0,0-1.27,2.08A4.28,4.28,0,0,0,33.39,71a3.62,3.62,0,0,0,2.26,1.75,3.41,3.41,0,0,0,2.1-.88Z" transform="translate(-1.11 -1.51)"/>
        <polygon class="cls-6" points="36.64 70.33 34.63 67.39 35.25 66.84 37.27 69.78 36.64 70.33"/>
        <path class="cls-4" d="M35.65,72.72A3.62,3.62,0,0,1,33.39,71l2.35-2.07,2,2.94A3.41,3.41,0,0,1,35.65,72.72Z" transform="translate(-1.11 -1.51)"/>
        <path class="cls-4" d="M32.45,68.05A4.28,4.28,0,0,0,33.39,71l2.35-2.07-2-2.93A4.17,4.17,0,0,0,32.45,68.05Z" transform="translate(-1.11 -1.51)"/>
        <polygon class="cls-6" points="37.02 39.77 39.62 37.52 39.15 36.82 36.54 39.06 33.92 41.32 34.4 42.02 37.02 39.77"/>
        <polygon class="cls-19" points="58.69 74.57 59.82 73.58 60.96 72.6 60.19 68.01 57.86 67.61 56.55 68.74 55.25 69.86 54.96 72.51 58.69 74.57"/>
        <polygon class="cls-17" points="59.82 73.58 60.96 72.6 60.19 68.01 57.86 67.61 56.55 68.74 59.82 73.58"/>
        <polygon class="cls-6" points="59.82 73.58 58.69 74.57 54.96 72.51 55.25 69.86 56.55 68.74 59.82 73.58"/>
        <polygon class="cls-20" points="56.03 70.63 57.57 70.26 58.3 68.67 60.19 68.01 39.62 37.52 38.16 38.79 35.88 40.76 34.4 42.02 54.96 72.51 56.03 70.63"/>
        <polygon class="cls-13" points="35.88 40.76 38.16 38.79 58.3 68.67 57.57 70.26 56.03 70.63 35.88 40.76"/>
        <polygon class="cls-21" points="34.4 42.02 35.88 40.76 56.03 70.63 54.96 72.51 34.4 42.02"/>
        <polygon class="cls-15" points="38.16 38.79 39.62 37.52 60.19 68.01 58.3 68.67 38.16 38.79"/>
        <polygon class="cls-20" points="61.6 76.21 60.96 72.6 59.82 73.58 58.69 74.57 61.6 76.21"/>
        <polygon class="cls-22" points="59.82 73.58 61.6 76.21 58.69 74.57 59.82 73.58"/>
        <polygon class="cls-15" points="59.82 73.58 61.6 76.21 60.96 72.6 59.82 73.58"/>
        <polygon class="cls-17" points="39.15 36.82 36.54 39.06 37.02 39.77 39.62 37.52 39.15 36.82"/>
        <path class="cls-10" d="M37.65,40.58l2.6-2.25s-.86-1.29-1.82-1.46a3.3,3.3,0,0,0-2.59,1,4,4,0,0,0-1.57,2.55A4.49,4.49,0,0,0,35,42.83Z" transform="translate(-1.11 -1.51)"/>
        <polygon class="cls-6" points="33.92 41.32 36.54 39.06 37.02 39.77 34.4 42.02 33.92 41.32"/>
        <path class="cls-4" d="M34.27,40.45a4,4,0,0,1,1.57-2.55l1.81,2.68L35,42.83A4.49,4.49,0,0,1,34.27,40.45Z" transform="translate(-1.11 -1.51)"/>
        <path class="cls-4" d="M38.43,36.87a3.3,3.3,0,0,0-2.59,1l1.81,2.68,2.6-2.25S39.39,37,38.43,36.87Z" transform="translate(-1.11 -1.51)"/>
        <path class="cls-6" d="M224.47,74.36c0-.23,0-.47,0-.71.05-7.53,5.49-13.61,12.15-13.56s12,6.2,12,13.73c0,.24,0,.48,0,.72-.2,6.23-2.59,7.68-5.76,13.68a9.8,9.8,0,0,0-1,5l-5.41,0-5.41,0a9.64,9.64,0,0,0-.93-5C227,82.09,224.6,80.6,224.47,74.36Z" transform="translate(-1.11 -1.51)"/>
        <path class="cls-9" d="M240.16,102.92a1.91,1.91,0,0,0,1.62-1.72,1.65,1.65,0,0,0-.51-1.15,1.87,1.87,0,0,0,0-2.61,1.91,1.91,0,0,0,.55-1.33,1.62,1.62,0,0,0-.11-.62H243L243,92h-1.22a9.59,9.59,0,0,1,1-3.8c3.17-6,5.56-7.45,5.76-13.68,0-.24,0-.48,0-.72,0-7.53-5.32-13.68-12-13.73l-.26,45.43A3.9,3.9,0,0,0,240.16,102.92Z" transform="translate(-1.11 -1.51)"/>
        <path class="cls-14" d="M231,96a2.13,2.13,0,0,0,2.18,2l6.45,0a2.12,2.12,0,0,0,2.2-2h0a2.11,2.11,0,0,0-2.18-2l-6.45,0a2.13,2.13,0,0,0-2.2,2Z" transform="translate(-1.11 -1.51)"/>
        <path class="cls-13" d="M232.4,101.86a4,4,0,1,0,4-3.61A3.81,3.81,0,0,0,232.4,101.86Z" transform="translate(-1.11 -1.51)"/>
        <path class="cls-14" d="M231,98.69a2.11,2.11,0,0,0,2.17,2l6.45,0a2.11,2.11,0,0,0,2.2-2h0a2.11,2.11,0,0,0-2.18-2l-6.44,0a2.11,2.11,0,0,0-2.2,2Z" transform="translate(-1.11 -1.51)"/>
        <path class="cls-14" d="M231,101.12a2,2,0,0,0,2.18,1.82l6.45,0a2,2,0,0,0,2.2-1.79h0a2,2,0,0,0-2.18-1.83l-6.45,0a2,2,0,0,0-2.2,1.78Z" transform="translate(-1.11 -1.51)"/>
        <path class="cls-6" d="M235.87,57.36a.81.81,0,0,0,.74.85h0a.81.81,0,0,0,.75-.85l0-8.08a.81.81,0,0,0-.75-.86h0a.81.81,0,0,0-.75.85Z" transform="translate(-1.11 -1.51)"/>
        <path class="cls-11" d="M231.93,77.23a1,1,0,0,0-.29,1.39h0a.85.85,0,0,0,1.18,0,5.57,5.57,0,0,1,7.35,0,.84.84,0,0,0,1.18,0h0a1,1,0,0,0-.27-1.39A6.92,6.92,0,0,0,231.93,77.23Z" transform="translate(-1.11 -1.51)"/>
        <path class="cls-6" d="M242.53,58.79a.89.89,0,0,0,.36,1.13h0a.71.71,0,0,0,1-.4L247,52.21a.9.9,0,0,0-.35-1.13h0a.73.73,0,0,0-1,.4Z" transform="translate(-1.11 -1.51)"/>
        <path class="cls-6" d="M248,63.28a.92.92,0,0,0-.1,1.19h0a.69.69,0,0,0,1,.11l5.52-5.16a.92.92,0,0,0,.1-1.19h0a.7.7,0,0,0-1.06-.11Z" transform="translate(-1.11 -1.51)"/>
        <path class="cls-6" d="M251.34,70a.87.87,0,0,0-.54,1h0a.76.76,0,0,0,.92.61l6.92-2a.84.84,0,0,0,.54-1h0a.76.76,0,0,0-.91-.61Z" transform="translate(-1.11 -1.51)"/>
        <path class="cls-6" d="M251.83,77.62a.75.75,0,0,0-.87.68h0a.84.84,0,0,0,.61,1l7,1.46a.78.78,0,0,0,.88-.69h0a.85.85,0,0,0-.6-1Z" transform="translate(-1.11 -1.51)"/>
        <path class="cls-6" d="M249.33,84.7a.67.67,0,0,0-1,.25h0a.88.88,0,0,0,.12,1.13l5.26,4.22a.67.67,0,0,0,1-.24h0a.88.88,0,0,0-.12-1.14Z" transform="translate(-1.11 -1.51)"/>
        <path class="cls-6" d="M245.49,89.78c-.14-.29-.55-.34-.91-.1h0a.79.79,0,0,0-.39.93l2.51,5c.14.28.55.33.91.1h0a.8.8,0,0,0,.39-.94Z" transform="translate(-1.11 -1.51)"/>
        <path class="cls-6" d="M230.69,58.71a.91.91,0,0,1-.37,1.12h0a.71.71,0,0,1-1-.42l-3-7.35a.89.89,0,0,1,.37-1.12h0a.72.72,0,0,1,1,.41Z" transform="translate(-1.11 -1.51)"/>
        <path class="cls-6" d="M225.13,63.11a.93.93,0,0,1,.09,1.2h0a.69.69,0,0,1-1.06.09l-5.45-5.24a.92.92,0,0,1-.08-1.19h0a.68.68,0,0,1,1.05-.1Z" transform="translate(-1.11 -1.51)"/>
        <path class="cls-6" d="M221.75,69.76a.85.85,0,0,1,.53,1h0a.74.74,0,0,1-.93.59l-6.9-2.14a.86.86,0,0,1-.52-1h0a.74.74,0,0,1,.92-.59Z" transform="translate(-1.11 -1.51)"/>
        <path class="cls-6" d="M221.17,77.39a.75.75,0,0,1,.86.69h0a.84.84,0,0,1-.61,1l-7.06,1.35a.76.76,0,0,1-.86-.69h0a.84.84,0,0,1,.61-1Z" transform="translate(-1.11 -1.51)"/>
        <path class="cls-6" d="M223.6,84.51a.67.67,0,0,1,1,.27h0a.89.89,0,0,1-.13,1.13l-5.31,4.14a.68.68,0,0,1-1-.26h0a.88.88,0,0,1,.14-1.13Z" transform="translate(-1.11 -1.51)"/>
        <path class="cls-6" d="M227.37,89.65c.15-.29.56-.33.92-.09h0a.79.79,0,0,1,.37.94l-2.56,4.94c-.14.28-.55.32-.91.09h0a.8.8,0,0,1-.38-1Z" transform="translate(-1.11 -1.51)"/>
        <path class="cls-3" d="M237.62,92.89a.85.85,0,0,0,.56,1h0a.75.75,0,0,0,.9-.63l2.8-13.83a.86.86,0,0,0-.56-1h0a.76.76,0,0,0-.9.64Z" transform="translate(-1.11 -1.51)"/>
        <path class="cls-3" d="M235.21,92.87a.87.87,0,0,1-.58,1h0a.76.76,0,0,1-.89-.65L231.1,79.36a.85.85,0,0,1,.57-1h0a.75.75,0,0,1,.89.65Z" transform="translate(-1.11 -1.51)"/>
        <rect class="cls-11" x="234.68" y="87.1" width="3.47" height="13.23" transform="translate(139.88 327.93) rotate(-89.59)"/>
        <path class="cls-9" d="M236.42,92,243,92l0,3.48h-1.32a1.85,1.85,0,0,1,.12.62,2,2,0,0,1-.56,1.33,1.88,1.88,0,0,1,.54,1.33,1.93,1.93,0,0,1-.51,1.28,1.64,1.64,0,0,1,.5,1.15,1.89,1.89,0,0,1-1.61,1.71,3.9,3.9,0,0,1-3.83,2.61h0Z" transform="translate(-1.11 -1.51)"/>
        <g class="cls-23">
          <path class="cls-24" d="M237.36,57.36l0-8.08a.82.82,0,0,0-.75-.86l0,9.79A.81.81,0,0,0,237.36,57.36Z" transform="translate(-1.11 -1.51)"/>
          <path class="cls-24" d="M246.6,51.08a.73.73,0,0,0-1,.4l-3.06,7.32a.89.89,0,0,0,.35,1.12.71.71,0,0,0,1-.4L247,52.21A.91.91,0,0,0,246.6,51.08Z" transform="translate(-1.11 -1.51)"/>
          <path class="cls-24" d="M254.49,59.42a.91.91,0,0,0,.11-1.19.7.7,0,0,0-1.06-.11L248,63.28a.92.92,0,0,0-.1,1.19.69.69,0,0,0,1,.11Z" transform="translate(-1.11 -1.51)"/>
          <path class="cls-24" d="M250.8,71a.76.76,0,0,0,.92.61l6.92-2a.86.86,0,0,0,.54-1,.76.76,0,0,0-.92-.61l-6.93,2A.87.87,0,0,0,250.8,71Z" transform="translate(-1.11 -1.51)"/>
          <path class="cls-24" d="M258.87,79.07l-7-1.45a.75.75,0,0,0-.87.67.85.85,0,0,0,.6,1l7,1.46a.78.78,0,0,0,.88-.69A.84.84,0,0,0,258.87,79.07Z" transform="translate(-1.11 -1.51)"/>
          <path class="cls-24" d="M254.59,88.92l-5.26-4.22a.66.66,0,0,0-1,.25.87.87,0,0,0,.12,1.13l5.26,4.22a.67.67,0,0,0,1-.24A.91.91,0,0,0,254.59,88.92Z" transform="translate(-1.11 -1.51)"/>
          <path class="cls-24" d="M245.49,89.78c-.14-.29-.55-.34-.91-.1a.79.79,0,0,0-.39.93l2.5,5a.63.63,0,0,0,.92.1.8.8,0,0,0,.39-.94Z" transform="translate(-1.11 -1.51)"/>
        </g>
        <path class="cls-4" d="M111.67,51a17.69,17.69,0,0,0,2.06-8.37c0-8.95-6.41-16.2-14.33-16.2s-14.33,7.25-14.33,16.2A17.69,17.69,0,0,0,87.13,51c3.87,7.83,4.66,9.7,4.71,13.27.07,5.35,0,9.63,0,9.63H107s-.07-4.28,0-9.63C107,60.65,107.8,58.78,111.67,51Z" transform="translate(-1.11 -1.51)"/>
        <path class="cls-25" d="M99.4,76.29H94a5.4,5.4,0,0,0,10.75,0Z" transform="translate(-1.11 -1.51)"/>
        <path class="cls-12" d="M99.4,76.29H94.46c.73,4.11,4.94,4.11,4.94,4.11s4.21,0,4.94-4.11Z" transform="translate(-1.11 -1.51)"/>
        <polygon class="cls-11" points="95.96 65.47 89.98 45.62 90.55 45.4 96.52 65.25 95.96 65.47"/>
        <polygon class="cls-11" points="100.63 65.47 106.6 45.62 106.03 45.4 100.06 65.25 100.63 65.47"/>
        <path class="cls-12" d="M109.16,68.34a2.67,2.67,0,0,1-2.5,2.81H92.13a2.66,2.66,0,0,1-2.48-2.81h0a2.66,2.66,0,0,1,2.48-2.81h14.53a2.66,2.66,0,0,1,2.5,2.81Z" transform="translate(-1.11 -1.51)"/>
        <path class="cls-12" d="M109.16,73.85a2.67,2.67,0,0,1-2.5,2.81H92.13a2.66,2.66,0,0,1-2.48-2.81h0A2.66,2.66,0,0,1,92.13,71h14.53a2.66,2.66,0,0,1,2.5,2.81Z" transform="translate(-1.11 -1.51)"/>
        <path class="cls-4" d="M99.7,14.86a1,1,0,0,1,1,1.11v6.46a1.05,1.05,0,0,1-1,1.11h0a1.05,1.05,0,0,1-1-1.11V16a1,1,0,0,1,1-1.11Z" transform="translate(-1.11 -1.51)"/>
        <path class="cls-4" d="M86.69,18.68a.92.92,0,0,1,1.34.4l2.86,5.6a1.19,1.19,0,0,1-.36,1.51h0a.91.91,0,0,1-1.34-.41l-2.86-5.59a1.18,1.18,0,0,1,.36-1.51Z" transform="translate(-1.11 -1.51)"/>
        <path class="cls-4" d="M77.11,29.33a.93.93,0,0,1,1.34-.41l5,3.24a1.18,1.18,0,0,1,.35,1.51h0a.91.91,0,0,1-1.33.4l-5-3.23a1.19,1.19,0,0,1-.36-1.51Z" transform="translate(-1.11 -1.51)"/>
        <path class="cls-4" d="M73.53,44a1.05,1.05,0,0,1,1-1.11h5.72a1.05,1.05,0,0,1,1,1.11h0a1,1,0,0,1-1,1.1H74.51a1,1,0,0,1-1-1.1Z" transform="translate(-1.11 -1.51)"/>
        <path class="cls-4" d="M76.91,58.67a1.19,1.19,0,0,1,.36-1.51l5-3.23a.92.92,0,0,1,1.34.4h0a1.18,1.18,0,0,1-.36,1.51l-5,3.23a.92.92,0,0,1-1.34-.4Z" transform="translate(-1.11 -1.51)"/>
        <path class="cls-4" d="M112.71,18.68a.92.92,0,0,0-1.34.4l-2.86,5.6a1.19,1.19,0,0,0,.36,1.51h0a.9.9,0,0,0,1.33-.41l2.87-5.59a1.18,1.18,0,0,0-.36-1.51Z" transform="translate(-1.11 -1.51)"/>
        <path class="cls-4" d="M122.29,29.33a.93.93,0,0,0-1.34-.41l-5,3.24a1.18,1.18,0,0,0-.36,1.51h0a.92.92,0,0,0,1.34.4l5-3.23a1.19,1.19,0,0,0,.36-1.51Z" transform="translate(-1.11 -1.51)"/>
        <path class="cls-4" d="M125.87,44a1.05,1.05,0,0,0-1-1.11h-5.71a1.05,1.05,0,0,0-1,1.11h0a1,1,0,0,0,1,1.1h5.71a1,1,0,0,0,1-1.1Z" transform="translate(-1.11 -1.51)"/>
        <path class="cls-4" d="M122.49,58.67a1.19,1.19,0,0,0-.36-1.51l-4.95-3.23a.92.92,0,0,0-1.34.4h0a1.18,1.18,0,0,0,.36,1.51l5,3.23a.92.92,0,0,0,1.34-.4Z" transform="translate(-1.11 -1.51)"/>
        <polygon class="cls-14" points="97.16 55.23 95.03 35.56 93.5 45.74 90.83 45.74 90.83 45.07 93 45.07 95.13 30.87 97.24 50.49 98.73 40.32 100.04 46.24 101.77 36.66 103.35 45.07 106.35 45.07 106.35 45.74 102.86 45.74 101.78 39.97 100.09 49.29 98.85 43.66 97.16 55.23"/>
        <path class="cls-25" d="M92.63,46.92a1.3,1.3,0,1,1-1.29-1.46A1.38,1.38,0,0,1,92.63,46.92Z" transform="translate(-1.11 -1.51)"/>
        <path class="cls-25" d="M106.17,46.92a1.3,1.3,0,1,0,1.29-1.46A1.38,1.38,0,0,0,106.17,46.92Z" transform="translate(-1.11 -1.51)"/>
      </g>
    </g>
  </g>
</svg>
