<svg id="Camada_1" data-name="Camada 1" xmlns="http://www.w3.org/2000/svg" xmlns:xlink="http://www.w3.org/1999/xlink" viewBox="0 0 277.3 191.54">
  <defs>
    <style>
      .cls-1 {
        fill: #0071bc;
        fill-rule: evenodd;
        opacity: 0.1;
      }

      .cls-2 {
        fill: #ecb;
      }

      .cls-3 {
        fill: #1a3151;
      }

      .cls-4 {
        fill: #145566;
      }

      .cls-5 {
        fill: #0b141e;
      }

      .cls-6 {
        fill: #132235;
      }

      .cls-7 {
        fill: #dec099;
      }

      .cls-8 {
        fill: #9ea6ad;
      }

      .cls-9 {
        fill: #a57250;
      }

      .cls-10 {
        fill: #3ababa;
      }

      .cls-11, .cls-18, .cls-22 {
        fill: #fff;
      }

      .cls-11 {
        opacity: 0.47;
      }

      .cls-12 {
        fill: #42495b;
      }

      .cls-13 {
        fill: #e0ac92;
      }

      .cls-14 {
        fill: #486362;
      }

      .cls-15 {
        fill: #b3eefc;
      }

      .cls-16 {
        fill: #c1875d;
      }

      .cls-17 {
        fill: #5d6c7e;
      }

      .cls-19 {
        fill: #00718f;
      }

      .cls-20 {
        fill: #96b344;
      }

      .cls-21 {
        fill: #a2bd44;
      }

      .cls-22 {
        opacity: 0.07;
      }

      .cls-23 {
        opacity: 0.08;
      }

      .cls-24 {
        fill: #e0ae8c;
      }

      .cls-25 {
        fill: url(#Gradiente_sem_nome_8);
      }

      .cls-26 {
        fill: url(#Gradiente_sem_nome_8-2);
      }

      .cls-27 {
        fill: #32848b;
      }

      .cls-28 {
        fill: url(#Gradiente_sem_nome_8-3);
      }

      .cls-29 {
        fill: url(#Gradiente_sem_nome_8-4);
      }

      .cls-30 {
        fill: #c7d0d8;
      }
    </style>
    <linearGradient id="Gradiente_sem_nome_8" data-name="Gradiente sem nome 8" x1="47.08" y1="81.74" x2="75.2" y2="81.74" gradientUnits="userSpaceOnUse">
      <stop offset="0" stop-color="#3d9191"/>
      <stop offset="1" stop-color="#3d9191"/>
    </linearGradient>
    <linearGradient id="Gradiente_sem_nome_8-2" x1="19.51" y1="92.22" x2="46.52" y2="92.22" xlink:href="#Gradiente_sem_nome_8"/>
    <linearGradient id="Gradiente_sem_nome_8-3" x1="181.33" y1="131.13" x2="208.01" y2="131.13" xlink:href="#Gradiente_sem_nome_8"/>
    <linearGradient id="Gradiente_sem_nome_8-4" x1="207.71" y1="144.05" x2="235.96" y2="144.05" xlink:href="#Gradiente_sem_nome_8"/>
  </defs>
  <path class="cls-1" d="M233.26,60.92C247,57.2,260.1,52.91,270,73.4c12.58,26,9.82,61.26-6.72,79.4-9.51,10.42-22.27,15.91-35.41,18.59-14.62,3-31.24-1.21-45.38,2.15-12.74,3-23.45,12-36,15.88-13.13,4-27,3.36-40.95.49-15.71-3.24-30.72-9.78-45.07-19.15C36.4,155,11.19,131,2.86,99.39-4.3,72.22,5.94,42.1,25.57,28.8c14.59-9.88,33-12.71,48.31,1.8a61.8,61.8,0,0,0,26,14.15c13.67,3.3,13.86-8.53,24.76-14.12,15.75-8.07,34.53-14.12,52.22-2.16,15.45,10.45,20.47,34.36,40.55,35.05C222.64,63.71,228,62.36,233.26,60.92Z" transform="translate(-0.58 -0.71)"/>
  <g>
    <g>
      <g>
        <polygon class="cls-2" points="215.78 59.46 216.27 56.38 217.64 56.55 217.78 58.74 218.46 58.53 217.7 61.11 216.26 61.12 215.78 59.46"/>
        <path class="cls-3" d="M232.34,85.53a2.94,2.94,0,0,0,.08-.8,5.08,5.08,0,0,0-1.54-3.21,53.21,53.21,0,0,0-4.64-3.65l-5.14-4.28L218.84,61,216,61.2l-.26,15.66c2.36,1.79,4.68,3.52,6.92,5.44,2,1.71,3.79,4,6.45,4.7C230.6,87.42,232,86.85,232.34,85.53Z" transform="translate(-0.58 -0.71)"/>
      </g>
      <g>
        <g>
          <polygon class="cls-4" points="239.96 116.07 241.06 123.43 238.84 164.93 235.11 164.18 228.92 117 239.96 116.07"/>
          <polygon class="cls-4" points="221.63 114.69 220.91 142.2 228.15 165.95 232.37 164.44 228.81 143.26 232.08 114.45 221.63 114.69"/>
          <path class="cls-5" d="M233,162.93l-5.05,2.23,1.7,3.41L227,170.18s-.25,1.42.64,2,6.65-4.07,6.65-4.07Z" transform="translate(-0.58 -0.71)"/>
          <path class="cls-5" d="M240.53,163.73l-5.48.9.72,3.71-3,.9s-.62,1.3.07,2.11,7.53-2.27,7.53-2.27Z" transform="translate(-0.58 -0.71)"/>
        </g>
        <path class="cls-6" d="M229.88,70.53A14.09,14.09,0,0,0,231.54,74a23.81,23.81,0,0,1,1-6.65.62.62,0,0,0,0-.5.59.59,0,0,0-.42-.23C229.25,66,229.2,68.4,229.88,70.53Z" transform="translate(-0.58 -0.71)"/>
        <g>
          <path class="cls-2" d="M231.46,74.05a4.29,4.29,0,0,0,1.79,2.54,3.29,3.29,0,0,0,3.3-.19c2.88-1.68,7.89-11,.36-13.25C230.08,61.08,230.21,70.22,231.46,74.05Z" transform="translate(-0.58 -0.71)"/>
          <path class="cls-6" d="M237.4,74.09c.45.65,1.47.5,2.2.17a7.46,7.46,0,0,0,4.22-7.89c-.48-2.62-3.83-4.66-4.6-1.44-.28,1.14.41,2.74.21,4A17.68,17.68,0,0,1,237.4,74.09Z" transform="translate(-0.58 -0.71)"/>
          <path class="cls-6" d="M230.06,59.8c-3.43,1.83-5,5.86-8.09,8.12a12,12,0,0,0,9,.22c2.82-1.09,9.51-1.75,8.64-5.52S233.06,58.2,230.06,59.8Z" transform="translate(-0.58 -0.71)"/>
        </g>
        <path class="cls-3" d="M243.35,83.55c2,3.29,2,7,1.68,10.57-.62,8.06.18,17.4-2.7,25.1-5.43,0-15.85-2.41-21.26-3-1.06-7-.44-11.1.15-19,.29-3.91.92-9.16,2.36-12.88,1.17-3,4.3-7,9-6.87A14,14,0,0,1,243.35,83.55Z" transform="translate(-0.58 -0.71)"/>
        <path class="cls-2" d="M234.49,79.12a1.54,1.54,0,0,1-1.68-.43c-.51-.47-.35-.63-.25-1.32.16-1,.44-2.05.66-3.06l2.93.58-.63,2.94A1.83,1.83,0,0,1,234.49,79.12Z" transform="translate(-0.58 -0.71)"/>
      </g>
      <g>
        <polygon class="cls-2" points="247.34 59.07 246.06 55.72 244.57 56.21 244.92 58.69 244.11 58.6 245.56 61.34 247.18 61.03 247.34 59.07"/>
        <path class="cls-3" d="M235.92,91.69a2.93,2.93,0,0,1-.27-.88,5.76,5.76,0,0,1,1-3.94c1.18-1.86,3-3.38,4.36-5.1l4.75-5.91-.4-14.57,3.24-.44,4,17.5c-2.24,2.52-4.43,5-6.49,7.6-1.85,2.36-3.33,5.27-6.14,6.68C238.32,93.43,236.62,93.1,235.92,91.69Z" transform="translate(-0.58 -0.71)"/>
      </g>
    </g>
    <g>
      <g>
        <g>
          <polygon class="cls-7" points="178.46 162.42 178.45 166.56 180.94 166.57 180.95 161.97 178.46 162.42"/>
          <polygon class="cls-7" points="189.79 161.81 190.28 166.29 192.97 166.01 192.43 161.05 189.79 161.81"/>
        </g>
        <path class="cls-5" d="M193.51,166.57l-2.42.53-.77.67,0,1.76,6.31,1.13h0a1.4,1.4,0,0,0-.51-2.18l-.29-.13Z" transform="translate(-0.58 -0.71)"/>
        <path class="cls-5" d="M181.52,167.28H179l-.87,1.1.17,1.76,6.4.38.19-.4a1.29,1.29,0,0,0-1-1.8l-.14,0Z" transform="translate(-0.58 -0.71)"/>
      </g>
      <g>
        <polygon class="cls-3" points="172.81 122.52 175.17 142.96 176.11 165.84 184.13 165.87 187.33 108.25 174.41 108.45 172.81 122.52"/>
        <polygon class="cls-3" points="196.72 119.8 198.46 139.74 196.26 165.8 188.48 165.58 187.36 140.25 186.04 122.07 184.69 108.52 194.01 108.26 196.72 119.8"/>
      </g>
      <polygon class="cls-8" points="191.85 75.24 175.32 77.37 173.5 81.79 173.21 97.09 171.57 110.19 192.7 110.29 197.97 109 196.31 95.26 195.51 80.1 191.85 75.24"/>
      <g>
        <polygon class="cls-9" points="205.71 74.63 206.23 70.71 204.53 70.41 203.57 73.01 202.83 72.5 202.8 75.92 204.53 76.46 205.71 74.63"/>
        <polygon class="cls-8" points="191.24 78.62 199.76 84.45 202.41 74.75 205.78 76.01 204.09 95.95 201.15 96.5 189 88.57 191.24 78.62"/>
      </g>
      <g>
        <path class="cls-9" d="M170.79,55.93q1.08-1.4,2.16-2.82l1.28.9c-.34.75-.68,1.51-1,2.26l.79.15c-.74.73-1.49,1.43-2.24,2.15-.48-.24-1-.5-1.44-.72C170.47,57.21,170.66,56.58,170.79,55.93Z" transform="translate(-0.58 -0.71)"/>
        <path class="cls-8" d="M178.36,86.54a2.15,2.15,0,0,0,.23-.91,5.64,5.64,0,0,0-1.16-3.71c-1.27-1.69-3-2.89-4.3-4.48a57.11,57.11,0,0,1-4-5.69,66.89,66.89,0,0,1,3.65-13.66c-1-.44-2-.89-3-1.32a91.74,91.74,0,0,0-7.69,16.7c1.91,2.74,3.77,5.4,5.88,8,1.9,2.35,3.67,4.92,6.52,6.23A2.76,2.76,0,0,0,178.36,86.54Z" transform="translate(-0.58 -0.71)"/>
      </g>
      <path class="cls-9" d="M183.59,76.73l.2-.89h0a5.79,5.79,0,0,1-2.93-4.5,9.33,9.33,0,0,1,.3-3.56,7.38,7.38,0,0,1,1.09-1.91,5.3,5.3,0,0,1,3.3-2.11c.52-.07.37.36.95,0a1.16,1.16,0,0,0,.24-.28l.21.15a9.18,9.18,0,0,0,2.23,1,3.41,3.41,0,0,1,2,3.21,4,4,0,0,0,.07,1.69c.2.44.64.7,1,1.06a2.31,2.31,0,0,1,.4.74,8,8,0,0,1-5.16,5v0c0,.14,0,.28,0,.42a1.54,1.54,0,0,1-1,1.43,1.93,1.93,0,0,1-.86-.05l-1.73-.38a.43.43,0,0,1-.31-.16.44.44,0,0,1,0-.3Z" transform="translate(-0.58 -0.71)"/>
      <path class="cls-6" d="M169.46,63.84a5.9,5.9,0,0,1,3.67.79,3.32,3.32,0,0,1,2.15-2.77c1.1-.51,2.32-.71,3.38-1.31,1.27-.73,2.42-2.08,3.84-1.93s2.27,1.45,3.25,2.59l.05-.07a6.1,6.1,0,0,1,1.72-1.75C189.78,58,190,61,191.84,60.55c.44-.11.76-.51,1.16-.76a2.75,2.75,0,0,1,2.47,0,18.39,18.39,0,0,0,2.35,1,16.35,16.35,0,0,1,2.22.39c1.05.4,1,1.44,1.36,2.33A9.7,9.7,0,0,0,203,66.5a10.06,10.06,0,0,0,1.84,1.24,2.36,2.36,0,0,1,1.2,1.81c0,.73-.47,1.41-.52,2.15a10.06,10.06,0,0,1-.15,2.78,3.41,3.41,0,0,1-.77,1.61,2.63,2.63,0,0,1-2.18.46,4.89,4.89,0,0,0-2.25,0c-1.57.57-1.22,2.11-1.59,3.41A3.77,3.77,0,0,1,197,82a3.7,3.7,0,0,1-3.18.49,4.09,4.09,0,0,1-2.52-3.93,13.77,13.77,0,0,1,.27-1.82,5.36,5.36,0,0,0,.06-.69c0-.82-.53-2,.22-2.62.18-.17.42-.26.58-.44a1.14,1.14,0,0,0,.24-.55,2.19,2.19,0,0,0-.07-1.19,2.31,2.31,0,0,0-.4-.74c-.32-.36-.76-.62-1-1.06a4,4,0,0,1-.07-1.69,3.41,3.41,0,0,0-2-3.21,9.18,9.18,0,0,1-2.23-1l-.21-.15a1.16,1.16,0,0,1-.24.28c-.58.41-.43,0-.95,0a5.3,5.3,0,0,0-3.3,2.11,7.38,7.38,0,0,0-1.09,1.91,7.62,7.62,0,0,0-.48,3.83c.25,1.83,1.36,2.48.78,4.45a6.43,6.43,0,0,1-.53,1.27,6.18,6.18,0,0,1-2.62,2.57l-.4,0a5.14,5.14,0,0,1-1.95-.21,6,6,0,0,1-1.75-.89,5.55,5.55,0,0,1-1.81-2.35,3.1,3.1,0,0,0-.79-1.42c-.34-.27-.81-.32-1.16-.57-1.46-1.07.53-3.74-.31-5.38-.52-1-2-1.25-2.48-2.31S168.2,64.12,169.46,63.84Z" transform="translate(-0.58 -0.71)"/>
    </g>
    <g>
      <g>
        <path class="cls-10" d="M210.29,21.65s-15.22,16.27-15.22,29.84,10.53,16.79,15.22,16.79,15.21-3.23,15.21-16.79S210.29,21.65,210.29,21.65Z" transform="translate(-0.58 -0.71)"/>
        <path class="cls-11" d="M200.58,56.83v0a9.26,9.26,0,0,1-.37-1.9,29.32,29.32,0,0,1,.07-3,41,41,0,0,1,.87-6A64.51,64.51,0,0,1,205.07,34q1.13-2.59,2.42-5.12c.41-.79.83-1.58,1.26-2.36.11-.21,1.33-2.17,1.26-2.23l0,0s-13.71,16.3-13,29.29c.05.84.14,1.67.27,2.5.07.4.15.8.24,1.19a2.78,2.78,0,0,0,.21,1,1.92,1.92,0,0,0,1.5.89,1.13,1.13,0,0,0,1.22-.62A2.76,2.76,0,0,0,200.58,56.83Z" transform="translate(-0.58 -0.71)"/>
      </g>
      <path class="cls-11" d="M202.54,60.48a1.46,1.46,0,0,0-1-.4,1.53,1.53,0,0,0-.82.26,1.36,1.36,0,0,0-.68,1.53,1.49,1.49,0,0,0,2.17.84A1.4,1.4,0,0,0,202.54,60.48Z" transform="translate(-0.58 -0.71)"/>
    </g>
    <g>
      <g>
        <polygon class="cls-5" points="139.82 169.46 139.46 171.24 135.6 172.43 134.2 170.36 136.31 168.88 140.18 167.68 139.82 169.46"/>
        <polygon class="cls-8" points="148.11 125.16 140.12 168.92 136.5 169.04 134.35 138.62 133.34 123.5 148.11 125.16"/>
      </g>
      <g>
        <polygon class="cls-8" points="159.05 124.69 153.91 167.59 150.59 167.87 147.09 135 144.3 125.31 159.05 124.69"/>
        <polygon class="cls-5" points="150.58 167.46 150.74 169.31 154.49 170.85 156.12 168.85 154.16 167.16 150.58 167.46"/>
      </g>
      <polygon class="cls-12" points="134.2 125.95 132.57 120.89 134.2 115.16 159.05 115.99 159.05 124.69 134.2 125.95"/>
    </g>
    <g>
      <polygon class="cls-13" points="111.65 81.15 111.16 83.29 107.4 82.92 106.55 80.78 107.8 79.22 109.17 80.35 109.26 79.94 108.93 79.45 109.44 79.14 111.65 81.15"/>
      <polygon class="cls-14" points="139.33 75.6 125.16 82.11 111.22 80.17 110.32 83.41 126.44 88.41 147.29 81.71 139.33 75.6"/>
    </g>
    <g>
      <path class="cls-13" d="M148,63.61c-2.51,1.51-6.06.64-8.36,2.47A5.45,5.45,0,0,0,138,71.29a4.65,4.65,0,0,0,1.15,2.4,4.54,4.54,0,0,0,1.46,1,6.56,6.56,0,0,0,2.26.5,11.65,11.65,0,0,1-.35,2l4.32-.48-.27-2.44a5.77,5.77,0,0,0,1-.71,6.79,6.79,0,0,0,2-6.77A12.9,12.9,0,0,0,148,63.61Z" transform="translate(-0.58 -0.71)"/>
      <path class="cls-6" d="M141.43,65.61l.31-.1a11.36,11.36,0,0,1,4.71-.44,2.92,2.92,0,0,1,2.67,1.62,4.82,4.82,0,0,1,.16,1.56l0,2a.65.65,0,0,0,.06.34c.18.32.71.18.93-.11a11.2,11.2,0,0,0,2.09-4c.21-1-.17-2.26.28-3.24a5.87,5.87,0,0,1,.95-1.17,3.25,3.25,0,0,0,.61-3,2.62,2.62,0,0,0-1.32-1.56c-1.06-.49-2.35-.06-3.5-.31-.59-.12-1.13-.42-1.72-.51a4.41,4.41,0,0,0-3.4,1.3,12.19,12.19,0,0,1-3,2.25c-.93.39-2,.44-2.94.76a5.6,5.6,0,0,0-3.43,3.38,5.14,5.14,0,0,0,.86,5.26,18.44,18.44,0,0,1,1.76,2.2c.19.27,1.3,1.25,1.22.22-.07-.8-.4-1.56-.46-2.36C138.13,67.71,139.65,66.25,141.43,65.61Z" transform="translate(-0.58 -0.71)"/>
    </g>
    <path class="cls-15" d="M152.08,77.25l-12-1s-4,5-8.33,19.31a55.32,55.32,0,0,0-1.13,27s13.56-2.36,32.7-.24l-5.57-35.55Z" transform="translate(-0.58 -0.71)"/>
    <g>
      <g>
        <polygon class="cls-16" points="112.11 62.05 113.5 60.64 113.45 58.92 113.82 58.72 114.09 59.15 114.46 57.71 115.46 56.99 117.02 57.49 117.96 58.86 117.28 60.33 115.69 61.45 113.87 63.46 112.11 62.05"/>
        <polygon class="cls-8" points="111.62 60.84 98.29 75.3 90.38 75.65 91.89 87.76 102.36 83.26 105.21 81.34 115.71 63.09 111.62 60.84"/>
      </g>
      <g>
        <polygon class="cls-5" points="90.28 167.81 90.28 169.44 94.64 171.55 96.82 169.44 94.64 167.34 94.36 167.34 94.29 167.81 90.28 167.81"/>
        <polygon class="cls-5" points="79.55 167.34 79.25 167.34 77.07 169.44 79.25 171.55 83.61 169.44 83.61 167.81 79.6 167.81 79.55 167.34"/>
        <g>
          <path class="cls-8" d="M104.72,119.63c-.28-2.76-.56-5.52-.91-8.27a100.19,100.19,0,0,0-3.22-16.28c-.6-2-1.3-4-2-6Q97.3,85.4,96,81.73a9.22,9.22,0,0,0-6-6.22,11,11,0,0,0-1.76-.44c0,.06,0,.12,0,.19a1.53,1.53,0,0,1-.31.83H90S95.8,96,96,99.43c.09,1.3.36,4.14.66,7.14l3.15.46.13,11.46.53.14a9.1,9.1,0,0,1,2.64,1.54C104.35,121,104.88,121.33,104.72,119.63Z" transform="translate(-0.58 -0.71)"/>
          <path class="cls-17" d="M96.67,106.57c.47,4.74,1,9.87,1,9.87s-2.55.06-6.23.33l.82,0c2.56,0,5.22,1,7.67,1.74L99.82,107Z" transform="translate(-0.58 -0.71)"/>
          <path class="cls-8" d="M85,76.05c.12,0,0-1-.1-1.12a9.32,9.32,0,0,0-6.76,2.94,16.11,16.11,0,0,0-2.36,4.45,67.59,67.59,0,0,0-3.44,13.1c-.56,3-1.08,5.89-1.49,8.82a88.47,88.47,0,0,0-.86,9.69c0,.35-.09,1.35-.13,2.53-.08,2.49,0,5.82,1,5.94a1.06,1.06,0,0,0,.57-.15A38.36,38.36,0,0,0,75.11,120c.43-.26.87-.51,1.34-.74a18.27,18.27,0,0,1,3-1.05c-1.76.09-2-.23-2-.23s1.59-6.25,2.7-11.68a50.18,50.18,0,0,0,1.07-6.78c.12-4.22.67-18.14.67-18.14l2.66-5.33H85Z" transform="translate(-0.58 -0.71)"/>
          <path class="cls-3" d="M100,118.49c-2.45-.69-5.11-1.76-7.67-1.74l-.82,0-.7,0c-1.71.13-3.64.31-5.66.55l-.29,0a37,37,0,0,1-5.34.81,18.27,18.27,0,0,0-3,1.05c-.47.23-.91.48-1.34.74v2.7L80,168.58h4v.47h0l4.43-30.78,0-.17,2.42,31h0v-.47h4l5.13-34.46Z" transform="translate(-0.58 -0.71)"/>
          <path class="cls-18" d="M96.67,106.57c-.3-3-.57-5.84-.66-7.14C95.8,96,90,76.1,90,76.1H87.94a.46.46,0,0,1-.07.07.66.66,0,0,1-.22.12,1.14,1.14,0,0,1-.52,0l-2-.24h-.5l-2.66,5.33s-.55,13.92-.67,18.14a50.18,50.18,0,0,1-1.07,6.78c-1.11,5.43-2.7,11.68-2.7,11.68s.22.32,2,.23a37,37,0,0,0,5.34-.81l.29,0c2-.24,4-.42,5.66-.55l.7,0c3.68-.27,6.23-.33,6.23-.33S97.14,111.31,96.67,106.57Z" transform="translate(-0.58 -0.71)"/>
        </g>
      </g>
      <g>
        <polygon class="cls-16" points="89.27 102.49 90.88 103.64 92.61 103.35 92.86 103.68 92.46 104 93.97 104.16 94.83 105.03 94.53 106.62 93.27 107.72 91.69 107.27 90.35 105.88 88.08 104.39 89.27 102.49"/>
        <polygon class="cls-8" points="90.69 102.42 82.16 95.78 81.46 78.64 74.66 85.3 73.43 96.33 75.09 100.49 89.53 106.28 90.69 102.42"/>
      </g>
      <g>
        <path class="cls-6" d="M91.67,63.37a7,7,0,0,1,.72,3.27,1,1,0,0,0,.24.83c.25.2,0,.61.21.36a5.33,5.33,0,0,0,1-1.4,11.18,11.18,0,0,0,.11-2.24,3.13,3.13,0,0,0-.53-1.85,3.63,3.63,0,0,0-.9-.75A4.82,4.82,0,0,0,91,60.83c-.95-.23-1.57.08-.75.79A5.74,5.74,0,0,1,91.67,63.37Z" transform="translate(-0.58 -0.71)"/>
        <path class="cls-16" d="M85,75.8l4,.57A23.11,23.11,0,0,0,89.5,73c1.17-.14,2.55-.44,3-1.61a3.89,3.89,0,0,0,.19-1.18l.3-5a4.56,4.56,0,0,0-.1-1.69,3.45,3.45,0,0,0-2-1.94,7.71,7.71,0,0,0-6.88.06A3.75,3.75,0,0,0,82.55,63,5.69,5.69,0,0,0,82,66l.06,2.91c0,1.12.12,2.4,1,3,.45.34,1.05.43,1.43.85C85.17,73.54,84.78,74.78,85,75.8Z" transform="translate(-0.58 -0.71)"/>
        <path class="cls-6" d="M93.15,69.55c0-.31-.1-1.21-.59-.67a.85.85,0,0,0-.19.54,1.91,1.91,0,0,1-.1.58,1.05,1.05,0,0,1-1.08.56,1.12,1.12,0,0,1-.48-.14,1.75,1.75,0,0,1-.36-.36l-.77-1c-.44-.56-1.39-.38-2-.33a4.15,4.15,0,0,0-2.1.68l-.19.14a2.34,2.34,0,0,1-.47.3,1.43,1.43,0,0,1-1.63-.6c-.17-.24-.32-.55-.6-.6A.57.57,0,0,0,82,69a1.54,1.54,0,0,0-.2.67,4.87,4.87,0,0,0,.31,2.51c.73,1.68,2.3,2,3.89,2l1.88,0a6,6,0,0,0,3.36-.55A4.07,4.07,0,0,0,93,71.16,6.75,6.75,0,0,0,93.15,69.55Zm-4.32,2.11a2.23,2.23,0,0,1-2,.12c-.28-.1-.14-.56.14-.46a1.8,1.8,0,0,0,1.6-.1C88.88,71.07,89.09,71.5,88.83,71.66Z" transform="translate(-0.58 -0.71)"/>
        <path class="cls-6" d="M93.86,60.62a8.55,8.55,0,0,0,.3-1.21,2.52,2.52,0,0,1-1.22,0l0-.71a14.28,14.28,0,0,0-2.93-.5c-2.06-.28-3.94-.53-5.87.47a5.55,5.55,0,0,0-3.09,4,8.38,8.38,0,0,0,1.08,5.49,11.12,11.12,0,0,1-.06-2,4,4,0,0,1,.5-1.23,5.19,5.19,0,0,1,1.94-1.81A10.51,10.51,0,0,1,88.66,62a11.23,11.23,0,0,1,4.13.21c.61.19.7.35,1.11-.24a11,11,0,0,0,.6-1.33Z" transform="translate(-0.58 -0.71)"/>
      </g>
    </g>
    <ellipse class="cls-19" cx="131.84" cy="113.75" rx="40.11" ry="38.71"/>
    <path class="cls-20" d="M142,76.87c.71.17,1.42.35,2.12.56Z" transform="translate(-0.58 -0.71)"/>
    <g>
      <path class="cls-21" d="M143.15,80.19l.51.15.16-.1A4.68,4.68,0,0,1,143.15,80.19Z" transform="translate(-0.58 -0.71)"/>
      <path class="cls-21" d="M141.18,82.08c1.23,0,3.08,2,4,1.37,1.3-.85,1-1.64,1.34-2.08-1-.38-1.91-.72-2.89-1Z" transform="translate(-0.58 -0.71)"/>
      <path class="cls-21" d="M143.15,80.19c-.39-.12-.78-.23-1.18-.33A4.42,4.42,0,0,0,143.15,80.19Z" transform="translate(-0.58 -0.71)"/>
      <path class="cls-22" d="M164.53,96.64a36.34,36.34,0,0,0-6.75-8.23l-.11-.1-.81-.71-.12-.1-.83-.68-.1-.08c-.29-.23-.58-.46-.88-.68l-.07,0-.94-.67,0,0-1-.67h0c-.69-.45-1.4-.87-2.13-1.27h0A37.64,37.64,0,0,0,137.8,79h0l-.82-.11-.46,0c-.17,0-.35,0-.53-.06h0c-.74-.07-1.5-.12-2.25-.15h0l-.49,0H131l-.53,0-.42,0-.4,0-.5,0-.23,0c-1,.08-1.91.19-2.85.34h0l-.75.13h0l-1,.19h0c-.31.07-.62.13-.92.21h0l-.9.22h-.06l-.89.25h0l-.92.28h0A37.53,37.53,0,0,0,111.1,85h0A35.54,35.54,0,0,0,95,114.55a35,35,0,0,0,7.72,21.91,34.78,34.78,0,0,1-4.95-17.91,35.34,35.34,0,0,1,12.86-27.17l.17-.14.48-.39.27-.21.39-.31.3-.22.38-.28.31-.22.38-.27.32-.22.39-.26.32-.21.39-.25.33-.2.41-.25.32-.19.44-.25.3-.17.51-.27.24-.13.76-.39.23-.11.54-.26.31-.14.47-.21.34-.15.46-.19.35-.14.45-.18.36-.14.46-.16.36-.13.46-.16.36-.12.49-.15.35-.11.53-.15.31-.09.68-.18.17,0,.85-.2.26-.06.61-.12.33-.07.54-.1.37-.06.51-.08.38-.06.51-.07.39,0,.51-.06.39,0,.52,0,.38,0,.55,0,.36,0,.61,0h1.46A38.45,38.45,0,0,1,150.75,86l.14.07.71.33.31.15.55.28.31.16.65.35.26.14c.23.13.46.26.68.4a3.37,3.37,0,0,1,.32.19l.49.29.33.21.52.34.25.17h0A36.86,36.86,0,0,1,164.53,96.64Z" transform="translate(-0.58 -0.71)"/>
    </g>
    <g>
      <path class="cls-10" d="M132.08,79.37h0Z" transform="translate(-0.58 -0.71)"/>
      <g>
        <path class="cls-10" d="M146.52,78.22a11.88,11.88,0,0,0-3.41,0,4.84,4.84,0,0,0,1-.84c-.7-.21-1.41-.39-2.12-.56l-.16,0c-1,.32-1.11.36-1,1a8.14,8.14,0,0,1-1.07-.51h-4.64c2.94,3.14-2.76,2.93-4.84,2.94-.39,0-.47-.74-.26-.93a12.94,12.94,0,0,1,2,0c1.9,0,1.66-.15,1.66-2-1.89,1.34-1.82,0-4,0a9.86,9.86,0,0,0-4.75.87l1.72,1.41c-.72-.16-3.07-1-3.72-.78-.29.12-.37.89-.74.89-1.5,0-5.56.79-5.56-.87l-.07,0a40.72,40.72,0,0,0-10.12,6,24.82,24.82,0,0,1,4.37-.2,17.82,17.82,0,0,1,1.42,3.3c.06,1.33-.88,1.86-1.58,3.13a15.39,15.39,0,0,0-1.69,7.93c0,.09,1.6,1.48,1.6,2,0,2.3.25,2.34,1.89,4v-2.83c1,2.48,2.16,3.43,3,5.85,1,2.74,5,.63,6.31,2.44.59.8,1.7.43,2.22,1.21l1.44,2.11c.86,1.27,1.91.83,3.46.83s-1.35,4.94-1.35,5.36c0,1.71,2.42,5.61,2.41,6.3-.05,2,2.58,2.32,4,3.57,1.15,1,.33,3.87.3,5.14a7.83,7.83,0,0,0,.54,3h0c.31.85.71,1.66,1.07,2.5l.18.45.07.19.14.38.07.21.12.4c0,.06,0,.12,0,.19a5.29,5.29,0,0,1,.13.6c.19,1-.22,2.16,0,3.16s1.16,1.66,1.14,2.79c0,1.75,5.08,2.08,6.07,2.08,0,0-3.72-1.86-3.72-1.64,0-1.66.88-1.54.88-2.55,0-1.21-1.13-2.2-.42-3.9s.67-1.79,2.74-1.79a11.06,11.06,0,0,0-.4-2.49c1.85-2.78,6.15-5.46,7.28-6.21,1.55-1,.68-3.77,1.35-5.23.59-1.29,2.37-2.48,2.46-4.06a1.77,1.77,0,0,0,0-.24v-.05l0-.17s0,0,0,0a.75.75,0,0,0,0-.16v0a.86.86,0,0,0-.1-.16h0a2,2,0,0,0-1.74-.64c-.91,0-1-1.44-1.69-1.44a9.45,9.45,0,0,1-5.58-1.5c-.27-.2-.58-2.56-1.05-3.15-.68-.84-2.83.63-3.67-.51-.31-.43-1.06-2.12-1.57-2.12-.7,0-4.53-.72-5.34,0,.13-.1-1.31-.52-1.51-.52.09,0-4.92,2.5-4.92,1.2,0-1.69.85-3.87-1.23-3.87-3.33,0-.49-.83-.49-2.3,0-1.89-3.23.51-4.93.52,0,0-1.91-3.1-1-3.1.68,0,.78-1.33,1.28-1.89,1.32-1.49,3.57-1.64,5.15-1.37a8.85,8.85,0,0,1,3,3.25c0-.12,1-.71,1.08-.9.45-.68.19-1,.31-1.65.38-2.27.48-2.72,2.36-4.11a24.71,24.71,0,0,0,4.4-3.5,7.46,7.46,0,0,1,2.81-2.1c-.12.06,1.14.75,1.41.75,1.09,0,1.35-.89,2-1.69h-1.89c2.13-1.57-1.73-2.39,2.55-2.39,2.1,0,2.29,0,3.57-1.41-2,0-1.54,0-1.54-2,0-.33-.58-1.56-1.13-1-1.51,1.43-1.45-.26-2.11-1.21-.86-1.23-1.78,0-2.13.78-.44.93-4.07,2.37-4.06,3.58,0,.71-1.19.68-1.17-.11,0-1.18-4.21-2.31-4.28-2.78s2.1-2.25,4-2.25c.87,0,.44-1,.71-1,1.82,0,4-.54,4.95-2-.25,0-2.58,0-2.58,0,0-.8-.35-1.29.6-1.29,2.24,0,2.9,1.69,5.36,1.69l-2.64,1.84c1.23,0,3.08,2,4,1.37,1.75-1.14.57-2.17,2-2.4a1.77,1.77,0,0,0,.71.43c.45.15,2.09.43,2.37.83s1.19,3.35.56,3.6c-1,.4-4,3.52-1.71,4.29,1.76.6,2.21-.15,3.77-1.1s1.86-.56,3.5,0a10.65,10.65,0,0,1,2.33.17c1.38.47,1.28-.38,1.43-.33a3.94,3.94,0,0,0,2.41,0A40.12,40.12,0,0,0,146.52,78.22Z" transform="translate(-0.58 -0.71)"/>
        <path class="cls-10" d="M129.87,105.17l-.81.78c2.52,0,4.06.79,6.3.79C133.86,104.46,132.68,105.17,129.87,105.17Z" transform="translate(-0.58 -0.71)"/>
        <path class="cls-10" d="M138.21,107.13c-2,0-2.12.24-3.37,1.58h3.21C139,108.72,138.85,107.15,138.21,107.13Z" transform="translate(-0.58 -0.71)"/>
        <path class="cls-10" d="M141.09,109.17c0-2.74-2.9,0,0,0Z" transform="translate(-0.58 -0.71)"/>
      </g>
    </g>
    <g class="cls-23">
      <path d="M153.41,81.43a37.59,37.59,0,0,1,6.31,20.85c0,21.37-18,38.7-40.12,38.7a41,41,0,0,1-21-5.71,40.44,40.44,0,0,0,33.8,17.86c22.16,0,40.12-17.33,40.12-38.71A38.43,38.43,0,0,0,153.41,81.43Z" transform="translate(-0.58 -0.71)"/>
    </g>
    <polygon class="cls-15" points="151.68 80.57 164.19 91.66 168.87 104.41 172.24 103.67 169.35 87.66 151.62 76.71 151.68 80.57"/>
    <polygon class="cls-13" points="169.56 103.59 171.74 103.01 173.14 106.38 171.58 108.08 169.58 107.75 169.97 106.06 169.56 106.17 169.27 106.68 168.75 106.39 169.56 103.59"/>
    <g>
      <polygon class="cls-5" points="39.43 168.83 39.24 170.72 35.29 172.35 33.6 170.34 35.67 168.58 39.62 166.95 39.43 168.83"/>
      <polygon class="cls-4" points="42.73 130.65 39.69 168.24 35.88 168.74 32.73 136.7 30.12 126.54 42.73 130.65"/>
    </g>
    <g>
      <polygon class="cls-4" points="51.84 120.79 54.12 165.45 50.65 166.08 43.41 132.28 39.43 122.5 51.84 120.79"/>
      <polygon class="cls-5" points="50.96 167.56 55.09 168.78 56.59 166.54 54.35 164.98 50.59 165.66 50.96 167.56"/>
    </g>
    <path class="cls-15" d="M47.51,73.26c-2.82-2.25-9.6-1-13.17-1,.35,0-3.38,19.22-3.5,20.9a49.89,49.89,0,0,1-5.1,17.89,58.68,58.68,0,0,0-3.31,7.11c-1.35,4.12-1.34,9-1,13.23,3.83,1,7.41,2.91,11.35,3.41,3.24.4,6.51-.17,9.77-.45,3.85-.33,7.72-.24,11.58-.53a28.94,28.94,0,0,0,11.15-2.72,52.8,52.8,0,0,1-3.67-8.92,52.58,52.58,0,0,1-2.58-9.58c-.32-2.86-.37-5.77-.8-8.67-.5-3.38-1.11-6.74-1.94-10.06A74.19,74.19,0,0,0,52.55,82.8c-1.18-2.74-2.59-7.23-4.81-9.34Z" transform="translate(-0.58 -0.71)"/>
    <g>
      <path class="cls-6" d="M41.53,62.87c1.78.31,4,1.78,4.41,3.59.21.88-.09,1.68.17,2.61.51,1.82-1.79,4.52.48,5.79a6,6,0,0,0,3.95.21,1,1,0,0,0,.46-.16.65.65,0,0,0,.17-.71,2.76,2.76,0,0,0-.4-.68C49.21,71.26,49.59,68,49,65.43s-2-5.13-4.68-6.19a5.88,5.88,0,0,0-2.6,3.65Z" transform="translate(-0.58 -0.71)"/>
      <path class="cls-24" d="M43.77,73.94A5.72,5.72,0,0,0,47,69.78a11,11,0,0,0-.43-5.33c-1.68-5.76-9.17-4.11-10.92.82C34.11,69.57,38.78,76,43.77,73.94Z" transform="translate(-0.58 -0.71)"/>
      <path class="cls-6" d="M35,77.11a5.18,5.18,0,0,0,2.15-2c.79-1.52.46-3.89.55-5.54S38,66,39.24,64.67a4.38,4.38,0,0,1,2.93-1.17c.77-.07.82.21,1.44-.25a3.17,3.17,0,0,0,.89-1.83,3.06,3.06,0,0,0-1-2.49,4.57,4.57,0,0,0-3.65-1.36,10,10,0,0,0-9.54,8.34c-.48,2.33.25,4.82-.28,7.07-.33,1.39-1.15,2.36-1.38,3.83-.62,3.82-2.33,8.77-1.83,12.62a.52.52,0,0,0,.17.38c.24.18.56-.09.74-.32,1-1.39,2.07-2.77,3.1-4.15a7.38,7.38,0,0,0,1.06-1.73c.58-1.57,0-3.49,1-4.85A7.05,7.05,0,0,1,35,77.11Z" transform="translate(-0.58 -0.71)"/>
    </g>
    <g>
      <path class="cls-15" d="M40.29,110.45c.91.42,3.6.42,4.42-.29,1.88-1.63-1.45-1.84-2.59-2.16a6.1,6.1,0,0,0,.64-1.06c.14-.35-3.51-.29-3.93,0-1,.62-.82,1.34-1,2.4C38.63,109.67,39.45,110.06,40.29,110.45Z" transform="translate(-0.58 -0.71)"/>
      <polygon class="cls-15" points="25.73 81.22 18.9 96.83 36.43 110.05 38.97 105.19 27.78 95.47 33.6 84.5 33.21 77.83 25.73 81.22"/>
    </g>
    <path class="cls-3" d="M48.26,94s-5.28,7.36-5.63,26.17l5.11.26s-.78-16.49,3.18-25.6Z" transform="translate(-0.58 -0.71)"/>
    <path class="cls-25" d="M75.2,67.17s-17.47,2.22-24.39,9.61-2.1,18.72-2.1,18.72S60.87,99,67.79,91.56,75.2,67.17,75.2,67.17Z" transform="translate(-0.58 -0.71)"/>
    <path class="cls-3" d="M48.71,95.5s.7.19,1.86.39l14.8-18.2L48.11,93.76C48.44,94.84,48.71,95.5,48.71,95.5Z" transform="translate(-0.58 -0.71)"/>
    <path class="cls-26" d="M19.51,80.14s2.11,15,9,21,17.32,1.75,17.32,1.75S49,92.38,42.09,86.45,19.51,80.14,19.51,80.14Z" transform="translate(-0.58 -0.71)"/>
    <path class="cls-3" d="M45.8,102.86s.18-.61.36-1.6L29.27,88.58l14.92,14.8C45.19,103.1,45.8,102.86,45.8,102.86Z" transform="translate(-0.58 -0.71)"/>
    <path class="cls-27" d="M48.71,95.5S67.66,93.17,73.58,79C73.58,79,70.68,101.5,48.71,95.5Z" transform="translate(-0.58 -0.71)"/>
    <path class="cls-3" d="M206.27,144.44s4.73,7.7,3.71,26.49l-5.12-.09s2-16.4-1.3-25.75Z" transform="translate(-0.58 -0.71)"/>
    <path class="cls-28" d="M181.35,115.89s17.27,3.4,23.63,11.25.73,18.81.73,18.81-12.38,2.63-18.74-5.22S181.35,115.89,181.35,115.89Z" transform="translate(-0.58 -0.71)"/>
    <path class="cls-3" d="M205.71,146s-.71.15-1.88.27L190.4,127.05l16,17.21C206,145.32,205.71,146,205.71,146Z" transform="translate(-0.58 -0.71)"/>
    <path class="cls-29" d="M236,132.62s-3.2,14.86-10.48,20.31-17.4.56-17.4.56-2.39-10.67,4.89-16.12S236,132.62,236,132.62Z" transform="translate(-0.58 -0.71)"/>
    <path class="cls-3" d="M208.08,153.49s-.13-.61-.24-1.62l17.77-11.5-16,13.75C208.67,153.77,208.08,153.49,208.08,153.49Z" transform="translate(-0.58 -0.71)"/>
    <path class="cls-27" d="M205.71,146s-18.73-3.6-23.6-18.17C182.11,127.78,183.36,150.45,205.71,146Z" transform="translate(-0.58 -0.71)"/>
    <g>
      <polygon class="cls-18" points="114.82 78.92 121.87 78.92 120.18 30.61 116.52 30.61 114.82 78.92"/>
      <g>
        <g>
          <path class="cls-30" d="M112.64.74v0c7.87,11.32,7.92,30.78,7.92,30.78l-1.37.27h0l-1.38.27S110,14.13,112.64.74Z" transform="translate(-0.58 -0.71)"/>
          <path class="cls-18" d="M112.63.76l6.55,31-1.37.26S110,14.15,112.63.76Z" transform="translate(-0.58 -0.71)"/>
        </g>
        <g>
          <path class="cls-30" d="M150.32,41.86h0c-14.1.91-31.59-8.77-31.59-8.77l.44-1.29h0l.44-1.28S139.64,32.94,150.32,41.86Z" transform="translate(-0.58 -0.71)"/>
          <path class="cls-18" d="M150.31,41.84l-31.13-10,.44-1.28S139.61,32.94,150.31,41.84Z" transform="translate(-0.58 -0.71)"/>
        </g>
        <g>
          <path class="cls-30" d="M94.58,52.79l0,0h0l0,0c6.23-12.24,23.67-22,23.67-22l.93,1h0l.94,1S107.93,48.32,94.58,52.79Z" transform="translate(-0.58 -0.71)"/>
          <path class="cls-18" d="M94.6,52.78l24.58-21,.93,1S107.94,48.3,94.6,52.78Z" transform="translate(-0.58 -0.71)"/>
        </g>
        <path class="cls-30" d="M122.35,31.17a3.23,3.23,0,0,0-3.8-2.42A3.1,3.1,0,0,0,116,32.41a3.22,3.22,0,0,0,3.8,2.43A3.12,3.12,0,0,0,122.35,31.17Z" transform="translate(-0.58 -0.71)"/>
      </g>
    </g>
  </g>
</svg>
