<?xml version="1.0" encoding="utf-8"?>
<!-- Generator: Adobe Illustrator 25.0.0, SVG Export Plug-In . SVG Version: 6.00 Build 0)  -->
<svg version="1.1" id="Camada_1" xmlns="http://www.w3.org/2000/svg" xmlns:xlink="http://www.w3.org/1999/xlink" x="0px" y="0px"
	 viewBox="0 0 1920 1080" style="enable-background:new 0 0 1920 1080;" xml:space="preserve">
<style type="text/css">
	.st0{fill:#005578;}
	.st1{fill:#006973;}
	.st2{fill:#3D9191;}
	.st3{fill:#3D9B91;}
	.st4{fill:#3DA591;}
</style>
<g>
	<polyline class="st0" points="571.07,590.54 557.03,585.9 557.33,606.74 571.22,600.84 	"/>
	<g>
		<path class="st0" d="M563.63,595.94c1.66-1.98,12.78-14.79,30.76-14.63c17.2,0.15,27.71,12.06,29.45,14.1"/>
		<path class="st0" d="M623.46,595.08c-1.66,1.98-12.78,14.79-30.76,14.63c-17.2-0.15-27.71-12.06-29.45-14.1"/>
	</g>
</g>
<g>
	<polyline class="st0" points="607.77,650.11 593.73,645.47 594.03,666.3 607.92,660.4 	"/>
	<g>
		<path class="st0" d="M600.32,655.51c1.66-1.98,12.78-14.79,30.76-14.63c17.2,0.15,27.71,12.06,29.45,14.1"/>
		<path class="st0" d="M660.16,654.64c-1.66,1.98-12.78,14.79-30.76,14.63c-17.2-0.15-27.71-12.06-29.45-14.1"/>
	</g>
</g>
<g>
	<polyline class="st0" points="658.41,561.27 647.53,556.43 647.76,578.2 658.52,572.03 	"/>
	<g>
		<path class="st0" d="M652.64,566.91c1.29-2.07,9.9-15.45,23.83-15.29c13.33,0.16,21.47,12.6,22.81,14.73"/>
		<path class="st0" d="M698.99,566.01c-1.29,2.07-9.9,15.45-23.83,15.29c-13.33-0.16-21.47-12.6-22.81-14.73"/>
	</g>
</g>
<g>
	<polyline class="st0" points="690,618.94 675.96,614.31 676.26,635.14 690.15,629.24 	"/>
	<g>
		<path class="st0" d="M682.55,624.34c1.66-1.98,12.78-14.79,30.76-14.63c17.2,0.15,27.71,12.06,29.45,14.1"/>
		<path class="st0" d="M742.39,623.48c-1.66,1.98-12.78,14.79-30.76,14.63c-17.2-0.15-27.71-12.06-29.45-14.1"/>
	</g>
</g>
<g>
	<polyline class="st0" points="744.04,568.69 730,564.05 730.3,584.89 744.19,578.99 	"/>
	<g>
		<path class="st0" d="M736.59,574.09c1.66-1.98,12.78-14.79,30.76-14.63c17.2,0.15,27.71,12.06,29.45,14.1"/>
		<path class="st0" d="M796.43,573.23c-1.66,1.98-12.78,14.79-30.76,14.63c-17.2-0.15-27.71-12.06-29.45-14.1"/>
	</g>
</g>
<g>
	<polyline class="st0" points="747.34,669.2 733.3,664.56 733.59,685.4 747.49,679.5 	"/>
	<g>
		<path class="st0" d="M739.89,674.6c1.66-1.98,12.78-14.79,30.76-14.63c17.2,0.15,27.71,12.06,29.45,14.1"/>
		<path class="st0" d="M799.73,673.74c-1.66,1.98-12.78,14.79-30.76,14.63c-17.2-0.15-27.71-12.06-29.45-14.1"/>
	</g>
</g>
<g>
	<polyline class="st0" points="814.06,616.37 800.1,610.92 800.39,635.43 814.21,628.49 	"/>
	<g>
		<path class="st0" d="M806.66,622.73c1.65-2.33,12.71-17.4,30.59-17.21c17.11,0.18,27.56,14.19,29.28,16.59"/>
		<path class="st0" d="M866.16,621.71c-1.65,2.33-12.71,17.4-30.59,17.21c-17.11-0.18-27.56-14.19-29.28-16.59"/>
	</g>
</g>
<g>
	<polyline class="st0" points="866.21,547.05 852.32,540.74 852.62,569.09 866.36,561.06 	"/>
	<g>
		<path class="st0" d="M858.85,554.4c1.64-2.69,12.64-20.13,30.42-19.91c17.01,0.21,27.4,16.42,29.12,19.19"/>
		<path class="st0" d="M918.02,553.22c-1.64,2.69-12.64,20.13-30.42,19.91c-17.01-0.21-27.4-16.42-29.12-19.19"/>
	</g>
</g>
<g>
	<polyline class="st0" points="880.5,663.43 866.53,657.98 866.83,682.49 880.64,675.55 	"/>
	<g>
		<path class="st0" d="M873.09,669.78c1.65-2.33,12.71-17.4,30.59-17.21c17.11,0.18,27.56,14.19,29.28,16.59"/>
		<path class="st0" d="M932.59,668.77c-1.65,2.33-12.71,17.4-30.59,17.21c-17.11-0.18-27.56-14.19-29.28-16.59"/>
	</g>
</g>
<g>
	<polyline class="st0" points="930.7,602.3 918.39,597.6 918.65,618.71 930.83,612.73 	"/>
	<g>
		<path class="st0" d="M924.17,607.77c1.45-2,11.2-14.99,26.96-14.82c15.08,0.15,24.29,12.22,25.81,14.29"/>
		<path class="st0" d="M976.62,606.9c-1.45,2-11.2,14.99-26.96,14.82c-15.08-0.15-24.29-12.22-25.81-14.29"/>
	</g>
</g>
<g>
	<polyline class="st0" points="988.38,531.71 975.52,528.66 978.76,549.54 989.98,542.03 	"/>
	<g>
		<path class="st0" d="M982.68,537.98c1.16-2.18,8.98-16.31,24.62-18.21c14.96-1.81,25.79,8.94,27.59,10.79"/>
		<path class="st0" d="M1034.53,530.27c-1.16,2.18-8.98,16.31-24.62,18.21c-14.96,1.81-25.79-8.94-27.59-10.79"/>
	</g>
</g>
<g>
	<polyline class="st0" points="991.96,645.34 979.1,642.29 982.34,663.17 993.56,655.66 	"/>
	<g>
		<path class="st0" d="M986.26,651.61c1.16-2.18,8.98-16.31,24.62-18.21c14.96-1.81,25.79,8.94,27.59,10.79"/>
		<path class="st0" d="M1038.11,643.91c-1.16,2.18-8.98,16.31-24.62,18.21c-14.96,1.81-25.79-8.94-27.59-10.79"/>
	</g>
</g>
<g>
	<polyline class="st0" points="1051.34,575.35 1038.48,572.3 1041.71,593.18 1052.93,585.67 	"/>
	<g>
		<path class="st0" d="M1045.64,581.62c1.16-2.18,8.98-16.31,24.62-18.21c14.96-1.81,25.79,8.94,27.59,10.79"/>
		<path class="st0" d="M1097.48,573.92c-1.16,2.18-8.98,16.31-24.62,18.21c-14.96,1.81-25.79-8.94-27.59-10.79"/>
	</g>
</g>
<g>
	<polyline class="st1" points="1087.94,522.94 1075.24,520.48 1078.44,537.32 1089.52,531.26 	"/>
	<g>
		<path class="st1" d="M1082.31,527.99c1.14-1.75,8.87-13.15,24.32-14.68c14.78-1.46,25.47,7.21,27.25,8.7"/>
		<path class="st1" d="M1133.52,521.78c-1.14,1.75-8.87,13.15-24.32,14.68c-14.78,1.46-25.47-7.21-27.25-8.7"/>
	</g>
</g>
<g>
	<polyline class="st1" points="1117.26,630.91 1104.56,628.45 1107.76,645.28 1118.84,639.23 	"/>
	<g>
		<path class="st1" d="M1111.63,635.96c1.14-1.75,8.87-13.15,24.32-14.68c14.78-1.46,25.47,7.21,27.25,8.7"/>
		<path class="st1" d="M1162.84,629.75c-1.14,1.75-8.87,13.15-24.32,14.68c-14.78,1.46-25.47-7.21-27.25-8.7"/>
	</g>
</g>
<g>
	<polyline class="st1" points="1146.58,561.76 1133.88,559.3 1137.08,576.14 1148.16,570.08 	"/>
	<g>
		<path class="st1" d="M1140.95,566.82c1.14-1.75,8.87-13.15,24.32-14.68c14.78-1.46,25.47,7.21,27.25,8.7"/>
		<path class="st1" d="M1192.16,560.6c-1.14,1.75-8.87,13.15-24.32,14.68c-14.78,1.46-25.47-7.21-27.25-8.7"/>
	</g>
</g>
<g>
	<polyline class="st2" points="1196.06,507.48 1183.36,509.92 1193.04,524.27 1200.85,514.58 	"/>
	<g>
		<path class="st2" d="M1192.89,514.23c0.35-2.04,2.93-15.42,16.57-22.55c13.05-6.82,26.39-2.78,28.63-2.06"/>
		<path class="st2" d="M1237.66,489.54c-0.35,2.04-2.93,15.42-16.57,22.55c-13.05,6.82-26.39,2.78-28.63,2.06"/>
	</g>
</g>
<g>
	<polyline class="st2" points="1228.19,603.85 1215.49,606.29 1225.18,620.64 1232.98,610.95 	"/>
	<g>
		<path class="st2" d="M1225.02,610.6c0.35-2.04,2.93-15.42,16.57-22.55c13.05-6.82,26.39-2.78,28.63-2.06"/>
		<path class="st2" d="M1269.79,585.9c-0.35,2.04-2.93,15.42-16.57,22.55c-13.05,6.82-26.39,2.78-28.63,2.06"/>
	</g>
</g>
<g>
	<polyline class="st2" points="1255.74,540.61 1243.29,544.06 1254.19,557.59 1261.13,547.3 	"/>
	<g>
		<path class="st2" d="M1253.17,547.59c0.18-2.06,1.57-15.6,14.55-23.81c12.41-7.85,26.06-4.89,28.35-4.36"/>
		<path class="st2" d="M1295.63,519.38c-0.18,2.06-1.57,15.6-14.55,23.81c-12.41,7.85-26.06,4.89-28.35,4.36"/>
	</g>
</g>
<g>
	<polyline class="st2" points="1284.85,469.24 1275.67,477.33 1290.25,481.26 1292.06,471.18 	"/>
	<g>
		<path class="st2" d="M1285.43,475.08c-0.67-1.46-4.83-11.13,2.91-22.63c7.41-11,20.14-15.38,22.29-16.09"/>
		<path class="st2" d="M1310.25,436.54c0.67,1.46,4.83,11.13-2.91,22.63c-7.41,11-20.14,15.38-22.29,16.09"/>
	</g>
</g>
<g>
	<polyline class="st3" points="1338.88,498.2 1329.7,506.29 1344.28,510.22 1346.09,500.14 	"/>
	<g>
		<path class="st3" d="M1339.46,504.05c-0.67-1.46-4.83-11.13,2.91-22.63c7.41-11,20.14-15.38,22.29-16.09"/>
		<path class="st3" d="M1364.28,465.5c0.67,1.46,4.83,11.13-2.91,22.63c-7.41,11-20.14,15.38-22.29,16.09"/>
	</g>
</g>
<g>
	<polyline class="st3" points="1346.95,419.58 1343.78,428.1 1355.25,424.27 1352.62,417.69 	"/>
	<g>
		<path class="st3" d="M1349.59,422.71c-1.01-0.56-7.56-4.41-6.68-14.3c0.85-9.46,7.86-17.32,9.06-18.64"/>
		<path class="st3" d="M1351.77,390.04c1.01,0.56,7.56,4.41,6.68,14.3c-0.85,9.46-7.86,17.32-9.06,18.64"/>
	</g>
</g>
<g>
	<polyline class="st3" points="1308.24,390.67 1305.07,399.19 1316.54,395.36 1313.91,388.78 	"/>
	<g>
		<path class="st3" d="M1310.88,393.81c-1.01-0.56-7.56-4.41-6.68-14.3c0.85-9.46,7.86-17.32,9.06-18.64"/>
		<path class="st3" d="M1313.06,361.13c1.01,0.56,7.56,4.41,6.68,14.3c-0.85,9.46-7.86,17.32-9.06,18.64"/>
	</g>
</g>
<g>
	<polyline class="st4" points="1354.57,346.64 1357.16,352.23 1361.23,344.5 1356.58,342.82 	"/>
	<g>
		<path class="st4" d="M1357.51,346.72c-0.81,0.27-6.14,1.88-10.61-3.16c-4.28-4.82-4.54-12.1-4.57-13.33"/>
		<path class="st4" d="M1342.36,330.46c0.81-0.27,6.14-1.88,10.61,3.16c4.28,4.82,4.54,12.1,4.57,13.33"/>
	</g>
</g>
</svg>
