<?xml version="1.0" encoding="utf-8"?>
<!-- Generator: Adobe Illustrator 25.0.0, SVG Export Plug-In . SVG Version: 6.00 Build 0)  -->
<svg version="1.1" id="Camada_1" xmlns="http://www.w3.org/2000/svg" xmlns:xlink="http://www.w3.org/1999/xlink" x="0px" y="0px"
	 viewBox="0 0 1920 1080" style="enable-background:new 0 0 1920 1080;" xml:space="preserve">
<style type="text/css">
	.st0{fill:#409293;}
	.st1{fill:#004F6F;}
	.st2{fill:#004F81;}
	.st3{fill:#005C6F;}
	.st4{fill:#008E90;}
	.st5{fill:#028484;}
</style>
<g>
	<g>
		<path class="st0" d="M791.86,574.32c0.27,0.34,0.56,0.68,0.85,1.02c-0.24-0.21-0.48-0.42-0.74-0.63c-0.05-0.04-0.1-0.09-0.15-0.13
			c-0.25-0.2-0.5-0.41-0.76-0.61c-0.05-0.04-0.1-0.08-0.15-0.12c-0.25-0.19-0.5-0.38-0.75-0.58c-0.03-0.03-0.07-0.05-0.1-0.08
			c-0.28-0.21-0.56-0.42-0.85-0.63c-0.06-0.05-0.13-0.09-0.19-0.14c-0.29-0.21-0.57-0.41-0.86-0.62c-0.05-0.03-0.09-0.06-0.14-0.1
			c-0.27-0.19-0.54-0.38-0.82-0.57c-0.06-0.04-0.12-0.08-0.18-0.12c-0.31-0.21-0.62-0.43-0.93-0.65c-0.66-0.46-1.32-0.92-1.98-1.38
			c-0.06-0.04-0.12-0.09-0.18-0.13c-0.3-0.21-0.6-0.43-0.9-0.64c-0.05-0.04-0.1-0.07-0.15-0.11c-0.28-0.2-0.56-0.41-0.84-0.61
			c-0.03-0.03-0.07-0.05-0.1-0.08c-0.29-0.22-0.58-0.43-0.86-0.65c-0.06-0.05-0.12-0.09-0.18-0.14c-0.28-0.22-0.56-0.44-0.83-0.66
			c-0.03-0.02-0.06-0.05-0.09-0.07c-0.25-0.21-0.5-0.41-0.74-0.62c-0.05-0.04-0.09-0.08-0.14-0.12c-0.25-0.22-0.49-0.44-0.73-0.66
			c-0.05-0.04-0.09-0.09-0.14-0.13c-0.24-0.23-0.47-0.45-0.69-0.68l0,0c-0.06,0.14-0.13,0.29-0.2,0.43
			c-0.03,0.06-0.06,0.12-0.08,0.17c-0.07,0.13-0.14,0.27-0.22,0.4c-0.03,0.06-0.07,0.12-0.1,0.18c-0.08,0.13-0.16,0.26-0.24,0.4
			c-0.03,0.05-0.07,0.1-0.1,0.15c-0.29,0.44-0.61,0.87-0.96,1.29c-0.04,0.05-0.08,0.1-0.12,0.15c-0.1,0.12-0.21,0.23-0.31,0.35
			c-0.06,0.06-0.11,0.12-0.17,0.18c-0.11,0.11-0.21,0.22-0.32,0.33c-0.06,0.06-0.12,0.12-0.19,0.18c-0.11,0.11-0.22,0.22-0.34,0.32
			c-0.05,0.05-0.11,0.1-0.16,0.14c-0.24,0.21-0.48,0.41-0.73,0.61c-0.06,0.05-0.12,0.1-0.19,0.15c-0.12,0.09-0.24,0.18-0.36,0.27
			c-0.09,0.06-0.18,0.13-0.27,0.19c-0.12,0.08-0.24,0.17-0.36,0.25c-0.1,0.07-0.2,0.13-0.3,0.2c-0.12,0.08-0.24,0.16-0.36,0.23
			c-0.11,0.07-0.22,0.13-0.33,0.2c-0.12,0.07-0.24,0.14-0.36,0.21c-0.22,0.12-0.44,0.24-0.66,0.36c-0.11,0.06-0.22,0.11-0.33,0.17
			c-0.14,0.07-0.28,0.14-0.42,0.21c-0.12,0.06-0.24,0.11-0.36,0.16c-0.14,0.06-0.28,0.13-0.42,0.19c-0.12,0.05-0.24,0.1-0.36,0.15
			c-0.15,0.06-0.31,0.12-0.46,0.18c-0.11,0.04-0.23,0.09-0.34,0.13c-0.08,0.03-0.17,0.06-0.25,0.09c2.63,5.57,7.65,8.74,7.65,8.74
			c-18.43,1.83-26.31-5.04-29.53-9.87c-0.4-0.2-0.79-0.41-1.17-0.63c0.01,0.01,0.02,0.01,0.04,0.02l3.56,8.48l-2.94-1.77v0
			l-0.84-0.51c-1.54-0.92-2.54-2.39-2.76-4.02l-0.65-4.9c-1.84-1.78-5.93-7.18-5.93-8.17v-0.35c0-1.13,6.4-9.4,10.92-11.6
			c3.85-3.08,11.69-7.32,25.94-7.75c0,0-3.19,2.17-5.09,6.46l0,0c5.25,1.69,9.31,4.84,11.09,8.69c3.85-4.31,10.91-8.07,15.25-11.43
			c-4.81,5.06-7.15,10.28-7.08,15.63l0,0c0.03,2.28,0.5,4.58,1.41,6.91c0,0.01,0,0.01,0.01,0.02c0.13,0.33,0.26,0.65,0.41,0.98
			c0.01,0.02,0.02,0.04,0.02,0.05c0.14,0.31,0.29,0.63,0.44,0.94c0.02,0.03,0.04,0.07,0.05,0.1c0.15,0.3,0.31,0.6,0.47,0.9
			c0.03,0.05,0.06,0.11,0.09,0.16c0.16,0.28,0.31,0.56,0.48,0.84c0.05,0.08,0.1,0.16,0.15,0.23c0.16,0.26,0.32,0.52,0.48,0.77
			c0.07,0.1,0.14,0.2,0.2,0.3c0.16,0.24,0.31,0.47,0.48,0.71c0.1,0.14,0.2,0.27,0.3,0.41c0.15,0.2,0.29,0.4,0.44,0.61
			c0.14,0.19,0.29,0.37,0.44,0.56C791.63,574.01,791.74,574.17,791.86,574.32z M759.02,545.16
			C759.01,545.16,759.01,545.16,759.02,545.16c-0.01,0-0.01,0-0.01,0C759.01,545.16,759.01,545.16,759.02,545.16z"/>
		<path class="st0" d="M743.22,556c0,0.57-0.53,1.04-1.17,1.04c-0.65,0-1.17-0.46-1.17-1.04c0-0.57,0.53-1.04,1.17-1.04
			C742.69,554.96,743.22,555.43,743.22,556z"/>
		<path class="st0" d="M747.17,550.97c0,0,4.04,8.55-0.42,15.15c0,0,3.24-3.26,3-7.03S747.17,550.97,747.17,550.97z"/>
	</g>
	<g>
		<path class="st0" d="M1192.83,538.49c0.16,0.19,0.32,0.39,0.48,0.58c-0.13-0.12-0.28-0.24-0.42-0.36
			c-0.03-0.02-0.06-0.05-0.09-0.07c-0.14-0.12-0.28-0.23-0.43-0.35c-0.03-0.02-0.06-0.04-0.08-0.07c-0.14-0.11-0.28-0.22-0.43-0.33
			c-0.02-0.01-0.04-0.03-0.06-0.04c-0.16-0.12-0.32-0.24-0.49-0.36c-0.04-0.03-0.07-0.05-0.11-0.08c-0.16-0.12-0.33-0.23-0.49-0.35
			c-0.03-0.02-0.05-0.04-0.08-0.06c-0.15-0.11-0.31-0.22-0.47-0.33c-0.03-0.02-0.07-0.05-0.1-0.07c-0.18-0.12-0.35-0.24-0.53-0.37
			c-0.38-0.26-0.75-0.52-1.13-0.79c-0.04-0.02-0.07-0.05-0.11-0.07c-0.17-0.12-0.34-0.24-0.51-0.37c-0.03-0.02-0.06-0.04-0.08-0.06
			c-0.16-0.12-0.32-0.23-0.48-0.35c-0.02-0.01-0.04-0.03-0.06-0.04c-0.17-0.12-0.33-0.25-0.49-0.37c-0.03-0.03-0.07-0.05-0.1-0.08
			c-0.16-0.12-0.32-0.25-0.47-0.38c-0.02-0.01-0.03-0.03-0.05-0.04c-0.14-0.12-0.28-0.23-0.42-0.35c-0.03-0.02-0.05-0.04-0.08-0.07
			c-0.14-0.12-0.28-0.25-0.41-0.37c-0.03-0.03-0.05-0.05-0.08-0.08c-0.14-0.13-0.27-0.26-0.39-0.39l0,0
			c-0.04,0.08-0.08,0.16-0.12,0.24c-0.02,0.03-0.03,0.07-0.05,0.1c-0.04,0.08-0.08,0.15-0.12,0.23c-0.02,0.03-0.04,0.07-0.06,0.1
			c-0.04,0.08-0.09,0.15-0.14,0.23c-0.02,0.03-0.04,0.06-0.06,0.09c-0.16,0.25-0.35,0.5-0.55,0.73c-0.02,0.03-0.05,0.06-0.07,0.08
			c-0.06,0.07-0.12,0.13-0.18,0.2c-0.03,0.03-0.06,0.07-0.1,0.1c-0.06,0.06-0.12,0.13-0.18,0.19c-0.03,0.03-0.07,0.07-0.11,0.1
			c-0.06,0.06-0.13,0.12-0.19,0.18c-0.03,0.03-0.06,0.05-0.09,0.08c-0.13,0.12-0.27,0.23-0.42,0.35c-0.04,0.03-0.07,0.06-0.11,0.09
			c-0.07,0.05-0.14,0.1-0.21,0.15c-0.05,0.04-0.1,0.07-0.15,0.11c-0.07,0.05-0.14,0.09-0.21,0.14c-0.06,0.04-0.11,0.07-0.17,0.11
			c-0.07,0.04-0.14,0.09-0.21,0.13c-0.06,0.04-0.13,0.08-0.19,0.11c-0.07,0.04-0.13,0.08-0.2,0.12c-0.12,0.07-0.25,0.14-0.38,0.2
			c-0.06,0.03-0.13,0.06-0.19,0.09c-0.08,0.04-0.16,0.08-0.24,0.12c-0.07,0.03-0.14,0.06-0.2,0.09c-0.08,0.04-0.16,0.07-0.24,0.11
			c-0.07,0.03-0.14,0.06-0.21,0.09c-0.09,0.04-0.17,0.07-0.26,0.1c-0.06,0.02-0.13,0.05-0.19,0.07c-0.05,0.02-0.09,0.03-0.14,0.05
			c1.5,3.17,4.36,4.98,4.36,4.98c-10.5,1.04-14.99-2.87-16.83-5.62c-0.23-0.11-0.45-0.24-0.67-0.36c0.01,0,0.01,0.01,0.02,0.01
			l2.03,4.83l-1.67-1.01l0,0l-0.48-0.29c-0.88-0.53-1.45-1.36-1.57-2.29l-0.37-2.79c-1.05-1.02-3.38-4.09-3.38-4.65v-0.2
			c0-0.64,3.65-5.35,6.22-6.61c2.19-1.76,6.66-4.17,14.78-4.41c0,0-1.81,1.24-2.9,3.68l0,0c2.99,0.96,5.31,2.76,6.32,4.95
			c2.19-2.46,6.22-4.6,8.69-6.51c-2.74,2.89-4.08,5.86-4.04,8.91l0,0c0.02,1.3,0.29,2.61,0.8,3.94c0,0,0,0.01,0,0.01
			c0.07,0.19,0.15,0.37,0.23,0.56c0,0.01,0.01,0.02,0.01,0.03c0.08,0.18,0.16,0.36,0.25,0.54c0.01,0.02,0.02,0.04,0.03,0.06
			c0.09,0.17,0.17,0.34,0.27,0.51c0.02,0.03,0.04,0.06,0.05,0.09c0.09,0.16,0.18,0.32,0.28,0.48c0.03,0.04,0.06,0.09,0.08,0.13
			c0.09,0.15,0.18,0.29,0.28,0.44c0.04,0.06,0.08,0.11,0.12,0.17c0.09,0.13,0.18,0.27,0.27,0.4c0.05,0.08,0.11,0.15,0.17,0.23
			c0.08,0.12,0.16,0.23,0.25,0.35c0.08,0.11,0.17,0.21,0.25,0.32C1192.69,538.32,1192.76,538.41,1192.83,538.49z M1174.11,521.88
			C1174.11,521.88,1174.11,521.88,1174.11,521.88L1174.11,521.88C1174.11,521.88,1174.11,521.88,1174.11,521.88z"/>
		<path class="st0" d="M1165.11,528.06c0,0.33-0.3,0.59-0.67,0.59s-0.67-0.26-0.67-0.59c0-0.33,0.3-0.59,0.67-0.59
			S1165.11,527.73,1165.11,528.06z"/>
		<path class="st0" d="M1167.36,525.19c0,0,2.3,4.87-0.24,8.63c0,0,1.85-1.86,1.71-4.01
			C1168.69,527.67,1167.36,525.19,1167.36,525.19z"/>
	</g>
	<g>
		<path class="st0" d="M885.96,670.76c0.19,0.24,0.39,0.47,0.59,0.71c-0.16-0.15-0.34-0.29-0.51-0.44
			c-0.04-0.03-0.07-0.06-0.11-0.09c-0.17-0.14-0.35-0.28-0.53-0.42c-0.03-0.03-0.07-0.05-0.1-0.08c-0.17-0.13-0.35-0.27-0.52-0.4
			c-0.02-0.02-0.05-0.03-0.07-0.05c-0.19-0.14-0.39-0.29-0.59-0.43c-0.04-0.03-0.09-0.06-0.13-0.1c-0.2-0.14-0.4-0.29-0.6-0.43
			c-0.03-0.02-0.06-0.04-0.1-0.07c-0.19-0.13-0.38-0.27-0.57-0.4c-0.04-0.03-0.08-0.06-0.12-0.09c-0.21-0.15-0.43-0.3-0.64-0.45
			c-0.46-0.32-0.92-0.64-1.38-0.96c-0.04-0.03-0.09-0.06-0.13-0.09c-0.21-0.15-0.42-0.3-0.63-0.45c-0.03-0.02-0.07-0.05-0.1-0.07
			c-0.2-0.14-0.39-0.28-0.58-0.42c-0.02-0.02-0.05-0.03-0.07-0.05c-0.2-0.15-0.4-0.3-0.59-0.45c-0.04-0.03-0.08-0.06-0.12-0.09
			c-0.2-0.15-0.39-0.3-0.58-0.46c-0.02-0.02-0.04-0.03-0.06-0.05c-0.17-0.14-0.34-0.29-0.51-0.43c-0.03-0.03-0.06-0.05-0.09-0.08
			c-0.17-0.15-0.34-0.3-0.5-0.46c-0.03-0.03-0.06-0.06-0.1-0.09c-0.17-0.16-0.33-0.32-0.48-0.47v0c-0.04,0.1-0.09,0.2-0.14,0.3
			c-0.02,0.04-0.04,0.08-0.06,0.12c-0.05,0.09-0.1,0.19-0.15,0.28c-0.02,0.04-0.05,0.08-0.07,0.13c-0.05,0.09-0.11,0.18-0.17,0.27
			c-0.02,0.04-0.05,0.07-0.07,0.11c-0.2,0.31-0.42,0.61-0.66,0.89c-0.03,0.03-0.06,0.07-0.08,0.1c-0.07,0.08-0.14,0.16-0.22,0.24
			c-0.04,0.04-0.08,0.08-0.12,0.13c-0.07,0.08-0.15,0.15-0.22,0.23c-0.04,0.04-0.09,0.08-0.13,0.13c-0.08,0.07-0.16,0.15-0.24,0.22
			c-0.04,0.03-0.08,0.07-0.11,0.1c-0.16,0.14-0.33,0.29-0.51,0.42c-0.04,0.03-0.09,0.07-0.13,0.1c-0.08,0.06-0.17,0.12-0.25,0.19
			c-0.06,0.04-0.12,0.09-0.18,0.13c-0.08,0.06-0.17,0.12-0.25,0.17c-0.07,0.05-0.14,0.09-0.21,0.14c-0.08,0.05-0.17,0.11-0.25,0.16
			c-0.08,0.05-0.15,0.09-0.23,0.14c-0.08,0.05-0.16,0.1-0.25,0.15c-0.15,0.09-0.3,0.17-0.46,0.25c-0.08,0.04-0.15,0.08-0.23,0.11
			c-0.1,0.05-0.19,0.1-0.29,0.14c-0.08,0.04-0.17,0.08-0.25,0.11c-0.1,0.04-0.19,0.09-0.29,0.13c-0.08,0.04-0.17,0.07-0.25,0.11
			c-0.11,0.04-0.21,0.09-0.32,0.13c-0.08,0.03-0.16,0.06-0.24,0.09c-0.06,0.02-0.12,0.04-0.17,0.06c1.83,3.86,5.31,6.06,5.31,6.06
			c-12.79,1.27-18.26-3.5-20.49-6.85c-0.28-0.14-0.55-0.29-0.81-0.44c0.01,0,0.02,0.01,0.02,0.02l2.47,5.89l-2.04-1.23l0,0
			l-0.59-0.35c-1.07-0.64-1.76-1.66-1.91-2.79l-0.45-3.4c-1.27-1.24-4.11-4.98-4.11-5.67v-0.25c0-0.78,4.44-6.52,7.58-8.05
			c2.67-2.14,8.11-5.08,18-5.38c0,0-2.21,1.51-3.53,4.48l0,0c3.64,1.17,6.46,3.36,7.69,6.03c2.67-2.99,7.57-5.6,10.58-7.93
			c-3.34,3.51-4.96,7.14-4.91,10.85h0c0.02,1.58,0.35,3.18,0.98,4.79c0,0,0,0.01,0,0.01c0.09,0.23,0.18,0.45,0.28,0.68
			c0.01,0.01,0.01,0.02,0.02,0.04c0.1,0.22,0.2,0.44,0.31,0.66c0.01,0.02,0.02,0.05,0.04,0.07c0.1,0.21,0.21,0.42,0.33,0.62
			c0.02,0.04,0.04,0.07,0.06,0.11c0.11,0.19,0.22,0.39,0.34,0.58c0.03,0.05,0.07,0.11,0.1,0.16c0.11,0.18,0.22,0.36,0.34,0.54
			c0.05,0.07,0.09,0.14,0.14,0.21c0.11,0.16,0.22,0.33,0.33,0.49c0.07,0.09,0.14,0.19,0.21,0.28c0.1,0.14,0.2,0.28,0.31,0.42
			c0.1,0.13,0.2,0.26,0.3,0.39C885.8,670.55,885.88,670.66,885.96,670.76z M863.17,650.53
			C863.17,650.53,863.17,650.53,863.17,650.53L863.17,650.53C863.17,650.53,863.17,650.53,863.17,650.53z"/>
		<ellipse class="st0" cx="851.39" cy="658.05" rx="0.81" ry="0.72"/>
		<path class="st0" d="M854.95,654.56c0,0,2.81,5.93-0.29,10.51c0,0,2.25-2.26,2.08-4.88C856.57,657.58,854.95,654.56,854.95,654.56
			z"/>
	</g>
	<g>
		<path class="st1" d="M1017.95,521.79c-0.16-0.77-0.31-1.54-0.45-2.3c-0.1-0.55-0.2-1.1-0.29-1.65c-0.05-0.27-0.1-0.54-0.14-0.8
			c-0.12-0.72-0.23-1.45-0.33-2.17c-0.01-0.09-0.03-0.18-0.04-0.27c-0.57-4.05-0.9-8.06-0.95-12.01l0,0
			c-0.09-6.63,0.6-13.1,2.24-19.38c-5,4.69-9.04,10.01-11.68,16.24c-6.57-5.71-10.78-16.34-7.55-26.86
			c-12.67,3.46-27.91,14.85-35.47,30c0.92,1.58,1.89,3.08,2.91,4.53c0.51,0.72,1.03,1.42,1.57,2.11c0.18,0.23,0.38,0.46,0.56,0.69
			l-0.39,7.29c-0.09,1.7,0.55,3.36,1.74,4.49l0.84,0.8l0,0l2.91,2.77l-1.87-11.66c0.82,0.86,1.67,1.68,2.54,2.47
			c0.17,2.78,1.57,5.44,4.02,6.96c2.88,1.79,6.44,3.45,10.33,4c0.66,0.09,1.29-0.11,1.79-0.51c1.38,0.61,2.78,1.19,4.22,1.72l0,0
			c0-0.01,0-0.01,0-0.02c0.08-0.56,0.17-1.12,0.28-1.67c0.04-0.19,0.08-0.38,0.12-0.58c0.07-0.36,0.15-0.72,0.23-1.08
			c0.05-0.23,0.12-0.45,0.17-0.68c0.08-0.31,0.16-0.63,0.25-0.93c0.07-0.24,0.15-0.48,0.22-0.72c0.09-0.29,0.18-0.57,0.27-0.86
			c0.08-0.25,0.18-0.49,0.27-0.74c0.1-0.27,0.2-0.53,0.3-0.8c0.1-0.25,0.2-0.5,0.31-0.75c0.11-0.25,0.21-0.5,0.32-0.75
			c0.11-0.25,0.23-0.51,0.35-0.76c0.11-0.24,0.23-0.47,0.35-0.7c0.13-0.26,0.26-0.51,0.4-0.76c0.12-0.22,0.24-0.44,0.37-0.66
			c0.15-0.26,0.3-0.51,0.45-0.77c0.12-0.21,0.25-0.41,0.38-0.61c0.17-0.26,0.33-0.52,0.51-0.78c0.13-0.19,0.26-0.37,0.39-0.56
			c0.19-0.27,0.37-0.53,0.57-0.79c0.12-0.17,0.25-0.33,0.38-0.49c0.21-0.28,0.42-0.55,0.64-0.82c0.11-0.13,0.22-0.26,0.33-0.39
			c0.25-0.3,0.5-0.6,0.76-0.89c0.05-0.05,0.09-0.1,0.14-0.15c1.04-1.16,2.17-2.27,3.38-3.35c0,0,0.01-0.01,0.01-0.01
			c1.83,3.78,4.28,7.41,7.14,10.93c0.04,0.05,0.07,0.09,0.11,0.14c0.22,0.27,0.43,0.53,0.65,0.79c0.08,0.09,0.15,0.18,0.23,0.27
			c0.19,0.23,0.39,0.46,0.58,0.69c0.11,0.13,0.23,0.26,0.34,0.39c0.17,0.19,0.34,0.39,0.5,0.58c0.16,0.19,0.33,0.37,0.49,0.55
			c0.13,0.14,0.26,0.29,0.39,0.43c0.29,0.32,0.59,0.65,0.89,0.97c0.01,0.01,0.02,0.02,0.02,0.03l0,0h0
			C1017.98,521.91,1017.97,521.85,1017.95,521.79z"/>
		<path class="st1" d="M971.8,498.03c0,0.8-0.6,1.45-1.35,1.45c-0.75,0-1.35-0.65-1.35-1.45c0-0.8,0.6-1.45,1.35-1.45
			C971.2,496.58,971.8,497.23,971.8,498.03z"/>
		<path class="st1" d="M976.36,491.01c0,0,4.66,11.94-0.49,21.14c0,0,3.74-4.55,3.45-9.81
			C979.04,497.08,976.36,491.01,976.36,491.01z"/>
	</g>
	<g>
		<path class="st1" d="M935.3,578.92c-0.28-0.44-0.57-0.88-0.85-1.32c-0.3-0.48-0.58-0.95-0.86-1.43c-0.19-0.32-0.39-0.64-0.58-0.96
			c-0.32-0.56-0.63-1.12-0.93-1.67c-0.13-0.24-0.27-0.47-0.39-0.71c-0.33-0.61-0.64-1.22-0.94-1.82c-0.09-0.18-0.19-0.37-0.28-0.55
			c-0.33-0.66-0.64-1.32-0.94-1.98c-0.06-0.13-0.12-0.25-0.18-0.38c-0.32-0.71-0.62-1.41-0.91-2.12c-0.03-0.08-0.07-0.16-0.1-0.24
			c-0.3-0.74-0.59-1.48-0.86-2.22c-0.02-0.04-0.03-0.08-0.05-0.13c-0.28-0.77-0.54-1.54-0.79-2.3c0-0.01-0.01-0.03-0.01-0.04
			c-1.77-5.48-2.68-10.9-2.74-16.27h0c-0.14-12.59,4.42-24.88,13.77-36.8c-8.43,7.92-22.16,16.76-29.64,26.91
			c-3.46-9.07-11.35-16.48-21.56-20.46c0,0,0,0,0,0c3.71-10.09,9.9-15.2,9.9-15.2c-27.71,1-42.94,10.98-50.43,18.24
			c-8.79,5.19-21.22,24.65-21.22,27.31v0.83c0,2.33,7.95,15.03,11.52,19.23l1.26,11.53c0.42,3.84,2.37,7.3,5.36,9.47l1.64,1.19v0
			l5.71,4.16l-6.93-19.97c-0.02-0.02-0.05-0.03-0.07-0.05c0.74,0.52,1.49,1.02,2.27,1.49c6.26,11.37,21.58,27.54,57.4,23.24
			c0,0-9.76-7.46-14.88-20.57c0.16-0.07,0.32-0.14,0.48-0.21c0.22-0.1,0.44-0.21,0.66-0.31c0.3-0.14,0.6-0.28,0.9-0.43
			c0.24-0.12,0.47-0.24,0.7-0.36c0.28-0.14,0.55-0.29,0.82-0.44c0.23-0.13,0.47-0.26,0.7-0.39c0.27-0.16,0.54-0.32,0.81-0.48
			c0.22-0.13,0.43-0.26,0.65-0.39c0.44-0.27,0.87-0.56,1.29-0.85c0.23-0.16,0.46-0.33,0.69-0.49c0.22-0.15,0.43-0.31,0.65-0.47
			c0.24-0.18,0.47-0.36,0.71-0.54c0.19-0.15,0.39-0.3,0.58-0.46c0.24-0.19,0.47-0.39,0.7-0.58c0.17-0.15,0.34-0.3,0.52-0.45
			c0.24-0.21,0.47-0.42,0.7-0.63c0.12-0.12,0.24-0.24,0.37-0.35c0.49-0.47,0.96-0.95,1.42-1.44c0.11-0.11,0.22-0.23,0.32-0.34
			c0.23-0.25,0.45-0.5,0.66-0.76c0.12-0.14,0.24-0.28,0.36-0.43c0.21-0.26,0.42-0.51,0.62-0.78c0.11-0.14,0.22-0.29,0.33-0.43
			c0.21-0.27,0.41-0.54,0.61-0.82c0.08-0.11,0.16-0.23,0.24-0.34c0.68-0.98,1.3-1.99,1.86-3.04c0.07-0.12,0.13-0.24,0.2-0.36
			c0.16-0.31,0.31-0.62,0.46-0.93c0.07-0.14,0.14-0.29,0.2-0.43c0.14-0.31,0.28-0.63,0.42-0.95c0.06-0.14,0.11-0.27,0.17-0.41
			c0.14-0.34,0.27-0.67,0.39-1.01c0,0,0,0,0,0c0.43,0.54,0.88,1.07,1.35,1.61c0.09,0.1,0.18,0.21,0.27,0.31
			c0.46,0.52,0.93,1.03,1.41,1.55c0.09,0.09,0.18,0.18,0.26,0.28c0.47,0.49,0.94,0.97,1.43,1.46c0.06,0.06,0.11,0.11,0.17,0.17
			c0.53,0.52,1.07,1.04,1.61,1.55c0.11,0.11,0.23,0.21,0.34,0.32c0.55,0.51,1.1,1.02,1.67,1.53c0.07,0.06,0.13,0.12,0.2,0.18
			c0.54,0.48,1.08,0.96,1.63,1.44c0.1,0.08,0.19,0.17,0.29,0.25c0.58,0.51,1.17,1.01,1.75,1.51c0.12,0.1,0.24,0.2,0.36,0.31
			c1.28,1.09,2.57,2.17,3.85,3.25c0.6,0.51,1.21,1.01,1.81,1.52c0.12,0.1,0.23,0.19,0.35,0.29c0.54,0.45,1.07,0.9,1.59,1.35
			c0.09,0.08,0.18,0.15,0.27,0.23c0.57,0.49,1.13,0.97,1.68,1.45c0.12,0.11,0.25,0.22,0.37,0.32c0.56,0.49,1.11,0.98,1.66,1.47
			c0.07,0.06,0.13,0.12,0.19,0.18c0.5,0.45,0.99,0.9,1.46,1.35c0.1,0.09,0.19,0.18,0.29,0.27c0.51,0.48,1,0.96,1.48,1.44
			c0.1,0.1,0.2,0.2,0.3,0.3c0.49,0.5,0.97,0.99,1.43,1.49c-0.57-0.8-1.12-1.61-1.65-2.41C935.75,579.64,935.53,579.28,935.3,578.92z
			 M872.12,511.34C872.12,511.34,872.12,511.34,872.12,511.34c0.01,0,0.02,0,0.02,0C872.14,511.34,872.13,511.34,872.12,511.34z"/>
		<path class="st1" d="M841.43,536.87c0,1.35-1.02,2.44-2.28,2.44c-1.26,0-2.28-1.09-2.28-2.44c0-1.35,1.02-2.44,2.28-2.44
			C840.41,534.43,841.43,535.52,841.43,536.87z"/>
		<path class="st1" d="M849.12,525.02c0,0,7.86,20.14-0.82,35.67c0,0,6.31-7.68,5.83-16.55S849.12,525.02,849.12,525.02z"/>
	</g>
	<g>
		<path class="st2" d="M1044.77,664.4c-0.23-0.35-0.46-0.71-0.68-1.06c-0.24-0.38-0.46-0.77-0.69-1.15
			c-0.15-0.26-0.31-0.51-0.46-0.77c-0.26-0.45-0.5-0.9-0.75-1.34c-0.1-0.19-0.22-0.38-0.32-0.57c-0.26-0.49-0.51-0.98-0.76-1.47
			c-0.07-0.15-0.15-0.29-0.23-0.44c-0.26-0.53-0.51-1.06-0.76-1.59c-0.05-0.1-0.1-0.2-0.14-0.3c-0.26-0.57-0.5-1.14-0.73-1.7
			c-0.03-0.06-0.06-0.13-0.08-0.19c-0.24-0.6-0.47-1.19-0.69-1.79c-0.01-0.03-0.03-0.07-0.04-0.1c-0.23-0.62-0.44-1.23-0.64-1.85
			c0-0.01-0.01-0.02-0.01-0.03c-1.42-4.4-2.15-8.76-2.2-13.08h0c-0.11-10.12,3.55-20,11.07-29.59
			c-6.78,6.37-17.81,13.48-23.82,21.63c-2.78-7.29-9.13-13.25-17.33-16.45l0,0c2.98-8.11,7.96-12.22,7.96-12.22
			c-22.28,0.8-34.52,8.83-40.54,14.66c-7.06,4.17-17.06,19.82-17.06,21.96v0.67c0,1.87,6.39,12.08,9.26,15.46l1.01,9.27
			c0.34,3.09,1.91,5.86,4.31,7.61l1.32,0.96l0,0l4.59,3.34l-5.57-16.06c-0.02-0.01-0.04-0.03-0.06-0.04c0.59,0.42,1.2,0.82,1.83,1.2
			c5.03,9.14,17.35,22.14,46.14,18.68c0,0-7.85-6-11.96-16.54c0.13-0.06,0.26-0.11,0.39-0.17c0.18-0.08,0.36-0.17,0.53-0.25
			c0.24-0.11,0.48-0.23,0.72-0.35c0.19-0.09,0.38-0.19,0.56-0.29c0.22-0.12,0.44-0.23,0.66-0.35c0.19-0.1,0.37-0.21,0.56-0.31
			c0.22-0.13,0.44-0.26,0.65-0.39c0.17-0.1,0.35-0.21,0.52-0.31c0.35-0.22,0.7-0.45,1.04-0.68c0.19-0.13,0.37-0.26,0.56-0.4
			c0.17-0.12,0.35-0.25,0.52-0.38c0.19-0.14,0.38-0.29,0.57-0.44c0.16-0.12,0.31-0.24,0.46-0.37c0.19-0.15,0.38-0.31,0.56-0.47
			c0.14-0.12,0.28-0.24,0.41-0.36c0.19-0.17,0.38-0.34,0.56-0.51c0.1-0.09,0.2-0.19,0.29-0.28c0.39-0.38,0.77-0.76,1.14-1.16
			c0.09-0.09,0.17-0.18,0.26-0.27c0.18-0.2,0.36-0.4,0.53-0.61c0.1-0.11,0.2-0.23,0.29-0.34c0.17-0.21,0.34-0.41,0.5-0.62
			c0.09-0.11,0.18-0.23,0.27-0.35c0.17-0.22,0.33-0.44,0.49-0.66c0.06-0.09,0.13-0.18,0.19-0.28c0.55-0.79,1.05-1.6,1.5-2.44
			c0.05-0.1,0.11-0.19,0.16-0.29c0.13-0.25,0.25-0.5,0.37-0.75c0.06-0.11,0.11-0.23,0.16-0.35c0.12-0.25,0.23-0.5,0.34-0.76
			c0.05-0.11,0.09-0.22,0.13-0.33c0.11-0.27,0.22-0.54,0.32-0.81l0,0c0.34,0.43,0.71,0.86,1.08,1.29c0.07,0.08,0.14,0.17,0.22,0.25
			c0.37,0.42,0.74,0.83,1.13,1.24c0.07,0.07,0.14,0.15,0.21,0.22c0.37,0.39,0.76,0.78,1.15,1.17c0.05,0.05,0.09,0.09,0.14,0.14
			c0.42,0.42,0.86,0.83,1.3,1.25c0.09,0.09,0.18,0.17,0.28,0.26c0.44,0.41,0.89,0.82,1.34,1.23c0.05,0.05,0.11,0.09,0.16,0.14
			c0.43,0.39,0.87,0.77,1.31,1.16c0.08,0.07,0.16,0.14,0.23,0.2c0.47,0.41,0.94,0.81,1.41,1.22c0.1,0.08,0.19,0.16,0.29,0.25
			c1.03,0.88,2.06,1.75,3.1,2.62c0.49,0.41,0.97,0.82,1.45,1.22c0.09,0.08,0.19,0.16,0.28,0.23c0.43,0.36,0.86,0.73,1.28,1.09
			c0.07,0.06,0.14,0.12,0.21,0.18c0.46,0.39,0.91,0.78,1.35,1.17c0.1,0.09,0.2,0.17,0.3,0.26c0.45,0.4,0.9,0.79,1.33,1.18
			c0.05,0.05,0.1,0.1,0.16,0.14c0.4,0.36,0.79,0.73,1.18,1.09c0.08,0.07,0.16,0.15,0.23,0.22c0.41,0.39,0.8,0.77,1.19,1.16
			c0.08,0.08,0.16,0.16,0.24,0.24c0.39,0.4,0.78,0.8,1.15,1.19c-0.46-0.65-0.9-1.29-1.33-1.94
			C1045.13,664.98,1044.95,664.69,1044.77,664.4z M993.98,610.08C993.98,610.08,993.98,610.08,993.98,610.08c0.01,0,0.01,0,0.02,0
			C993.99,610.08,993.99,610.08,993.98,610.08z"/>
		<ellipse class="st2" cx="967.18" cy="629.88" rx="2.28" ry="2.44"/>
		<path class="st2" d="M977.15,618.03c0,0,7.86,20.14-0.82,35.67c0,0,6.31-7.68,5.83-16.55
			C981.68,628.27,977.15,618.03,977.15,618.03z"/>
	</g>
	<g>
		<path class="st3" d="M820.72,628.52c-0.11-0.55-0.22-1.09-0.32-1.64c-0.07-0.39-0.14-0.78-0.21-1.17
			c-0.03-0.19-0.07-0.38-0.1-0.57c-0.08-0.51-0.16-1.03-0.24-1.54c-0.01-0.06-0.02-0.13-0.03-0.19c-0.41-2.88-0.64-5.72-0.68-8.53
			l0,0c-0.06-4.71,0.43-9.3,1.59-13.76c-3.55,3.33-6.42,7.11-8.29,11.53c-4.66-4.06-7.66-11.6-5.36-19.08
			c-9,2.46-19.82,10.55-25.19,21.3c0.65,1.12,1.34,2.19,2.07,3.21c0.36,0.51,0.73,1.01,1.12,1.5c0.13,0.17,0.27,0.32,0.4,0.49
			l-0.28,5.17c-0.06,1.21,0.39,2.38,1.24,3.19l0.6,0.57l0,0l2.07,1.97l-1.33-8.28c0.58,0.61,1.19,1.19,1.8,1.76
			c0.12,1.97,1.12,3.86,2.85,4.94c2.04,1.27,4.57,2.45,7.34,2.84c0.47,0.07,0.91-0.08,1.27-0.36c0.98,0.44,1.98,0.85,3,1.22l0,0
			c0,0,0-0.01,0-0.01c0.06-0.4,0.12-0.8,0.2-1.19c0.03-0.14,0.06-0.27,0.09-0.41c0.05-0.26,0.1-0.51,0.16-0.76
			c0.04-0.16,0.08-0.32,0.12-0.48c0.06-0.22,0.11-0.44,0.18-0.66c0.05-0.17,0.1-0.34,0.16-0.51c0.06-0.2,0.13-0.41,0.19-0.61
			c0.06-0.18,0.12-0.35,0.19-0.52c0.07-0.19,0.14-0.38,0.21-0.57c0.07-0.18,0.15-0.36,0.22-0.53c0.08-0.18,0.15-0.35,0.23-0.53
			c0.08-0.18,0.17-0.36,0.25-0.54c0.08-0.17,0.16-0.33,0.25-0.5c0.09-0.18,0.19-0.36,0.28-0.54c0.09-0.16,0.17-0.31,0.26-0.47
			c0.1-0.18,0.21-0.36,0.32-0.54c0.09-0.15,0.18-0.29,0.27-0.43c0.12-0.19,0.24-0.37,0.36-0.55c0.09-0.13,0.18-0.26,0.28-0.4
			c0.13-0.19,0.27-0.38,0.4-0.56c0.09-0.12,0.18-0.23,0.27-0.35c0.15-0.2,0.3-0.39,0.46-0.58c0.08-0.09,0.16-0.19,0.24-0.28
			c0.18-0.21,0.35-0.42,0.54-0.63c0.03-0.04,0.07-0.07,0.1-0.11c0.74-0.82,1.54-1.62,2.4-2.38c0,0,0.01-0.01,0.01-0.01
			c1.3,2.68,3.04,5.26,5.07,7.76c0.03,0.03,0.05,0.06,0.08,0.1c0.15,0.19,0.31,0.38,0.46,0.56c0.05,0.06,0.11,0.13,0.16,0.19
			c0.14,0.16,0.28,0.33,0.42,0.49c0.08,0.09,0.16,0.19,0.24,0.28c0.12,0.14,0.24,0.27,0.36,0.41c0.12,0.13,0.23,0.26,0.35,0.39
			c0.09,0.1,0.18,0.21,0.27,0.31c0.21,0.23,0.42,0.46,0.63,0.69c0.01,0.01,0.01,0.01,0.02,0.02l0,0l0,0
			C820.74,628.6,820.73,628.56,820.72,628.52z"/>
		<ellipse class="st3" cx="786.37" cy="612.11" rx="0.96" ry="1.03"/>
		<path class="st3" d="M790.58,607.1c0,0,3.32,8.51-0.35,15.08c0,0,2.67-3.25,2.46-7C792.5,611.43,790.58,607.1,790.58,607.1z"/>
	</g>
	<g>
		<path class="st4" d="M1171.51,715.08c0.47,0.72,0.95,1.43,1.45,2.15c-0.4-0.44-0.82-0.88-1.25-1.33
			c-0.09-0.09-0.17-0.18-0.26-0.27c-0.42-0.43-0.85-0.86-1.29-1.28c-0.08-0.08-0.17-0.16-0.25-0.24c-0.42-0.4-0.85-0.81-1.28-1.21
			c-0.06-0.05-0.11-0.11-0.17-0.16c-0.48-0.44-0.96-0.88-1.45-1.32c-0.11-0.1-0.22-0.19-0.32-0.29c-0.49-0.43-0.98-0.87-1.47-1.3
			c-0.08-0.07-0.16-0.14-0.23-0.2c-0.46-0.4-0.93-0.81-1.4-1.21c-0.1-0.09-0.2-0.17-0.3-0.26c-0.53-0.45-1.05-0.9-1.58-1.36
			c-1.13-0.96-2.26-1.93-3.38-2.91c-0.1-0.09-0.21-0.18-0.31-0.27c-0.52-0.45-1.03-0.9-1.54-1.35c-0.09-0.08-0.17-0.15-0.25-0.23
			c-0.48-0.43-0.96-0.86-1.43-1.29c-0.06-0.05-0.12-0.11-0.17-0.16c-0.49-0.45-0.98-0.91-1.46-1.37c-0.1-0.1-0.2-0.19-0.3-0.29
			c-0.48-0.46-0.95-0.92-1.41-1.39c-0.05-0.05-0.1-0.1-0.15-0.15c-0.43-0.43-0.85-0.87-1.25-1.3c-0.08-0.08-0.16-0.16-0.23-0.25
			c-0.43-0.46-0.84-0.92-1.24-1.38c-0.08-0.09-0.16-0.19-0.24-0.28c-0.41-0.48-0.8-0.96-1.18-1.44l0,0c-0.11,0.3-0.23,0.6-0.34,0.9
			c-0.05,0.12-0.09,0.24-0.14,0.36c-0.12,0.28-0.24,0.57-0.37,0.85c-0.06,0.13-0.12,0.26-0.18,0.38c-0.13,0.28-0.27,0.56-0.41,0.83
			c-0.06,0.11-0.12,0.22-0.17,0.33c-0.49,0.93-1.04,1.84-1.63,2.71c-0.07,0.1-0.14,0.21-0.21,0.31c-0.17,0.25-0.35,0.49-0.53,0.73
			c-0.1,0.13-0.19,0.26-0.29,0.38c-0.18,0.23-0.36,0.46-0.55,0.69c-0.1,0.13-0.21,0.25-0.32,0.38c-0.19,0.23-0.38,0.45-0.58,0.68
			c-0.09,0.1-0.19,0.2-0.28,0.3c-0.4,0.44-0.82,0.87-1.24,1.28c-0.11,0.1-0.21,0.21-0.32,0.32c-0.2,0.19-0.41,0.38-0.62,0.56
			c-0.15,0.14-0.3,0.27-0.45,0.4c-0.2,0.18-0.41,0.35-0.62,0.52c-0.17,0.14-0.34,0.27-0.51,0.41c-0.21,0.16-0.41,0.33-0.62,0.49
			c-0.19,0.14-0.38,0.28-0.57,0.42c-0.2,0.15-0.4,0.3-0.61,0.44c-0.37,0.26-0.75,0.51-1.13,0.76c-0.19,0.12-0.38,0.23-0.57,0.35
			c-0.24,0.15-0.47,0.29-0.71,0.43c-0.2,0.12-0.41,0.23-0.61,0.35c-0.24,0.13-0.48,0.26-0.72,0.39c-0.2,0.11-0.41,0.22-0.62,0.32
			c-0.26,0.13-0.52,0.26-0.79,0.38c-0.19,0.09-0.39,0.19-0.58,0.28c-0.14,0.06-0.28,0.13-0.43,0.19
			c4.48,11.72,13.05,18.38,13.05,18.38c-31.41,3.84-44.85-10.61-50.34-20.76c-0.68-0.42-1.35-0.87-1.99-1.34
			c0.02,0.01,0.04,0.03,0.06,0.05l6.07,17.85l-5.01-3.72v0l-1.44-1.07c-2.62-1.94-4.33-5.03-4.7-8.46l-1.1-10.3
			c-3.13-3.75-10.11-15.1-10.11-17.18v-0.74c0-2.38,10.91-19.77,18.61-24.41c6.56-6.48,19.92-15.41,44.22-16.3
			c0,0-5.43,4.57-8.68,13.59l0,0c8.95,3.55,15.87,10.18,18.9,18.28c6.56-9.07,18.6-16.97,25.99-24.05
			c-8.2,10.65-12.2,21.64-12.07,32.89l0,0c0.05,4.8,0.85,9.65,2.4,14.54c0,0.01,0.01,0.02,0.01,0.04c0.22,0.69,0.45,1.37,0.69,2.06
			c0.01,0.04,0.03,0.07,0.04,0.11c0.24,0.66,0.49,1.32,0.76,1.99c0.03,0.07,0.06,0.14,0.09,0.21c0.26,0.63,0.52,1.26,0.8,1.89
			c0.05,0.11,0.11,0.23,0.16,0.34c0.27,0.59,0.54,1.18,0.82,1.77c0.08,0.16,0.17,0.33,0.25,0.49c0.27,0.54,0.54,1.09,0.83,1.63
			c0.11,0.21,0.23,0.42,0.35,0.63c0.27,0.5,0.54,1,0.82,1.49c0.16,0.29,0.34,0.57,0.5,0.86c0.25,0.43,0.49,0.85,0.75,1.28
			c0.24,0.39,0.49,0.79,0.74,1.18C1171.1,714.44,1171.3,714.76,1171.51,715.08z M1115.52,653.73c-0.01,0-0.01,0-0.02,0c0,0,0,0,0,0
			C1115.51,653.73,1115.52,653.73,1115.52,653.73z"/>
		<path class="st5" d="M1088.59,676.54c0,1.2-0.9,2.18-2,2.18c-1.1,0-2-0.98-2-2.18c0-1.2,0.9-2.18,2-2.18
			C1087.69,674.36,1088.59,675.34,1088.59,676.54z"/>
		<path class="st5" d="M1095.33,665.96c0,0,6.89,18-0.72,31.87c0,0,5.53-6.86,5.11-14.79
			C1099.3,675.11,1095.33,665.96,1095.33,665.96z"/>
	</g>
	<g>
		<path class="st1" d="M1264.36,632.6c0.32,0.5,0.66,1,1,1.49c-0.28-0.31-0.57-0.61-0.87-0.92c-0.06-0.06-0.12-0.12-0.18-0.19
			c-0.29-0.3-0.59-0.59-0.9-0.89c-0.06-0.06-0.12-0.11-0.18-0.17c-0.29-0.28-0.59-0.56-0.89-0.84c-0.04-0.04-0.08-0.07-0.12-0.11
			c-0.33-0.3-0.67-0.61-1.01-0.91c-0.07-0.07-0.15-0.13-0.22-0.2c-0.34-0.3-0.68-0.6-1.02-0.9c-0.05-0.05-0.11-0.09-0.16-0.14
			c-0.32-0.28-0.64-0.56-0.97-0.84c-0.07-0.06-0.14-0.12-0.21-0.18c-0.36-0.31-0.73-0.63-1.1-0.94c-0.78-0.67-1.57-1.34-2.34-2.02
			c-0.07-0.06-0.15-0.13-0.22-0.19c-0.36-0.31-0.71-0.63-1.07-0.94c-0.06-0.05-0.12-0.11-0.18-0.16c-0.33-0.3-0.66-0.6-0.99-0.89
			c-0.04-0.04-0.08-0.07-0.12-0.11c-0.34-0.32-0.68-0.63-1.01-0.95c-0.07-0.07-0.14-0.13-0.21-0.2c-0.33-0.32-0.66-0.64-0.98-0.96
			c-0.03-0.03-0.07-0.07-0.1-0.1c-0.3-0.3-0.59-0.6-0.87-0.9c-0.05-0.06-0.11-0.11-0.16-0.17c-0.3-0.32-0.58-0.64-0.86-0.96
			c-0.06-0.06-0.11-0.13-0.17-0.19c-0.28-0.33-0.56-0.66-0.82-1v0c-0.07,0.21-0.16,0.42-0.24,0.63c-0.03,0.08-0.07,0.17-0.1,0.25
			c-0.08,0.2-0.17,0.39-0.25,0.59c-0.04,0.09-0.08,0.18-0.12,0.27c-0.09,0.19-0.18,0.39-0.28,0.58c-0.04,0.08-0.08,0.15-0.12,0.23
			c-0.34,0.65-0.72,1.27-1.13,1.88c-0.05,0.07-0.09,0.14-0.14,0.21c-0.12,0.17-0.24,0.34-0.37,0.51c-0.07,0.09-0.13,0.18-0.2,0.27
			c-0.12,0.16-0.25,0.32-0.38,0.48c-0.07,0.09-0.15,0.18-0.22,0.26c-0.13,0.16-0.27,0.32-0.4,0.47c-0.06,0.07-0.13,0.14-0.2,0.21
			c-0.28,0.3-0.57,0.6-0.86,0.89c-0.07,0.07-0.15,0.15-0.22,0.22c-0.14,0.13-0.28,0.26-0.43,0.39c-0.1,0.09-0.21,0.19-0.31,0.28
			c-0.14,0.12-0.28,0.24-0.43,0.36c-0.12,0.1-0.23,0.19-0.35,0.28c-0.14,0.11-0.28,0.23-0.43,0.34c-0.13,0.1-0.26,0.19-0.39,0.29
			c-0.14,0.1-0.28,0.21-0.42,0.31c-0.26,0.18-0.52,0.35-0.78,0.52c-0.13,0.08-0.26,0.16-0.39,0.24c-0.16,0.1-0.33,0.2-0.49,0.3
			c-0.14,0.08-0.28,0.16-0.42,0.24c-0.17,0.09-0.33,0.18-0.5,0.27c-0.14,0.08-0.28,0.15-0.43,0.22c-0.18,0.09-0.36,0.18-0.55,0.27
			c-0.13,0.06-0.27,0.13-0.4,0.19c-0.1,0.04-0.2,0.09-0.29,0.13c3.11,8.13,9.05,12.75,9.05,12.75
			c-21.79,2.67-31.12-7.36-34.93-14.41c-0.47-0.29-0.93-0.6-1.38-0.93c0.01,0.01,0.03,0.02,0.04,0.03l4.21,12.38l-3.48-2.58l0,0
			l-1-0.74c-1.82-1.35-3.01-3.49-3.26-5.87l-0.76-7.15c-2.17-2.6-7.01-10.48-7.01-11.92v-0.52c0-1.65,7.57-13.72,12.91-16.94
			c4.55-4.5,13.82-10.69,30.68-11.31c0,0-3.77,3.17-6.02,9.43l0,0c6.21,2.46,11.01,7.06,13.12,12.69
			c4.55-6.29,12.9-11.78,18.03-16.69c-5.69,7.39-8.46,15.01-8.38,22.82h0c0.04,3.33,0.59,6.69,1.67,10.09
			c0,0.01,0.01,0.02,0.01,0.03c0.15,0.48,0.31,0.95,0.48,1.43c0.01,0.03,0.02,0.05,0.03,0.08c0.17,0.46,0.34,0.92,0.52,1.38
			c0.02,0.05,0.04,0.1,0.06,0.15c0.18,0.44,0.36,0.88,0.56,1.31c0.03,0.08,0.07,0.16,0.11,0.24c0.18,0.41,0.37,0.82,0.57,1.23
			c0.06,0.11,0.12,0.23,0.17,0.34c0.19,0.38,0.37,0.75,0.57,1.13c0.08,0.15,0.16,0.29,0.24,0.44c0.19,0.35,0.37,0.69,0.57,1.04
			c0.11,0.2,0.23,0.4,0.35,0.6c0.17,0.3,0.34,0.59,0.52,0.89c0.17,0.27,0.34,0.55,0.52,0.82
			C1264.08,632.16,1264.22,632.38,1264.36,632.6z M1225.51,590.03c0,0-0.01,0-0.01,0h0
			C1225.51,590.03,1225.51,590.03,1225.51,590.03z"/>
		<ellipse class="st1" cx="1205.44" cy="605.86" rx="1.39" ry="1.51"/>
		<path class="st1" d="M1211.51,598.51c0,0,4.78,12.49-0.5,22.12c0,0,3.84-4.76,3.55-10.26
			C1214.26,604.86,1211.51,598.51,1211.51,598.51z"/>
	</g>
	<g>
		<path class="st4" d="M1102.25,576.67c0.27,0.41,0.54,0.82,0.82,1.23c-0.23-0.25-0.47-0.5-0.71-0.76c-0.05-0.05-0.1-0.1-0.15-0.15
			c-0.24-0.24-0.49-0.49-0.74-0.73c-0.05-0.05-0.1-0.09-0.14-0.14c-0.24-0.23-0.48-0.46-0.73-0.69c-0.03-0.03-0.06-0.06-0.1-0.09
			c-0.27-0.25-0.55-0.5-0.83-0.75c-0.06-0.05-0.12-0.11-0.18-0.16c-0.28-0.25-0.56-0.49-0.84-0.74c-0.04-0.04-0.09-0.08-0.13-0.12
			c-0.26-0.23-0.53-0.46-0.8-0.69c-0.06-0.05-0.12-0.1-0.17-0.15c-0.3-0.26-0.6-0.52-0.9-0.77c-0.64-0.55-1.29-1.1-1.92-1.66
			c-0.06-0.05-0.12-0.1-0.18-0.16c-0.29-0.26-0.59-0.51-0.88-0.77c-0.05-0.04-0.1-0.09-0.14-0.13c-0.27-0.24-0.54-0.49-0.81-0.73
			c-0.03-0.03-0.07-0.06-0.1-0.09c-0.28-0.26-0.56-0.52-0.83-0.78c-0.06-0.05-0.11-0.11-0.17-0.16c-0.27-0.26-0.54-0.53-0.81-0.79
			c-0.03-0.03-0.06-0.06-0.08-0.09c-0.24-0.25-0.48-0.49-0.71-0.74c-0.04-0.05-0.09-0.09-0.13-0.14c-0.24-0.26-0.48-0.52-0.7-0.79
			c-0.05-0.05-0.09-0.11-0.14-0.16c-0.23-0.27-0.46-0.55-0.67-0.82l0,0c-0.06,0.17-0.13,0.34-0.2,0.51
			c-0.03,0.07-0.05,0.14-0.08,0.21c-0.07,0.16-0.14,0.32-0.21,0.48c-0.03,0.07-0.07,0.15-0.1,0.22c-0.07,0.16-0.15,0.32-0.23,0.47
			c-0.03,0.06-0.07,0.12-0.1,0.19c-0.28,0.53-0.59,1.05-0.93,1.55c-0.04,0.06-0.08,0.12-0.12,0.18c-0.1,0.14-0.2,0.28-0.3,0.42
			c-0.05,0.07-0.11,0.15-0.16,0.22c-0.1,0.13-0.21,0.26-0.31,0.39c-0.06,0.07-0.12,0.15-0.18,0.22c-0.11,0.13-0.22,0.26-0.33,0.39
			c-0.05,0.06-0.11,0.12-0.16,0.17c-0.23,0.25-0.47,0.49-0.71,0.73c-0.06,0.06-0.12,0.12-0.18,0.18c-0.11,0.11-0.23,0.21-0.35,0.32
			c-0.09,0.08-0.17,0.15-0.26,0.23c-0.12,0.1-0.23,0.2-0.35,0.3c-0.1,0.08-0.19,0.16-0.29,0.23c-0.12,0.09-0.23,0.19-0.35,0.28
			c-0.11,0.08-0.21,0.16-0.32,0.24c-0.12,0.08-0.23,0.17-0.35,0.25c-0.21,0.15-0.43,0.29-0.64,0.43c-0.11,0.07-0.21,0.13-0.32,0.2
			c-0.13,0.08-0.27,0.17-0.41,0.25c-0.11,0.07-0.23,0.13-0.35,0.2c-0.14,0.08-0.27,0.15-0.41,0.22c-0.12,0.06-0.23,0.12-0.35,0.18
			c-0.15,0.07-0.3,0.15-0.45,0.22c-0.11,0.05-0.22,0.11-0.33,0.16c-0.08,0.04-0.16,0.07-0.24,0.11c2.56,6.67,7.43,10.47,7.43,10.47
			c-17.9,2.19-25.55-6.04-28.68-11.83c-0.39-0.24-0.77-0.5-1.14-0.76c0.01,0.01,0.02,0.02,0.03,0.03l3.46,10.17l-2.85-2.12l0,0
			l-0.82-0.61c-1.49-1.11-2.47-2.87-2.68-4.82l-0.63-5.87c-1.78-2.14-5.76-8.6-5.76-9.79v-0.42c0-1.36,6.21-11.26,10.6-13.91
			c3.74-3.69,11.35-8.78,25.2-9.29c0,0-3.09,2.6-4.95,7.74l0,0c5.1,2.02,9.04,5.8,10.77,10.42c3.74-5.17,10.6-9.67,14.81-13.7
			c-4.67,6.07-6.95,12.33-6.88,18.74l0,0c0.03,2.73,0.49,5.5,1.37,8.28c0,0.01,0,0.01,0.01,0.02c0.12,0.39,0.26,0.78,0.4,1.17
			c0.01,0.02,0.02,0.04,0.02,0.06c0.14,0.38,0.28,0.75,0.43,1.13c0.02,0.04,0.03,0.08,0.05,0.12c0.15,0.36,0.3,0.72,0.46,1.08
			c0.03,0.06,0.06,0.13,0.09,0.19c0.15,0.34,0.31,0.67,0.47,1.01c0.05,0.09,0.1,0.19,0.14,0.28c0.15,0.31,0.31,0.62,0.47,0.93
			c0.06,0.12,0.13,0.24,0.2,0.36c0.15,0.28,0.31,0.57,0.47,0.85c0.09,0.16,0.19,0.33,0.29,0.49c0.14,0.24,0.28,0.49,0.43,0.73
			c0.14,0.22,0.28,0.45,0.42,0.67C1102.02,576.31,1102.13,576.49,1102.25,576.67z M1070.35,541.72
			C1070.35,541.72,1070.35,541.72,1070.35,541.72l-0.01,0C1070.35,541.72,1070.35,541.72,1070.35,541.72z"/>
		<path class="st5" d="M1055.01,554.71c0,0.69-0.51,1.24-1.14,1.24s-1.14-0.56-1.14-1.24c0-0.69,0.51-1.24,1.14-1.24
			S1055.01,554.03,1055.01,554.71z"/>
		<path class="st5" d="M1058.85,548.68c0,0,3.93,10.25-0.41,18.16c0,0,3.15-3.91,2.91-8.43
			C1061.11,553.9,1058.85,548.68,1058.85,548.68z"/>
	</g>
</g>
</svg>
