<svg id="Camada_1" data-name="Camada 1" xmlns="http://www.w3.org/2000/svg" xmlns:xlink="http://www.w3.org/1999/xlink" viewBox="0 0 500 500"><defs><style>.cls-1{fill:url(#Gradiente_sem_nome_6);}.cls-2{fill:#fff;}</style><linearGradient id="Gradiente_sem_nome_6" y1="250" x2="500" y2="250" gradientUnits="userSpaceOnUse"><stop offset="0" stop-color="#3d9191"/><stop offset="1" stop-color="#005578"/></linearGradient></defs><circle class="cls-1" cx="250" cy="250" r="250"/><path class="cls-2" d="M255.42,258.1v40.79c9.45-2.07,13.36-9.91,13.36-18.44C268.78,268.93,264.17,262.71,255.42,258.1Z"/><path class="cls-2" d="M229.38,198.88c0,8.29,3.45,14.75,11.29,19.35V181.36C233.76,183.44,229.38,189.2,229.38,198.88Z"/><path class="cls-2" d="M425.41,165.44a22.72,22.72,0,0,0-1.48-8.11,23,23,0,0,0-20.78-14.88,183.48,183.48,0,0,1-53.88,132.61q-3.09,3.09-6.3,6a183.58,183.58,0,0,0,47.54-135.3c-.33.19-.65.39-1,.61,0-.73.05-1.46.05-2.19a46,46,0,0,0-65.52-41.65A184.42,184.42,0,0,1,314.25,146q-1.47,4.11-3.11,8.12a183.39,183.39,0,0,0,8-48.86l-.33.2a69.14,69.14,0,0,0-134.79-.1,183.41,183.41,0,0,0,8,48.76q-1.65-4-3.12-8.12A185,185,0,0,1,179,102.7a46,46,0,0,0-65.88,41.48c0,1.52.08,3,.22,4.51-.24-.23-.5-.46-.75-.68a183.52,183.52,0,0,0,47.66,133.05q-3.21-2.91-6.3-6a183.47,183.47,0,0,1-53.88-132.48,23,23,0,0,0-25.14,26.83c-.23,3.74-.35,7.52-.35,11.32,0,98.83,77.77,179.48,175.41,184,97.64-4.55,175.41-85.2,175.41-184,0-3.8-.12-7.58-.35-11.32A22.63,22.63,0,0,0,425.41,165.44Zm-170,157.88v20H240.67v-20c-38.25-3-45.17-23.51-45.17-47.24v-4.84h31.8c0,12.67,1.16,24.65,13.37,27.65V252.34l-11.52-4.15c-22.36-8.06-31.57-23.5-31.57-44.24,0-28.12,15.9-44,43.09-47V141h14.75v15.9c33.87,2.76,42.63,23,42.63,43.55v3.23h-31.8c-.23-11.76-3-19.82-10.83-22.36v43.56l18.2,7.37C290.68,239.44,302,248.42,302,274,302,307.19,285.84,321.24,255.42,323.32Z"/><path class="cls-2" d="M434.08,363.42c-3.38-2-11.91-3.46-22-3.53.67,11.39-18.34,22.83-57,31.52q-3.27.73-6.66,1.42c36.69-9,53.46-20.71,50.3-32.16l-1,.15a2.31,2.31,0,0,0,.06-.52c0-6-21.8-10.93-48.68-10.93a199.52,199.52,0,0,0-20.67,1c-1.55,3.45-5,6.92-10.4,10.33-1,.65-2.14,1.3-3.3,1.93,5.24-3.85,8-7.75,8.43-11.61l-.34.05c-7.39-7.32-36.53-12.78-71.34-12.78s-63.89,5.45-71.32,12.75c.46,3.85,3.2,7.75,8.42,11.59-1.16-.63-2.26-1.28-3.29-1.93-5.41-3.4-8.82-6.85-10.39-10.29a197.46,197.46,0,0,0-21-1.07c-26.89,0-48.68,4.89-48.68,10.93a2.71,2.71,0,0,0,.23,1.07l-.79-.16c-2.5,11.27,14.31,22.72,50.43,31.62q-3.39-.69-6.66-1.42c-38.66-8.69-57.67-20.11-57-31.49-.86,0-1.74,0-2.63,0-10.42,0-19.31,1.48-22.78,3.54-1,.6-1.56,1.25-1.56,1.93a1.56,1.56,0,0,0,.37.95,10.26,10.26,0,0,0-.37,2.69c0,23.49,82.3,42.66,185.64,43.74,103.34-1.08,185.64-20.25,185.64-43.74a10.26,10.26,0,0,0-.37-2.69,1.56,1.56,0,0,0,.37-.95C435.64,364.67,435.09,364,434.08,363.42Z"/></svg>