<svg id="Camada_1" data-name="Camada 1" xmlns="http://www.w3.org/2000/svg" xmlns:xlink="http://www.w3.org/1999/xlink" viewBox="0 0 500 500"><defs><style>.cls-1{fill:url(#Gradiente_sem_nome_6);}.cls-2{fill:#f2f2f2;}</style><linearGradient id="Gradiente_sem_nome_6" y1="250" x2="500" y2="250" gradientUnits="userSpaceOnUse"><stop offset="0" stop-color="#3d9191"/><stop offset="1" stop-color="#005578"/></linearGradient></defs><circle class="cls-1" cx="250" cy="250" r="250"/><path class="cls-2" d="M282,356.18l-.57.24-.29.12-.15.06-.07,0h0l.14,0,7.93-2.75-5.79,1.84h0Z"/><path class="cls-2" d="M288,353.36c.78-.43,1.55-.87,2.32-1.31s1.51-.93,2.26-1.41l2.18-1.49c.72-.53,1.43-1,2.12-1.59s1.38-1.1,2.05-1.66A62.13,62.13,0,0,0,312.28,330a59.8,59.8,0,0,0,7.15-19,58.16,58.16,0,0,0,1-9.87v-2.45l-.06-1.22,0-.61c0-.2,0-.4,0-.6-.07-.81-.14-1.61-.23-2.41s-.22-1.59-.33-2.37a53.05,53.05,0,0,0-6.17-17.64,47.61,47.61,0,0,0-5.16-7.42,46.27,46.27,0,0,0-6.24-6.13c-.14-.12-.27-.23-.42-.34l-.43-.33-.85-.65c-.28-.21-.57-.41-.87-.62l-.87-.59c-.59-.4-1.2-.76-1.79-1.12-.3-.19-.61-.35-.91-.52l-.91-.51c-.61-.33-1.24-.63-1.86-.92l-.47-.22-.47-.21-.94-.4c-.31-.14-.63-.25-.95-.37l-1-.35c-.32-.12-.64-.22-1-.32l-1-.3a36.89,36.89,0,0,0-7.74-1.41l-1.93-.07c-.64,0-1.28,0-1.91,0s-1.27.09-1.89.16-1.25.18-1.87.3l-1,3.07a38.86,38.86,0,0,1,5.47,2.55,39.81,39.81,0,0,1,5,3.34,39.28,39.28,0,0,1,8.14,8.68,38.21,38.21,0,0,1,3,5.15,37.56,37.56,0,0,1,2.13,5.51l.21.71.1.35.09.36.17.72.09.36c0,.12.05.24.08.36l.15.72.07.36c0,.12.05.24.07.36l.12.73c0,.24.08.48.11.73a38.38,38.38,0,0,1-.18,11.72,38.08,38.08,0,0,1-1.43,5.68,37.61,37.61,0,0,1-5.36,10.33,38,38,0,0,1-8.21,8.21,37,37,0,0,1-4.95,3.05l-1.3.64-1.33.59-1.35.54-1.18.42c-1.51.28-3,.61-4.49,1-.79.2-1.57.42-2.35.64l-2.32.74a69,69,0,0,0-9,3.76,66.92,66.92,0,0,0-8.34,5,68.23,68.23,0,0,0-7.52,6.16,67.51,67.51,0,0,0-6.57,7.16l-.74,1-.38.48-.35.49-.71,1-.36.49-.17.25-.17.25c-.45.68-.9,1.35-1.34,2l-1.25,2.08a69.64,69.64,0,0,0-4.25,8.73,68.45,68.45,0,0,0-2.95,9.24,66.06,66.06,0,0,0-1.29,7.1,138,138,0,0,0,27.16,4.15c.62-1.5,1.28-2.94,2-4.32a56.38,56.38,0,0,1,6-9.21c.29-.34.58-.68.85-1l.88-1,.11-.12.11-.12.22-.25.45-.48.22-.24.24-.23.45-.47c1.24-1.24,2.51-2.42,3.83-3.52s2.68-2.14,4.09-3.11,2.86-1.84,4.35-2.66a53.72,53.72,0,0,1,9.44-4.06l6.42-2.05c.81-.36,1.63-.73,2.43-1.11S287.22,353.77,288,353.36Z"/><path class="cls-2" d="M199.42,144a118.93,118.93,0,0,0-41.07,29.51,120.18,120.18,0,0,0-8.1,10,73.1,73.1,0,0,0,57.65,41.84,74,74,0,0,0,8.6.5,72.88,72.88,0,0,0,23.23-3.78A18.23,18.23,0,0,0,265.09,219a9.11,9.11,0,0,1-5.06-7.56q2.79-2.09,5.37-4.41,1.53-1.89,3.18-3.67c.5-.54,1-1.08,1.53-1.6q1.51-1.56,3.14-3a72.69,72.69,0,0,1,38.13-18c0,.39,0,.79,0,1.18A27.42,27.42,0,0,0,349.84,207a18.24,18.24,0,0,1-7.41-24c.45,0,.9,0,1.36,0a27.31,27.31,0,0,0,20.55-9.29c.14-.15.28-.31.41-.47a27.39,27.39,0,0,0-43.51-12.39c-1.57-1.28-3.18-2.52-4.81-3.71a118.47,118.47,0,0,0-23.21-13.26q-2.25-1-4.53-1.83c-2.14-.82-4.31-1.57-6.51-2.27a117.58,117.58,0,0,0-18.44-4.22,27.34,27.34,0,0,1-6.49-17.48A45.7,45.7,0,0,0,199.42,144Z"/><path class="cls-2" d="M417.47,327.17l-16.75-35.52-.26-.08.08-.29-3.85-8.18,5.43,1.95a156.55,156.55,0,0,0,4-35.47c0-81.47-61.09-148.34-142.11-155.55l5-56.5a213.05,213.05,0,0,1,186.71,266.8l5.77,2.07Z"/><path class="cls-2" d="M138.15,358.93l.18-.18.22.22,9,.75-4.41,3.73A154.89,154.89,0,0,0,250,405.74a156.5,156.5,0,0,0,127.82-66.42L424.22,372a213.24,213.24,0,0,1-217.71,86,211.93,211.93,0,0,1-77-32.94,214.53,214.53,0,0,1-29.88-24.84l-4.69,4L99,355.64Z"/><path class="cls-2" d="M163,303.08a37.88,37.88,0,0,1-5.36,10.33,38.32,38.32,0,0,1-8.22,8.21,36.86,36.86,0,0,1-4.94,3.05l-1.31.64-1.32.59-1.35.54-1.18.42c-1.14.21-2.28.45-3.4.72a139.39,139.39,0,0,0,21.73,25.13l1.16-.66c.76-.46,1.52-.93,2.26-1.41s1.47-1,2.19-1.49,1.42-1,2.12-1.59,1.37-1.1,2-1.66A62.17,62.17,0,0,0,180.77,330a59.54,59.54,0,0,0,7.14-19,57.16,57.16,0,0,0,1-9.87v-2.15l0-.3,0-1.22,0-.61c0-.2,0-.4,0-.6-.07-.81-.14-1.61-.23-2.41s-.22-1.59-.34-2.37A52.81,52.81,0,0,0,182,273.92a49,49,0,0,0-5.16-7.42,46.34,46.34,0,0,0-6.25-6.13c-.13-.12-.27-.23-.41-.34l-.43-.33-.85-.65-.87-.62-.88-.59c-.58-.4-1.19-.76-1.79-1.12-.29-.19-.6-.35-.91-.52l-.91-.51c-.6-.33-1.24-.63-1.85-.92l-.47-.22-.47-.21-.94-.4c-.31-.14-.63-.25-.95-.37l-1-.35c-.32-.12-.65-.22-1-.32s-.63-.21-.95-.3a36.87,36.87,0,0,0-7.75-1.41l-1.92-.07c-.65,0-1.28,0-1.91,0s-1.27.09-1.9.16-1.25.18-1.86.3l-1,3.07a39.27,39.27,0,0,1,5.46,2.55,39.92,39.92,0,0,1,5,3.34,39.17,39.17,0,0,1,4.4,4,38.55,38.55,0,0,1,3.74,4.64,38.14,38.14,0,0,1,3,5.15,38.77,38.77,0,0,1,2.14,5.51l.2.71.1.35c0,.12.06.24.09.36l.18.72.09.36c0,.12.05.24.07.36l.15.72.08.36c0,.12,0,.24.06.36l.12.73c0,.24.09.48.11.73a38.38,38.38,0,0,1-.18,11.72A39.31,39.31,0,0,1,163,303.08Z"/><path class="cls-2" d="M332.43,362.18a138.79,138.79,0,0,0,52.06-75.36,52.23,52.23,0,0,0-5.18-12.9,48.29,48.29,0,0,0-5.16-7.42,46.27,46.27,0,0,0-6.24-6.13l-.42-.34-.43-.33-.85-.65c-.28-.21-.58-.41-.87-.62l-.88-.59c-.58-.4-1.19-.76-1.78-1.12-.3-.19-.61-.35-.91-.52l-.92-.51c-.6-.33-1.23-.63-1.85-.92l-.47-.22-.47-.21-.94-.4c-.31-.14-.63-.25-.95-.37l-.95-.35c-.32-.12-.64-.22-1-.32l-1-.3a36.89,36.89,0,0,0-7.74-1.41l-1.93-.07c-.64,0-1.28,0-1.91,0s-1.27.09-1.89.16-1.26.18-1.87.3l-1,3.07a38.22,38.22,0,0,1,5.46,2.55,39.2,39.2,0,0,1,5,3.34,40.16,40.16,0,0,1,4.41,4,39.46,39.46,0,0,1,3.73,4.64,38.14,38.14,0,0,1,3,5.15,38.77,38.77,0,0,1,2.14,5.51l.2.71.11.35.09.36.17.72.09.36c0,.12.05.24.08.36l.15.72.07.36c0,.12,0,.24.06.36l.12.73c0,.24.09.48.12.73a38.81,38.81,0,0,1-.19,11.72,36.86,36.86,0,0,1-1.42,5.68,37.88,37.88,0,0,1-5.36,10.33,38.32,38.32,0,0,1-8.22,8.21,36.86,36.86,0,0,1-4.94,3.05l-1.3.64-1.33.59-1.35.54-1.18.42c-1.51.28-3,.61-4.49,1-.79.2-1.57.42-2.35.64l-2.32.74a69,69,0,0,0-9,3.76A67.82,67.82,0,0,0,296,351.31l-.75,1-.37.48-.35.49-.71,1-.36.49-.17.25-.17.25c-.45.68-.9,1.35-1.34,2l-1.26,2.08a71,71,0,0,0-4.24,8.73,68.45,68.45,0,0,0-2.95,9.24,64.48,64.48,0,0,0-1.39,7.93,137.81,137.81,0,0,0,43.29-18.16Q328.93,364.73,332.43,362.18Z"/><path class="cls-2" d="M222.25,353.36c.78-.43,1.55-.87,2.32-1.31s1.51-.93,2.26-1.41l2.19-1.49c.71-.53,1.42-1,2.12-1.59s1.37-1.1,2-1.66A62.13,62.13,0,0,0,246.52,330a59.57,59.57,0,0,0,7.15-19,57.16,57.16,0,0,0,1-9.87v-2.45l-.06-1.22,0-.61c0-.2,0-.4,0-.6-.07-.81-.13-1.61-.23-2.41s-.21-1.59-.33-2.37a52.81,52.81,0,0,0-6.16-17.64,49,49,0,0,0-5.16-7.42,46.34,46.34,0,0,0-6.25-6.13L236,260l-.43-.33-.86-.65-.86-.62-.88-.59c-.58-.4-1.19-.76-1.79-1.12-.29-.19-.61-.35-.91-.52l-.91-.51c-.61-.33-1.24-.63-1.85-.92l-.47-.22-.48-.21-.93-.4c-.31-.14-.64-.25-1-.37l-1-.35c-.31-.12-.64-.22-1-.32s-.63-.21-1-.3a37,37,0,0,0-7.75-1.41l-1.92-.07c-.65,0-1.29,0-1.92,0s-1.26.09-1.89.16-1.25.18-1.87.3l-1,3.07a39.22,39.22,0,0,1,10.46,5.89A38.53,38.53,0,0,1,227,274.41a37.56,37.56,0,0,1,2.13,5.51l.21.71.1.35.09.36.18.72.09.36c0,.12,0,.24.07.36l.15.72.08.36.06.36.12.73c0,.24.08.48.11.73a38.38,38.38,0,0,1-.18,11.72,37.89,37.89,0,0,1-15,24.22,37.5,37.5,0,0,1-4.94,3.05l-1.31.64-1.32.59-1.35.54-1.19.42c-1.5.28-3,.61-4.49,1-.78.2-1.57.42-2.34.64l-2.32.74a69.1,69.1,0,0,0-9,3.76,66.54,66.54,0,0,0-15.86,11.16,66.37,66.37,0,0,0-6.56,7.16l-.75,1-.37.48-.36.49-.71,1-.35.49-.18.25-.17.25-.41.63a139,139,0,0,0,26,17.46l.27-.31.11-.12.11-.12.23-.25.44-.48.22-.24.24-.23.46-.47c1.23-1.24,2.5-2.42,3.82-3.52s2.68-2.14,4.09-3.11,2.86-1.84,4.35-2.66a53.72,53.72,0,0,1,9.44-4.06l6.43-2.05c.81-.36,1.62-.73,2.42-1.11S221.46,353.77,222.25,353.36Z"/><path class="cls-2" d="M42.21,296.1a213,213,0,0,1,91-224.54A211.48,211.48,0,0,1,194.53,44l-1.09-6,40,27.83L211,98l.06.25-.29.08-5.16,7.42-1-5.69a156.34,156.34,0,0,0-96.35,215.13L56.8,339.11A212.12,212.12,0,0,1,42.21,296.1Z"/><path class="cls-2" d="M216.29,356.18l-.58.24-.29.12-.15.06-.07,0h0l.15,0,7.92-2.75-5.78,1.84h0Z"/></svg>