<svg id="Camada_1" data-name="Camada 1" xmlns="http://www.w3.org/2000/svg" xmlns:xlink="http://www.w3.org/1999/xlink" viewBox="0 0 500 500"><defs><style>.cls-1{fill:url(#Gradiente_sem_nome_6);}.cls-2{fill:#fff;}</style><linearGradient id="Gradiente_sem_nome_6" y1="250" x2="500" y2="250" gradientUnits="userSpaceOnUse"><stop offset="0" stop-color="#3d9191"/><stop offset="1" stop-color="#005578"/></linearGradient></defs><circle class="cls-1" cx="250" cy="250" r="250"/><path class="cls-2" d="M227.85,68.86l-91,91h80.34a10.7,10.7,0,0,0,10.7-10.69Z"/><path class="cls-2" d="M237.64,68.79v91.1h0a9.79,9.79,0,0,1-9.79,9.79H136.73V421a10.43,10.43,0,0,0,10.44,10.43H352.92A10.46,10.46,0,0,0,363.38,421v-343a9.13,9.13,0,0,0-9.13-9.13ZM335,400.34a62.86,62.86,0,0,1-11.67-4.51,62.21,62.21,0,0,1-7.45-4.43,63.3,63.3,0,0,1-36,11.23A63.14,63.14,0,0,1,251,395.69a63.39,63.39,0,0,1-7.37-4.43A62.8,62.8,0,0,1,222.23,401,63.68,63.68,0,0,1,192,401a63,63,0,0,1-13.82-5.15,63.9,63.9,0,0,1-22-18.52l29-21.71a27.23,27.23,0,0,0,43.73-.1L243.45,336,258,355.47a27.24,27.24,0,0,0,43.46.21l14.39-18.82,14.39,18.82a27.76,27.76,0,0,0,4.73,4.83Zm0-85.42a62.86,62.86,0,0,1-11.67-4.51,62.21,62.21,0,0,1-7.45-4.43,63.3,63.3,0,0,1-36,11.23A63.14,63.14,0,0,1,251,310.27a63.39,63.39,0,0,1-7.37-4.43,62.8,62.8,0,0,1-21.37,9.74,63.68,63.68,0,0,1-30.23,0,63,63,0,0,1-13.82-5.15,63.9,63.9,0,0,1-22-18.52l29-21.71a27.23,27.23,0,0,0,43.73-.1l14.47-19.53L258,270.05a27.24,27.24,0,0,0,43.46.21l14.39-18.82,14.39,18.82a27.76,27.76,0,0,0,4.73,4.83Z"/></svg>