<svg id="Camada_1" data-name="Camada 1" xmlns="http://www.w3.org/2000/svg" xmlns:xlink="http://www.w3.org/1999/xlink" viewBox="0 0 500 500"><defs><style>.cls-1{fill:url(#Gradiente_sem_nome_6);}.cls-2{fill:#fff;}.cls-3{fill:#005578;}</style><linearGradient id="Gradiente_sem_nome_6" y1="250" x2="500" y2="250" gradientUnits="userSpaceOnUse"><stop offset="0" stop-color="#3d9191"/><stop offset="1" stop-color="#005578"/></linearGradient></defs><circle class="cls-1" cx="250" cy="250" r="250"/><path class="cls-2" d="M328.05,291h6.46a18.3,18.3,0,0,0,.19,25.32,18.22,18.22,0,0,0-5.16,10.12,19,19,0,0,0-.22,2.83,18.3,18.3,0,0,0,18.3,18.3,36.59,36.59,0,1,1-36.15,42.92,37.61,37.61,0,0,0-.54,6.32,36.59,36.59,0,0,0,36.59,36.59h.94A55,55,0,0,0,365.7,326.5a18.18,18.18,0,0,0-5-10,18.3,18.3,0,0,0,.39-25.52h8.63a18.33,18.33,0,0,0,17.49-12.86L433,131.62a18.32,18.32,0,0,0-17.49-23.79H282.25a18.32,18.32,0,0,0-17.48,23.79l45.8,146.5A18.32,18.32,0,0,0,328.05,291Z"/><path class="cls-2" d="M311.66,293.14A26.05,26.05,0,0,1,303,280.48l-10.08-32.21a91.58,91.58,0,1,1-36.37-116.75,25.83,25.83,0,0,1-.15-10,26.37,26.37,0,0,1,13.71-18.65,25.82,25.82,0,0,1,12.12-3h8.14a36.62,36.62,0,0,1-.16-12.18,145.47,145.47,0,0,0-50.63-21,36.6,36.6,0,0,1-59.16-.11,145.58,145.58,0,0,0-51.18,21.09,36.59,36.59,0,0,1-41.9,41.79,145.94,145.94,0,0,0-21.18,51,36.58,36.58,0,0,1-.07,59.3A145.55,145.55,0,0,0,87.34,291a36.59,36.59,0,0,1,41.42,41.45A145.45,145.45,0,0,0,180,353.7a36.59,36.59,0,0,1,59.77-.15,145.85,145.85,0,0,0,50.47-21.06,36.62,36.62,0,0,1,21.4-39.35Z"/><path class="cls-3" d="M250,250.3a.3.3,0,0,0,0-.6.3.3,0,0,0,0,.6Z"/></svg>