<svg id="Camada_1" data-name="Camada 1" xmlns="http://www.w3.org/2000/svg" xmlns:xlink="http://www.w3.org/1999/xlink" viewBox="0 0 500 500"><defs><style>.cls-1{fill:url(#Gradiente_sem_nome_6);}.cls-2{fill:#fff;}</style><linearGradient id="Gradiente_sem_nome_6" y1="250" x2="500" y2="250" gradientUnits="userSpaceOnUse"><stop offset="0" stop-color="#3d9191"/><stop offset="1" stop-color="#005578"/></linearGradient></defs><circle class="cls-1" cx="250" cy="250" r="250"/><path class="cls-2" d="M313.44,381.79c3.92-.69,7.77-1.41,11.58-2.16a145.75,145.75,0,0,1-67.74,48,117.27,117.27,0,0,0,24.35-28.53q4-6.49,7.56-13.61,6.54-.84,13-1.82l-.27-.08A166.08,166.08,0,0,1,277,374c-19.66,2.12-40.14,3.3-61.08,3.46V333.88l6.58,0a216.63,216.63,0,0,1-16.72-19.75V321c-28.42-.08-56.11-.9-82.08-2.39a239,239,0,0,1,0-57.41c16.47-.95,33.63-1.62,51.24-2-1.71-4.19-3.3-8.44-4.8-12.76-15.22.38-30.09,1-44.46,1.77a194.17,194.17,0,0,1,12.37-41.58q10.42-1.24,21.17-2.14-1.12-6.31-2-12.73-6.3.54-12.52,1.19,1.94-3.49,4-6.82,3.31-5.3,6.89-10-.57-7.38-.77-14.81a128,128,0,0,0-14.73,19.41q-4.05,6.5-7.56,13.62-9.14,1.17-18.07,2.62t-17.76,3.2a146,146,0,0,1,58-44.28c0-.85,0-1.69,0-2.54,0-2.82,0-5.66.12-8.49q-2.23.87-4.47,1.81a156.26,156.26,0,0,0-68.64,56.74A152,152,0,0,0,72.64,219q-2.62,5.11-4.87,10.43a153.12,153.12,0,0,0-8,24.3q-1.57,6.57-2.56,13.26a158.46,158.46,0,0,0,0,45.89q1,6.69,2.56,13.26a153.79,153.79,0,0,0,8,24.3q2.25,5.31,4.87,10.43a151.86,151.86,0,0,0,9.14,15.53,156.16,156.16,0,0,0,68.64,56.75,153.89,153.89,0,0,0,53.76,12.07c2.23.1,4.46.15,6.71.15s4.48-.05,6.71-.15a154.72,154.72,0,0,0,103.13-45.38A155.85,155.85,0,0,0,340,376.38q3.11-4.62,5.86-9.46A169.92,169.92,0,0,1,313.44,381.79ZM86.17,215.6c12.84-3,26.33-5.46,40.35-7.45a200.42,200.42,0,0,0-7.1,21.86q-2.44,9.24-4.09,18.81c-15.66,1-30.64,2.23-44.75,3.7A145,145,0,0,1,86.17,215.6ZM67.71,314.06a146.09,146.09,0,0,1,0-48.3c14.35-1.56,29.68-2.87,45.75-3.92a248.66,248.66,0,0,0,0,56.15C97.39,316.94,82.06,315.62,67.71,314.06Zm2.87,13.25c14.11,1.47,29.09,2.7,44.75,3.69q1.65,9.57,4.09,18.81a199.9,199.9,0,0,0,7.1,21.87c-14-2-27.51-4.49-40.35-7.46A144.81,144.81,0,0,1,70.58,327.31Zm26.18,52.32q8.68,1.72,17.76,3.2,8.92,1.44,18.07,2.62,3.51,7.11,7.56,13.61a117.27,117.27,0,0,0,24.35,28.53A145.75,145.75,0,0,1,96.76,379.63Zm109.06,55.48v.06l-.86-.09c-21.07-2.29-40.85-16.78-56.2-41.39-1.38-2.21-2.71-4.49-4-6.82,19.8,2.1,40.23,3.24,61.06,3.4Zm0-57.7a610.11,610.11,0,0,1-67.73-4.22,193.91,193.91,0,0,1-12.37-41.57c25.4,1.4,52.38,2.17,80.1,2.26Zm11,57.67-.86.09v-44.9c20.83-.16,41.25-1.3,61.06-3.4-1.29,2.33-2.62,4.61-4,6.82C257.67,418.3,237.89,432.79,216.82,435.08Z"/><path class="cls-2" d="M305,54.65c-33.27,49.47-83.22,81-139.1,81.15q-.54,8.7-.54,17.58c0,106.82,59.52,196.34,139.57,220.06,80-23.72,139.56-113.24,139.56-220.06q0-8.88-.54-17.58C388.09,135.57,338.19,104.07,305,54.65Z"/></svg>