<svg id="Camada_1" data-name="Camada 1" xmlns="http://www.w3.org/2000/svg" xmlns:xlink="http://www.w3.org/1999/xlink" viewBox="0 0 500 500"><defs><style>.cls-1{fill:url(#Gradiente_sem_nome_6);}.cls-2{fill:#fff;}</style><linearGradient id="Gradiente_sem_nome_6" y1="250" x2="500" y2="250" gradientUnits="userSpaceOnUse"><stop offset="0" stop-color="#3d9191"/><stop offset="1" stop-color="#005578"/></linearGradient></defs><circle class="cls-1" cx="250" cy="250" r="250"/><path class="cls-2" d="M85.07,339.1,55.26,299.32,44,314.52q2.43,9.12,5.64,17.91a212.18,212.18,0,0,0,388.56,23.19h0A210.78,210.78,0,0,0,448.7,331.2a62.92,62.92,0,0,1-25.11,7.91l4.71,6.17a66.67,66.67,0,0,0,4.69,5.48q1.22,1.26,2.49,2.46-1.28-1.2-2.49-2.46a66.67,66.67,0,0,1-4.69-5.48l-4.71-6.17-28.91-37.8-18,23.48a64.67,64.67,0,0,1-10-10.4l-16.48-21.54c-1.93-47.77-5.48-86.92-9.94-110.31l22.88,39.63a42.32,42.32,0,0,0,55.06,17L422,237l-32.31-56a42.3,42.3,0,0,0-54.45-17.24,12.69,12.69,0,0,0-2.49-3.93l29.9-51.79a42.3,42.3,0,0,0-15.49-57.82l-1-.55-32.36,56.05a42.29,42.29,0,0,0,12.85,56.16l.44.26a25.41,25.41,0,0,0-1.36,2.92H264.16A42.31,42.31,0,0,0,222,204.28v4.27h64.63A42.27,42.27,0,0,0,319.34,193c-3.81,25-6.79,62.33-8.41,106.44l-11.42,14.93a63.15,63.15,0,0,1-46,24.86l-29-37.94-18,23.48a65.11,65.11,0,0,1-10-10.4l-33.62-44-14.3,18.7C147,262.67,144.7,241,142,226.74l18.31,31.71a33.84,33.84,0,0,0,44,13.56l3-1.71-25.86-44.77a33.81,33.81,0,0,0-43.55-13.79,10.25,10.25,0,0,0-2-3.15l23.93-41.43a33.84,33.84,0,0,0-12.4-46.26l-.8-.44L120.71,165.3A33.84,33.84,0,0,0,131,210.23l.36.21a19.86,19.86,0,0,0-1.09,2.33H81a33.83,33.83,0,0,0-33.76,31.37v3.41H99a33.7,33.7,0,0,0,15.79-3.9,34.16,34.16,0,0,0,10.42-8.53c-3.2,21.06-5.67,52.9-6.92,90.55A62.92,62.92,0,0,1,85.07,339.1m255.27,22.5v1.31a62.85,62.85,0,0,1-19.22,6.51V361.6h-.06c0-2.66,0-5.32.06-8v-1h0c.47-44.16,2.26-85.95,5.14-119.39,1.46-16.92,3-29.58,4.46-39,1.46,9.44,3,22.1,4.46,39,2.88,33.44,4.67,75.23,5.14,119.39h0v1q0,4,.07,8Zm66.35,22.19A201.36,201.36,0,0,1,333,442a199.44,199.44,0,0,1-40.34,13.63A200.88,200.88,0,0,1,60.37,328.51c-.73-2-1.44-4.05-2.11-6.11L75.91,346l4.25,5.67a75.05,75.05,0,0,0,119.77.59l15.66-20.48,8.87-11.6,19.93,26.06,4.61,6a74.55,74.55,0,0,0,59.66,29.52h1.83a74.54,74.54,0,0,0,59.65-29.52l15.67-20.48,8.87-11.6,19.82,25.92,4.71,6.16c1.51,2,3.11,3.87,4.79,5.68A200.25,200.25,0,0,1,406.69,383.79Z"/></svg>