<svg id="Camada_1" data-name="Camada 1" xmlns="http://www.w3.org/2000/svg" xmlns:xlink="http://www.w3.org/1999/xlink" viewBox="0 0 500 500"><defs><style>.cls-1{fill:url(#Gradiente_sem_nome_6);}.cls-2{fill:#fff;}</style><linearGradient id="Gradiente_sem_nome_6" y1="250" x2="500" y2="250" gradientUnits="userSpaceOnUse"><stop offset="0" stop-color="#3d9191"/><stop offset="1" stop-color="#005578"/></linearGradient></defs><circle class="cls-1" cx="250" cy="250" r="250"/><path class="cls-2" d="M463.41,206.48a214.72,214.72,0,0,0-9.21-30.09,65.66,65.66,0,0,1-32.49,8.51h-1.9A65.52,65.52,0,0,1,367.39,159l-28.58-37.38-6.27-8.2-6.27,8.2L297.69,159a65.94,65.94,0,0,1-105.24-.52l-27.62-36.86-7.69-10.26-7.6,10.26-27.45,37.05a66.18,66.18,0,0,1-77.64,22q-2.51,6.86-4.54,13.92a219.3,219.3,0,0,0-8.45,54A72.27,72.27,0,0,0,52,251.51a71.28,71.28,0,0,0,57.77-29.13l12.59-17,17.74-23.95,12.34,16.46,18.22,24.32a71.85,71.85,0,0,0,114.65.57l13.28-17.37,16.88-22.08,11.62,15.19,18.55,24.26A71.35,71.35,0,0,0,402.73,251h1.9a71.37,71.37,0,0,0,57.11-28.25l3.92-5.12C465,213.9,464.26,210.17,463.41,206.48Z"/><path class="cls-2" d="M330.24,389.42l-48.77,25.92L267.2,462a207.25,207.25,0,0,0,123.61-54Z"/><polygon class="cls-2" points="242.88 439.5 249.97 462.83 259.13 432.68 242.88 439.5"/><polygon class="cls-2" points="263.19 419.33 266.62 408.02 237.08 420.41 239.74 429.17 263.19 419.33"/><path class="cls-2" d="M240.61,244a65.28,65.28,0,0,0,20.77-7.75V117.83a65.23,65.23,0,0,1-20.77-8.19Z"/><path class="cls-2" d="M261.38,312.18V253.33a76.71,76.71,0,0,1-20.77,6.4v52.21a82.73,82.73,0,0,1,20.77.24Z"/><path class="cls-2" d="M250.05,323.2A69.55,69.55,0,0,0,211.14,335l14.1,46.39,56.69-23.79,6.89-22.69A69.47,69.47,0,0,0,250.05,323.2Z"/><polygon class="cls-2" points="270.68 394.66 277.88 370.98 228.38 391.75 233.94 410.08 270.68 394.66"/><path class="cls-2" d="M218.47,415.34,169.7,389.42l-59.92,18.33a207.33,207.33,0,0,0,122.94,54.17Z"/></svg>