<svg id="Camada_1" data-name="Camada 1" xmlns="http://www.w3.org/2000/svg" xmlns:xlink="http://www.w3.org/1999/xlink" viewBox="0 0 500 500"><defs><style>.cls-1{fill:url(#Gradiente_sem_nome_6);}.cls-2{fill:#005578;}.cls-3{fill:none;stroke:#000;stroke-miterlimit:10;stroke-width:0.05px;}.cls-4{fill:#fff;}</style><linearGradient id="Gradiente_sem_nome_6" y1="250" x2="500" y2="250" gradientUnits="userSpaceOnUse"><stop offset="0" stop-color="#3d9191"/><stop offset="1" stop-color="#005578"/></linearGradient></defs><circle class="cls-1" cx="250" cy="250" r="250"/><path class="cls-2" d="M339.28,323.19a.31.31,0,0,0,0-.62.31.31,0,0,0,0,.62Z"/><path class="cls-3" d="M279.81,322.41v4.5c0-.75,0-1.5,0-2.25S279.8,323.16,279.81,322.41Z"/><path class="cls-4" d="M368.9,360.87h28.49a7.25,7.25,0,0,0,5.12-12.39A90.78,90.78,0,0,1,379.46,259a7.25,7.25,0,0,0-7-9.29h3.14a7,7,0,0,0,7-7h0a7,7,0,0,0-1.69-4.56,34.75,34.75,0,0,0,8.85-20.84,90.34,90.34,0,0,0-23.54-59.51c-.77-.85-1.55-1.68-2.35-2.49a13.93,13.93,0,0,0-19.25,20,6.31,6.31,0,0,1,1,.84l4.16,4.16L360.45,191a7,7,0,0,1-9.86,9.86L335.8,186l-.19-.19A34.86,34.86,0,0,0,329,238.09a6.91,6.91,0,0,0-1.74,4.61h0a7,7,0,0,0,7,7h3.14a7.25,7.25,0,0,0-7,9.29,90.78,90.78,0,0,1-23.05,89.52,7.25,7.25,0,0,0,5.12,12.39H341a41.83,41.83,0,0,0-41.83,41.83H410.73A41.83,41.83,0,0,0,368.9,360.87Z"/><path class="cls-4" d="M89.27,360.85a55.86,55.86,0,0,0,10-61.84v0c-.34-.72-.69-1.45-1.06-2.16a89.13,89.13,0,0,1-5.09-13.27,90.68,90.68,0,0,1-3.69-25.68c0-2.89.14-5.74.4-8.56a90.45,90.45,0,0,1,31.75-60.68h0c.19-.18.39-.35.59-.52.65-.55,1.31-1.08,2-1.6l0,0a90.29,90.29,0,0,1,41.36-18.11,1.4,1.4,0,0,1,1.49,2l-6,12.89a.16.16,0,0,0,.07.22l.2.11,50.24,23.51h0a20.93,20.93,0,1,1-26.28,26.29l0-.06a.17.17,0,0,0-.16-.12l-10.39-.28a.16.16,0,0,0-.14.08,35,35,0,0,1-13,12.15.18.18,0,0,0-.08.18,14,14,0,0,0,8.82,10.7,31.57,31.57,0,0,1,7.44,3.94,56.09,56.09,0,0,1,23.15,44.21v49.51a7.17,7.17,0,0,1-7.16,7.16H159.72a41.83,41.83,0,0,1,41.83,41.83H90a41.83,41.83,0,0,1,41.83-41.83H89.27Z"/><path class="cls-4" d="M182.5,245a28.61,28.61,0,0,1-2.61-3.91l-1.28,0a43,43,0,0,1-6.86,6.89,6.64,6.64,0,0,0,1.29.68,39.63,39.63,0,0,1,8.89,4.65c3.95.15,7.94.29,11.94.42-.5-.22-1-.45-1.5-.7A28.87,28.87,0,0,1,182.5,245Z"/><path class="cls-4" d="M420.38,180.33q-1.1-7.43-2.83-14.71a171.13,171.13,0,0,0-8.85-26.94q-2.49-5.9-5.4-11.57a170.89,170.89,0,0,0-10.14-17.23A173.35,173.35,0,0,0,317.05,47a170.66,170.66,0,0,0-59.61-13.39,73,73,0,0,0-14.88,0A171.57,171.57,0,0,0,128.21,83.9a172.71,172.71,0,0,0-21.37,26A170.89,170.89,0,0,0,96.7,127.11q-2.91,5.67-5.4,11.57a171.13,171.13,0,0,0-8.85,26.94q-1.74,7.29-2.83,14.71a174.91,174.91,0,0,0,0,50.88q1,7,2.63,13.83a97.4,97.4,0,0,1,7.27-26.38Q89,212.29,89,205.77A160.86,160.86,0,0,1,91.24,179c10.88-1.19,22.27-2.24,34.08-3.16a98.05,98.05,0,0,1,38.92-15.3,9.48,9.48,0,0,1,1.5-.12,9.37,9.37,0,0,1,8.84,12.46c22.48-1,45.9-1.51,69.79-1.59v69q-6.72,0-13.4-.09a28.81,28.81,0,0,1-15.79,14q14.44.28,29.19.33v48.27q-18.08-.15-35.68-1.18c.05.8.08,1.61.1,2.42V315.9q17.58,1,35.58,1.15v49.78l-.94-.09c-12.09-1.32-23.8-6.26-34.64-14.49v1.46a15.16,15.16,0,0,1-12.72,14.94c.38.4.74.8,1.1,1.21a171.07,171.07,0,0,0,45.39,8.1c2.47.1,4.95.16,7.44.16s5-.06,7.44-.16a170.78,170.78,0,0,0,46.43-8.44c.62-.69,1.26-1.37,1.93-2l.12-.12a14.81,14.81,0,0,1-2.17-1.27A15.39,15.39,0,0,1,297.5,351a15.12,15.12,0,0,1,3.43-7.24c-13.41,13.38-28.55,21.29-44.36,23l-.94.09V317.05c22.2-.17,44-1.35,65.14-3.51a81.65,81.65,0,0,0,4-14.75,683.67,683.67,0,0,1-69.18,4V254.52c22.94-.07,45.42-.57,67.05-1.46.07-.23.13-.46.2-.69a14.88,14.88,0,0,1-3.13-13.21l-.18-.25c-20.68.82-42.12,1.28-63.94,1.34v-69c27.06.09,53.53.77,78.7,2a22.05,22.05,0,0,1-.08-14.29c-25.15-1.22-51.57-1.89-78.62-2V108.75a677.14,677.14,0,0,1,75.09,4.67,208.5,208.5,0,0,1,11.38,34.9,21.84,21.84,0,0,1,10.57-4.07c-.4-1.64-.81-3.28-1.24-4.9a221.28,221.28,0,0,0-7.88-24.25c15.54,2.21,30.51,5,44.75,8.27a160.16,160.16,0,0,1,17.28,40.93c-8.34-.87-17-1.66-25.83-2.38A98.74,98.74,0,0,1,388.5,177q10.39.93,20.26,2a161.92,161.92,0,0,1,0,53.56q-7.59.82-15.51,1.56a42.33,42.33,0,0,1-3.06,5.15,15.19,15.19,0,0,1,.4,3.44,14.8,14.8,0,0,1-1.31,6.1q8.31-.74,16.3-1.57a160.16,160.16,0,0,1-17.28,40.93l-4.32,1a82.43,82.43,0,0,0,3.71,20.21q2.83-3.78,5.47-7.7a168.7,168.7,0,0,0,10.14-17.23q2.91-5.67,5.4-11.56a171.24,171.24,0,0,0,8.85-27c1.16-4.85,2.1-9.76,2.83-14.7a174.91,174.91,0,0,0,0-50.88ZM198.56,53.1a130.08,130.08,0,0,0-27,31.64q-4.49,7.2-8.39,15.1-10.12,1.29-20,2.9-10.06,1.62-19.69,3.55A161.66,161.66,0,0,1,198.56,53.1ZM144,160.2c-17.36,1.1-34,2.47-49.62,4.1a160.16,160.16,0,0,1,17.28-40.93c14.24-3.29,29.21-6.06,44.74-8.27a223.43,223.43,0,0,0-7.87,24.25Q145.87,149.58,144,160.2ZM244.37,157c-30.73.09-60.65.95-88.81,2.5a214.26,214.26,0,0,1,13.72-46.1,677.14,677.14,0,0,1,75.09-4.67Zm0-112.26V94.48c-23.09.18-45.74,1.44-67.69,3.78q2.13-3.89,4.43-7.57c17-27.28,38.95-43.35,62.32-45.89l.94-.1Zm11.26,49.72V44.7l.94.1c23.37,2.54,45.3,18.61,62.32,45.89q2.3,3.69,4.43,7.57C301.37,95.92,278.72,94.66,255.63,94.48Zm101.23,8.26q-9.9-1.6-20-2.9-3.9-7.89-8.39-15.1a130.08,130.08,0,0,0-27-31.64,161.66,161.66,0,0,1,75.11,53.19Q366.92,104.37,356.86,102.74Z"/><path class="cls-3" d="M237.23,320.81v4.5q0-1.12,0-2.25T237.23,320.81Z"/><path class="cls-3" d="M204.05,325.9v4.49c0-.74,0-1.49,0-2.24S204,326.64,204.05,325.9Z"/></svg>