<svg id="Camada_1" data-name="Camada 1" xmlns="http://www.w3.org/2000/svg" xmlns:xlink="http://www.w3.org/1999/xlink" viewBox="0 0 500 500"><defs><style>.cls-1{fill:url(#Gradiente_sem_nome_6);}.cls-2{fill:#fff;}</style><linearGradient id="Gradiente_sem_nome_6" y1="250" x2="500" y2="250" gradientUnits="userSpaceOnUse"><stop offset="0" stop-color="#3d9191"/><stop offset="1" stop-color="#005578"/></linearGradient></defs><circle class="cls-1" cx="250" cy="250" r="250"/><path class="cls-2" d="M440,149.6,388.68,97.68a31.47,31.47,0,0,0-22.37-9.33H263.92a32,32,0,0,0-4.6.33,26.59,26.59,0,0,0-18.51,7.81L237,100.3l-3,3-3.05,3.05-.64.63L226,111.35l-4.32,4.31L164.34,173c-.16.16-.32.32-.47.49s-.34.39-.49.58a13,13,0,0,0-.83,1.16c-.11.18-.22.36-.32.54a13,13,0,0,0-1.15,2.69c-.12.4-.21.8-.29,1.21a12.81,12.81,0,0,0-.23,1.85c0,.42,0,.83,0,1.24a13.12,13.12,0,0,0,.23,1.86c.08.4.17.81.29,1.21a13,13,0,0,0,1.15,2.69c.1.18.21.36.32.54s.26.39.4.58a11.33,11.33,0,0,0,.82,1,.52.52,0,0,0,.1.11c.15.17.31.34.47.5l9.71,9.71c.32.32.65.64,1,.94a24.8,24.8,0,0,0,2.64,2.1c.26.19.53.36.79.53l.26.17.56.34.3.17.55.31.29.16.62.31.23.12c.28.14.56.27.85.39l.19.08.67.28c.1,0,.21.08.31.12l.57.22.34.12.57.19.32.1.71.2.18.05.89.22.3.07.6.12.36.07.56.1.37.05.59.08.33,0,.88.08h.21l.72,0,.36,0h1.24c.52,0,1,0,1.55-.07h.14l.62-.06.19,0,.63-.08.13,0c.26,0,.52-.07.77-.12h0l.71-.14.2,0,.56-.12.21-.05.63-.16.11,0c.24-.06.49-.13.73-.21l.17,0,.55-.18.24-.08.51-.18.21-.08c.24-.08.48-.18.71-.27a26.16,26.16,0,0,0,2.57-1.22l.88-.49.56-.35c.57-.35,1.12-.72,1.66-1.12s1.11-.85,1.64-1.31,1-.87,1.45-1.34l59.91-59.91,2.38-2.39.67-.66,2.38-2.39,1.42-1.42c.55-.55,1.07-1.12,1.56-1.7L391,243.42l49-49.57A31.45,31.45,0,0,0,440,149.6Z"/><path class="cls-2" d="M384.94,249.55,280.15,144.77l-5.43,5.44-56.87,56.86a35,35,0,0,1-8.42,6.23,34.33,34.33,0,0,1-3.25,1.52A35.26,35.26,0,0,1,168,207.07l-9.71-9.71a21.58,21.58,0,0,1,0-30.49l51.21-51.21H133.69A31.44,31.44,0,0,0,111.32,125L60,176.91a31.46,31.46,0,0,0,0,44.26l35.84,36.24,6.22-6.22a25.93,25.93,0,0,1,36.68,0l2.32,2.32a25.9,25.9,0,0,1,7.44,21,26.49,26.49,0,0,1,33,3.58L183,279.7a26.48,26.48,0,0,1,2.9,34,26,26,0,0,1,2.65-.13,26.51,26.51,0,0,1,18.88,7.82l1.24,1.24a26.72,26.72,0,0,1,4.83,31.17,27.93,27.93,0,0,1,3.67-.25,26.19,26.19,0,0,1,18.64,7.72l1.71,1.71a26.38,26.38,0,0,1,.85,36.4l4.47,4.47a26.66,26.66,0,0,0,37.71,0h0A26.66,26.66,0,0,0,284,370.29l9.84,9.84a26.66,26.66,0,0,0,37.71,0h0a26.65,26.65,0,0,0,5.17-30.37,26.68,26.68,0,0,0,31.4-4.68h0a26.67,26.67,0,0,0,0-37.71l-3.46-3.46a26.67,26.67,0,0,0,33.56-3.39h0a26.67,26.67,0,0,0,0-37.71Z"/><path class="cls-2" d="M231.82,368.7,230.11,367a18.25,18.25,0,0,0-24.93-.83c-.3.27-.6.54-.89.83l-1.91,1.91c-.1.09-.18.19-.27.28a18.72,18.72,0,0,0-2.63,3.48,18.29,18.29,0,0,0,2.9,22.07l1.71,1.71a18.25,18.25,0,0,0,22.06,2.89,17.94,17.94,0,0,0,3.48-2.62l.28-.27,1.91-1.91q.44-.43.84-.9a18.26,18.26,0,0,0-.84-24.93Z"/><path class="cls-2" d="M203,354.64a18.6,18.6,0,0,0,0-26.29l-1.25-1.25a18.6,18.6,0,0,0-26.29,0l-4.66,4.66-3.05,3.05-3,3.05L157.5,345a18.6,18.6,0,0,0,0,26.29l1.25,1.25a18.6,18.6,0,0,0,26.29,0l7.18-7.18,3.05-3,3-3.05Z"/><path class="cls-2" d="M125.59,294.16l.26-.26,3.05-3,6.4-6.4a17.85,17.85,0,0,0,0-25.21L133,256.92a17.84,17.84,0,0,0-25.22,0l-6.25,6.25-3.05,3.05-.41.41a17.65,17.65,0,0,0-2.36,2.92,17.86,17.86,0,0,0,2.36,22.29l2.32,2.32a17.86,17.86,0,0,0,22.12,2.48A18.14,18.14,0,0,0,125.59,294.16Z"/><path class="cls-2" d="M160.14,328.55l3.05-3.05,14.11-14.11a18.35,18.35,0,0,0,0-26h0l-1.57-1.58a18.37,18.37,0,0,0-26,0l-14,14-3,3.05-3.05,3.05-10.45,10.45a18.37,18.37,0,0,0,0,26l1.57,1.58a18.41,18.41,0,0,0,26,0l10.31-10.32Z"/></svg>