<svg id="Camada_1" data-name="Camada 1" xmlns="http://www.w3.org/2000/svg" xmlns:xlink="http://www.w3.org/1999/xlink" viewBox="0 0 500 500"><defs><style>.cls-1{fill:url(#Gradiente_sem_nome_6);}.cls-2{fill:#fff;}</style><linearGradient id="Gradiente_sem_nome_6" y1="250" x2="500" y2="250" gradientUnits="userSpaceOnUse"><stop offset="0" stop-color="#3d9191"/><stop offset="1" stop-color="#005578"/></linearGradient></defs><circle class="cls-1" cx="250" cy="250" r="250"/><rect class="cls-2" x="86.43" y="155.1" width="158.02" height="86.67" transform="translate(330.89 396.86) rotate(180)"/><rect class="cls-2" x="165.14" y="55.71" width="158.02" height="86.67" transform="translate(488.31 198.08) rotate(180)"/><polygon class="cls-2" points="116.14 287.36 71.21 332.29 71.21 352.93 136.78 287.36 102.92 253.5 82.28 253.5 116.14 287.36"/><polygon class="cls-2" points="71.21 376.98 71.21 379.52 124.53 379.52 216.69 287.36 182.83 253.5 126.97 253.5 160.83 287.36 71.21 376.98"/><path class="cls-2" d="M248.36,253.5l33.86,33.86-92.15,92.16H301.54v0h37.24A126,126,0,0,0,459,257V222.11H301.58l0,0L270.19,253.5Zm53.18,0h.06v.1h-.06Z"/><rect class="cls-2" x="301.54" y="253.5" width="0.06" height="0.09"/><polygon class="cls-2" points="293.35 213.96 293.4 213.91 296.79 210.52 301.58 210.52 419.31 210.52 419.31 155.09 261.29 155.09 261.29 241.76 265.54 241.76 293.35 213.96"/></svg>