<svg id="Camada_1" data-name="Camada 1" xmlns="http://www.w3.org/2000/svg" xmlns:xlink="http://www.w3.org/1999/xlink" viewBox="0 0 500 500"><defs><style>.cls-1{fill:url(#Gradiente_sem_nome_6);}.cls-2{fill:#fff;}</style><linearGradient id="Gradiente_sem_nome_6" y1="250" x2="500" y2="250" gradientUnits="userSpaceOnUse"><stop offset="0" stop-color="#3d9191"/><stop offset="1" stop-color="#005578"/></linearGradient></defs><circle class="cls-1" cx="250" cy="250" r="250"/><path class="cls-2" d="M398.73,198.71a130.15,130.15,0,0,0-133,1.67c1.08.56,2.15,1.15,3.22,1.76a81.27,81.27,0,0,1,40,59.53,81,81,0,0,1,39.21,6.47l-56,97.06a56.93,56.93,0,0,0-18.6-6.15q-.06-6.62-.54-13.3a210.6,210.6,0,0,0-61.76-134.52A212.5,212.5,0,0,0,275.64,222,70.34,70.34,0,0,0,262.32,212c-.9-.52-1.84-1-2.77-1.52l-18-9.32,17.27-10.54a143.13,143.13,0,0,1,13.74-7.38A81.64,81.64,0,0,0,207.23,171a212.26,212.26,0,0,0,51.19-69.22,81.5,81.5,0,0,0-94.62,67.41c-.65-.77-1.32-1.52-2-2.27a81.42,81.42,0,0,0-115-5.27q-3.07,2.82-5.81,5.87a211.09,211.09,0,0,0,69,21.44,81.42,81.42,0,0,0-48.46,74.46q0,4.19.41,8.25a210.09,210.09,0,0,0,42.79-21.84,81.66,81.66,0,0,0,8.41,54,211.86,211.86,0,0,0,59.93-100.72A210.67,210.67,0,0,1,238.84,356.3q0,4.23-.17,8.41a57.7,57.7,0,0,0-31.48,51.42c0,.77,0,1.54.05,2.3a144.88,144.88,0,0,1,115.33,0c0-.76.05-1.53.05-2.3a57.64,57.64,0,0,0-23.12-46.21L356,272.09l.36.21a81,81,0,0,1,29.52,29.28,81.36,81.36,0,0,1,77.42-1.92A130,130,0,0,0,398.73,198.71Z"/></svg>