<svg xmlns="http://www.w3.org/2000/svg" xmlns:xlink="http://www.w3.org/1999/xlink" viewBox="0 0 500 500"><defs><style>.a{fill:url(#a);}.b,.l,.m,.o{fill:none;}.c{fill:url(#b);}.d{fill:#005578;}.e{fill:url(#c);}.f{fill:url(#d);}.g{fill:url(#e);}.h{fill:url(#f);}.i{fill:url(#g);}.j{fill:#fff;}.k{fill:#3d9191;}.l,.m,.o{stroke:#000;stroke-miterlimit:10;}.l{stroke-width:0.01px;}.m{stroke-width:0.01px;}.n{fill:#389192;}.o{stroke-width:0.01px;}.p{fill:#399;}</style><linearGradient id="a" x1="133.66" y1="175.95" x2="352.92" y2="175.95" gradientUnits="userSpaceOnUse"><stop offset="0" stop-color="#3d9191"/><stop offset="1" stop-color="#3d9191"/></linearGradient><linearGradient id="b" x1="225.13" y1="362.08" x2="268.47" y2="362.08" xlink:href="#a"/><linearGradient id="c" x1="276.15" y1="358.71" x2="299.57" y2="358.71" xlink:href="#a"/><linearGradient id="d" x1="346.88" y1="335.57" x2="371.62" y2="335.57" xlink:href="#a"/><linearGradient id="e" x1="308.04" y1="333.44" x2="359.75" y2="333.44" xlink:href="#a"/><linearGradient id="f" x1="136.22" y1="337.26" x2="209.59" y2="337.26" xlink:href="#a"/><linearGradient id="g" x1="176.74" y1="342.02" x2="213.34" y2="342.02" xlink:href="#a"/></defs><path class="a" d="M262.63,158.9l1.72,3L292.13,210l38.31-22.12-7.51-7.5-5.87-5.87h35.86a118.59,118.59,0,0,0-219.26,58.84l126-72.74Z"/><path class="b" d="M324,336.06l2.68-6.65q-2,1.59-4,3.11Z"/><path class="c" d="M225.13,352.63v1.64a17.25,17.25,0,0,0,17.25,17.25h26.09V354.75h-.93a119.36,119.36,0,0,1-42.41-2.12Z"/><path class="d" d="M244.93,347.88v-4.54h-3a18.56,18.56,0,0,1-16.77-10.69v20a119.36,119.36,0,0,0,42.41,2.12H251.81A6.88,6.88,0,0,1,244.93,347.88Z"/><path class="d" d="M225.13,324.85a16.77,16.77,0,0,0,16.77,16.77h25.36V324.85H251.81a6.88,6.88,0,0,1-6.88-6.88v-5.85h23.54V295.35H225.13Z"/><path class="e" d="M276.15,371.52h19.7l3.72-25.62a118.57,118.57,0,0,1-20.21,6.71Z"/><path class="d" d="M302.25,327.68l6.16-32.33a23.09,23.09,0,0,0-22.6,19.22l-6.45,38a118.57,118.57,0,0,0,20.21-6.71l2.64-18.22Z"/><polygon class="f" points="362 307.91 360.75 299.62 346.88 332.6 347.08 334.18 351.82 371.52 371.62 371.52 362 307.91"/><path class="g" d="M355.32,295.74a119.23,119.23,0,0,1-28.61,33.67L324,336.06l-1.34-3.54A119.46,119.46,0,0,1,308,341.79l8.36,21,.57,1.44a11.63,11.63,0,0,0,10.8,7.32l11.81-28.32,6.48-15.52h.14v-.1l13.55-32.23A29.53,29.53,0,0,0,355.32,295.74Z"/><path class="d" d="M333.05,313.63l-6.34,15.78a119.23,119.23,0,0,0,28.61-33.67A29.18,29.18,0,0,0,333.05,313.63Z"/><path class="d" d="M310.21,299.66l-6.13,32.19,4,9.94a119.46,119.46,0,0,0,14.65-9.27Z"/><path class="h" d="M143.09,309.59c-4.41,6.55-6.87,14.78-6.87,24.25,0,23.94,16.67,40.21,40.62,40.21.8,0,1.59,0,2.38-.06,1-.05,2.08-.13,3.09-.24a38.31,38.31,0,0,0,15.77-5.16,34.63,34.63,0,0,0,10.18-9.49c.47-.67.92-1.34,1.33-2a13.5,13.5,0,0,0-2.24-5,14,14,0,0,0-4.76-4.2,13.65,13.65,0,0,0-6.47-1.6h-3.46c-1.24,6.47-5.91,10.23-12.16,11.24a22.84,22.84,0,0,1-3.56.27l-1,0c-.58,0-1.15-.08-1.71-.16-11.3-1.54-17.4-12.69-17.4-23.66,0-.13,0-.26,0-.39.08-6.51,2.29-13.23,6.52-17.84a118.37,118.37,0,0,1-11.45-15.23A36,36,0,0,0,143.09,309.59Z"/><path class="d" d="M176.64,309.89c8,0,13.74,4.85,16.46,12.13l18.79-7.88c-6.56-14.25-18.69-21.32-34.34-21.32-10.06,0-18.81,2.73-25.64,7.66a118.37,118.37,0,0,0,11.45,15.23A17.54,17.54,0,0,1,176.64,309.89Z"/><path class="i" d="M176.74,329v15.56h19.38a15.49,15.49,0,0,1,14.67,10.5,38.16,38.16,0,0,0,2.48-5.6,1.55,1.55,0,0,0,.07-.23A118.2,118.2,0,0,1,177.16,329Z"/><path class="d" d="M198.63,329H177.16a118.2,118.2,0,0,0,36.18,20.23A15.44,15.44,0,0,0,198.63,329Z"/><path class="d" d="M355,178h-.45l.22-.13-.22.13H325.36L336,188.63l-21,12.09-24.21,14-29.51-51.11L133.6,237.36h0a118.77,118.77,0,0,0,2.24,22.86c3-1.07,6-2.27,8.9-3.57a118.27,118.27,0,0,0,36.08-25.23q1.89-1.94,3.69-4A73.54,73.54,0,0,1,236.59,206h.22A44.32,44.32,0,0,0,303,248.8l.44-.26c.43-.25.85-.51,1.27-.78q1.95-1.15,4-2.18a74,74,0,0,1,61.93-2.3c.11-2,.16-4.08.16-6.14A117.93,117.93,0,0,0,355,178Z"/><path class="j" d="M354.87,177.76l-.9-1.52c-.34-.58-.69-1.15-1.05-1.72H317.06l5.87,5.87,7.51,7.5L292.13,210l-27.78-48.13-1.72-3-3,1.72-126,72.74c0,.67,0,1.34,0,2s0,1.18,0,1.77v.22l127.77-73.77,29.51,51.11,24.21-14,21-12.09L325.36,178H355C354.94,177.89,354.91,177.82,354.87,177.76Z"/><path class="d" d="M338.29,54.36l-3-6.41h0v-.06l-.7-1.47,1,.35a28.54,28.54,0,0,0,.72-6.4A28,28,0,0,0,310.6,12.29l.91-10.2a38.47,38.47,0,0,1,33.7,48.15l1,.37Z"/><path class="d" d="M280.81,59.5l7.07.6,0,0,0,0,1.63.14-.8.67a28,28,0,0,0,19.29,7.63,28.26,28.26,0,0,0,23.07-12l8.37,5.89a38.42,38.42,0,0,1-13.45,11.87,38.26,38.26,0,0,1-8.57,3.3,38.43,38.43,0,0,1-36.57-10.07l-.85.72Z"/><path class="d" d="M271.82,27.58A38.48,38.48,0,0,1,287,8.23a38.07,38.07,0,0,1,11.07-5l-.2-1.09,7.22,5L301,13l0,0-.06,0-.93,1.34-.18-1a28.2,28.2,0,0,0-17.39,38.83l-9.29,4.31a38.61,38.61,0,0,1-3.56-16.16A38.48,38.48,0,0,1,271.82,27.58Z"/><path class="k" d="M328.48,26.58a.6.6,0,0,0-.08.08,4.93,4.93,0,0,1-3.71,1.68h-.24a3.28,3.28,0,0,0,1.33,4.34,4.95,4.95,0,0,1-6.94-4.53v-.21A13.14,13.14,0,0,0,312,31.18l-.57.55-.27.29c-.2.21-.39.43-.58.66a12.37,12.37,0,0,1-1,.79,1.67,1.67,0,0,0,.92,1.37,3.3,3.3,0,0,1-4.58.55,13,13,0,0,1-4.19.68,13.34,13.34,0,0,1-1.56-.09,13.18,13.18,0,0,1-10.4-7.55,23.1,23.1,0,0,1,1.46-1.81,21.57,21.57,0,0,1,7.42-5.32,8.22,8.22,0,0,1,10.43-4.68,5,5,0,0,0,1.17,3.16,20.39,20.39,0,0,1,3.33.76c.4.12.79.26,1.18.41s.54.21.81.33a20.85,20.85,0,0,1,4.19,2.39c.3.22.59.44.87.67a5,5,0,0,1,7.86,2.24Z"/><path class="b" d="M321.36,61.56c.43-.28.85-.56,1.25-.86-.21.12-.43.25-.63.39S321.56,61.39,321.36,61.56Z"/><path class="k" d="M291.71,58.6l.4-.27.38-.29c.13-.1.25-.19.37-.3a11.15,11.15,0,0,0,2.41-2.86,10.51,10.51,0,0,0,1.47-5.2v-.44l0-.22v-.11a.37.37,0,0,0,0-.11c0-.15,0-.29,0-.44l-.06-.42a9.6,9.6,0,0,0-1.11-3.19,9.12,9.12,0,0,0-.93-1.34,8.36,8.36,0,0,0-1.13-1.1s-.05-.05-.08-.06l-.07-.06-.16-.12L293,42l-.16-.11-.32-.2-.17-.1-.16-.09-.34-.16-.08,0-.09,0-.17-.07-.17-.07-.17-.06L291,41l-.18-.06a6.77,6.77,0,0,0-1.39-.25h-.7l-.34,0-.34.06-.18.55a6.75,6.75,0,0,1,1,.46,7,7,0,0,1,.9.6,8,8,0,0,1,.8.73,7.47,7.47,0,0,1,.67.84,6.24,6.24,0,0,1,.54.93,6.66,6.66,0,0,1,.38,1l0,.12,0,.07s0,0,0,.06l0,.13v.07l0,.06,0,.13,0,.07s0,0,0,.06l0,.13a.69.69,0,0,1,0,.13,7.69,7.69,0,0,1,.07,1.07,7.46,7.46,0,0,1-.1,1.05,6.93,6.93,0,0,1-.26,1,6.66,6.66,0,0,1-1,1.87,6.5,6.5,0,0,1-1.48,1.48,6.27,6.27,0,0,1-.89.55l-.24.12-.24.1-.24.1-.22.08h.05l-.08,0h0l-.6.13A24.93,24.93,0,0,0,291.1,59l.21-.12Z"/><path class="k" d="M287.83,54.3h-.08Z"/><path class="k" d="M299.7,54.3h-.08Z"/><path class="k" d="M301.68,59.6l-.11,0-.05,0h0l1.43-.49-1,.33h0Z"/><path class="k" d="M296.5,62.61l0,0,0,0,.08-.09,0,0,0-.05.08-.08c.22-.22.45-.44.69-.64l.74-.56c.25-.17.52-.33.78-.48a10,10,0,0,1,1.71-.73l1.16-.37.44-.2.43-.22.41-.24c.14-.08.28-.16.41-.25l.4-.27.38-.29c.12-.1.25-.19.37-.3a11.35,11.35,0,0,0,2.41-2.86,11,11,0,0,0,1.29-3.42,10.74,10.74,0,0,0,.18-1.78v-.77s0-.08,0-.11,0-.29,0-.44l-.06-.42a9.83,9.83,0,0,0-1.11-3.19,9.18,9.18,0,0,0-.94-1.34,7.75,7.75,0,0,0-1.12-1.1s-.05-.05-.08-.06l-.07-.06-.16-.12a.91.91,0,0,0-.16-.11l-.15-.11-.33-.2-.16-.1-.16-.09-.34-.16-.08,0-.09,0-.17-.07-.17-.07L303,41l-.18-.06-.17-.06a6.75,6.75,0,0,0-1.4-.25h-.69l-.34,0-.34.06-.18.55a6.75,6.75,0,0,1,1,.46,7,7,0,0,1,.9.6,8,8,0,0,1,.8.73,8.81,8.81,0,0,1,.67.84,8.65,8.65,0,0,1,.54.93,6.66,6.66,0,0,1,.38,1l0,.12,0,.07s0,0,0,.06l0,.13v.07l0,.06,0,.13,0,.07a.13.13,0,0,0,0,.06l0,.13s0,.09,0,.13a6.4,6.4,0,0,1,.06,1.07,6.2,6.2,0,0,1-.09,1.05,6.93,6.93,0,0,1-.26,1,6.87,6.87,0,0,1-2.45,3.35,6.27,6.27,0,0,1-.89.55l-.24.12-.24.1-.24.1-.22.08h.05l-.08,0h0l-.81.18-.42.11-.42.14a12.57,12.57,0,0,0-1.62.67,12.75,12.75,0,0,0-1.5.91,12.06,12.06,0,0,0-2.54,2.4l-.14.17-.06.09-.07.09-.13.18-.06.09,0,0,0,0-.08.11a24.9,24.9,0,0,0,4.7,3.15.12.12,0,0,1,.05,0Z"/><path class="k" d="M308,63c0-.06.11-.12.16-.19l.15-.17,0,0,0,0,0,0,.08-.09,0,0,.05-.05.08-.08c.22-.22.45-.44.69-.64s.48-.38.74-.56.51-.33.78-.48a9.67,9.67,0,0,1,1.71-.73l1.16-.37.43-.2.43-.22.42-.24c.14-.08.28-.16.41-.25l.4-.27.38-.29c.12-.1.25-.19.37-.3a11.11,11.11,0,0,0,2.4-2.86,10.53,10.53,0,0,0,1.29-3.42,9,9,0,0,0,.18-1.78v-.77a.45.45,0,0,1,0-.11c0-.15,0-.29,0-.44l-.06-.42a9.62,9.62,0,0,0-1.12-3.19,8.41,8.41,0,0,0-.93-1.34,7.75,7.75,0,0,0-1.12-1.1s-.05-.05-.08-.06l-.08-.06-.15-.12a.91.91,0,0,0-.16-.11l-.16-.11-.32-.2-.16-.1-.17-.09-.33-.16-.09,0-.08,0-.17-.07-.17-.07-.17-.06-.18-.06-.17-.06a6.75,6.75,0,0,0-1.4-.25h-.69l-.34,0-.34.06-.19.55a7.4,7.4,0,0,1,1,.46,7.82,7.82,0,0,1,.9.6,8,8,0,0,1,.8.73,8.81,8.81,0,0,1,.67.84,8.65,8.65,0,0,1,.54.93,6.66,6.66,0,0,1,.38,1l0,.12,0,.07s0,0,0,.06l0,.13,0,.07a.13.13,0,0,1,0,.06l0,.13v.07s0,0,0,.06l0,.13a.51.51,0,0,0,0,.13,6.4,6.4,0,0,1,.06,1.07,6.22,6.22,0,0,1-.1,1.05,5.84,5.84,0,0,1-.25,1,6.93,6.93,0,0,1-1,1.87,6.7,6.7,0,0,1-1.48,1.48,6.89,6.89,0,0,1-.89.55l-.24.12-.24.1-.24.1-.22.08h.05l-.09,0h0l-.81.18-.42.11-.42.14a12.57,12.57,0,0,0-1.62.67,12.75,12.75,0,0,0-1.5.91,12,12,0,0,0-1.36,1.11,11.07,11.07,0,0,0-1.18,1.29l-.14.17L304,59l-.06.09-.13.18-.06.09,0,0,0,0-.25.36-.22.38a11.41,11.41,0,0,0-.77,1.57,12.45,12.45,0,0,0-.53,1.67,11.07,11.07,0,0,0-.23,1.28,24.77,24.77,0,0,0,4.9.75q.17-.41.36-.78A10.35,10.35,0,0,1,308,63Z"/><path class="k" d="M313.55,59.6l-.11,0-.05,0h0l1.43-.49-1,.33h0Z"/><path class="k" d="M311.57,54.3h-.09Z"/><path class="k" d="M330.17,43.41a7.34,7.34,0,0,0-1.13-1.1s0-.05-.07-.06l-.08-.06-.15-.12-.16-.11-.16-.11-.32-.2-.16-.1-.17-.09-.33-.16-.09,0-.08,0-.17-.07-.17-.07-.18-.06-.17-.06-.17-.06a6.87,6.87,0,0,0-1.4-.25h-.69l-.34,0-.34.06-.19.55a7.4,7.4,0,0,1,1,.46,6.84,6.84,0,0,1,1.69,1.33,7.58,7.58,0,0,1,.68.84,7.17,7.17,0,0,1,.53.93,5.76,5.76,0,0,1,.39,1l0,.12V46a.14.14,0,0,1,0,.06l0,.13,0,.07s0,0,0,.06l0,.13v.07a.13.13,0,0,1,0,.06l0,.13a.51.51,0,0,0,0,.13,7.68,7.68,0,0,1,.06,1.07,7.46,7.46,0,0,1-.1,1.05,6.9,6.9,0,0,1-.25,1,7.23,7.23,0,0,1-1,1.87,6.92,6.92,0,0,1-1.48,1.48,7,7,0,0,1-.9.55l-.23.12-.24.1-.24.1-.22.08h.05l-.09,0h0l-.81.18-.42.11-.42.14a11.5,11.5,0,0,0-1.62.67,12,12,0,0,0-1.5.91,11.16,11.16,0,0,0-1.36,1.11,12.13,12.13,0,0,0-1.19,1.29l-.13.17-.07.09-.06.09-.13.18-.06.09,0,0,0,0-.24.36-.22.38a11.41,11.41,0,0,0-.77,1.57,11.16,11.16,0,0,0-.53,1.67,10,10,0,0,0-.25,1.43,24.87,24.87,0,0,0,7.82-3.28c.2-.17.41-.32.62-.47s.42-.27.63-.39A25.06,25.06,0,0,0,332,47.08a9.33,9.33,0,0,0-.94-2.33A8.41,8.41,0,0,0,330.17,43.41Z"/><path class="k" d="M323.44,54.3h-.09Z"/><rect class="k" x="372.45" y="84.44" width="31.32" height="17.18" transform="translate(776.22 186.05) rotate(180)"/><rect class="k" x="388.05" y="64.74" width="31.32" height="17.18" transform="translate(807.42 146.66) rotate(180)"/><rect class="l" x="407.59" y="108.91" width="0.01" height="0.02"/><rect class="l" x="407.59" y="108.91" width="0.01" height="0.02"/><rect class="m" x="407.59" y="108.91" width="0.01" height="0.02"/><rect class="l" x="407.59" y="108.91" width="0.01" height="0.02"/><polygon class="d" points="378.34 110.65 369.44 119.55 369.44 123.64 382.43 110.65 375.72 103.94 371.63 103.94 378.34 110.65"/><polygon class="d" points="369.44 128.41 369.44 128.91 380 128.91 398.27 110.65 391.56 103.94 380.49 103.94 387.2 110.65 369.44 128.41"/><path class="d" d="M404.54,103.94l6.71,6.71L393,128.91h29.47a25,25,0,0,0,23.83-24.29V97.72H415.08l-6.21,6.21Zm10.54,0h0v0h0Z"/><rect class="j" x="415.08" y="103.94" width="0.01" height="0.02"/><polygon class="k" points="413.46 96.1 413.47 96.09 414.14 95.42 415.09 95.42 438.42 95.42 438.42 84.44 407.11 84.44 407.11 101.61 407.95 101.61 413.46 96.1"/><path class="b" d="M11.23,228.44l-.7-.81Z"/><path class="b" d="M10.51,227.6c-.23-.27-.45-.55-.67-.83C10.06,227.05,10.28,227.33,10.51,227.6Z"/><path class="d" d="M42,190.28a11.59,11.59,0,0,0,6.38-4.21l5-6.57,1.1-1.44,1.1,1.44,5,6.57a11.51,11.51,0,0,0,9.21,4.55h.33a11.58,11.58,0,0,0,5.71-1.49,38.51,38.51,0,0,0-17.78-20l-4.17,5.45a11.53,11.53,0,0,1-9.21,4.55h-.33a11.72,11.72,0,0,1-2.38-.24h0Z"/><path class="d" d="M17.54,186l4.82-6.51,1.33-1.8L25,179.5,29.89,186a11.47,11.47,0,0,0,8.46,4.62V177.4a11.56,11.56,0,0,1-3.18-2.87l-6.12-8-6.12,8a11.53,11.53,0,0,1-9.21,4.55,11.79,11.79,0,0,1-3.37-.49c-.25.3-.49.6-.73.91A38.31,38.31,0,0,0,3.9,189.88,11.66,11.66,0,0,0,17.54,186Z"/><path class="k" d="M15.37,197.2l2.21-3L20.7,190l2.16,2.89,3.21,4.28a12.61,12.61,0,0,0,20.13.09l2.33-3.05,3-3.87,2,2.66,3.26,4.26a12.51,12.51,0,0,0,10,5h.33a12.53,12.53,0,0,0,10-5l.69-.9c-.12-.66-.25-1.31-.4-2a37.5,37.5,0,0,0-1.61-5.28,11.58,11.58,0,0,1-5.71,1.49h-.33a11.51,11.51,0,0,1-9.21-4.55l-5-6.57-1.1-1.44-1.1,1.44-5,6.57A11.59,11.59,0,0,1,42,190.28v9.36A11.64,11.64,0,0,1,38.35,201V190.59A11.47,11.47,0,0,1,29.89,186L25,179.5l-1.35-1.8-1.33,1.8L17.54,186A11.66,11.66,0,0,1,3.9,189.88c-.29.8-.56,1.62-.8,2.44a38.54,38.54,0,0,0-1.48,9.48,12.69,12.69,0,0,0,3.6.52A12.5,12.5,0,0,0,15.37,197.2Z"/><path class="d" d="M78.45,203a39.2,39.2,0,0,0-.57-6.63l-.69.9a12.53,12.53,0,0,1-10,5h-.33a12.51,12.51,0,0,1-10-5L53.54,193l-2-2.66-3,3.87-2.33,3.05a12.61,12.61,0,0,1-20.13-.09l-3.21-4.28L20.7,190l-3.12,4.21-2.21,3a12.5,12.5,0,0,1-10.15,5.12,12.69,12.69,0,0,1-3.6-.52c0,.4,0,.8,0,1.2,0,.78,0,1.55.07,2.31a37.43,37.43,0,0,0,.86,6.12h0l.34,1.3c.25,1,.54,1.94.87,2.88A38.18,38.18,0,0,0,8,224.2a38.56,38.56,0,0,0,19.36,15.11,38.35,38.35,0,0,0,12.76,2.17c.87,0,1.73,0,2.59-.09a37.94,37.94,0,0,0,10.17-2.08,38.52,38.52,0,0,0,11-6,38.86,38.86,0,0,0,8.4-9.11,37.86,37.86,0,0,0,4.88-10.59c.09-.29.17-.59.25-.88l.34-1.3h-.14a38.77,38.77,0,0,0,.89-6.68C78.43,204.17,78.45,203.58,78.45,203ZM9.84,226.77c.22.28.44.56.67.83C10.28,227.33,10.06,227.05,9.84,226.77Zm.69.86.7.81ZM38.35,203.1A13.45,13.45,0,0,0,42,202v11a14.68,14.68,0,0,0-2-.14,15.25,15.25,0,0,0-1.66.09ZM40,214.91A12.23,12.23,0,0,1,46.82,217l-1.21,4-10,4.18L33.18,217A12.21,12.21,0,0,1,40,214.91ZM15.37,229.76l10.53-3.22,8.56,4.56L37,239.28A36.44,36.44,0,0,1,15.37,229.76ZM36.2,227l8.7-3.65-1.27,4.16-6.45,2.71ZM40,239.44l-1.25-4.1,2.85-1.2Zm2.32-7.64-4.12,1.72L37.73,232l5.19-2.18Zm.7,7.49,2.51-8.19,8.56-4.56,10.64,3.26A36.45,36.45,0,0,1,43,239.29Z"/><path class="k" d="M37.45,305a4.34,4.34,0,0,0,2.33,4v-7.63C38.35,301.8,37.45,303,37.45,305Z"/><path class="k" d="M42.84,317.25v8.44a3.57,3.57,0,0,0,2.76-3.81A4.66,4.66,0,0,0,42.84,317.25Z"/><path class="k" d="M78,298.07a4.91,4.91,0,0,0-.3-1.68,4.78,4.78,0,0,0-4.3-3.08,38,38,0,0,1-11.16,27.45c-.42.43-.86.84-1.3,1.24a38,38,0,0,0,9.84-28l-.2.12c0-.15,0-.3,0-.45a9.52,9.52,0,0,0-13.56-8.62,38.21,38.21,0,0,1-2,9c-.2.57-.41,1.13-.64,1.68A38.35,38.35,0,0,0,56,285.61l-.07.05a14.31,14.31,0,0,0-27.9,0,37.74,37.74,0,0,0,1.65,10.1c-.23-.55-.45-1.11-.65-1.68a38.33,38.33,0,0,1-2-9,9.53,9.53,0,0,0-13.64,8.59c0,.32,0,.63,0,.93l-.16-.14A38,38,0,0,0,23.14,322c-.44-.4-.88-.81-1.3-1.24a38,38,0,0,1-11.16-27.42l-.51,0a4.77,4.77,0,0,0-4.46,3.08,4.91,4.91,0,0,0-.3,1.68,4.39,4.39,0,0,0,.07.82c-.05.78-.07,1.56-.07,2.35a38.12,38.12,0,0,0,36.3,38.09A38.12,38.12,0,0,0,78,301.24c0-.79,0-1.57-.07-2.35A4.39,4.39,0,0,0,78,298.07ZM42.84,330.75v4.15H39.78v-4.15c-7.91-.62-9.35-4.87-9.35-9.78v-1H37c0,2.62.24,5.1,2.76,5.72v-9.63l-2.38-.86c-4.63-1.67-6.54-4.87-6.54-9.16,0-5.82,3.29-9.11,8.92-9.73V293h3.06v3.29c7,.57,8.82,4.77,8.82,9V306H45.08c0-2.43-.62-4.1-2.24-4.62v9l3.76,1.53c3.53,1.48,5.87,3.34,5.87,8.63C52.47,327.41,49.13,330.32,42.84,330.75Z"/><path class="d" d="M79.82,339.05a11,11,0,0,0-4.56-.73c.14,2.36-3.79,4.72-11.8,6.52l-1.38.3c7.6-1.87,11.07-4.29,10.41-6.66l-.21,0a.36.36,0,0,0,0-.11c0-1.25-4.51-2.26-10.08-2.26a40.35,40.35,0,0,0-4.28.22,5.36,5.36,0,0,1-2.15,2.13c-.21.14-.44.27-.68.4a3.71,3.71,0,0,0,1.74-2.4h-.07c-1.53-1.51-7.56-2.65-14.77-2.65S28.79,335,27.25,336.49a3.73,3.73,0,0,0,1.75,2.4c-.24-.13-.47-.26-.69-.4a5.37,5.37,0,0,1-2.15-2.13,41.44,41.44,0,0,0-4.35-.22c-5.57,0-10.08,1-10.08,2.26a.64.64,0,0,0,0,.23l-.16,0c-.52,2.34,3,4.71,10.44,6.55l-1.38-.3c-8-1.79-11.94-4.16-11.81-6.51H8.33a11.38,11.38,0,0,0-4.72.73c-.21.13-.32.26-.32.4a.34.34,0,0,0,.08.2,2.09,2.09,0,0,0-.08.55c0,4.86,17,8.83,38.42,9.06,21.39-.23,38.43-4.2,38.43-9.06a2.09,2.09,0,0,0-.08-.55.34.34,0,0,0,.08-.2C80.14,339.31,80,339.18,79.82,339.05Z"/><path class="d" d="M81.75,378.62,62.46,397.91h17a2.26,2.26,0,0,0,2.26-2.26Z"/><path class="k" d="M83.83,378.61v19.3h0A2.08,2.08,0,0,1,81.75,400H62.44v53.26a2.21,2.21,0,0,0,2.21,2.21h43.61a2.21,2.21,0,0,0,2.21-2.22v-72.7a1.93,1.93,0,0,0-1.93-1.93Zm20.63,70.26a13.73,13.73,0,0,1-2.47-1,13.09,13.09,0,0,1-1.58-.93,13.91,13.91,0,0,1-1.58.93,13.13,13.13,0,0,1-2.9,1.07,13.39,13.39,0,0,1-3.16.38,13.14,13.14,0,0,1-3.19-.39,12.93,12.93,0,0,1-2.93-1.09,13.66,13.66,0,0,1-1.56-.93,14.28,14.28,0,0,1-1.59,1,13.4,13.4,0,0,1-9.35,1.1,12.86,12.86,0,0,1-2.92-1.09A13.44,13.44,0,0,1,66.58,444l6.14-4.6a5.78,5.78,0,0,0,9.27,0l3.07-4.14,3.09,4.12a5.77,5.77,0,0,0,9.21.05l3-4,3,4a6.44,6.44,0,0,0,1,1Zm0-18.1a13.73,13.73,0,0,1-2.47-1,12,12,0,0,1-1.58-.94,12.65,12.65,0,0,1-1.58.94,13.13,13.13,0,0,1-2.9,1.07,13.39,13.39,0,0,1-3.16.37,13.65,13.65,0,0,1-3.19-.38,13.43,13.43,0,0,1-2.93-1.09,12.42,12.42,0,0,1-1.56-.94,14.36,14.36,0,0,1-1.59,1,13.35,13.35,0,0,1-2.94,1.1,13.82,13.82,0,0,1-3.21.38,13.29,13.29,0,0,1-6.12-1.47,13.55,13.55,0,0,1-4.65-3.92l6.14-4.6a5.78,5.78,0,0,0,9.27,0l3.07-4.15,3.09,4.13a5.78,5.78,0,0,0,9.21,0l3-4,3,4a6.1,6.1,0,0,0,1,1Z"/><path class="n" d="M203.47,470.85h1.35a3.83,3.83,0,0,0,0,5.29,3.83,3.83,0,0,0,2.7,6.53,7.64,7.64,0,0,1,7.63,7.64,7.2,7.2,0,0,1-.12,1.32,7.64,7.64,0,0,1-15.06,0,8.33,8.33,0,0,0-.11,1.33,7.64,7.64,0,0,0,7.64,7.64h.2a11.49,11.49,0,0,0,3.6-22.33,3.75,3.75,0,0,0-1-2.09,3.8,3.8,0,0,0,.08-5.33h1.81a3.83,3.83,0,0,0,3.65-2.69l9.57-30.61a3.83,3.83,0,0,0-3.65-5H193.9a3.83,3.83,0,0,0-3.65,5l9.57,30.61A3.83,3.83,0,0,0,203.47,470.85Z"/><path class="d" d="M200.05,471.3a5.48,5.48,0,0,1-1.81-2.65l-2.1-6.73a19.14,19.14,0,1,1-7.6-24.39,5.25,5.25,0,0,1,0-2.09,5.52,5.52,0,0,1,2.86-3.9,5.44,5.44,0,0,1,2.53-.62h1.7a7.73,7.73,0,0,1,0-2.54A30.38,30.38,0,0,0,185,424a7.64,7.64,0,0,1-12.36,0,30.62,30.62,0,0,0-10.7,4.41,7.63,7.63,0,0,1-8.75,8.73,30.69,30.69,0,0,0-4.43,10.65,7.65,7.65,0,0,1,0,12.39,30.47,30.47,0,0,0,4.44,10.71,7.64,7.64,0,0,1,8.65,8.66A30.47,30.47,0,0,0,172.54,484a7.65,7.65,0,0,1,12.49,0,30.53,30.53,0,0,0,10.55-4.4,7.63,7.63,0,0,1,4.47-8.22Z"/><path class="d" d="M195.92,458.45a0,0,0,1,0,0-.09,0,0,0,0,0,0,.09Z"/><path class="d" d="M205.79,65.44c.77-.13,1.53-.28,2.28-.43a28.7,28.7,0,0,1-13.32,9.44,23.39,23.39,0,0,0,4.79-5.61c.53-.85,1-1.75,1.49-2.68.85-.11,1.7-.23,2.54-.36h0a33.81,33.81,0,0,1-4.89-1.89,119.42,119.42,0,0,1-12,.68V56h1.29a44.68,44.68,0,0,1-3.29-3.89v1.37c-5.59,0-11-.18-16.14-.48a47,47,0,0,1,0-11.29c3.24-.18,6.62-.32,10.08-.39-.34-.83-.65-1.66-.94-2.51-3,.07-5.92.19-8.75.34A37.87,37.87,0,0,1,171.3,31q2.05-.25,4.17-.42c-.15-.83-.28-1.67-.39-2.51q-1.25.11-2.46.24.38-.69.78-1.35c.44-.69.89-1.35,1.36-2-.08-1-.13-1.94-.15-2.91a24.54,24.54,0,0,0-2.9,3.82,29.89,29.89,0,0,0-1.49,2.68c-1.2.15-2.38.32-3.55.51s-2.36.4-3.5.63A28.81,28.81,0,0,1,174.59,21c0-.17,0-.33,0-.5,0-.55,0-1.11,0-1.67-.3.12-.59.23-.88.36a30.7,30.7,0,0,0-13.5,11.16,29.2,29.2,0,0,0-1.8,3.06c-.35.67-.66,1.35-1,2a30,30,0,0,0-1.57,4.78c-.2.86-.37,1.73-.5,2.61a31,31,0,0,0,0,9c.13.88.3,1.75.5,2.61a30.36,30.36,0,0,0,1.57,4.78c.3.7.61,1.38,1,2a29.2,29.2,0,0,0,1.8,3.06A31.27,31.27,0,0,0,164,69a30.41,30.41,0,0,0,20.28,8.92q.66,0,1.32,0t1.32,0a30.32,30.32,0,0,0,10.58-2.37A30.7,30.7,0,0,0,207.23,69,31.91,31.91,0,0,0,211,64.38c.41-.61.79-1.23,1.15-1.87A33.64,33.64,0,0,1,205.79,65.44Zm-44.7-32.69q3.79-.87,7.94-1.46a38.65,38.65,0,0,0-1.4,4.3c-.32,1.21-.59,2.44-.8,3.7-3.08.19-6,.43-8.81.72A28.46,28.46,0,0,1,161.09,32.75Zm-3.63,19.37a28.4,28.4,0,0,1,0-9.5c2.82-.31,5.84-.57,9-.77a47.77,47.77,0,0,0,0,11C163.3,52.68,160.28,52.43,157.46,52.12Zm.56,2.6c2.78.29,5.73.54,8.81.73.21,1.26.48,2.49.8,3.7a39.34,39.34,0,0,0,1.4,4.3q-4.14-.59-7.94-1.47A28.46,28.46,0,0,1,158,54.72ZM163.17,65c1.14.23,2.31.44,3.5.63s2.35.37,3.55.52c.46.93,1,1.83,1.49,2.68a23.17,23.17,0,0,0,4.79,5.61A28.73,28.73,0,0,1,163.17,65Zm21.45,10.92h0l-.16,0c-4.15-.45-8-3.3-11.06-8.14-.27-.43-.53-.88-.78-1.34,3.89.41,7.91.64,12,.67Zm0-11.35a121.47,121.47,0,0,1-13.32-.83,38,38,0,0,1-2.43-8.18c5,.28,10.3.43,15.75.45Zm2.17,11.34-.17,0h0V67.11q6.15,0,12-.67c-.25.46-.51.91-.79,1.34C194.82,72.62,190.93,75.47,186.79,75.92Z"/><path class="n" d="M204.12,1.09c-6.54,9.73-16.37,15.93-27.36,16-.07,1.14-.1,2.29-.1,3.45,0,21,11.71,38.62,27.45,43.29,15.74-4.67,27.45-22.28,27.45-43.29,0-1.16,0-2.31-.1-3.45C220.48,17,210.66,10.81,204.12,1.09Z"/><path class="d" d="M98.93,114.94a3.83,3.83,0,0,1,3.74,3.84,3.75,3.75,0,0,1-.24,1.34,7.61,7.61,0,0,0-4.11-1.2,7.64,7.64,0,0,0-6.18,3.13,3.81,3.81,0,0,1,3-1.51h.25a3.85,3.85,0,0,1,3.16,2.06,3.77,3.77,0,0,1,.43,1.77,3.84,3.84,0,0,1-3.84,3.84,4.08,4.08,0,0,1-1.11-.16l-.33-.12-.71-.27a19.65,19.65,0,0,1-2.39-1.18,19.3,19.3,0,0,1-8-9.06c-.18-.43-.36-.88-.51-1.33a19.25,19.25,0,0,0-25-10.24,30.58,30.58,0,0,0,5.58,14.46A3.85,3.85,0,0,0,66,126.15a7.17,7.17,0,0,0,.07-1,7.66,7.66,0,0,0-.06-1,30.61,30.61,0,0,0,15.51,8.35,31,31,0,0,0,6.2.63,31.38,31.38,0,0,0,5.78-.54,30.34,30.34,0,0,0,8.43-2.94c.39-.2.78-.41,1.16-.63l.2-.15a7.64,7.64,0,0,0,3.21-6.24A7.68,7.68,0,0,0,98.93,114.94Zm-26.42,4.64a4.78,4.78,0,0,0,4.48-.12,9.36,9.36,0,0,0-1.91-3,9.52,9.52,0,0,1,3.08,3.25,9,9,0,0,1,.57,1.17A4.81,4.81,0,0,1,72.51,119.58Z"/><path class="k" d="M133.55,113.34v-.12l0-.48,0-.48V110c0-.3,0-.6,0-.9l0-.9c0-.15,0-.3,0-.45l0-.45-.06-.89-.08-.9,0-.44,0-.45-.11-.89-.12-.88-.06-.44-.07-.44-.15-.88-.16-.88-.09-.44-.09-.43A54.42,54.42,0,0,0,127.78,86l-.39-.78-.41-.77-.21-.39-.21-.38-.22-.37c-.07-.13-.14-.26-.22-.38-.29-.5-.59-1-.9-1.49l-.23-.36-.11-.19-.12-.18-.48-.72-.25-.36-.24-.36-.5-.7-.51-.7-.52-.69-.26-.34-.27-.33-.54-.68c-.37-.43-.73-.88-1.12-1.3-.75-.87-1.53-1.7-2.34-2.51l-.6-.6-.62-.59-.31-.29-.31-.29-.64-.57a52.06,52.06,0,0,0-5.35-4.15c-.46-.32-.94-.62-1.41-.93l-.71-.44-.36-.22-.36-.21-.73-.42-.73-.41-.37-.2-.37-.19-.74-.39A52.21,52.21,0,0,0,98,59.55l-.39-.13-.19-.07-.2-.07L96.42,59,96.23,59,96,58.9l-.4-.11-.39-.12-.2-.06-.2,0-.79-.22-.2-.06-.2,0-.4-.1-.4-.1-.2,0-.2-.05-.8-.17-.2-.05-.2,0-.41-.08-.4-.07-.2,0-.2,0-.81-.14-.2,0-.2,0-.41-.06-.4-.06-.2,0-.21,0L86.79,57c-.28,0-.55,0-.82-.06l-.8,0L82,56.66H80.33l-1.61,0-.41,0a.45.45,0,0,0,0,.9l.4,0,.54.06a8.73,8.73,0,0,0-.55,14.12,9.12,9.12,0,0,0,.82.56h0c.25.17.5.36.74.55a18.18,18.18,0,0,1-15.6,32,1.36,1.36,0,0,0,0-.2,3.84,3.84,0,1,0-.82,2.14,19.51,19.51,0,0,0,3.88.63,20.25,20.25,0,0,0,13.8-36.15c-.34-.27-.69-.53-1-.77h0a5.74,5.74,0,0,1-.5-.36A6.64,6.64,0,0,1,81.19,59a6.66,6.66,0,0,1,2-.6l1.75.38.77.16c.26.06.52.11.76.18l.74.21.18,0,.19.06.37.11.37.12.19.05.18.06.74.25.19.06.18.07.36.13.37.13.18.06.18.07.73.28.18.07.17.08.36.14.36.15.18.07.17.08.71.32.18.07.17.09.35.16.35.16.17.09.17.08.69.35.17.08.17.09.34.18a47.29,47.29,0,0,1,5.19,3.21l.61.45.31.22.3.23.6.46.59.48a3.36,3.36,0,0,1,.29.24l.29.24.58.49,1.12,1a48.19,48.19,0,0,1,4.12,4.34l.47.58a3.25,3.25,0,0,1,.23.29l.23.29.46.59.44.59c.58.8,1.14,1.61,1.67,2.44a45.82,45.82,0,0,1,5,10.53A44.17,44.17,0,0,1,121,100.93l0,.35c0,.12,0,.24,0,.35l0,.71v2.11l0,.7v.35l0,.34a8.13,8.13,0,0,0-1.23-.76,7.93,7.93,0,0,0-6.21-.39,7.87,7.87,0,0,0-2.64,1.54,8,8,0,0,0-2.26,8.64,8,8,0,0,0,4,4.51,7.79,7.79,0,0,0,3.07.82,7.58,7.58,0,0,0,2-.13q-.48,1.19-1,2.31a8.23,8.23,0,0,0-.43,1.11A7.7,7.7,0,1,0,131,128.07l.05-.15c.37-1.17.69-2.35,1-3.54s.53-2.38.75-3.58.38-2.4.51-3.6l.06-.48.05-.5v-.44l0-.42.11-1.7v-.32ZM112.37,112a3.84,3.84,0,1,1,3.59,4.07A3.82,3.82,0,0,1,112.37,112Z"/><path class="d" d="M498.25,184.29l-9.91-10a6.09,6.09,0,0,0-4.32-1.8H464.26a5.34,5.34,0,0,0-.89.07,5.13,5.13,0,0,0-3.57,1.5l-.73.74-.59.59-.59.59-.12.12-.83.83-.84.83L445.05,188.8a.28.28,0,0,0-.09.1.52.52,0,0,0-.1.11,1.77,1.77,0,0,0-.16.22l-.06.11a2.07,2.07,0,0,0-.22.51,2.1,2.1,0,0,0-.06.24,2.2,2.2,0,0,0,0,.36,1,1,0,0,0,0,.24,2.21,2.21,0,0,0,0,.35,2.1,2.1,0,0,0,.06.24,2.14,2.14,0,0,0,.22.52l.06.1a1,1,0,0,0,.08.11,1.56,1.56,0,0,0,.16.2l0,0a.28.28,0,0,0,.09.1l1.87,1.87c.06.07.13.13.19.19a5,5,0,0,0,.51.4l.15.1.05,0,.11.07.06,0,.1.06.06,0,.12.07,0,0,.17.07,0,0,.13.05.06,0,.11,0,.06,0,.11,0,.06,0,.14,0h0l.18,0h.05l.12,0h.07l.11,0H450l.17,0h1l.12,0h0l.15,0h0l.13,0h0l.11,0h0l.12,0h0l.15,0h0l.1,0,.05,0,.1,0,0,0,.14,0c.16-.07.33-.15.49-.24l.17-.09.11-.07.32-.21.32-.26.28-.26,11.56-11.56.46-.46.12-.13.47-.46.27-.27q.17-.16.3-.33l21.4,21.41,9.47-9.57A6.09,6.09,0,0,0,498.25,184.29Z"/><path class="k" d="M487.61,203.58l-20.22-20.22-1.05,1-11,11a6.74,6.74,0,0,1-1.62,1.2l-.63.3a6.82,6.82,0,0,1-2.56.5,6.75,6.75,0,0,1-2.56-.5,6.87,6.87,0,0,1-2.26-1.5l-1.87-1.87a4.18,4.18,0,0,1,0-5.89l9.88-9.88H439.13a6.07,6.07,0,0,0-4.31,1.8l-9.91,10a6.07,6.07,0,0,0,0,8.54l6.91,7,1.2-1.2a5,5,0,0,1,7.08,0l.45.45A5,5,0,0,1,442,208.4a5.14,5.14,0,0,1,6.37.69l.3.31a5.08,5.08,0,0,1,.56,6.55l.51,0a5.11,5.11,0,0,1,3.65,1.51l.24.24a5.14,5.14,0,0,1,.93,6,5.52,5.52,0,0,1,.71-.05,5,5,0,0,1,3.59,1.49l.33.33a5.1,5.1,0,0,1,.17,7l.86.86a5.14,5.14,0,0,0,7.28,0h0a5.14,5.14,0,0,0,.65-6.47l1.9,1.89a5.14,5.14,0,0,0,7.28,0h0a5.14,5.14,0,0,0,1-5.86,5.13,5.13,0,0,0,6.06-.9h0a5.14,5.14,0,0,0,0-7.27l-.66-.67a5.14,5.14,0,0,0,6.47-.66h0a5.14,5.14,0,0,0,0-7.27Z"/><path class="d" d="M458.07,226.57l-.33-.33a3.53,3.53,0,0,0-4.81-.16l-.18.16-.36.37-.06,0a4,4,0,0,0-.5.67,3.5,3.5,0,0,0,.56,4.26l.33.33a3.53,3.53,0,0,0,4.25.56,3.3,3.3,0,0,0,.67-.51l.06-.05.37-.37.16-.17a3.53,3.53,0,0,0-.16-4.81Z"/><path class="d" d="M452.5,223.86a3.6,3.6,0,0,0,0-5.08l-.24-.24a3.59,3.59,0,0,0-5.07,0l-.9.9-.59.59-.59.59L443.73,222a3.6,3.6,0,0,0,0,5.08l.24.24a3.59,3.59,0,0,0,5.07,0l1.39-1.39.58-.59.59-.59Z"/><path class="d" d="M437.57,212.19l.05-.05.59-.59,1.23-1.24a3.44,3.44,0,0,0,0-4.86L439,205a3.43,3.43,0,0,0-4.86,0l-1.21,1.21-.59.58-.07.08a3.48,3.48,0,0,0-.46.57,3.44,3.44,0,0,0,.46,4.3l.44.45a3.45,3.45,0,0,0,4.27.47A3.75,3.75,0,0,0,437.57,212.19Z"/><path class="d" d="M444.24,218.82l.58-.59,2.73-2.72a3.54,3.54,0,0,0,0-5h0l-.31-.3a3.54,3.54,0,0,0-5,0l-2.69,2.69-.59.59-.59.59-2,2a3.55,3.55,0,0,0,0,5l.31.3a3.54,3.54,0,0,0,5,0l2-2Z"/><path class="n" d="M431.12,441h.33a11.46,11.46,0,0,0,9.16-4.53l2.83-3.71a11.55,11.55,0,0,1-1.8-1.89l-6.09-8-6.09,8a11.46,11.46,0,0,1-8.34,4.51l.84,1.09A11.44,11.44,0,0,0,431.12,441Z"/><path class="d" d="M402.6,442.6c0-17.18-1.39-31-3.07-31s-3,13.85-3.07,31Z"/><path class="n" d="M399.26,412.63a6.11,6.11,0,0,1-6.13,6.13h-9.36v-.61a6.13,6.13,0,0,1,6.11-5.69h9.38Z"/><path class="n" d="M401.91,395.82a6.16,6.16,0,0,1,3.06,5.55,6.08,6.08,0,0,1-.82,2.83l-4.68,8.11-.54-.31a6.15,6.15,0,0,1-2.68-5.3,6.08,6.08,0,0,1,.82-2.83l4.69-8.13Z"/><path class="n" d="M399.69,412.53a6.13,6.13,0,0,1,8.38,2.24l4.68,8.12-.53.3a6.12,6.12,0,0,1-5.94-.33,6,6,0,0,1-2-2.12l-4.69-8.13Z"/><path class="d" d="M439,441.12c0-21.47-1.74-38.79-3.84-38.79s-3.8,17.32-3.83,38.79Z"/><path class="d" d="M431.28,456.33h-.16a26.62,26.62,0,0,1-12.1-2.87,26.57,26.57,0,0,1-3.16-1.88,25.68,25.68,0,0,1-3.15,1.88,27,27,0,0,1-5.79,2.13c-.77.18-1.56.33-2.35.45a38.52,38.52,0,0,0,31.82-.16,27.18,27.18,0,0,1-4.94.45Z"/><path class="n" d="M452.79,436.47a11.34,11.34,0,0,0,1.79,1.87,38.44,38.44,0,0,0,1.9-4.42,11.5,11.5,0,0,1-4.55,1.43Z"/><path class="n" d="M400.61,441a11.44,11.44,0,0,0,9.16-4.53l2.84-3.71a12,12,0,0,1-1.8-1.89l-6.09-8-6.09,8a11.46,11.46,0,0,1-8,4.48l.77,1A11.48,11.48,0,0,0,400.61,441Z"/><path class="d" d="M389.47,435.4a10.75,10.75,0,0,0,1.14,0l-5.4-7.21-2,2.76q.45,1.65,1,3.24A11.58,11.58,0,0,0,389.47,435.4Z"/><path class="d" d="M420,435.4h.28l.82,0-5.26-6.88-3.25,4.26A11.46,11.46,0,0,0,420,435.4Z"/><path class="d" d="M444.49,450a26.66,26.66,0,0,1-5.79-2.13,27.78,27.78,0,0,1-3.15-1.87,27.78,27.78,0,0,1-3.15,1.87,26.8,26.8,0,0,1-12.1,2.88H420A26.85,26.85,0,0,1,404.72,446a27.78,27.78,0,0,1-3.15,1.87,26.66,26.66,0,0,1-5.79,2.13l-.53.12a38.22,38.22,0,0,0,9.32,5.93c.79-.12,1.58-.27,2.35-.45a27,27,0,0,0,5.79-2.13,25.68,25.68,0,0,0,3.15-1.88,26.57,26.57,0,0,0,3.16,1.88,26.62,26.62,0,0,0,12.1,2.87h.33a27.18,27.18,0,0,0,4.94-.45,38.65,38.65,0,0,0,8.89-5.71Z"/><path class="d" d="M451.93,435.35l-5.23-6.85-3.26,4.26a11.46,11.46,0,0,0,7.36,2.64A10.56,10.56,0,0,0,451.93,435.35Z"/><path class="d" d="M454.58,438.34a11.34,11.34,0,0,1-1.79-1.87l-.86-1.12a10.56,10.56,0,0,1-1.13,0,11.46,11.46,0,0,1-7.36-2.64l-2.83,3.71a11.46,11.46,0,0,1-9.16,4.53h-.33a11.44,11.44,0,0,1-9.16-4.53l-.84-1.09-.82,0H420a11.46,11.46,0,0,1-7.36-2.64l-2.84,3.71a11.53,11.53,0,0,1-18.39-.09l-.77-1a10.75,10.75,0,0,1-1.14,0,11.58,11.58,0,0,1-5.28-1.26,38.51,38.51,0,0,0,11.06,16l.53-.12a26.66,26.66,0,0,0,5.79-2.13,27.78,27.78,0,0,0,3.15-1.87,26.92,26.92,0,0,0,3.15,1.87,26.8,26.8,0,0,0,12.1,2.88h.33a26.8,26.8,0,0,0,12.1-2.88,27.78,27.78,0,0,0,3.15-1.87,27.78,27.78,0,0,0,3.15,1.87,26.66,26.66,0,0,0,5.79,2.13l.79.18A38.58,38.58,0,0,0,454.58,438.34Z"/><path class="n" d="M434.78,403.66a7.66,7.66,0,0,1-4.09,6.78,7.55,7.55,0,0,1-3.57.89H415.41v-.78a7.65,7.65,0,0,1,4.07-6.21,7.55,7.55,0,0,1,3.57-.89h11.73Z"/><path class="n" d="M438.09,382.65a7.67,7.67,0,0,1,3.82,6.94,7.48,7.48,0,0,1-1,3.53L435,403.26l-.67-.38A7.68,7.68,0,0,1,432,392.7l5.86-10.15Z"/><path class="n" d="M435.32,403.53a7.65,7.65,0,0,1,10.47,2.81l5.85,10.14-.67.39a7.65,7.65,0,0,1-10-3.08l-5.86-10.15Z"/><path class="d" d="M329.26,451.23a23.68,23.68,0,0,0-24.2.3l.58.32a14.75,14.75,0,0,1,7.27,10.83,14.79,14.79,0,0,1,7.14,1.18l-12.51,21.68,1.38.8,12.56-21.76.07,0a14.84,14.84,0,0,1,5.37,5.33A14.81,14.81,0,0,1,341,469.6,23.64,23.64,0,0,0,329.26,451.23Z"/><path class="n" d="M306,485.67l.17-.3a38.38,38.38,0,0,0-11.06-31.86,38.86,38.86,0,0,0,13.06,1.94,13.7,13.7,0,0,0-3.17-2.52l-.54-.29-2-1,1.89-1.15a24.41,24.41,0,0,1,2.72-1.44,14.85,14.85,0,0,0-12.72-2.85,38.69,38.69,0,0,0,9.32-12.6,14.84,14.84,0,0,0-17.22,12.27l-.36-.42a14.81,14.81,0,0,0-20.93-.95,13.25,13.25,0,0,0-1.06,1.06,38.3,38.3,0,0,0,12.56,3.9A14.83,14.83,0,0,0,267.9,463c0,.51,0,1,.07,1.51a38.13,38.13,0,0,0,7.79-4,14.74,14.74,0,0,0,.88,8.48c.2.47.41.92.65,1.36A38.57,38.57,0,0,0,288.19,452a38.3,38.3,0,0,1,12,27.87,39.46,39.46,0,0,1-.28,4.64A37.66,37.66,0,0,1,306,485.67Z"/><path class="d" d="M304.91,489a26.19,26.19,0,0,1,10.49,2.18c0-.14,0-.28,0-.42a10.5,10.5,0,0,0-21,0v.42A26.27,26.27,0,0,1,304.91,489Z"/><path class="d" d="M480.18,332.4a.06.06,0,1,0,0-.12.06.06,0,1,0,0,.12Z"/><path class="o" d="M468.22,332.24v.91c0-.15,0-.3,0-.45S468.21,332.39,468.22,332.24Z"/><path class="d" d="M486.26,343.68h5.93a1.5,1.5,0,0,0,1.06-2.57,18.86,18.86,0,0,1-4.79-18.62,1.51,1.51,0,0,0-1.45-1.93h.65a1.45,1.45,0,0,0,1.45-1.45h0a1.44,1.44,0,0,0-.35-.95,7.18,7.18,0,0,0,1.84-4.33,19.39,19.39,0,0,0-.14-2,18.76,18.76,0,0,0-4.76-10.35c-.15-.18-.32-.35-.48-.52a2.91,2.91,0,0,0-4.75,2.23,2.88,2.88,0,0,0,.74,1.94,1.84,1.84,0,0,1,.22.17l.86.87,2.21,2.21a1.46,1.46,0,0,1-1,2.48,1.47,1.47,0,0,1-1-.43l-3.07-3.07,0-.05A7.26,7.26,0,0,0,478,318.15a1.43,1.43,0,0,0-.36,1h0a1.45,1.45,0,0,0,1.45,1.45h.65a1.51,1.51,0,0,0-1.45,1.93,18.86,18.86,0,0,1-4.79,18.62,1.5,1.5,0,0,0,1.07,2.57h5.92a8.71,8.71,0,0,0-8.7,8.7H495A8.71,8.71,0,0,0,486.26,343.68Z"/><path class="d" d="M428.1,343.68a11.67,11.67,0,0,0,2.52-4.13,11.84,11.84,0,0,0,.64-3.83,11.63,11.63,0,0,0-1.08-4.9h0a4.73,4.73,0,0,0-.23-.45,19.13,19.13,0,0,1-1.05-2.76,18.91,18.91,0,0,1-.77-5.35c0-.6,0-1.19.08-1.77a18.8,18.8,0,0,1,6.6-12.62h0l.12-.11.41-.33h0a18.69,18.69,0,0,1,8.6-3.76.29.29,0,0,1,.31.41L443,306.75s0,0,0,0l.05,0,10.44,4.89h0a4.35,4.35,0,1,1-4.74,6.84,4.25,4.25,0,0,1-.73-1.38h0a.05.05,0,0,0,0,0l-2.16-.06h0a7.21,7.21,0,0,1-2.7,2.53s0,0,0,0a3,3,0,0,0,.27.83,2.9,2.9,0,0,0,.67.85,2.8,2.8,0,0,0,.89.54,7,7,0,0,1,1.55.82,11.69,11.69,0,0,1,4.81,9.2v10.3a1.48,1.48,0,0,1-1.49,1.48h-7.05a8.71,8.71,0,0,1,8.7,8.7h-23.2a8.7,8.7,0,0,1,8.7-8.7Z"/><path class="p" d="M447.49,319.58a7.13,7.13,0,0,1-.54-.81h-.27a8.73,8.73,0,0,1-1.42,1.43.87.87,0,0,0,.27.14,8.47,8.47,0,0,1,1.84,1l2.49.09-.31-.15A5.93,5.93,0,0,1,447.49,319.58Z"/><path class="p" d="M497,306.14c-.15-1-.35-2.05-.59-3.06a36.43,36.43,0,0,0-1.84-5.61c-.35-.81-.72-1.62-1.12-2.4a36.53,36.53,0,0,0-2.11-3.58,35.73,35.73,0,0,0-28.23-15.87,15.06,15.06,0,0,0-3.1,0,35.8,35.8,0,0,0-28.22,15.87,34.64,34.64,0,0,0-2.11,3.58c-.4.78-.78,1.59-1.12,2.4a34.39,34.39,0,0,0-1.84,5.61c-.25,1-.44,2-.59,3.06a36.07,36.07,0,0,0,0,10.58c.14,1,.32,1.92.54,2.87a20.38,20.38,0,0,1,1.52-5.48c-.07-.89-.11-1.78-.11-2.68a34,34,0,0,1,.46-5.57q3.4-.37,7.09-.66a19.89,19.89,0,0,1,3.1-1.7,20.39,20.39,0,0,1,5-1.48,1.55,1.55,0,0,1,.31,0,2,2,0,0,1,1.84,2.6c4.67-.21,9.54-.32,14.51-.33V318.6l-2.78,0a5.92,5.92,0,0,1-1.16,1.57,5.85,5.85,0,0,1-2.13,1.35c2,0,4,.06,6.07.07v10c-2.5,0-5-.11-7.42-.25,0,.17,0,.34,0,.5v2.47q3.66.21,7.4.24v10.34h0l-.19,0a14.49,14.49,0,0,1-7.21-3v.31a3.15,3.15,0,0,1-2.64,3.1l.22.26a35.86,35.86,0,0,0,9.44,1.68c.52,0,1,0,1.55,0s1,0,1.55,0a35.5,35.5,0,0,0,9.66-1.76c.12-.14.26-.28.4-.42l0,0a2.91,2.91,0,0,1-.45-.26,3.17,3.17,0,0,1-1.1-1.38,3.23,3.23,0,0,1-.2-1.76,3.08,3.08,0,0,1,.72-1.51,15.5,15.5,0,0,1-9.23,4.78l-.2,0h0V334.57c4.62,0,9.15-.28,13.55-.73a16.78,16.78,0,0,0,.84-3.07,142,142,0,0,1-14.39.84v-10c4.77,0,9.45-.12,13.95-.31,0-.05,0-.09,0-.14a3.11,3.11,0,0,1-.74-2,3.06,3.06,0,0,1,.09-.74l0-.05c-4.3.17-8.76.27-13.3.28V304.26c5.63,0,11.14.15,16.37.41a4.52,4.52,0,0,1-.26-1.51,4.8,4.8,0,0,1,.24-1.46c-5.23-.25-10.72-.39-16.35-.41v-10a140.23,140.23,0,0,1,15.62,1,43.16,43.16,0,0,1,2.37,7.26,4.58,4.58,0,0,1,2.19-.85c-.08-.34-.16-.68-.25-1a47.19,47.19,0,0,0-1.64-5c3.23.46,6.34,1,9.3,1.72a33.57,33.57,0,0,1,3.6,8.51c-1.74-.18-3.53-.34-5.37-.49a21.64,21.64,0,0,1,1.82,3.13c1.44.13,2.84.27,4.21.42a34,34,0,0,1,0,11.14l-3.23.32a8.83,8.83,0,0,1-.63,1.07,3.53,3.53,0,0,1,.08.72,3.18,3.18,0,0,1-.27,1.27q1.72-.15,3.39-.33a33.26,33.26,0,0,1-3.6,8.51l-.89.21a16.93,16.93,0,0,0,.77,4.2c.39-.52.77-1.06,1.14-1.6a37.75,37.75,0,0,0,2.11-3.58c.4-.79.77-1.59,1.12-2.41a36.31,36.31,0,0,0,1.84-5.6c.24-1,.44-2,.59-3.06a37,37,0,0,0,0-10.58Zm-46.14-26.46a27,27,0,0,0-5.61,6.58,34.92,34.92,0,0,0-1.75,3.14c-1.4.18-2.79.38-4.16.6s-2.76.47-4.1.74A33.58,33.58,0,0,1,450.83,279.68ZM439.49,302c-3.61.23-7.06.51-10.32.85a33.57,33.57,0,0,1,3.6-8.51c3-.68,6.07-1.26,9.3-1.72a47.17,47.17,0,0,0-1.63,5C440.06,299,439.75,300.48,439.49,302Zm20.87-.66c-6.39,0-12.61.2-18.47.52a45.17,45.17,0,0,1,2.85-9.59,140.39,140.39,0,0,1,15.62-1Zm0-23.35v10.34c-4.8,0-9.51.3-14.08.79.3-.54.61-1.06.92-1.58,3.54-5.67,8.1-9,13-9.54l.19,0Zm2.34,10.34V277.94h0l.2,0c4.86.53,9.42,3.87,13,9.54.32.52.63,1,.92,1.58C472.22,288.58,467.51,288.32,462.7,288.28ZM483.76,290q-2.07-.33-4.17-.6a32.61,32.61,0,0,0-1.75-3.14,26.76,26.76,0,0,0-5.61-6.58,33.48,33.48,0,0,1,15.62,11.06C486.52,290.47,485.15,290.23,483.76,290Z"/><path class="o" d="M459.64,331.92v0Z"/><path class="o" d="M453,333v.9c0-.15,0-.3,0-.45S453,333.1,453,333Z"/></svg>